<svg width="187" height="140" viewBox="0 0 187 140" fill="none" xmlns="http://www.w3.org/2000/svg">
<path d="M187 122.448H0V122.541H187V122.448Z" fill="#EBEBEB"/>
<path d="M118.061 124.995H108.538V125.088H118.061V124.995Z" fill="#EBEBEB"/>
<path d="M170.335 127.018H147.771V127.111H170.335V127.018Z" fill="#EBEBEB"/>
<path d="M106.511 125.039H83.2V125.133H106.511V125.039Z" fill="#EBEBEB"/>
<path d="M68.083 127.837H63.206V127.93H68.083V127.837Z" fill="#EBEBEB"/>
<path d="M95.0297 127.837H72.8216V127.93H95.0297V127.837Z" fill="#EBEBEB"/>
<path d="M34.0003 126.259H19.62V126.352H34.0003V126.259Z" fill="#EBEBEB"/>
<path d="M88.638 105.767H16.4223C15.8566 105.766 15.3144 105.541 14.9147 105.14C14.515 104.74 14.2905 104.197 14.2905 103.632V2.11684C14.2955 1.55435 14.5221 1.01652 14.9213 0.620174C15.3204 0.223823 15.8598 0.000963569 16.4223 0H88.638C89.2044 0 89.7476 0.224994 90.148 0.625485C90.5485 1.02598 90.7735 1.56916 90.7735 2.13554V103.632C90.7735 104.198 90.5485 104.741 90.148 105.142C89.7476 105.542 89.2044 105.767 88.638 105.767ZM16.4223 0.0748003C15.8814 0.075791 15.363 0.29137 14.9808 0.67422C14.5987 1.05707 14.384 1.5759 14.384 2.11684V103.632C14.384 104.173 14.5987 104.691 14.9808 105.074C15.363 105.457 15.8814 105.673 16.4223 105.674H88.638C89.1793 105.673 89.6981 105.457 90.0808 105.075C90.4636 104.692 90.679 104.173 90.68 103.632V2.11684C90.679 1.57556 90.4636 1.05673 90.0808 0.673992C89.6981 0.291249 89.1793 0.0757889 88.638 0.0748003H16.4223Z" fill="#EBEBEB"/>
<path d="M169.538 105.767H97.3186C96.7526 105.766 96.21 105.541 95.8097 105.141C95.4094 104.74 95.1841 104.198 95.1831 103.632V2.11684C95.189 1.55401 95.4165 1.01619 95.8162 0.61994C96.216 0.223693 96.7558 0.000953061 97.3186 0H169.538C170.1 0.00194648 170.638 0.225241 171.037 0.621486C171.435 1.01773 171.661 1.555 171.666 2.11684V103.632C171.666 104.197 171.442 104.739 171.043 105.139C170.644 105.539 170.103 105.765 169.538 105.767ZM97.3186 0.0748003C96.7774 0.0757889 96.2585 0.291249 95.8758 0.673992C95.4931 1.05673 95.2776 1.57556 95.2766 2.11684V103.632C95.2776 104.173 95.4931 104.692 95.8758 105.075C96.2585 105.457 96.7774 105.673 97.3186 105.674H169.538C170.079 105.673 170.598 105.457 170.981 105.075C171.364 104.692 171.579 104.173 171.58 103.632V2.11684C171.579 1.57556 171.364 1.05673 170.981 0.673992C170.598 0.291249 170.079 0.0757889 169.538 0.0748003H97.3186Z" fill="#EBEBEB"/>
<path d="M73.289 90.0106H48.4554L46.9482 72.6196H71.7818L73.289 90.0106Z" fill="#E6E6E6"/>
<path d="M74.5756 90.0106H49.742L48.2348 72.6196H73.0684L74.5756 90.0106Z" fill="#F0F0F0"/>
<path d="M53.138 86.2743L52.3077 76.3521H69.6725L70.5028 86.2743H53.138Z" fill="white"/>
<path d="M78.8729 90.0106H75.9595V122.448H78.8729V90.0106Z" fill="#E6E6E6"/>
<path d="M79.7929 90.0106H77.7695V122.448H79.7929V90.0106Z" fill="#F0F0F0"/>
<path d="M51.5894 93.5898H79.7928V90.0106H51.5894V93.5898Z" fill="#F0F0F0"/>
<path d="M52.5844 93.5898H49.6709V122.448H52.5844V93.5898Z" fill="#E6E6E6"/>
<path d="M53.5044 93.5898H51.4811V122.448H53.5044V93.5898Z" fill="#F0F0F0"/>
<path d="M31.8461 93.5898H28.9327V122.448H31.8461V93.5898Z" fill="#E6E6E6"/>
<path d="M32.7661 93.5898H30.7428V122.448H32.7661V93.5898Z" fill="#F0F0F0"/>
<path d="M60.4346 93.5898H57.5212V122.448H60.4346V93.5898Z" fill="#E6E6E6"/>
<path d="M61.351 93.5898H59.3276V122.448H61.351V93.5898Z" fill="#F0F0F0"/>
<path d="M51.5896 90.0106H28.9327V93.5898H51.5896V90.0106Z" fill="#E6E6E6"/>
<path d="M136.076 9.12936H48.4367V57.9214H136.076V9.12936Z" fill="#E0E0E0"/>
<path d="M140.89 9.12936H48.8781V57.9214H140.89V9.12936Z" fill="#F5F5F5"/>
<path d="M139.386 56.4179V10.6328L50.3815 10.6328V56.4179L139.386 56.4179Z" fill="white"/>
<path d="M86.4202 56.4179L103.224 10.6328H75.4919L58.6881 56.4179H86.4202Z" fill="#F5F5F5"/>
<path d="M113.112 56.4179L129.916 10.6328H108.995L92.1909 56.4179H113.112Z" fill="#F5F5F5"/>
<path d="M163.853 75.8472H156.403V122.448H163.853V75.8472Z" fill="#E6E6E6"/>
<path d="M161.893 122.448H163.853V118.861H159.84L161.893 122.448Z" fill="#FAFAFA"/>
<path d="M95.1643 75.8472H87.7142V122.448H95.1643V75.8472Z" fill="#E6E6E6"/>
<path d="M163.853 75.8472H93.4551V121.479H163.853V75.8472Z" fill="#FAFAFA"/>
<path d="M162.522 90.5716H94.7903V77.6835H162.522V90.5716ZM95.1643 90.1976H162.148V78.0575H95.1643V90.1976Z" fill="#E6E6E6"/>
<path d="M150.599 83.9406H108.026C106.051 83.9406 104.148 82.3473 102.79 79.5648L102.663 79.2992H155.958L155.831 79.5648C154.462 82.3473 152.592 83.9406 150.599 83.9406ZM103.276 79.662C104.54 82.1416 106.268 83.5553 108.026 83.5553H150.599C152.364 83.5553 154.084 82.1416 155.348 79.662H103.276Z" fill="#E6E6E6"/>
<path d="M95.4149 122.448H93.4551V118.861H97.4682L95.4149 122.448Z" fill="#FAFAFA"/>
<path d="M162.522 105.094H94.7903V92.2209H162.522V105.094ZM95.1643 104.72H162.148V92.5949H95.1643V104.72Z" fill="#E6E6E6"/>
<path d="M150.599 98.478H108.026C106.051 98.478 104.148 96.881 102.79 94.1022L102.663 93.8329H155.958L155.831 94.1022C154.462 96.866 152.592 98.478 150.599 98.478ZM103.276 94.2069C104.54 96.6865 106.268 98.104 108.026 98.104H150.599C152.364 98.104 154.084 96.6865 155.348 94.2069H103.276Z" fill="#E6E6E6"/>
<path d="M162.522 119.643H94.7903V106.755H162.522V119.643ZM95.1643 119.269H162.148V107.129H95.1643V119.269Z" fill="#E6E6E6"/>
<path d="M150.599 113.012H108.026C106.051 113.012 104.148 111.418 102.79 108.64L102.663 108.37H155.958L155.831 108.64C154.462 111.418 152.592 113.012 150.599 113.012ZM103.276 108.744C104.54 111.224 106.268 112.638 108.026 112.638H150.599C152.364 112.638 154.084 111.224 155.348 108.744H103.276Z" fill="#E6E6E6"/>
<path d="M45.2465 82.0107V82.9158H44.6706L44.1918 90.0106H37.1457L36.6707 82.9158H36.091V82.0107H45.2465Z" fill="#E6E6E6"/>
<path d="M42.9277 64.4065C42.3517 60.1803 36.6482 58.9761 29.4113 58.819C22.526 58.6731 20.3194 56.2384 20.3194 56.2384C20.3194 56.2384 20.3418 66.1008 30.2641 69.6762C39.6851 73.0646 43.5074 68.6402 42.9277 64.4065Z" fill="#E6E6E6"/>
<path d="M39.4121 73.9847C39.5318 72.2493 42.3069 69.0553 48.9828 70.5065C53.8074 71.5574 55.6026 69.0553 55.6026 69.0553C55.6026 69.0553 55.1538 76.1165 47.8982 78.237C41.0054 80.2529 39.199 77.044 39.4121 73.9847Z" fill="#E6E6E6"/>
<path d="M40.9342 84.6736C40.9718 84.674 41.009 84.6661 41.0432 84.6506C41.0775 84.6351 41.1079 84.6123 41.1324 84.5838C41.6149 84.0116 41.2184 82.6428 40.6724 80.7466C39.9693 78.3156 39.0941 75.2862 39.8346 73.0908C40.2451 71.9312 40.7247 70.7972 41.2708 69.6949C42.318 67.4808 43.2231 65.5809 42.4676 63.5688C42.4558 63.5368 42.4378 63.5074 42.4146 63.4824C42.3914 63.4574 42.3635 63.4372 42.3324 63.4231C42.3014 63.409 42.2678 63.4011 42.2337 63.4C42.1997 63.3989 42.1657 63.4046 42.1338 63.4167C42.1019 63.4288 42.0727 63.4471 42.048 63.4706C42.0232 63.494 42.0033 63.5222 41.9895 63.5533C41.9757 63.5845 41.9682 63.6181 41.9674 63.6523C41.9667 63.6864 41.9727 63.7203 41.9851 63.752C42.6621 65.5435 41.843 67.2789 40.8033 69.478C40.2502 70.598 39.7632 71.7494 39.3447 72.9263C38.5556 75.275 39.4532 78.3904 40.175 80.8887C40.6013 82.3847 41.0427 83.8807 40.7397 84.2547C40.7157 84.2805 40.6973 84.3111 40.6857 84.3444C40.6741 84.3777 40.6695 84.4131 40.6723 84.4483C40.6751 84.4835 40.6853 84.5177 40.702 84.5487C40.7188 84.5798 40.7418 84.607 40.7696 84.6287C40.8174 84.6628 40.8758 84.6787 40.9342 84.6736Z" fill="#E6E6E6"/>
<path d="M93.5 139.337C133.549 139.337 166.015 137.442 166.015 135.104C166.015 132.766 133.549 130.87 93.5 130.87C53.4511 130.87 20.9851 132.766 20.9851 135.104C20.9851 137.442 53.4511 139.337 93.5 139.337Z" fill="#F5F5F5"/>
<path d="M93.4851 114.463H40.377L37.4711 29.0523H90.5791L93.4851 114.463Z" fill="#FF5700"/>
<path d="M96.1367 111.811H43.0287L40.119 26.4007H93.227L96.1367 111.811Z" fill="#FF5700"/>
<path opacity="0.3" d="M96.1367 111.811H43.0287L40.119 26.4007H93.227L96.1367 111.811Z" fill="white"/>
<path d="M78.3428 61.5469C84.0291 55.7625 83.7872 46.3039 77.8024 40.4206C71.8176 34.5373 62.3563 34.4572 56.6699 40.2416C50.9835 46.0261 51.2255 55.4847 57.2103 61.368C63.1951 67.2513 72.6564 67.3314 78.3428 61.5469Z" fill="#FF5700"/>
<path d="M79.8378 50.8977C79.9144 52.9328 79.4702 54.9539 78.5475 56.7695C77.5517 58.7261 76.0304 60.3665 74.1542 61.5067C72.2781 62.647 70.1213 63.2419 67.9259 63.2247C65.679 63.2126 63.4747 62.6098 61.5343 61.4767C59.5938 60.3437 57.9854 58.7204 56.8705 56.7695C55.8309 54.9818 55.2501 52.9645 55.18 50.8977C55.111 49.2951 55.3686 47.6953 55.937 46.1953C56.5054 44.6953 57.3729 43.3266 58.4867 42.1723C59.6004 41.0179 60.9372 40.1021 62.4159 39.4804C63.8946 38.8587 65.4842 38.544 67.0882 38.5557C70.3926 38.579 73.561 39.8745 75.9352 42.1728C78.3095 44.4712 79.7071 47.5958 79.8378 50.8977Z" fill="white"/>
<path opacity="0.6" d="M78.54 56.7695C77.5441 58.7261 76.0228 60.3665 74.1466 61.5067C72.2705 62.647 70.1138 63.2419 67.9184 63.2247C65.6714 63.2126 63.4671 62.6098 61.5267 61.4768C59.5862 60.3437 57.9779 58.7204 56.8629 56.7695C60.0259 54.613 63.7686 53.4667 67.5967 53.482C71.4865 53.4904 75.2895 54.6329 78.54 56.7695Z" fill="#032535"/>
<path opacity="0.6" d="M71.3487 50.5901C73.4397 48.4631 73.3507 44.9851 71.15 42.8218C68.9494 40.6584 65.4704 40.629 63.3794 42.756C61.2885 44.883 61.3774 48.361 63.5781 50.5243C65.7788 52.6877 69.2578 52.7171 71.3487 50.5901Z" fill="#032535"/>
<path d="M85.4665 80.8812H51.5896L51.3615 74.1492H85.2384L85.4665 80.8812Z" fill="white"/>
<path d="M85.8778 92.9128H51.9972L51.769 86.1808H85.6497L85.8778 92.9128Z" fill="white"/>
<path d="M72.8029 87.1084L64.6384 88.2304C64.5605 88.2392 64.4853 88.2641 64.4175 88.3035C64.3497 88.3428 64.2908 88.3958 64.2444 88.459C64.198 88.5222 64.1652 88.5944 64.1481 88.6709C64.131 88.7474 64.1298 88.8266 64.1448 88.9036L65.2181 94.3752C65.2533 94.5358 65.3472 94.6774 65.4815 94.7722C65.6157 94.867 65.7806 94.9082 65.9437 94.8876L74.1081 93.7656C74.1858 93.7557 74.2607 93.7301 74.3281 93.6901C74.3955 93.6502 74.454 93.5968 74.4999 93.5334C74.5459 93.4699 74.5783 93.3977 74.5951 93.3212C74.612 93.2447 74.613 93.1655 74.5981 93.0886L73.5284 87.617C73.4933 87.4567 73.3992 87.3154 73.2648 87.2212C73.1304 87.127 72.9656 87.0867 72.8029 87.1084ZM70.4579 92.6511L68.9619 92.8493L68.816 91.084C68.6619 91.0173 68.526 90.9146 68.4199 90.7844C68.3138 90.6542 68.2406 90.5004 68.2064 90.336C68.1789 90.2086 68.1785 90.0769 68.2051 89.9493C68.2317 89.8218 68.2848 89.7012 68.361 89.5955C68.4371 89.4897 68.5346 89.4011 68.6471 89.3354C68.7597 89.2697 68.8847 89.2283 69.0142 89.214C69.2799 89.1798 69.5487 89.2465 69.7675 89.4009C69.9863 89.5554 70.1393 89.7863 70.1961 90.048C70.2285 90.2061 70.2186 90.3699 70.1674 90.5229C70.1161 90.676 70.0254 90.8127 69.9044 90.9194L70.4579 92.6511Z" fill="#FF5700"/>
<path d="M71.995 86.8129C71.8506 86.8313 71.7046 86.795 71.5856 86.7113C71.4666 86.6276 71.3832 86.5024 71.3517 86.3603L71.247 85.8255C71.0975 85.0957 70.6884 84.4448 70.0956 83.9936C69.5027 83.5425 68.7664 83.3216 68.0231 83.3721C67.648 83.3935 67.2819 83.4953 66.9497 83.6707C66.6175 83.8461 66.3269 84.091 66.0977 84.3887C65.8685 84.6863 65.7061 85.0299 65.6214 85.3959C65.5367 85.7619 65.5319 86.1419 65.6071 86.5099L65.7267 87.127C65.7407 87.1954 65.7402 87.266 65.7253 87.3341C65.7104 87.4023 65.6814 87.4666 65.6402 87.523C65.599 87.5793 65.5465 87.6264 65.4861 87.6613C65.4256 87.6961 65.3586 87.718 65.2892 87.7254C65.1446 87.7456 64.9977 87.7101 64.8783 87.6261C64.7588 87.5421 64.6758 87.4158 64.6459 87.2729L64.5449 86.753C64.4422 86.2672 64.4388 85.7656 64.5349 85.2784C64.631 84.7912 64.8246 84.3284 65.1041 83.9179C65.3835 83.5075 65.7431 83.1577 66.1612 82.8897C66.5793 82.6218 67.0472 82.4411 67.5369 82.3585C68.5987 82.1802 69.6883 82.4176 70.5797 83.0214C71.4711 83.6252 72.0958 84.549 72.3241 85.6011L72.4438 86.2145C72.4577 86.2837 72.4569 86.3551 72.4413 86.424C72.4258 86.4929 72.3958 86.5577 72.3534 86.6142C72.3111 86.6707 72.2572 86.7176 72.1954 86.7519C72.1337 86.7861 72.0654 86.8069 71.995 86.8129Z" fill="#FF5700"/>
<path d="M80.2866 102.341H58.2318L58.0859 97.9581H80.137L80.2866 102.341Z" fill="#FF5700"/>
<path d="M69.6463 77.5153C69.6529 77.6751 69.6269 77.8347 69.57 77.9842C69.5131 78.1338 69.4264 78.2702 69.3152 78.3853C69.204 78.5003 69.0706 78.5916 68.9231 78.6535C68.7755 78.7155 68.6169 78.7469 68.4569 78.7457C68.1272 78.7431 67.811 78.614 67.5736 78.3851C67.3363 78.1561 67.196 77.8447 67.1816 77.5153C67.175 77.3554 67.201 77.1958 67.2579 77.0463C67.3148 76.8967 67.4015 76.7603 67.5127 76.6452C67.6239 76.5302 67.7573 76.4389 67.9048 76.377C68.0523 76.315 68.2109 76.2836 68.3709 76.2848C68.701 76.2864 69.0177 76.4152 69.2552 76.6444C69.4927 76.8736 69.6328 77.1855 69.6463 77.5153Z" fill="#263238"/>
<path d="M64.328 77.5153C64.3351 77.6753 64.3096 77.835 64.2529 77.9848C64.1961 78.1346 64.1095 78.2713 63.9982 78.3864C63.8868 78.5016 63.7532 78.5929 63.6054 78.6546C63.4577 78.7164 63.2989 78.7474 63.1387 78.7457C62.8093 78.7431 62.4935 78.6139 62.2568 78.3848C62.0201 78.1557 61.8805 77.8444 61.8671 77.5153C61.8605 77.3554 61.8865 77.1958 61.9434 77.0463C62.0003 76.8967 62.087 76.7603 62.1982 76.6452C62.3094 76.5302 62.4428 76.4389 62.5903 76.377C62.7378 76.315 62.8964 76.2836 63.0564 76.2848C63.3861 76.2865 63.7024 76.4154 63.9393 76.6447C64.1762 76.8739 64.3155 77.1858 64.328 77.5153Z" fill="#263238"/>
<path d="M59.0434 77.5153C59.05 77.6751 59.024 77.8347 58.9671 77.9842C58.9102 78.1338 58.8235 78.2702 58.7123 78.3853C58.6011 78.5003 58.4677 78.5916 58.3202 78.6535C58.1727 78.7155 58.0141 78.7469 57.8541 78.7457C57.5244 78.744 57.2081 78.6151 56.9712 78.3858C56.7343 78.1566 56.595 77.8447 56.5825 77.5153C56.5759 77.3554 56.6018 77.1958 56.6588 77.0463C56.7157 76.8967 56.8023 76.7603 56.9136 76.6452C57.0248 76.5302 57.1582 76.4389 57.3057 76.377C57.4532 76.315 57.6118 76.2836 57.7718 76.2848C58.1015 76.2865 58.4178 76.4154 58.6547 76.6447C58.8916 76.8739 59.0309 77.1858 59.0434 77.5153Z" fill="#263238"/>
<path d="M74.9459 77.5152C74.9525 77.6751 74.9265 77.8347 74.8696 77.9842C74.8127 78.1338 74.726 78.2702 74.6148 78.3853C74.5036 78.5003 74.3702 78.5916 74.2227 78.6535C74.0752 78.7155 73.9166 78.7468 73.7566 78.7457C73.4269 78.744 73.1106 78.6151 72.8737 78.3858C72.6368 78.1566 72.4975 77.8447 72.485 77.5152C72.4794 77.3558 72.5062 77.197 72.5639 77.0482C72.6215 76.8995 72.7088 76.764 72.8203 76.65C72.9319 76.536 73.0654 76.4459 73.2129 76.385C73.3603 76.3242 73.5185 76.2939 73.678 76.296C74.0052 76.2985 74.319 76.4263 74.5548 76.6531C74.7906 76.8799 74.9306 77.1884 74.9459 77.5152Z" fill="#263238"/>
<path d="M80.2454 77.5153C80.2526 77.6753 80.227 77.835 80.1703 77.9848C80.1136 78.1346 80.0269 78.2713 79.9156 78.3864C79.8043 78.5016 79.6706 78.5929 79.5229 78.6546C79.3751 78.7164 79.2163 78.7474 79.0561 78.7457C78.7267 78.7431 78.4109 78.6139 78.1742 78.3848C77.9375 78.1557 77.7979 77.8444 77.7845 77.5153C77.7779 77.3554 77.8039 77.1958 77.8608 77.0463C77.9177 76.8967 78.0044 76.7603 78.1156 76.6452C78.2268 76.5302 78.3602 76.4389 78.5077 76.377C78.6552 76.315 78.8138 76.2836 78.9738 76.2848C79.3035 76.2865 79.6198 76.4154 79.8567 76.6447C80.0937 76.8739 80.2329 77.1858 80.2454 77.5153Z" fill="#263238"/>
<path d="M124.882 44.6107C125.38 45.4111 125.795 46.174 126.221 46.9707C126.648 47.7673 127.033 48.5676 127.411 49.3867C128.181 51.0452 128.819 52.7623 129.318 54.5217C129.385 54.7424 129.434 54.978 129.49 55.2061L129.572 55.554L129.613 55.726L129.662 56.0102C129.746 56.655 129.707 57.31 129.546 57.9401C129.288 58.9184 128.895 59.8561 128.379 60.7264C127.456 62.308 126.341 63.769 125.058 65.076L123.484 63.8867C124.274 62.4338 124.977 60.9352 125.589 59.3987C125.862 58.7217 126.054 58.015 126.161 57.2931C126.196 57.0726 126.186 56.8475 126.132 56.6311L125.982 56.1748C125.922 55.9878 125.866 55.8008 125.795 55.6101C125.226 54.0671 124.568 52.5586 123.824 51.0921C123.076 49.5961 122.272 48.1001 121.468 46.6715L124.882 44.6107Z" fill="#FF8B7B"/>
<path d="M123.884 63.3668L122.163 64.2756L124.138 66.587C124.138 66.587 125.372 65.7529 125.428 64.4813L123.884 63.3668Z" fill="#FF8B7B"/>
<path d="M119.856 65.7006L121.969 67.3798L124.138 66.587L122.163 64.2756L119.856 65.7006Z" fill="#FF8B7B"/>
<path d="M112.63 32.3734C112.589 32.5829 112.443 32.7287 112.308 32.7025C112.174 32.6764 112.095 32.4819 112.136 32.2762C112.178 32.0705 112.323 31.9022 112.462 31.9471C112.6 31.9919 112.671 32.164 112.63 32.3734Z" fill="#263238"/>
<path d="M112.462 32.7325C112.085 33.3183 111.63 33.8494 111.108 34.3108C111.231 34.4384 111.38 34.538 111.546 34.6025C111.711 34.6671 111.888 34.6951 112.065 34.6848L112.462 32.7325Z" fill="#FF5652"/>
<path d="M111.789 40.0704V37.6169L115.035 37.9909C115.035 37.9909 114.983 40.1003 113.165 40.7211L111.789 40.0704Z" fill="#FF8B7B"/>
<path d="M112.724 35.8516L115.009 36.5099L115.05 38.0096L111.804 37.6169L112.724 35.8516Z" fill="#FF8B7B"/>
<path opacity="0.2" d="M115.009 36.5099L112.724 35.8516L112.279 36.7043C112.303 37.3762 112.513 38.0283 112.885 38.5881C113.258 39.1479 113.778 39.5937 114.388 39.8759C114.781 39.3274 115.01 38.6792 115.05 38.0059L115.009 36.5099Z" fill="black"/>
<path d="M113.625 31.3749C113.649 31.3742 113.672 31.3668 113.692 31.3535C113.712 31.3402 113.728 31.3215 113.738 31.2996C113.747 31.2777 113.751 31.2535 113.747 31.2297C113.744 31.206 113.734 31.1837 113.718 31.1654C113.587 31.0171 113.422 30.9023 113.237 30.8307C113.053 30.7592 112.853 30.7329 112.656 30.754C112.624 30.7595 112.595 30.7776 112.576 30.8042C112.557 30.8308 112.55 30.8639 112.555 30.8961C112.561 30.9286 112.579 30.9576 112.605 30.9772C112.632 30.9967 112.665 31.0052 112.697 31.0009C112.853 30.9855 113.011 31.0078 113.157 31.0657C113.302 31.1236 113.432 31.2155 113.535 31.3337C113.547 31.3462 113.56 31.3563 113.576 31.3634C113.591 31.3704 113.608 31.3743 113.625 31.3749Z" fill="#263238"/>
<path d="M118.405 36.1583C118.031 38.0844 117.799 40.751 119.153 42.0338C119.153 42.0338 118.629 43.9861 115.039 43.9861C111.108 43.9861 113.15 42.2732 113.15 42.2732C114.784 41.7646 114.769 39.9058 114.395 38.4098L118.405 36.1583Z" fill="#FF8B7B"/>
<path d="M119.882 43.3204C120.234 42.8267 120.219 41.2597 119.845 40.9829C119.242 40.5379 116.658 40.4331 113.184 41.2335C113.558 42.7519 112.754 43.5448 112.754 43.5448L119.882 43.3204Z" fill="#032535"/>
<path d="M131.573 132.112C131.466 132.149 131.353 132.165 131.24 132.159C131.127 132.153 131.017 132.124 130.915 132.074C130.876 132.039 130.85 131.992 130.839 131.94C130.828 131.888 130.834 131.835 130.855 131.786C130.867 131.746 130.887 131.709 130.915 131.677C130.943 131.645 130.977 131.62 131.016 131.603C131.371 131.431 132.187 131.764 132.224 131.779C132.235 131.783 132.245 131.791 132.251 131.801C132.258 131.811 132.261 131.823 132.261 131.835C132.261 131.847 132.258 131.859 132.252 131.869C132.246 131.88 132.238 131.889 132.228 131.895C132.017 131.988 131.798 132.06 131.573 132.112ZM131.143 131.689C131.118 131.695 131.095 131.704 131.072 131.715C131.049 131.724 131.028 131.738 131.011 131.756C130.994 131.774 130.982 131.796 130.975 131.82C130.941 131.932 130.975 131.97 130.997 131.981C131.139 132.101 131.663 131.981 132.033 131.843C131.752 131.726 131.448 131.674 131.143 131.689Z" fill="#032535"/>
<path d="M132.213 131.899H132.183C131.884 131.813 131.248 131.36 131.24 131.065C131.24 131.018 131.256 130.972 131.285 130.935C131.314 130.898 131.355 130.873 131.401 130.863C131.446 130.846 131.493 130.839 131.54 130.843C131.587 130.847 131.633 130.861 131.674 130.885C132.026 131.065 132.25 131.79 132.258 131.824C132.263 131.833 132.266 131.843 132.266 131.854C132.266 131.864 132.263 131.875 132.258 131.884C132.252 131.889 132.245 131.894 132.237 131.896C132.229 131.899 132.221 131.9 132.213 131.899ZM131.465 130.967H131.435C131.36 130.994 131.36 131.031 131.36 131.05C131.36 131.225 131.786 131.581 132.108 131.723C132.03 131.513 131.857 131.098 131.629 130.975C131.579 130.952 131.521 130.949 131.468 130.967H131.465Z" fill="#032535"/>
<path d="M112.148 132.553C111.811 132.553 111.486 132.504 111.377 132.355C111.349 132.315 111.334 132.267 111.334 132.218C111.334 132.169 111.349 132.122 111.377 132.082C111.399 132.045 111.427 132.014 111.461 131.988C111.495 131.963 111.534 131.945 111.575 131.936C112.013 131.816 112.933 132.34 112.97 132.362C112.982 132.368 112.991 132.377 112.997 132.389C113.002 132.4 113.003 132.413 113 132.426C112.999 132.439 112.993 132.451 112.985 132.46C112.976 132.47 112.964 132.476 112.952 132.478C112.686 132.527 112.417 132.552 112.148 132.553ZM111.732 132.041C111.693 132.034 111.652 132.034 111.613 132.041C111.587 132.046 111.563 132.056 111.542 132.071C111.521 132.086 111.503 132.105 111.489 132.127C111.445 132.205 111.463 132.243 111.489 132.265C111.613 132.437 112.275 132.441 112.765 132.37C112.445 132.195 112.094 132.083 111.732 132.041Z" fill="#032535"/>
<path d="M112.948 132.478H112.922C112.604 132.336 111.976 131.768 112.024 131.469C112.024 131.397 112.084 131.311 112.256 131.296C112.318 131.289 112.38 131.295 112.439 131.313C112.498 131.331 112.553 131.361 112.6 131.401C112.84 131.688 112.984 132.042 113.012 132.415C113.012 132.425 113.009 132.436 113.005 132.446C113 132.455 112.994 132.464 112.985 132.471C112.974 132.477 112.961 132.479 112.948 132.478ZM112.305 131.412H112.267C112.155 131.412 112.148 131.465 112.148 131.48C112.118 131.659 112.544 132.108 112.87 132.303C112.841 132.002 112.719 131.719 112.522 131.491C112.46 131.439 112.382 131.411 112.301 131.412H112.305Z" fill="#032535"/>
<path d="M115.835 132.418H113.206L112.944 126.326H115.574L115.835 132.418Z" fill="#FF8B7B"/>
<path d="M135.145 131.199L132.576 131.757L129.991 126.083L132.564 125.526L135.145 131.199Z" fill="#FF8B7B"/>
<path d="M132.325 131.498L135.216 130.874C135.266 130.863 135.319 130.87 135.365 130.893C135.412 130.916 135.449 130.954 135.47 131.001L136.473 133.178C136.499 133.23 136.513 133.289 136.513 133.348C136.513 133.407 136.499 133.465 136.472 133.518C136.445 133.57 136.405 133.615 136.358 133.65C136.31 133.685 136.254 133.707 136.196 133.716C135.186 133.914 134.681 133.963 133.413 134.236C132.632 134.408 130.866 134.838 129.785 135.07C128.705 135.302 128.334 134.266 128.757 134.075C130.646 133.211 131.431 132.452 131.943 131.745C132.036 131.619 132.172 131.531 132.325 131.498Z" fill="#263238"/>
<path d="M113.225 132.112H116.097C116.149 132.112 116.2 132.13 116.24 132.163C116.281 132.195 116.31 132.24 116.322 132.291L116.841 134.629C116.857 134.685 116.858 134.745 116.847 134.802C116.835 134.859 116.81 134.913 116.773 134.959C116.737 135.005 116.69 135.041 116.637 135.066C116.584 135.09 116.526 135.102 116.467 135.1C115.431 135.081 113.935 135.021 112.634 135.021C111.108 135.021 109.795 135.104 108.007 135.104C106.927 135.104 106.627 134.012 107.08 133.911C109.137 133.462 110.82 133.413 112.596 132.317C112.783 132.193 113 132.121 113.225 132.112Z" fill="#263238"/>
<path d="M123.858 42.636C126.322 43.2007 128.346 49.4951 128.346 49.4951L123.42 53.2613C122.142 51.8944 121.24 50.2191 120.802 48.3993C119.931 45.1006 121.337 42.0525 123.858 42.636Z" fill="#032535"/>
<path opacity="0.4" d="M123.858 42.636C126.322 43.2007 128.346 49.4951 128.346 49.4951L123.42 53.2613C122.142 51.8944 121.24 50.2191 120.802 48.3993C119.931 45.1006 121.337 42.0525 123.858 42.636Z" fill="black"/>
<path d="M110.891 50.1422C110.278 50.8042 109.664 51.3951 109.021 52.0122C108.703 52.3114 108.382 52.6106 108.052 52.8986L107.555 53.3361L107.432 53.4446L107.218 53.6166C106.999 53.7919 106.756 53.9355 106.497 54.043C106.208 54.1655 105.898 54.2291 105.584 54.23C105.316 54.2311 105.05 54.1843 104.799 54.0916C104.52 53.9854 104.265 53.8238 104.051 53.6166C103.777 53.3488 103.576 53.0154 103.467 52.648C103.41 52.4668 103.374 52.2799 103.359 52.0907C103.339 51.8692 103.339 51.6465 103.359 51.425C103.377 51.2455 103.4 51.0884 103.43 50.9425C103.532 50.4326 103.677 49.9321 103.864 49.4465C104.032 48.9849 104.225 48.533 104.443 48.0926C104.683 47.6177 104.911 47.2699 105.139 46.8734C106.066 45.3554 107.123 43.9213 108.299 42.5874C109.464 41.2613 110.747 40.0445 112.133 38.9521L113.509 40.3696C112.544 41.6636 111.594 43.0511 110.715 44.4162C109.841 45.7736 109.041 47.1782 108.322 48.6237C108.161 48.9753 107.948 49.3717 107.847 49.656C107.713 49.9862 107.597 50.3232 107.499 50.6658C107.405 50.9742 107.333 51.2893 107.286 51.6083C107.283 51.6581 107.283 51.708 107.286 51.7579C107.286 51.7878 107.286 51.8027 107.286 51.7242C107.28 51.6402 107.263 51.5574 107.237 51.4774C107.156 51.2122 107.008 50.9725 106.807 50.7817C106.628 50.6174 106.418 50.4902 106.19 50.4077C105.989 50.3316 105.776 50.2924 105.562 50.2918C105.355 50.2893 105.15 50.3287 104.959 50.4077C104.895 50.4341 104.832 50.4653 104.772 50.5012L104.915 50.3703L105.367 49.9589L106.261 49.1211C106.852 48.5639 107.447 47.9692 108.008 47.4157L110.891 50.1422Z" fill="#FF8B7B"/>
<path opacity="0.2" d="M121.745 47.2586C123.083 48.5826 123.521 50.9986 123.615 53.093L123.398 53.2613C122.119 51.8944 121.217 50.2192 120.78 48.3993C120.731 48.2049 120.686 48.0253 120.652 47.8122L121.745 47.2586Z" fill="black"/>
<path d="M108.277 45.254C107.738 48.0964 107.402 53.9346 108.961 65.4912H123.046C123.143 63.3332 121.786 52.7939 123.869 42.6173C122.312 42.3185 120.738 42.1198 119.156 42.0227C117.163 41.9084 115.165 41.9084 113.172 42.0227C112.514 42.0825 111.863 42.1798 111.302 42.2807C110.556 42.4116 109.868 42.766 109.327 43.2969C108.787 43.8279 108.421 44.5103 108.277 45.254Z" fill="#032535"/>
<path opacity="0.4" d="M108.277 45.254C107.738 48.0964 107.402 53.9346 108.961 65.4912H123.046C123.143 63.3332 121.786 52.7939 123.869 42.6173C122.312 42.3185 120.738 42.1198 119.156 42.0227C117.163 41.9084 115.165 41.9084 113.172 42.0227C112.514 42.0825 111.863 42.1798 111.302 42.2807C110.556 42.4116 109.868 42.766 109.327 43.2969C108.787 43.8279 108.421 44.5103 108.277 45.254Z" fill="black"/>
<path opacity="0.2" d="M110.431 49.469L107.888 48.8594C107.809 50.4003 107.802 52.3077 107.914 54.6676C109.085 53.3362 110.581 51.2567 110.431 49.469Z" fill="black"/>
<path opacity="0.2" d="M112.944 126.326L113.079 129.468H115.712L115.577 126.326H112.944Z" fill="black"/>
<path opacity="0.2" d="M132.564 125.526L129.991 126.083L131.323 129.008L133.896 128.45L132.564 125.526Z" fill="black"/>
<path d="M119.654 33.3459C118.981 35.8666 118.711 37.3776 117.155 38.4248C114.818 40.018 111.901 38.1929 111.826 35.53C111.744 33.1252 112.862 29.4039 115.566 28.8953C116.16 28.7837 116.773 28.8254 117.347 29.0162C117.92 29.2071 118.436 29.5409 118.845 29.9861C119.254 30.4314 119.543 30.9735 119.684 31.5613C119.826 32.1491 119.815 32.7633 119.654 33.3459Z" fill="#FF8B7B"/>
<path d="M113.752 33.4394C113.625 33.1028 113.045 30.496 113.591 29.819C114.137 29.1421 120.365 29.632 121.285 30.5371C122.814 32.0331 121.752 33.3795 120.08 35.1111C118.824 36.4127 118.775 37.8787 118.139 38.1031C117.017 38.4771 115.304 38.1256 114.96 36.94C114.616 35.7544 113.752 33.4394 113.752 33.4394Z" fill="#263238"/>
<path d="M120.529 27.5713C118.33 26.6363 114.205 27.6723 111.976 27.1337C111.947 27.9625 112.22 28.7737 112.743 29.4171C113.266 30.0606 114.005 30.493 114.822 30.6343C116.671 30.9867 118.549 31.1608 120.432 31.1542C122.878 31.042 122.399 28.3679 120.529 27.5713Z" fill="#263238"/>
<path d="M120.873 30.6156C121.676 30.6947 122.485 30.5401 123.203 30.1706C123.614 31.1654 121.352 31.4384 120.873 30.6156Z" fill="#263238"/>
<path d="M114.949 33.544C114.898 34.1926 114.636 34.8065 114.201 35.2906C113.625 35.9227 113.027 35.5262 112.926 34.7595C112.836 34.0639 113.023 32.8895 113.726 32.5529C114.429 32.2163 114.998 32.7624 114.949 33.544Z" fill="#FF8B7B"/>
<path d="M113.954 65.5024C113.954 65.5024 116.946 85.6049 118.58 93.1372C120.372 101.384 129.999 128.667 129.999 128.667L134.707 127.646C134.707 127.646 127.975 105.408 126.479 93.8778C125.32 85.0215 123.042 65.4949 123.042 65.4949L113.954 65.5024Z" fill="#032535"/>
<path d="M128.869 127.1C128.85 127.1 129.748 128.806 129.748 128.806L135.044 127.657L134.599 126.064L128.869 127.1Z" fill="#263238"/>
<path opacity="0.3" d="M115.843 72.6645C119.295 73.3414 118.928 86.2145 118.513 92.838C117.518 88.1556 116.06 79.1496 115.065 72.758C115.306 72.639 115.58 72.606 115.843 72.6645Z" fill="black"/>
<path d="M108.961 65.5024C108.961 65.5024 108.587 85.171 108.886 93.1784C109.186 101.522 112.099 128.843 112.099 128.843H116.557C116.557 128.843 116.718 102.008 116.931 93.8142C117.148 84.883 118.225 65.4874 118.225 65.4874L108.961 65.5024Z" fill="#032535"/>
<path d="M111.243 127.085C111.22 127.085 111.493 128.933 111.493 128.933H116.912L117.062 127.283L111.243 127.085Z" fill="#263238"/>
<path d="M113.789 46.1291C115.05 49.5288 107.641 53.5343 107.641 53.5343L104.432 49.4203C104.432 49.4203 106.59 45.1493 109.208 43.2269C112.443 40.8557 112.828 43.541 113.789 46.1291Z" fill="#032535"/>
<path opacity="0.4" d="M113.789 46.1291C115.05 49.5288 107.641 53.5343 107.641 53.5343L104.432 49.4203C104.432 49.4203 106.59 45.1493 109.208 43.2269C112.443 40.8557 112.828 43.541 113.789 46.1291Z" fill="black"/>
<path d="M142.82 20.3194C150.274 20.3194 156.317 16.4682 156.317 11.7174C156.317 6.96666 150.274 3.11542 142.82 3.11542C135.365 3.11542 129.322 6.96666 129.322 11.7174C129.322 16.4682 135.365 20.3194 142.82 20.3194Z" fill="#FFCC05"/>
<path d="M137.95 16.0483C137.061 16.0455 136.201 15.7293 135.522 15.1554C134.843 14.5816 134.387 13.7867 134.236 12.9105C134.087 11.9613 134.301 10.991 134.836 10.1926C135.37 9.39423 136.185 8.82634 137.12 8.60198C137.886 8.42534 138.689 8.49342 139.415 8.79665C140.141 9.09988 140.753 9.623 141.166 10.2925L149.832 8.50474C150.165 8.4318 150.513 8.48719 150.807 8.65982C151.101 8.83246 151.319 9.10964 151.418 9.436C151.463 9.60759 151.473 9.78662 151.447 9.96215C151.42 10.1377 151.359 10.306 151.265 10.4569C151.172 10.6078 151.049 10.738 150.903 10.8396C150.758 10.9413 150.593 11.0121 150.419 11.0479L150.195 11.0928C150.161 11.0988 150.13 11.1124 150.103 11.1325C150.075 11.1526 150.053 11.1787 150.038 11.2088C150.024 11.2393 150.017 11.2725 150.017 11.306C150.017 11.3395 150.024 11.3727 150.038 11.4032L150.191 11.7997C150.242 11.9282 150.247 12.0706 150.205 12.2023C150.163 12.3341 150.076 12.447 149.959 12.5215C149.867 12.5783 149.789 12.6553 149.732 12.7467C149.674 12.8381 149.638 12.9414 149.626 13.0488C149.615 13.1721 149.565 13.2888 149.484 13.3822C149.403 13.4755 149.294 13.5408 149.174 13.5687L148.998 13.6061C148.876 13.6286 148.75 13.6118 148.639 13.558C148.527 13.5042 148.435 13.4162 148.377 13.3069C148.299 13.1765 148.183 13.0735 148.044 13.0123C147.905 12.9512 147.751 12.9349 147.602 12.9658C147.453 12.9967 147.318 13.0732 147.215 13.1846C147.112 13.296 147.046 13.4368 147.027 13.5874C147.016 13.7099 146.967 13.8259 146.887 13.9187C146.806 14.0115 146.698 14.0762 146.578 14.1035L146.402 14.1409C146.28 14.1628 146.155 14.1457 146.043 14.092C145.932 14.0382 145.84 13.9507 145.781 13.8417C145.725 13.749 145.65 13.6695 145.56 13.6088C145.47 13.5481 145.369 13.5076 145.262 13.4902C145.118 13.4729 144.985 13.4036 144.889 13.2955C144.792 13.1874 144.739 13.0478 144.738 12.903V12.4766C144.736 12.4433 144.728 12.4106 144.712 12.381C144.697 12.3513 144.676 12.3252 144.649 12.3046C144.623 12.284 144.593 12.2694 144.56 12.2616C144.528 12.2539 144.494 12.2532 144.461 12.2597L141.697 12.8282C141.585 13.5939 141.239 14.3063 140.707 14.8684C140.175 15.4305 139.482 15.8151 138.724 15.9698C138.469 16.0219 138.21 16.0482 137.95 16.0483ZM137.202 8.94232C136.354 9.14047 135.612 9.65266 135.126 10.3758C134.64 11.0989 134.447 11.9792 134.584 12.8394C134.731 13.6397 135.16 14.361 135.792 14.8727C136.425 15.3844 137.22 15.6528 138.033 15.6293C138.847 15.6058 139.625 15.2919 140.227 14.7446C140.829 14.1972 141.215 13.4524 141.316 12.6449V12.5103L144.364 11.8932C144.451 11.872 144.542 11.8706 144.631 11.889C144.719 11.9075 144.801 11.9453 144.873 11.9997C144.945 12.0541 145.003 12.1238 145.045 12.2037C145.086 12.2836 145.109 12.3717 145.112 12.4617V12.888C145.113 12.9388 145.131 12.9877 145.164 13.0265C145.197 13.0654 145.242 13.0917 145.292 13.1012C145.455 13.1246 145.611 13.1849 145.748 13.2776C145.884 13.3703 145.998 13.4928 146.081 13.636C146.1 13.6764 146.132 13.7096 146.172 13.731C146.211 13.7525 146.257 13.7611 146.301 13.7557L146.473 13.7183C146.517 13.7071 146.556 13.6821 146.584 13.6471C146.612 13.612 146.629 13.5688 146.63 13.5238C146.654 13.291 146.751 13.0717 146.907 12.8976C147.064 12.7235 147.271 12.6037 147.5 12.5554C147.729 12.5071 147.968 12.5329 148.181 12.629C148.395 12.7251 148.572 12.8865 148.687 13.09C148.707 13.13 148.738 13.1631 148.777 13.1846C148.816 13.206 148.86 13.2148 148.904 13.2097L149.084 13.1723C149.127 13.1604 149.165 13.1351 149.192 13.1001C149.22 13.0651 149.236 13.0223 149.237 12.9778C149.256 12.8136 149.311 12.6558 149.4 12.5164C149.489 12.377 149.609 12.2598 149.75 12.1737C149.791 12.144 149.821 12.1013 149.835 12.0525C149.849 12.0038 149.847 11.9516 149.828 11.9044L149.675 11.508C149.643 11.4262 149.63 11.3386 149.635 11.2511C149.641 11.1636 149.666 11.0784 149.708 11.0015C149.75 10.9246 149.808 10.8577 149.879 10.8057C149.949 10.7536 150.03 10.7176 150.116 10.7001L150.344 10.6515C150.468 10.6252 150.585 10.5742 150.688 10.5017C150.791 10.4291 150.879 10.3365 150.946 10.2293C151.012 10.1221 151.057 10.0026 151.076 9.87783C151.095 9.75309 151.09 9.62571 151.059 9.50332C150.986 9.26796 150.826 9.0689 150.613 8.94612C150.399 8.82334 150.147 8.78591 149.907 8.84134L140.998 10.6926L140.931 10.5767C140.573 9.93951 140.017 9.43613 139.348 9.14262C138.678 8.84912 137.932 8.78143 137.221 8.9498L137.202 8.94232ZM137.95 14.657C137.485 14.6622 137.029 14.5323 136.637 14.283C136.173 13.9786 135.83 13.5227 135.664 12.9931C135.499 12.4634 135.523 11.8929 135.731 11.3787C135.939 10.8645 136.32 10.4385 136.807 10.1733C137.294 9.90811 137.858 9.82011 138.403 9.92434C138.948 10.0286 139.44 10.3186 139.795 10.7449C140.15 11.1712 140.346 11.7075 140.35 12.2622C140.354 12.817 140.165 13.356 139.816 13.7872C139.467 14.2184 138.979 14.5153 138.436 14.6271C138.277 14.6559 138.115 14.6685 137.954 14.6645L137.95 14.657ZM137.95 10.2401C137.811 10.2409 137.672 10.2547 137.535 10.2812C137.274 10.3367 137.027 10.443 136.808 10.594C136.588 10.745 136.401 10.9377 136.256 11.1612C136.111 11.3847 136.011 11.6345 135.963 11.8965C135.914 12.1584 135.918 12.4274 135.973 12.6879C136.029 12.9485 136.135 13.1955 136.286 13.415C136.437 13.6345 136.63 13.8221 136.853 13.9671C137.077 14.1121 137.327 14.2116 137.589 14.2601C137.85 14.3085 138.119 14.3049 138.38 14.2494C138.771 14.168 139.129 13.9726 139.41 13.6878C139.69 13.4031 139.88 13.0417 139.955 12.6493C140.03 12.2569 139.987 11.8511 139.832 11.4829C139.677 11.1147 139.416 10.8007 139.083 10.5804C138.752 10.3602 138.362 10.2443 137.965 10.2476L137.95 10.2401Z" fill="white"/>
<path opacity="0.6" d="M131.835 25.3647C134.285 25.3647 136.271 24.0988 136.271 22.5373C136.271 20.9757 134.285 19.7098 131.835 19.7098C129.385 19.7098 127.399 20.9757 127.399 22.5373C127.399 24.0988 129.385 25.3647 131.835 25.3647Z" fill="#FFCC05"/>
<path opacity="0.3" d="M124.778 26.5241C125.784 26.5241 126.599 26.005 126.599 25.3647C126.599 24.7243 125.784 24.2053 124.778 24.2053C123.772 24.2053 122.956 24.7243 122.956 25.3647C122.956 26.005 123.772 26.5241 124.778 26.5241Z" fill="#FFCC05"/>
</svg>
