<svg width="236" height="224" viewBox="0 0 236 224" fill="none" xmlns="http://www.w3.org/2000/svg">
<path d="M168.216 58.6253C168.216 58.6253 149.213 38.864 119.128 39.8093C89.0428 40.7546 63.3802 59.9021 42.1638 74.8832C20.9474 89.8643 15.2598 113.133 27.5931 131.3C39.9265 149.466 59.5806 141.819 84.6013 153.61C109.622 165.402 114.375 172.099 142.247 169.232C170.118 166.365 191.335 137.039 188.172 105.8C185.01 74.5606 168.216 58.6253 168.216 58.6253Z" fill="#00763D" fill-opacity="0.69"/>
<path opacity="0.7" d="M168.216 58.6253C168.216 58.6253 149.213 38.864 119.128 39.8093C89.0428 40.7546 63.3802 59.9021 42.1638 74.8832C20.9474 89.8643 15.2598 113.133 27.5931 131.3C39.9265 149.466 59.5806 141.819 84.6013 153.61C109.622 165.402 114.375 172.099 142.247 169.232C170.118 166.365 191.335 137.039 188.172 105.8C185.01 74.5606 168.216 58.6253 168.216 58.6253Z" fill="white"/>
<path d="M121.597 180.665C173.347 180.665 215.298 178.493 215.298 175.813C215.298 173.134 173.347 170.961 121.597 170.961C69.8468 170.961 27.8952 173.134 27.8952 175.813C27.8952 178.493 69.8468 180.665 121.597 180.665Z" fill="#00763D"/>
<path d="M176.972 102.682C176.943 102.682 177.297 101.011 177.335 100.89C177.741 99.698 179.27 97.6192 180.748 97.6237C180.993 97.6304 181.235 97.686 181.456 97.7871C181.678 97.8881 181.874 98.0323 182.033 98.2102C182.192 98.3881 182.31 98.5957 182.379 98.8196C182.448 99.0435 182.466 99.2787 182.433 99.5098C182.324 100.5 181.39 101.338 180.545 101.826C179.554 102.413 176.972 102.682 176.972 102.682Z" fill="#00763D"/>
<path d="M174.107 91.4323C175.499 91.9072 176.193 94.3533 176.146 95.6077C176.146 95.7152 175.881 97.3997 175.858 97.3997H175.829C175.938 97.785 176.056 98.2016 176.174 98.6541C176.382 99.4963 176.608 100.446 176.783 101.503C176.985 102.637 177.118 103.782 177.179 104.931C177.255 106.216 177.209 107.506 177.042 108.783C177.04 108.798 177.04 108.813 177.042 108.828C177.227 108.456 177.769 107.426 177.821 107.35C178.548 106.301 180.597 104.662 182.027 105.056C182.261 105.125 182.478 105.239 182.663 105.392C182.847 105.545 182.996 105.734 183.099 105.945C183.203 106.156 183.258 106.385 183.262 106.618C183.266 106.851 183.218 107.082 183.122 107.296C182.744 108.219 181.611 108.797 180.663 109.052C179.591 109.343 177.203 108.998 177.014 108.972C176.813 110.267 176.519 111.548 176.136 112.806C175.916 113.541 175.677 114.276 175.419 115.011C175.584 114.692 175.74 114.41 175.763 114.37C176.49 113.322 178.539 111.682 179.969 112.072C180.204 112.14 180.421 112.254 180.606 112.407C180.791 112.56 180.94 112.748 181.044 112.96C181.147 113.171 181.202 113.401 181.206 113.634C181.209 113.867 181.161 114.098 181.064 114.312C180.686 115.239 179.553 115.812 178.605 116.072C177.656 116.332 175.598 116.072 175.06 116.005C174.961 116.283 174.862 116.565 174.758 116.843C174.286 118.187 173.776 119.531 173.342 120.848C173.186 121.296 173.049 121.78 172.912 122.246C173.063 121.964 173.191 121.726 173.215 121.695C173.937 120.646 175.99 119.007 177.415 119.396C177.65 119.465 177.866 119.58 178.051 119.733C178.236 119.886 178.385 120.074 178.489 120.285C178.592 120.496 178.648 120.725 178.653 120.958C178.657 121.191 178.61 121.422 178.515 121.636C178.137 122.559 177 123.137 176.051 123.393C175.103 123.648 173.248 123.424 172.606 123.339C172.478 123.823 172.355 124.302 172.256 124.773C172.195 125.095 172.115 125.404 172.072 125.731C172.03 126.058 171.978 126.376 171.931 126.69C171.865 127.304 171.789 127.94 171.742 128.54C171.704 128.957 171.676 129.356 171.647 129.754C171.794 129.306 172.119 128.383 172.143 128.307C172.667 127.322 173.447 126.481 174.409 125.861C174.461 125.749 174.526 125.642 174.602 125.543C174.736 125.348 174.912 125.181 175.118 125.054C175.324 124.927 175.555 124.843 175.798 124.806C176.041 124.77 176.288 124.783 176.526 124.843C176.763 124.904 176.984 125.011 177.175 125.158C178.298 126.054 178.015 128.598 177.5 129.754C177.472 129.821 177.052 130.525 176.783 130.964C176.986 130.731 177.175 130.516 177.387 130.256C177.798 129.781 178.222 129.315 178.676 128.813L179.369 128.101C179.596 127.855 179.87 127.626 180.12 127.389C180.71 126.847 181.338 126.323 181.984 125.807C181.541 125.467 179.997 124.226 179.553 123.384C179.11 122.541 178.794 121.363 179.256 120.476C179.357 120.263 179.505 120.073 179.689 119.917C179.873 119.762 180.089 119.645 180.324 119.574C180.558 119.504 180.806 119.481 181.051 119.508C181.296 119.534 181.532 119.609 181.744 119.728C182.994 120.472 183.122 123.003 182.796 124.208C182.796 124.284 182.437 125.131 182.244 125.592C182.636 125.288 183.023 124.979 183.429 124.696C184.599 123.836 185.812 123.003 187.016 122.165L188.116 121.39C187.96 121.269 186.091 119.836 185.59 118.895C185.151 118.057 184.83 116.874 185.293 115.983C185.395 115.77 185.542 115.58 185.726 115.425C185.91 115.27 186.127 115.154 186.361 115.083C186.596 115.013 186.843 114.99 187.088 115.016C187.332 115.042 187.568 115.116 187.78 115.235C189.031 115.983 189.159 118.514 188.833 119.715C188.809 119.809 188.323 121.027 188.182 121.332C188.989 120.758 189.786 120.185 190.542 119.589C191.576 118.788 192.553 117.923 193.468 117C193.397 116.946 191.438 115.459 190.929 114.491C190.485 113.653 190.169 112.47 190.631 111.583C190.732 111.37 190.879 111.18 191.062 111.025C191.246 110.869 191.462 110.753 191.696 110.682C191.931 110.611 192.178 110.588 192.422 110.615C192.667 110.641 192.902 110.716 193.114 110.835C194.37 111.579 194.497 114.11 194.171 115.315C194.148 115.391 193.78 116.323 193.591 116.762L193.666 116.803C194.562 115.851 195.366 114.825 196.069 113.738C196.461 113.147 196.805 112.56 197.126 111.978C196.73 111.736 194.941 110.634 194.379 109.791C193.817 108.949 193.393 107.865 193.747 106.933C193.823 106.714 193.946 106.512 194.109 106.341C194.272 106.169 194.471 106.032 194.693 105.937C194.915 105.843 195.156 105.794 195.399 105.792C195.642 105.791 195.883 105.838 196.107 105.93C197.442 106.539 197.858 109.043 197.674 110.284C197.674 110.351 197.485 111.028 197.348 111.521C197.485 111.256 197.636 110.988 197.763 110.732C198.235 109.773 198.636 108.868 198.967 108.044C199.156 107.596 199.311 107.148 199.439 106.776C199.179 106.328 198.169 104.604 198.07 103.64C197.971 102.677 198.131 101.494 198.901 100.822C199.076 100.659 199.286 100.533 199.516 100.451C199.747 100.37 199.993 100.335 200.238 100.35C200.483 100.365 200.723 100.429 200.94 100.537C201.158 100.645 201.349 100.796 201.501 100.979C202.389 102.104 201.544 104.505 200.779 105.531C200.713 105.616 199.51 106.875 199.495 106.875V106.848C199.363 107.229 199.222 107.636 199.052 108.076C198.74 108.886 198.372 109.805 197.91 110.764C197.417 111.814 196.86 112.838 196.243 113.828C195.556 114.937 194.766 115.987 193.883 116.964L193.85 117C194.219 116.78 195.266 116.211 195.356 116.175C196.574 115.683 199.226 115.4 200.199 116.462C200.355 116.642 200.469 116.852 200.534 117.076C200.599 117.301 200.614 117.536 200.578 117.767C200.541 117.997 200.454 118.218 200.322 118.415C200.19 118.611 200.016 118.779 199.812 118.908C198.957 119.482 197.674 119.356 196.734 119.083C195.672 118.765 193.902 117.228 193.737 117.107C192.817 118.082 191.828 118.996 190.778 119.845C190.164 120.346 189.536 120.83 188.89 121.305C189.215 121.13 189.508 120.973 189.55 120.956C190.763 120.463 193.416 120.18 194.388 121.242C194.545 121.422 194.66 121.631 194.725 121.856C194.791 122.081 194.806 122.317 194.77 122.547C194.733 122.778 194.646 122.999 194.514 123.195C194.381 123.392 194.207 123.56 194.001 123.688C193.152 124.262 191.868 124.136 190.929 123.863C189.989 123.59 188.418 122.3 188.012 121.955L187.271 122.497C186.081 123.361 184.911 124.217 183.754 125.091C183.353 125.4 182.971 125.718 182.584 126.031C182.876 125.875 183.117 125.745 183.16 125.731C184.373 125.234 187.025 124.956 187.998 126.013C188.155 126.193 188.27 126.402 188.336 126.627C188.402 126.852 188.418 127.088 188.381 127.319C188.345 127.55 188.257 127.771 188.124 127.967C187.991 128.164 187.816 128.332 187.611 128.46C186.756 129.033 185.477 128.908 184.538 128.639C183.599 128.37 182.178 127.196 181.706 126.789C181.323 127.125 180.936 127.456 180.582 127.801C180.342 128.038 180.11 128.249 179.874 128.504C179.638 128.76 179.402 128.988 179.195 129.23C178.784 129.705 178.355 130.198 177.963 130.673C177.689 131 177.434 131.318 177.179 131.636C177.571 131.327 178.364 130.74 178.435 130.691C179.553 130.028 182.131 129.369 183.263 130.274C183.446 130.43 183.593 130.621 183.693 130.835C183.793 131.048 183.845 131.279 183.845 131.513C183.845 131.746 183.793 131.977 183.693 132.191C183.593 132.404 183.446 132.595 183.263 132.751C182.513 133.437 181.229 133.513 180.257 133.37C179.181 133.208 177.236 132.026 176.995 131.855C176.57 132.384 176.165 132.904 175.787 133.401C174.479 135.117 173.46 136.591 172.761 137.635L172.691 137.738L171.784 137.321C171.832 137.254 171.879 137.191 171.926 137.119C172.658 136.08 173.724 134.611 175.084 132.904C175.513 132.366 175.98 131.797 176.467 131.215C175.961 130.692 175.488 130.142 175.051 129.566C174.007 129.951 171.841 129.969 171.563 129.969C171.52 130.632 171.482 131.277 171.454 131.887C171.36 134.006 171.369 135.771 171.393 137.003V137.151L170.397 136.703C170.397 135.48 170.449 133.818 170.581 131.86C170.623 131.183 170.685 130.462 170.755 129.727C170.477 129.66 168.225 129.109 167.376 128.464C166.606 127.882 165.795 126.932 165.823 125.942C165.82 125.708 165.87 125.477 165.968 125.263C166.066 125.049 166.211 124.857 166.393 124.699C166.574 124.542 166.789 124.423 167.023 124.35C167.257 124.277 167.504 124.251 167.749 124.275C169.217 124.454 170.444 126.703 170.689 127.935C170.689 128.007 170.765 128.831 170.793 129.324C170.826 129.02 170.85 128.728 170.883 128.428C170.949 127.814 171.034 127.201 171.124 126.542C171.175 126.228 171.232 125.91 171.284 125.588C171.336 125.265 171.426 124.934 171.496 124.602C171.676 123.841 171.893 123.075 172.134 122.309C171.567 122.25 169.561 122.026 168.697 121.56C167.834 121.094 166.89 120.27 166.762 119.289C166.722 119.058 166.734 118.822 166.796 118.596C166.859 118.37 166.971 118.159 167.126 117.977C167.281 117.795 167.474 117.646 167.694 117.541C167.913 117.435 168.154 117.374 168.4 117.363C169.877 117.327 171.454 119.374 171.888 120.557C171.917 120.633 172.129 121.516 172.233 122.004C172.384 121.556 172.525 121.081 172.705 120.624C173.177 119.28 173.71 117.963 174.229 116.632C174.39 116.225 174.541 115.817 174.701 115.414C174.498 115.414 172.105 115.176 171.142 114.652C170.288 114.204 169.335 113.362 169.203 112.381C169.164 112.15 169.177 111.915 169.24 111.689C169.303 111.464 169.416 111.253 169.57 111.072C169.724 110.89 169.917 110.741 170.136 110.635C170.355 110.529 170.595 110.467 170.84 110.454C172.322 110.419 173.899 112.466 174.333 113.649C174.366 113.738 174.668 114.993 174.73 115.338C175.069 114.442 175.405 113.546 175.674 112.65C176.073 111.44 176.388 110.207 176.618 108.958C176.523 108.958 174.022 108.734 173.04 108.196C172.181 107.748 171.227 106.906 171.1 105.925C171.061 105.695 171.074 105.459 171.137 105.234C171.201 105.008 171.313 104.798 171.467 104.616C171.622 104.435 171.815 104.286 172.034 104.179C172.252 104.073 172.492 104.011 172.738 103.999C174.215 103.967 175.792 106.01 176.226 107.193C176.254 107.274 176.485 108.241 176.585 108.703H176.67C176.864 107.441 176.94 106.165 176.896 104.89C176.896 104.187 176.825 103.519 176.755 102.865C176.283 102.865 174.14 102.865 173.196 102.48C172.252 102.095 171.246 101.387 171.001 100.424C170.935 100.198 170.921 99.9618 170.958 99.7305C170.996 99.4992 171.084 99.2779 171.218 99.0813C171.351 98.8846 171.527 98.717 171.734 98.5893C171.941 98.4617 172.173 98.3769 172.417 98.3405C173.885 98.1523 175.688 100.02 176.259 101.154C176.287 101.217 176.533 101.875 176.698 102.355C176.665 102.063 176.632 101.759 176.589 101.481C176.443 100.428 176.235 99.4694 176.047 98.6272C175.933 98.1478 175.825 97.7312 175.716 97.3146C175.244 97.0906 173.394 96.1677 172.757 95.4195C172.119 94.6714 171.563 93.6006 171.813 92.6374C171.867 92.4078 171.971 92.1917 172.12 92.0034C172.268 91.815 172.457 91.6587 172.674 91.5448C172.891 91.4309 173.131 91.362 173.377 91.3426C173.624 91.3232 173.873 91.3538 174.107 91.4323Z" fill="#00763D"/>
<path d="M200.86 113.084C199.703 113.039 197.39 111.915 197.39 111.91C197.39 111.906 198.632 110.692 198.721 110.625C199.755 109.841 202.238 108.909 203.47 109.684C203.671 109.819 203.839 109.992 203.965 110.193C204.091 110.393 204.171 110.617 204.2 110.849C204.229 111.081 204.206 111.316 204.133 111.539C204.06 111.762 203.939 111.968 203.777 112.143C203.116 112.896 201.846 113.12 200.86 113.084Z" fill="#00763D"/>
<path d="M187.356 140.573C187.356 140.573 180.337 124.513 176.41 125.211C172.483 125.91 183.136 150.81 183.136 150.81C183.136 150.81 170.788 128.701 162.368 128.701C153.948 128.701 165.455 153.14 176.117 161.284C176.117 161.284 159.281 144.063 149.459 147.786C139.636 151.509 169.103 168.963 169.103 168.963C169.103 168.963 151.984 163.843 153.948 167.798C155.911 171.754 161.245 172.453 161.245 172.453L141.893 173.385H209.247L194.091 171.987C194.091 171.987 209.809 164.541 205.598 161.517C201.388 158.493 192.128 165.007 192.128 165.007C192.128 165.007 208.124 148.252 205.037 141.967C201.95 135.681 188.196 153.373 188.196 153.373C188.196 153.373 199.425 130.798 197.164 126.842C194.903 122.886 187.356 140.573 187.356 140.573Z" fill="#00763D"/>
<path d="M189.602 141.416C183.424 158.731 183.424 170.984 183.424 170.984C183.424 170.984 190.721 171.248 198.301 165.921" stroke="#263238" stroke-linecap="round" stroke-linejoin="round"/>
<path d="M186.516 150.743C185.241 145.566 183.551 140.488 181.46 135.556" stroke="#263238" stroke-linecap="round" stroke-linejoin="round"/>
<path d="M168.273 140.618L183.986 162.727C183.986 162.727 194.653 154.215 198.301 149.408" stroke="#263238" stroke-linecap="round" stroke-linejoin="round"/>
<path d="M183.707 168.058C183.707 168.058 167.149 160.599 160.414 156.352" stroke="#263238" stroke-linecap="round" stroke-linejoin="round"/>
<path d="M168.844 48.832H118.415C116.351 48.832 114.677 50.4206 114.677 52.3802V169.837C114.677 171.796 116.351 173.385 118.415 173.385H168.844C170.908 173.385 172.582 171.796 172.582 169.837V52.3802C172.582 50.4206 170.908 48.832 168.844 48.832Z" fill="white" stroke="#263238" stroke-linecap="round" stroke-linejoin="round"/>
<path d="M170.647 70.6362C170.443 70.6362 170.247 70.5593 170.103 70.4223C169.959 70.2854 169.877 70.0996 169.877 69.906V60.1172C169.893 59.9328 169.981 59.7606 170.124 59.6351C170.267 59.5095 170.454 59.4398 170.649 59.4398C170.844 59.4398 171.032 59.5095 171.175 59.6351C171.318 59.7606 171.406 59.9328 171.421 60.1172V69.888C171.423 69.9856 171.404 70.0826 171.366 70.1733C171.328 70.264 171.271 70.3466 171.199 70.4163C171.127 70.4859 171.041 70.5412 170.946 70.579C170.851 70.6168 170.75 70.6362 170.647 70.6362Z" fill="#263238"/>
<path d="M170.647 79.7037C170.443 79.7037 170.247 79.6268 170.103 79.4898C169.958 79.3529 169.877 79.1671 169.877 78.9734V73.5034C169.893 73.319 169.981 73.1469 170.124 73.0213C170.267 72.8957 170.454 72.826 170.649 72.826C170.844 72.826 171.032 72.8957 171.175 73.0213C171.318 73.1469 171.406 73.319 171.421 73.5034V78.9734C171.42 79.1675 171.338 79.3533 171.193 79.4901C171.047 79.6269 170.851 79.7037 170.647 79.7037Z" fill="#263238"/>
<path d="M164.478 48.832H114.049C111.985 48.832 110.311 50.4206 110.311 52.3802V169.837C110.311 171.796 111.985 173.385 114.049 173.385H164.478C166.542 173.385 168.216 171.796 168.216 169.837V52.3802C168.216 50.4206 166.542 48.832 164.478 48.832Z" fill="#263238" stroke="#263238" stroke-linecap="round" stroke-linejoin="round"/>
<path d="M164.36 57.1245H114.167V163.955H164.36V57.1245Z" fill="#FF5700"/>
<path d="M131.811 53.7108H145.173" stroke="white" stroke-width="3" stroke-linecap="round" stroke-linejoin="round"/>
<path d="M137.465 167.736C137.465 168.609 136.889 169.317 136.177 169.317C135.464 169.317 134.893 168.609 134.893 167.736C134.893 166.862 135.469 166.15 136.177 166.15C136.885 166.15 137.465 166.858 137.465 167.736Z" fill="white"/>
<path d="M139.264 83.7088C144.07 83.7088 147.967 79.3964 147.967 74.0768C147.967 68.7572 144.07 64.4448 139.264 64.4448C134.457 64.4448 130.56 68.7572 130.56 74.0768C130.56 79.3964 134.457 83.7088 139.264 83.7088Z" fill="white"/>
<path d="M139.264 73.9559C141.088 73.9559 142.568 72.3172 142.568 70.2957C142.568 68.2743 141.088 66.6356 139.264 66.6356C137.439 66.6356 135.96 68.2743 135.96 70.2957C135.96 72.3172 137.439 73.9559 139.264 73.9559Z" fill="#032535" fill-opacity="0.8"/>
<path d="M139.264 74.928C135.96 74.928 133.255 77.3338 133.255 80.304C133.258 80.5805 133.284 80.8562 133.335 81.1284C134.068 81.9402 134.977 82.592 136.001 83.0388C137.024 83.4856 138.137 83.717 139.264 83.717C140.39 83.717 141.503 83.4856 142.526 83.0388C143.55 82.592 144.459 81.9402 145.192 81.1284C145.239 80.8558 145.264 80.5802 145.267 80.304C145.267 77.3338 142.577 74.928 139.264 74.928Z" fill="#032535" fill-opacity="0.8"/>
<path d="M149.846 116.032H128.681C128.121 116.011 127.593 115.78 127.212 115.389C126.832 114.999 126.63 114.481 126.652 113.949V101.548C126.652 94.4026 132.316 88.5876 139.264 88.5876C146.211 88.5876 151.871 94.4116 151.871 101.548V113.94C151.883 114.204 151.84 114.467 151.745 114.715C151.649 114.963 151.503 115.19 151.315 115.385C151.127 115.579 150.901 115.736 150.649 115.847C150.396 115.958 150.124 116.021 149.846 116.032ZM130.706 111.866H147.816V101.562C147.816 96.7143 143.979 92.7674 139.264 92.7674C134.548 92.7674 130.706 96.7143 130.706 101.562V111.866Z" fill="#263238"/>
<path d="M153.957 107.569H124.57V133.956H153.957V107.569Z" fill="white"/>
<path d="M143.545 125.736L141.364 120.758C141.846 120.412 142.236 119.964 142.503 119.449C142.769 118.934 142.904 118.366 142.898 117.793C142.898 115.808 141.336 114.209 139.405 114.209C137.475 114.209 135.917 115.813 135.917 117.793C135.91 118.366 136.044 118.933 136.31 119.448C136.575 119.963 136.965 120.412 137.446 120.758L135.27 125.736H143.545Z" fill="#263238" stroke="#263238" stroke-linecap="round" stroke-linejoin="round"/>
<path d="M130.31 157.669C130.355 157.701 130.409 157.718 130.465 157.718C130.506 157.718 130.545 157.709 130.58 157.691C130.616 157.673 130.646 157.647 130.668 157.615L164.36 114.119V113.295L130.272 157.329C130.251 157.353 130.235 157.382 130.226 157.412C130.216 157.443 130.213 157.475 130.216 157.506C130.22 157.538 130.23 157.569 130.246 157.597C130.262 157.625 130.284 157.649 130.31 157.669Z" fill="white"/>
<path d="M157.582 72.7955C157.562 72.8213 157.547 72.8507 157.539 72.8818C157.531 72.913 157.53 72.9453 157.535 72.977C157.54 73.0087 157.552 73.0391 157.57 73.0664C157.588 73.0937 157.611 73.1173 157.639 73.136C157.694 73.1734 157.762 73.1886 157.829 73.1786C157.896 73.1685 157.957 73.134 157.997 73.0823L164.36 64.8704V64.064L157.582 72.7955Z" fill="white"/>
<path d="M114.167 129.678L155.76 75.9943C155.8 75.942 155.817 75.8768 155.806 75.8129C155.795 75.749 155.758 75.6918 155.703 75.6538C155.648 75.6158 155.58 75.6001 155.512 75.6102C155.445 75.6202 155.385 75.6553 155.345 75.7076L114.186 128.854L114.167 129.678Z" fill="white"/>
<path d="M126.402 162.965C126.442 162.964 126.481 162.955 126.517 162.938C126.553 162.921 126.585 162.896 126.609 162.866L128.969 159.837C128.989 159.812 129.004 159.782 129.012 159.751C129.02 159.72 129.021 159.688 129.016 159.656C129.011 159.624 128.999 159.594 128.981 159.567C128.963 159.539 128.94 159.516 128.913 159.497C128.857 159.46 128.789 159.444 128.722 159.454C128.655 159.464 128.594 159.499 128.554 159.551L126.194 162.575C126.174 162.6 126.159 162.629 126.15 162.66C126.142 162.691 126.14 162.724 126.145 162.755C126.15 162.787 126.161 162.817 126.179 162.845C126.196 162.872 126.219 162.896 126.246 162.915C126.29 162.948 126.345 162.966 126.402 162.965Z" fill="white"/>
<path d="M164.36 122.828L136.701 158.538C136.673 158.575 136.656 158.617 136.652 158.662C136.648 158.707 136.657 158.752 136.679 158.792C136.701 158.832 136.733 158.865 136.774 158.889C136.814 158.912 136.861 158.924 136.908 158.924C136.949 158.924 136.989 158.916 137.025 158.899C137.061 158.881 137.092 158.856 137.116 158.825L164.36 123.648V122.828Z" fill="white"/>
<path d="M67.2175 72.6387C67.6855 71.6545 67.9115 70.5821 67.8783 69.5027C67.8783 67.5002 65.3248 66.3398 62.3228 66.0218C59.3209 65.7037 57.9899 66.864 58.4336 67.6032C58.8946 68.2128 59.4574 68.747 60.0997 69.1846C60.0997 69.1846 57.0978 67.6032 55.0965 68.871C53.0952 70.1389 55.9886 69.6102 55.4316 70.8736C54.8747 72.137 51.7642 71.6128 50.9854 74.9862C50.2066 78.3597 52.4297 81.7376 50.4284 83.216C48.4272 84.6944 42.4044 82.6874 40.6486 86.3789C38.8928 90.0704 41.3849 91.7101 37.1652 94.0307C32.9456 96.3514 29.8681 98.6182 31.0906 104.312C32.3131 110.006 36.3156 112 44.2075 109.988C52.0993 107.977 51.5424 103.448 54.1195 98.7885C56.6966 94.1293 60.6803 95.097 61.9028 92.4582C63.1252 89.8195 61.5676 86.6566 61.6809 84.2285C61.7942 81.8003 64.3477 81.2762 65.3484 78.4045C66.349 75.5328 67.2175 72.6387 67.2175 72.6387Z" fill="#032535" stroke="#032535" stroke-linecap="round" stroke-linejoin="round"/>
<path d="M32.011 104.205C31.804 104.601 31.6988 105.039 31.7042 105.482" stroke="white" stroke-width="0.5" stroke-linecap="round" stroke-linejoin="round"/>
<path d="M62.9506 70.5465C62.9506 70.5465 61.5629 69.0233 64.2344 69.7312C67.5998 70.6272 63.6492 74.3232 62.1293 75.0669C59.0802 76.5498 55.0493 76.0749 52.6893 78.7718C50.5464 81.209 53.4398 83.7491 52.156 85.68C50.8721 87.6109 45.732 86.4909 44.0234 88.816C42.3148 91.1411 47.1244 96.1318 42.2015 98.8736C38.6426 100.858 34.7439 101.62 32.8606 103.192" stroke="white" stroke-width="0.5" stroke-linecap="round" stroke-linejoin="round"/>
<path d="M54.9691 79.5603C54.6774 80.2082 54.5889 80.9222 54.7142 81.6166C55.139 83.3414 57.6028 86.5939 55.3561 88.4217C53.1094 90.2496 49.2532 90.1465 48.616 92.288C47.9788 94.4294 49.2579 100.312 47.1197 103.04C44.9816 105.768 40.8044 105.58 38.5576 107.408C36.3109 109.236 36.6319 110.253 36.6319 110.253" stroke="white" stroke-width="0.5" stroke-linecap="round" stroke-linejoin="round"/>
<path d="M56.1019 77.5533C55.9073 77.8142 55.7277 78.0849 55.5638 78.3642" stroke="white" stroke-width="0.5" stroke-linecap="round" stroke-linejoin="round"/>
<path d="M68.6571 104.044L69.1999 108.076C69.1999 108.076 72.0319 110.764 74.1134 112.426C76.195 114.088 81.5285 117.605 81.5285 117.605L78.824 118.335C78.824 118.335 69.9834 113.362 68.237 112.959C66.4906 112.556 65.1832 110.163 64.6404 109.437C64.0976 108.712 67.2364 103.318 68.6571 104.044Z" fill="white" stroke="#263238" stroke-linecap="round" stroke-linejoin="round"/>
<path d="M74.0567 169.644C74.0567 169.644 76.7283 171.786 77.8327 172.502C78.9372 173.219 80.2258 173.542 80.0228 173.931C79.8198 174.321 79.2676 174.711 76.6669 174.379C74.0662 174.048 73.3157 173.21 72.8343 173.08C72.3528 172.95 71.1917 173.277 70.3043 172.758C69.417 172.238 70.8235 169.142 70.8235 169.142C71.2133 169.575 71.7517 169.862 72.3435 169.954C72.9353 170.046 73.5422 169.936 74.0567 169.644Z" fill="white" stroke="#263238" stroke-linecap="round" stroke-linejoin="round"/>
<path d="M80.0134 173.932C80.0155 173.911 80.0155 173.89 80.0134 173.869C78.5119 174 76.9977 173.865 75.5483 173.47C73.868 173.094 73.3724 172.247 71.7723 172.247C71.1444 172.252 70.5201 172.155 69.9268 171.96C69.9096 172.11 69.9311 172.261 69.9895 172.401C70.0479 172.54 70.1414 172.665 70.2619 172.762C71.1492 173.282 72.3151 172.955 72.7918 173.085C73.2685 173.215 74.0237 174.061 76.6244 174.384C79.2252 174.707 79.8057 174.321 80.0134 173.932Z" fill="white" stroke="#263238" stroke-linecap="round" stroke-linejoin="round"/>
<path d="M60.0714 83.0592C60.0714 83.0592 60.5859 86.3475 59.9251 87.6736C59.2643 88.9997 57.1969 89.143 55.4316 89.4253C53.6663 89.7075 49.6119 91.1725 50.0508 94.9491C50.4898 98.7258 55.5779 106.906 55.5779 109.213C55.5779 111.521 54.0298 112.708 52.3353 117.183C50.6408 121.659 50.8627 129.983 51.3913 135.368C51.7788 138.922 52.5184 142.433 53.6003 145.855C53.6003 145.855 49.3523 152.36 47.4643 155.156C45.5763 157.951 38.9683 170.124 38.9683 170.124C38.9683 170.124 38.9683 170.54 39.9972 170.822C40.7211 170.99 41.4701 171.037 42.2109 170.961C42.2109 170.961 54.8794 156.486 57.2394 154.04C59.5994 151.594 61.8083 147.32 62.101 145.367C62.3936 143.414 62.0302 131.452 62.0302 131.452C62.0302 131.452 64.6781 137.464 66.7502 140.542C68.007 142.426 69.1602 144.369 70.2052 146.366C69.9151 148.897 69.9151 151.451 70.2052 153.982C70.7197 157.476 70.2855 168.703 70.7999 169.613C71.3144 170.522 73.311 170.141 73.7547 169.725C74.1983 169.308 74.406 166.589 74.406 166.589C74.406 166.589 75.2887 158.077 75.822 154.072C76.3554 150.067 77.238 146.657 76.9312 145.748C76.6244 144.838 74.7931 135.117 73.3912 130.516C71.9894 125.915 67.7272 117.3 66.7832 115.064C65.8392 112.829 65.3059 110.795 65.4569 110.096C65.6079 109.397 68.4777 105.204 69.2329 104.084C69.6634 103.325 69.9009 102.48 69.9263 101.618C69.9517 100.757 69.7644 99.9009 69.3792 99.12C68.4966 97.3011 69.3792 94.8506 69.2329 93.3856C69.0866 91.9206 66.8021 91.2845 65.6221 90.729C64.4421 90.1734 63.9984 88.9101 63.9984 87.8618C64.0705 86.9787 64.2953 86.1129 64.6639 85.2992C64.6639 85.2992 61.0295 83.0592 60.0714 83.0592Z" fill="white" stroke="#263238" stroke-linecap="round" stroke-linejoin="round"/>
<path d="M69.0017 98.018C68.6135 97.0818 68.2903 96.1225 68.0341 95.1463" stroke="#263238" stroke-linecap="round" stroke-linejoin="round"/>
<path d="M59.4342 105.804C59.4342 105.804 60.7652 106.082 63.432 104.819" stroke="#263238" stroke-linecap="round" stroke-linejoin="round"/>
<path d="M73.4054 130.471C72.0696 126.063 68.1095 118.012 66.9248 115.356C61.2608 117.372 55.965 115.651 53.4775 114.54C53.1188 115.284 52.7318 116.144 52.3353 117.183C50.6408 121.663 50.8627 129.983 51.3913 135.368C51.7788 138.922 52.5184 142.433 53.6003 145.855C53.6003 145.855 49.3523 152.36 47.4643 155.156C45.5763 157.951 38.9683 170.124 38.9683 170.124C38.9683 170.124 38.9683 170.54 39.9972 170.822C40.7211 170.99 41.4701 171.037 42.2109 170.961C42.2109 170.961 54.8794 156.486 57.2394 154.04C59.5994 151.594 61.8084 147.32 62.101 145.367C62.3936 143.414 62.0302 131.452 62.0302 131.452C62.0302 131.452 64.6781 137.464 66.7502 140.542C68.007 142.426 69.1602 144.369 70.2052 146.366C69.9151 148.897 69.9151 151.451 70.2052 153.982C70.7197 157.476 70.2855 168.703 70.7999 169.613C71.3144 170.522 73.311 170.141 73.7547 169.725C74.1983 169.308 74.406 166.589 74.406 166.589C74.406 166.589 75.2887 158.077 75.822 154.072C76.3554 150.067 77.238 146.657 76.9312 145.748C76.6244 144.838 74.8072 135.085 73.4054 130.471Z" fill="#032535" stroke="#032535" stroke-linecap="round" stroke-linejoin="round"/>
<path d="M102.263 126.031V125.117H103.071V117.94H102.263H94.2961H93.489V125.117H94.2961V126.031H93.4843V127.698H96.5947V127.138H99.9648V127.698H103.075V126.031H102.263Z" fill="#FFCC05" stroke="#263238" stroke-linecap="round" stroke-linejoin="round"/>
<path d="M50.7682 115.795H106.351C106.574 115.795 106.787 115.879 106.945 116.028C107.103 116.178 107.191 116.381 107.191 116.592V118.196C107.191 118.407 107.103 118.61 106.945 118.76C106.787 118.909 106.574 118.993 106.351 118.993H50.7682V115.79V115.795Z" fill="#FFCC05" stroke="#263238" stroke-linecap="round" stroke-linejoin="round"/>
<path d="M90.6617 115.315H87.2775C87.0194 115.315 86.8102 115.514 86.8102 115.759V119.034C86.8102 119.279 87.0194 119.477 87.2775 119.477H90.6617C90.9198 119.477 91.129 119.279 91.129 119.034V115.759C91.129 115.514 90.9198 115.315 90.6617 115.315Z" fill="#FFCC05" stroke="#263238" stroke-linecap="round" stroke-linejoin="round"/>
<path d="M52.5073 118.743C53.2904 114.204 50.0484 109.922 45.2661 109.179C40.4838 108.435 35.9721 111.512 35.189 116.052C34.4059 120.591 37.6478 124.873 42.4301 125.616C47.2125 126.36 51.7241 123.282 52.5073 118.743Z" fill="#FFCC05" stroke="#263238" stroke-linecap="round" stroke-linejoin="round"/>
<path d="M45.6518 117.376C46.1605 117.145 46.5922 116.785 46.8994 116.336C47.2067 115.887 47.3776 115.367 47.3935 114.831C47.3935 113.196 45.8075 111.87 43.8487 111.87C41.8899 111.87 40.304 113.214 40.304 114.831C40.3188 115.367 40.4893 115.888 40.7967 116.337C41.1041 116.786 41.5363 117.146 42.0457 117.376C41.5366 117.608 41.1048 117.969 40.7975 118.418C40.4903 118.868 40.3195 119.389 40.304 119.925C40.304 121.56 41.8899 122.886 43.8487 122.886C45.8075 122.886 47.3935 121.542 47.3935 119.925C47.3769 119.39 47.2057 118.869 46.8986 118.419C46.5915 117.97 46.1602 117.609 45.6518 117.376Z" fill="white" stroke="#263238" stroke-linecap="round" stroke-linejoin="round"/>
<path d="M79.7963 119.065C79.7963 119.065 82.5433 120.167 83.3929 120.167C84.2425 120.167 85.2243 119.356 85.7104 118.375C86.1966 117.394 86.1824 116.928 85.8945 117.161L85.2856 117.609C85.2856 117.609 85.7576 116.628 85.2243 116.744C84.8549 116.861 84.5483 117.11 84.37 117.439C84.37 117.439 84.3086 116.57 83.8224 116.991C83.5007 117.267 83.214 117.578 82.9681 117.918C82.9681 117.918 82.9068 116.82 82.6 117.107C82.2932 117.394 81.1415 118.957 81.1415 118.957L79.7963 119.065Z" fill="white" stroke="#263238" stroke-linecap="round" stroke-linejoin="round"/>
<path d="M82.9681 117.909C82.9681 117.909 82.7841 119.298 81.8731 119.531L82.9681 117.909Z" fill="white"/>
<path d="M82.9681 117.909C82.9681 117.909 82.7841 119.298 81.8731 119.531" stroke="#263238" stroke-linecap="round" stroke-linejoin="round"/>
<path d="M84.37 117.448C84.37 117.448 83.898 119.643 83.1522 119.992L84.37 117.448Z" fill="white"/>
<path d="M84.37 117.448C84.37 117.448 83.898 119.643 83.1522 119.992" stroke="#263238" stroke-linecap="round" stroke-linejoin="round"/>
<path d="M85.2856 117.618C85.0422 118.419 84.7149 119.195 84.3086 119.934L85.2856 117.618Z" fill="white"/>
<path d="M85.2856 117.618C85.0422 118.419 84.7149 119.195 84.3086 119.934" stroke="#263238" stroke-linecap="round" stroke-linejoin="round"/>
<path d="M65.4474 90.5946C64.9721 90.2899 64.587 89.8745 64.3292 89.3882C64.0713 88.9019 63.9493 88.3609 63.9748 87.817C64.0594 86.9478 64.2922 86.0975 64.6639 85.2992C64.6639 85.2992 61.0531 83.0592 60.095 83.0592C60.095 83.0592 60.6095 86.3475 59.9487 87.6736C59.7321 88.0861 59.3789 88.4197 58.9433 88.6234C59.8159 90.8533 60.9985 92.9627 62.4597 94.8954C63.786 96.4768 64.4327 93.1437 65.4474 90.5946Z" fill="white" stroke="#263238" stroke-linecap="round" stroke-linejoin="round"/>
<path d="M54.3035 89.8777C53.4029 90.0237 52.5502 90.3664 51.813 90.8787C51.0758 91.3911 50.4741 92.0591 50.0555 92.83C48.6018 95.4911 42.2487 107.569 42.7915 108.291C45.8783 112.412 57.1072 115.378 58.2495 116.462C59.3914 117.596 60.6447 118.623 61.9924 119.531C63.1347 120.221 65.4144 119.925 65.8298 119.728C66.2451 119.531 66.5567 118.644 65.8298 118.644C65.5521 118.647 65.2815 118.56 65.0633 118.397C64.8451 118.234 64.6925 118.005 64.6309 117.748C64.5271 117.354 65.7731 118.142 66.3962 117.846C67.0192 117.551 65.0038 116.471 64.3807 115.978C63.7577 115.485 63.2385 114.8 62.4078 114.8C61.5771 114.8 60.0147 114.8 60.0147 114.8C60.0147 114.8 56.1915 112.17 53.8787 110.212C52.0791 108.671 50.1161 107.311 48.0212 106.154L55.0304 95.2089" fill="white"/>
<path d="M54.3035 89.8777C53.4029 90.0237 52.5502 90.3664 51.813 90.8787C51.0758 91.3911 50.4741 92.0591 50.0555 92.83C48.6018 95.4911 42.2487 107.569 42.7915 108.291C45.8783 112.412 57.1072 115.378 58.2495 116.462C59.3914 117.596 60.6447 118.623 61.9924 119.531C63.1347 120.221 65.4144 119.925 65.8298 119.728C66.2451 119.531 66.5567 118.644 65.8298 118.644C65.5521 118.647 65.2815 118.56 65.0633 118.397C64.8451 118.234 64.6925 118.005 64.6309 117.748C64.5271 117.354 65.7731 118.142 66.3962 117.846C67.0192 117.551 65.0038 116.471 64.3807 115.978C63.7577 115.485 63.2385 114.8 62.4078 114.8C61.5771 114.8 60.0147 114.8 60.0147 114.8C60.0147 114.8 56.1915 112.17 53.8787 110.212C52.0791 108.671 50.1161 107.311 48.0212 106.154L55.0304 95.2089" stroke="#263238" stroke-linecap="round" stroke-linejoin="round"/>
<path d="M64.376 115.983C63.753 115.49 63.2338 114.804 62.4031 114.804C61.5724 114.804 60.01 114.804 60.01 114.804C60.01 114.804 56.1868 112.175 53.874 110.217C52.0744 108.676 50.1114 107.315 48.0165 106.158L50.8202 101.777C49.3868 100.953 47.7472 100.509 46.0719 100.491C44.1839 104.227 42.4894 107.919 42.7679 108.308C45.8548 112.43 57.0836 115.396 58.2259 116.48C59.3678 117.614 60.6211 118.641 61.9688 119.549C63.1111 120.239 65.3908 119.943 65.8062 119.746C66.2216 119.549 66.5331 118.662 65.8062 118.662C65.5285 118.665 65.2579 118.578 65.0397 118.415C64.8215 118.252 64.6689 118.023 64.6073 117.766C64.5035 117.371 65.7496 118.16 66.3726 117.864C66.9956 117.569 64.9991 116.48 64.376 115.983Z" fill="white" stroke="#263238" stroke-linecap="round" stroke-linejoin="round"/>
<path d="M68.1757 78.2343C67.8075 77.5354 67.8075 76.9754 67.9538 75.9943C68.1001 75.0132 67.2175 72.6343 67.2175 72.6343C66.316 74.1127 63.7105 74.9908 62.5588 75.3223C61.2892 75.6896 63.1441 76.5229 62.9459 77.6384C62.7477 78.754 60.213 79.3991 60.213 79.3991C60.213 79.3991 59.472 77.952 58.443 77.952C57.414 77.952 56.6825 80.192 57.2677 81.3792C57.4202 81.7081 57.6859 81.9781 58.0212 82.1449C58.3565 82.3118 58.7415 82.3656 59.1132 82.2976C59.1132 82.2976 59.0425 84.3987 60.4396 85.0259C61.9303 85.7011 63.4855 86.2396 65.0841 86.6343C65.9667 86.7731 66.8493 86.3565 67.2175 85.0976C67.5054 83.829 67.7025 82.5432 67.8075 81.2493C68.4255 80.8655 68.9942 80.4144 69.502 79.9053C69.856 79.4215 68.5438 78.9332 68.1757 78.2343Z" fill="white" stroke="#263238" stroke-linecap="round" stroke-linejoin="round"/>
<path d="M66.7407 78.2656C66.7407 78.6508 66.6086 78.96 66.4481 78.96C66.2876 78.96 66.1555 78.6508 66.1555 78.2656C66.1555 77.8803 66.2876 77.5712 66.4481 77.5712C66.6086 77.5712 66.7407 77.8803 66.7407 78.2656Z" fill="#263238"/>
<path d="M65.4711 77.1097C65.4711 77.1097 66.2546 76.272 66.8399 76.4602" stroke="#263238" stroke-linecap="round" stroke-linejoin="round"/>
<path d="M66.8399 82.8532C66.4862 82.9544 66.1107 82.9664 65.7506 82.8878C65.3906 82.8092 65.0583 82.6429 64.7867 82.4052" stroke="#263238" stroke-linecap="round" stroke-linejoin="round"/>
<path d="M39.0013 170.124C39.0013 170.124 37.2408 173.475 37.3069 173.932C37.3729 174.388 40.8658 176.79 42.4989 177.632C44.132 178.474 47.0867 178.609 46.879 177.439C46.6714 176.27 43.8677 175.491 43.1833 173.734C42.8188 172.826 42.5037 171.9 42.2393 170.961C41.0983 170.977 39.9758 170.687 39.0013 170.124Z" fill="white" stroke="#263238" stroke-linecap="round" stroke-linejoin="round"/>
<path d="M46.8884 177.457C45.6318 177.617 44.353 177.445 43.1927 176.96C40.658 175.916 38.2036 173.784 37.5287 173.179C37.4088 173.42 37.3322 173.679 37.3021 173.945C37.3729 174.393 40.861 176.803 42.4941 177.645C44.1272 178.488 47.0584 178.604 46.8884 177.457Z" fill="white" stroke="#263238" stroke-linecap="round" stroke-linejoin="round"/>
</svg>
