<svg width="671" height="631" viewBox="0 0 671 631" fill="none" xmlns="http://www.w3.org/2000/svg">
<path d="M118.7 558.069C239.748 625.258 436.029 625.258 557.091 558.069C678.153 490.88 678.153 381.944 557.091 314.768C436.029 247.592 239.748 247.579 118.687 314.768C-2.37531 381.957 -2.36189 490.918 118.7 558.069Z" fill="#F5F5F5"/>
<path d="M464.303 523.387C497.055 523.387 523.606 508.974 523.606 491.194C523.606 473.414 497.055 459 464.303 459C431.551 459 405 473.414 405 491.194C405 508.974 431.551 523.387 464.303 523.387Z" fill="#E0E0E0"/>
<path d="M487.71 97.3506L498.003 102.941C497.947 102.523 497.915 102.101 497.909 101.679V98.8524C497.909 93.8044 501.64 91.8357 506.229 94.3344C508.206 95.4765 509.9 97.0042 511.195 98.8145C511.946 92.5045 517.18 90.2077 523.541 93.653C530.412 97.439 535.981 106.462 535.981 113.933V118.123C536.027 119.796 535.669 121.457 534.935 122.982L543.47 127.626C544.821 128.455 545.944 129.573 546.747 130.89C547.55 132.206 548.009 133.682 548.086 135.198C548.086 137.962 546.02 139.085 543.47 137.722L487.71 107.434C486.358 106.605 485.235 105.487 484.432 104.17C483.63 102.854 483.171 101.378 483.093 99.862C483.12 97.0856 485.16 95.9119 487.71 97.3506Z" fill="#ADF8F8"/>
<path d="M443.665 125.544L451.435 129.759C451.393 129.441 451.371 129.12 451.368 128.8V126.679C451.368 122.893 454.186 121.392 457.649 123.272C459.143 124.131 460.42 125.285 461.393 126.654C461.957 121.922 465.902 120.155 470.707 122.755C473.442 124.432 475.718 126.693 477.35 129.353C478.982 132.012 479.924 134.996 480.101 138.063V141.23C480.137 142.491 479.866 143.743 479.309 144.89L485.75 148.398C486.765 149.018 487.61 149.854 488.216 150.839C488.822 151.824 489.173 152.929 489.24 154.065C489.24 156.16 487.683 157.005 485.75 155.958L443.665 133.103C442.654 132.486 441.812 131.654 441.205 130.674C440.599 129.694 440.247 128.594 440.176 127.462C440.176 125.342 441.746 124.496 443.665 125.544Z" fill="#ADF8F8"/>
<path d="M104.582 373.047C104.725 374.882 105.326 376.66 106.336 378.236C107.345 379.813 108.735 381.144 110.393 382.121L273.218 470.461C275.019 471.32 277.009 471.768 279.029 471.768C281.048 471.768 283.039 471.32 284.839 470.461L507.611 349.498C509.367 348.627 510.837 347.321 511.862 345.722C512.887 344.123 513.429 342.292 513.429 340.425C513.429 338.557 512.887 336.726 511.862 335.127C510.837 333.528 509.367 332.222 507.611 331.351L344.8 243.011C342.999 242.152 341.008 241.704 338.989 241.704C336.97 241.704 334.979 242.152 333.178 243.011L110.406 363.974C108.746 364.95 107.353 366.28 106.342 367.856C105.33 369.433 104.727 371.211 104.582 373.047Z" fill="#37474F"/>
<path d="M279.029 459.999V471.824C277.009 471.876 275.009 471.442 273.218 470.562L110.393 382.222C108.691 381.378 107.257 380.126 106.237 378.591C105.217 377.056 104.648 375.295 104.588 373.487C104.528 371.678 104.979 369.887 105.895 368.295C106.811 366.704 108.159 365.369 109.802 364.428C107.199 366.182 107.4 368.756 110.393 370.384L273.218 458.724C275.007 459.608 277.008 460.047 279.029 459.999Z" fill="#263238"/>
<path d="M99.1335 364.163C97.5134 363.132 96.1754 361.755 95.2285 360.145C94.2817 358.536 93.7528 356.738 93.685 354.9V172.175C93.7952 170.279 94.3787 168.434 95.3882 166.789C96.3977 165.145 97.805 163.747 99.4959 162.71L322.268 41.7596C323.996 40.8985 325.916 40.4316 327.872 40.3965C329.828 40.3615 331.765 40.7592 333.527 41.5577C335.149 42.5916 336.488 43.9702 337.437 45.5817C338.386 47.1933 338.918 48.9925 338.989 50.8334V233.546C338.881 235.442 338.299 237.288 337.289 238.932C336.279 240.577 334.871 241.975 333.178 243.011L110.406 363.973C108.676 364.838 106.753 365.305 104.794 365.338C102.835 365.371 100.896 364.968 99.1335 364.163Z" fill="#455A64"/>
<path d="M109.708 364.302C108.042 365.008 106.232 365.362 104.405 365.338C102.577 365.314 100.778 364.913 99.1335 364.163C97.5157 363.13 96.1794 361.753 95.2328 360.143C94.2862 358.534 93.756 356.738 93.685 354.9V172.175C93.7509 170.274 94.338 168.423 95.3893 166.799L106.286 172.705C105.243 174.332 104.656 176.182 104.582 178.081V360.818C104.582 364.049 106.823 365.501 109.708 364.302Z" fill="#263238"/>
<path d="M104.582 178.093V360.818C104.582 364.302 107.186 365.715 110.393 363.973L333.165 243.011C334.857 241.974 336.266 240.577 337.275 238.932C338.285 237.288 338.868 235.442 338.976 233.546V50.8334C338.976 47.3502 336.372 45.9368 333.165 47.6784L110.393 168.628C108.703 169.667 107.296 171.065 106.287 172.709C105.277 174.353 104.693 176.198 104.582 178.093Z" fill="#37474F"/>
<path d="M110.393 370.283L273.218 458.623C275.019 459.483 277.009 459.93 279.029 459.93C281.048 459.93 283.039 459.483 284.84 458.623L507.612 337.661C510.819 335.919 510.819 333.092 507.612 331.351L344.8 243.011C342.999 242.152 341.008 241.704 338.989 241.704C336.97 241.704 334.979 242.152 333.178 243.011L110.406 363.973C107.186 365.715 107.186 368.504 110.393 370.283Z" fill="#455A64"/>
<path d="M113.52 178.775L328.24 62.1915C330.172 61.144 331.729 61.9895 331.729 64.0845V222.251C331.664 223.389 331.315 224.497 330.708 225.484C330.102 226.471 329.256 227.309 328.24 227.93L113.52 344.526C111.587 345.574 110.031 344.728 110.031 342.633V184.454C110.095 183.316 110.445 182.208 111.051 181.221C111.658 180.234 112.503 179.396 113.52 178.775Z" fill="white"/>
<path opacity="0.6" d="M113.52 178.775L328.24 62.1915C330.172 61.144 331.729 61.9895 331.729 64.0845V222.251C331.664 223.389 331.315 224.497 330.708 225.484C330.102 226.471 329.256 227.309 328.24 227.93L113.52 344.526C111.587 345.574 110.031 344.728 110.031 342.633V184.454C110.095 183.316 110.445 182.208 111.051 181.221C111.658 180.234 112.503 179.396 113.52 178.775Z" fill="#00763D"/>
<path d="M220.45 168.767C226.167 165.663 230.811 168.187 230.811 174.396C230.614 177.774 229.573 181.061 227.773 183.99C225.973 186.92 223.464 189.409 220.45 191.256C214.733 194.361 210.104 191.849 210.104 185.64C210.297 182.261 211.334 178.972 213.132 176.04C214.93 173.109 217.437 170.617 220.45 168.767Z" fill="#F0F0F0"/>
<path d="M240.862 201.983C240.862 191.786 233.24 187.256 223.846 192.354L217.981 195.61C208.587 200.658 200.964 213.114 200.964 223.374V226.125L240.862 204.469V201.983Z" fill="#F0F0F0"/>
<path d="M261.032 206.968C260.657 206.148 259.69 205.946 258.603 206.526L188.927 244.386C188.179 244.849 187.556 245.471 187.109 246.2C186.661 246.93 186.401 247.748 186.35 248.589V256.287C186.35 257.549 187.182 258.243 188.309 257.953L188.497 257.89C188.644 257.834 188.787 257.771 188.927 257.7L258.603 219.84C259.355 219.38 259.979 218.76 260.427 218.029C260.875 217.299 261.133 216.48 261.18 215.638V207.978C261.193 207.636 261.143 207.294 261.032 206.968Z" fill="#F0F0F0"/>
<path d="M195.221 245.345C196.563 244.601 197.677 245.207 197.677 246.671C197.633 247.471 197.388 248.25 196.961 248.943C196.534 249.637 195.937 250.225 195.221 250.658C193.879 251.39 192.778 250.797 192.778 249.321C192.822 248.524 193.067 247.748 193.491 247.057C193.916 246.366 194.508 245.779 195.221 245.345Z" fill="#00763D"/>
<path d="M203.326 240.941C204.668 240.209 205.769 240.802 205.769 242.279C205.725 243.076 205.481 243.852 205.056 244.543C204.631 245.234 204.039 245.82 203.326 246.254C201.984 246.999 200.871 246.393 200.871 244.992C200.903 244.181 201.144 243.389 201.571 242.684C201.999 241.979 202.601 241.381 203.326 240.941Z" fill="#00763D"/>
<path d="M211.419 236.549C212.761 235.817 213.861 236.411 213.861 237.875C213.819 238.674 213.576 239.452 213.151 240.145C212.727 240.839 212.133 241.427 211.419 241.862C210.077 242.594 208.963 242.001 208.963 240.537C209.006 239.737 209.252 238.958 209.679 238.264C210.106 237.571 210.702 236.983 211.419 236.549Z" fill="#00763D"/>
<path d="M219.511 232.208C220.853 231.464 221.967 232.069 221.967 233.47C221.923 234.27 221.678 235.05 221.251 235.743C220.824 236.436 220.227 237.024 219.511 237.458C218.169 238.19 217.068 237.597 217.068 236.196C217.11 235.397 217.354 234.618 217.778 233.925C218.203 233.232 218.797 232.643 219.511 232.208Z" fill="#00763D"/>
<path d="M227.603 227.753C228.945 227.021 230.059 227.614 230.059 229.091C230.01 229.89 229.763 230.667 229.336 231.36C228.91 232.053 228.316 232.641 227.603 233.079C226.261 233.811 225.161 233.218 225.161 231.741C225.208 230.943 225.453 230.167 225.878 229.474C226.302 228.781 226.893 228.192 227.603 227.753Z" fill="#00763D"/>
<path d="M235.709 223.374C237.051 222.642 238.151 223.235 238.151 224.636C238.109 225.435 237.866 226.214 237.441 226.907C237.017 227.6 236.423 228.189 235.709 228.624C234.367 229.356 233.253 228.763 233.253 227.362C233.296 226.562 233.542 225.783 233.969 225.089C234.396 224.396 234.992 223.808 235.709 223.374Z" fill="#00763D"/>
<path d="M243.801 218.97C245.143 218.238 246.244 218.831 246.244 220.295C246.202 221.094 245.958 221.872 245.534 222.566C245.109 223.259 244.515 223.848 243.801 224.283C242.459 225.015 241.359 224.422 241.359 222.958C241.401 222.158 241.644 221.38 242.069 220.687C242.493 219.993 243.087 219.405 243.801 218.97Z" fill="#00763D"/>
<path d="M251.893 214.54C253.235 213.808 254.349 214.401 254.349 215.878C254.301 216.677 254.053 217.454 253.626 218.147C253.2 218.839 252.606 219.428 251.893 219.866C250.551 220.598 249.451 220.005 249.451 218.528C249.5 217.73 249.747 216.955 250.171 216.262C250.595 215.57 251.185 214.98 251.893 214.54Z" fill="#00763D"/>
<path d="M129.288 365.551L336.077 253.233C336.978 252.804 337.973 252.58 338.982 252.58C339.992 252.58 340.987 252.804 341.888 253.233L352.463 258.975C352.813 259.087 353.118 259.299 353.333 259.582C353.549 259.865 353.665 260.204 353.665 260.553C353.665 260.901 353.549 261.24 353.333 261.523C353.118 261.806 352.813 262.018 352.463 262.13L145.647 374.435C144.747 374.864 143.751 375.088 142.742 375.088C141.732 375.088 140.737 374.864 139.836 374.435L129.288 368.706C128.938 368.594 128.633 368.382 128.418 368.099C128.202 367.816 128.086 367.477 128.086 367.128C128.086 366.78 128.202 366.441 128.418 366.158C128.633 365.875 128.938 365.663 129.288 365.551Z" fill="#37474F"/>
<path d="M156.544 380.354L363.333 268.036C364.234 267.607 365.229 267.383 366.239 267.383C367.248 267.383 368.243 267.607 369.144 268.036L434.204 303.372C434.555 303.484 434.859 303.696 435.075 303.979C435.29 304.262 435.406 304.602 435.406 304.95C435.406 305.298 435.29 305.637 435.075 305.92C434.859 306.203 434.555 306.415 434.204 306.527L227.657 418.668C226.753 419.095 225.756 419.317 224.745 419.317C223.734 419.317 222.736 419.095 221.833 418.668L156.558 383.484C156.21 383.374 155.907 383.164 155.693 382.885C155.478 382.605 155.361 382.269 155.36 381.924C155.358 381.578 155.472 381.242 155.684 380.96C155.897 380.679 156.197 380.467 156.544 380.354Z" fill="#263238"/>
<path d="M341.915 318.592L348.397 315.071C348.665 314.92 348.652 314.667 348.397 314.516L340.868 310.452C340.708 310.375 340.531 310.334 340.351 310.334C340.172 310.334 339.994 310.375 339.835 310.452L333.353 313.973C333.084 314.112 333.098 314.364 333.353 314.528L340.841 318.592C341.006 318.676 341.191 318.72 341.378 318.72C341.565 318.72 341.75 318.676 341.915 318.592ZM329.139 304.622L322.67 308.13C322.389 308.281 322.402 308.534 322.67 308.698L330.159 312.762C330.32 312.836 330.496 312.875 330.676 312.875C330.855 312.875 331.031 312.836 331.192 312.762L337.674 309.241C337.942 309.089 337.929 308.837 337.674 308.685L330.132 304.647C329.98 304.572 329.811 304.53 329.639 304.526C329.466 304.521 329.296 304.554 329.139 304.622ZM308.217 315.98L297.266 321.924C296.985 322.075 297.011 322.327 297.266 322.492L304.741 326.555C304.902 326.63 305.079 326.669 305.258 326.669C305.437 326.669 305.614 326.63 305.775 326.555L316.739 320.611C317.007 320.46 316.994 320.207 316.739 320.056L309.25 315.98C309.09 315.905 308.913 315.866 308.734 315.866C308.555 315.866 308.378 315.905 308.217 315.98ZM319.678 309.758L313.196 313.279C312.928 313.418 312.941 313.67 313.196 313.834L320.738 317.898C320.899 317.972 321.075 318.011 321.255 318.011C321.434 318.011 321.611 317.972 321.771 317.898L328.24 314.377C328.522 314.225 328.508 313.973 328.24 313.822L320.738 309.783C320.577 309.698 320.396 309.65 320.211 309.646C320.026 309.642 319.843 309.68 319.678 309.758ZM294.274 323.552L287.805 327.06C287.524 327.211 287.537 327.464 287.805 327.628L295.294 331.692C295.453 331.769 295.631 331.809 295.81 331.809C295.99 331.809 296.167 331.769 296.327 331.692L302.809 328.183C303.077 328.032 303.064 327.779 302.809 327.615L295.321 323.552C295.158 323.475 294.979 323.435 294.797 323.435C294.615 323.435 294.436 323.475 294.274 323.552ZM284.813 328.688L278.344 332.196C278.062 332.348 278.076 332.6 278.344 332.764L285.846 336.828C286.007 336.902 286.183 336.941 286.363 336.941C286.542 336.941 286.719 336.902 286.879 336.828L293.361 333.307C293.63 333.155 293.616 332.903 293.361 332.752L285.846 328.713C285.688 328.632 285.512 328.587 285.333 328.583C285.153 328.578 284.975 328.614 284.813 328.688ZM314.256 345.22L320.738 341.699C321.006 341.548 320.993 341.295 320.738 341.144L313.25 337.08C313.09 337.003 312.913 336.962 312.733 336.962C312.553 336.962 312.376 337.003 312.216 337.08L305.748 340.601C305.466 340.74 305.493 340.992 305.748 341.157L313.223 345.22C313.383 345.298 313.56 345.338 313.739 345.338C313.919 345.338 314.096 345.298 314.256 345.22ZM304.862 350.357L311.344 346.836C311.612 346.684 311.599 346.444 311.344 346.28L303.856 342.217C303.696 342.139 303.519 342.099 303.339 342.099C303.159 342.099 302.982 342.139 302.822 342.217L296.354 345.738C296.072 345.889 296.085 346.129 296.354 346.293L303.842 350.357C303.991 350.422 304.154 350.456 304.319 350.456C304.483 350.456 304.646 350.422 304.795 350.357H304.862ZM295.401 355.493L301.883 351.972C302.151 351.833 302.138 351.581 301.883 351.417L294.395 347.353C294.235 347.275 294.058 347.235 293.878 347.235C293.698 347.235 293.521 347.275 293.361 347.353L286.785 350.836C286.504 350.988 286.517 351.24 286.785 351.391L294.274 355.455C294.434 355.543 294.614 355.592 294.799 355.599C294.984 355.605 295.167 355.569 295.334 355.493H295.401ZM286.007 360.629L292.489 357.108C292.757 356.969 292.744 356.717 292.489 356.553L285.001 352.489C284.84 352.415 284.663 352.376 284.484 352.376C284.305 352.376 284.128 352.415 283.967 352.489L277.485 356.01C277.217 356.162 277.23 356.414 277.485 356.566L284.974 360.629C285.112 360.684 285.26 360.712 285.41 360.712C285.56 360.712 285.708 360.684 285.846 360.629H286.007ZM332.588 323.728L339.056 320.207C339.338 320.056 339.325 319.816 339.056 319.652L331.474 315.588C331.314 315.511 331.137 315.471 330.957 315.471C330.778 315.471 330.6 315.511 330.441 315.588L323.959 319.109C323.69 319.261 323.704 319.501 323.959 319.665L331.474 323.703C331.625 323.776 331.791 323.817 331.961 323.821C332.13 323.825 332.299 323.794 332.454 323.728H332.588ZM323.865 340.134L338.184 332.234C338.452 332.083 338.439 331.83 338.184 331.679L319.946 321.81C319.786 321.733 319.609 321.692 319.43 321.692C319.25 321.692 319.073 321.733 318.913 321.81L311.451 325.861C311.17 326.013 311.183 326.265 311.451 326.429L321.087 331.654C321.382 331.818 321.396 332.07 321.087 332.209L315.115 335.452C314.833 335.604 314.86 335.856 315.115 336.02L322.603 340.084C322.776 340.173 322.97 340.22 323.167 340.22C323.364 340.22 323.558 340.173 323.731 340.084L323.865 340.134ZM275.553 333.824L269.071 337.345C268.803 337.484 268.816 337.737 269.071 337.901L276.452 342.002C276.613 342.077 276.789 342.115 276.969 342.115C277.148 342.115 277.325 342.077 277.485 342.002L283.954 338.481C284.236 338.33 284.222 338.077 283.954 337.926L276.452 333.85C276.286 333.757 276.098 333.706 275.905 333.702C275.713 333.698 275.522 333.74 275.352 333.824H275.553ZM266.092 338.961L259.61 342.482C259.341 342.633 259.355 342.873 259.61 343.037L267.098 347.101C267.258 347.178 267.435 347.218 267.615 347.218C267.795 347.218 267.972 347.178 268.132 347.101L274.6 343.58C274.882 343.428 274.868 343.176 274.6 343.024L267.112 338.961C266.93 338.85 266.718 338.792 266.501 338.792C266.285 338.792 266.073 338.85 265.89 338.961H266.092ZM218.8 396.571C218.959 396.648 219.137 396.689 219.316 396.689C219.496 396.689 219.673 396.648 219.833 396.571L226.315 393.05C226.583 392.899 226.57 392.646 226.315 392.495L218.827 388.431C218.667 388.354 218.49 388.313 218.31 388.313C218.13 388.313 217.953 388.354 217.793 388.431L211.325 391.952C211.043 392.091 211.056 392.343 211.325 392.507L218.8 396.571ZM190.39 380.064L183.706 383.648C183.438 383.787 183.451 384.039 183.706 384.203L191.195 388.267C191.355 388.342 191.532 388.38 191.711 388.38C191.891 388.38 192.067 388.342 192.228 388.267L198.697 384.746C198.978 384.595 198.965 384.342 198.697 384.191L191.208 380.127C191.055 380.042 190.883 379.992 190.706 379.981C190.529 379.97 190.352 379.998 190.188 380.064H190.39ZM205.621 392.116C205.781 392.194 205.958 392.234 206.138 392.234C206.318 392.234 206.495 392.194 206.655 392.116L213.123 388.595C213.405 388.444 213.378 388.191 213.123 388.04L205.635 383.976C205.475 383.899 205.298 383.858 205.118 383.858C204.938 383.858 204.761 383.899 204.601 383.976L198.133 387.497C197.864 387.649 197.878 387.888 198.133 388.052L205.621 392.116ZM235.508 399.688L241.989 396.167C242.258 396.016 242.244 395.763 241.989 395.612L234.501 391.548C234.341 391.471 234.164 391.43 233.984 391.43C233.805 391.43 233.628 391.471 233.468 391.548L226.798 395.006C226.516 395.145 226.53 395.397 226.798 395.561L234.286 399.625C234.439 399.71 234.61 399.76 234.787 399.774C234.964 399.787 235.141 399.762 235.306 399.701L235.508 399.688ZM225.013 404.736C225.173 404.814 225.35 404.854 225.53 404.854C225.71 404.854 225.887 404.814 226.046 404.736L232.528 401.215C232.797 401.064 232.783 400.811 232.528 400.66L225.04 396.596C224.88 396.519 224.703 396.478 224.523 396.478C224.344 396.478 224.166 396.519 224.007 396.596L217.525 400.117C217.256 400.256 217.27 400.508 217.525 400.672L225.013 404.736ZM199.851 374.852L193.369 378.36C193.1 378.512 193.114 378.764 193.369 378.928L200.857 382.992C201.018 383.066 201.195 383.105 201.374 383.105C201.553 383.105 201.73 383.066 201.89 382.992L208.359 379.471C208.641 379.319 208.627 379.067 208.359 378.916L200.871 374.839C200.678 374.746 200.462 374.705 200.247 374.721C200.031 374.736 199.824 374.808 199.649 374.928L199.851 374.852ZM246.928 349.233L240.446 352.754C240.178 352.906 240.191 353.158 240.446 353.31L247.935 357.373C248.094 357.451 248.271 357.491 248.451 357.491C248.631 357.491 248.808 357.451 248.968 357.373L255.436 353.852C255.718 353.713 255.691 353.461 255.436 353.297L247.948 349.233C247.79 349.159 247.615 349.12 247.438 349.12C247.261 349.12 247.086 349.159 246.928 349.233ZM209.11 369.766L202.642 373.3C202.36 373.451 202.374 373.704 202.642 373.868L210.13 377.931C210.29 378.009 210.467 378.049 210.647 378.049C210.827 378.049 211.004 378.009 211.164 377.931L217.646 374.423C217.914 374.271 217.901 374.019 217.646 373.855L210.144 369.766C209.983 369.692 209.806 369.653 209.627 369.653C209.448 369.653 209.271 369.692 209.11 369.766ZM256.429 344.072L249.948 347.593C249.679 347.744 249.693 347.997 249.948 348.148L257.436 352.212C257.596 352.289 257.773 352.33 257.953 352.33C258.132 352.33 258.309 352.289 258.469 352.212L264.938 348.691C265.219 348.539 265.193 348.299 264.938 348.135L257.449 344.072C257.289 344 257.113 343.965 256.936 343.97C256.759 343.974 256.585 344.018 256.429 344.097V344.072ZM237.534 354.37L231.066 357.891C230.784 358.042 230.811 358.295 231.066 358.446L238.554 362.51C238.714 362.587 238.891 362.627 239.071 362.627C239.25 362.627 239.427 362.587 239.587 362.51L246.056 359.001C246.324 358.85 246.311 358.597 246.056 358.433L238.567 354.37C238.407 354.295 238.23 354.256 238.051 354.256C237.871 354.256 237.695 354.295 237.534 354.37ZM228.073 359.519L221.604 363.027C221.323 363.178 221.349 363.431 221.604 363.582L229.079 367.659C229.24 367.733 229.417 367.772 229.596 367.772C229.775 367.772 229.952 367.733 230.113 367.659L236.595 364.15C236.863 363.999 236.85 363.746 236.595 363.582L229.106 359.519C228.941 359.435 228.757 359.391 228.569 359.391C228.382 359.391 228.197 359.435 228.033 359.519H228.073ZM218.679 364.655L212.21 368.163C211.929 368.315 211.942 368.567 212.21 368.731L219.699 372.795C219.86 372.869 220.036 372.908 220.215 372.908C220.395 372.908 220.571 372.869 220.732 372.795L227.214 369.287C227.482 369.135 227.469 368.883 227.214 368.719L219.605 364.718C219.444 364.644 219.267 364.605 219.088 364.605C218.909 364.605 218.732 364.644 218.572 364.718L218.679 364.655ZM266.991 370.902L273.459 367.394C273.741 367.242 273.714 366.99 273.459 366.826L265.971 362.762C265.811 362.685 265.634 362.644 265.454 362.644C265.275 362.644 265.097 362.685 264.938 362.762L258.456 366.27C258.187 366.422 258.201 366.674 258.456 366.838L265.944 370.902C266.101 370.972 266.273 371.009 266.447 371.009C266.622 371.009 266.793 370.972 266.951 370.902H266.991ZM350.101 293.264L343.552 296.785C343.284 296.923 343.297 297.176 343.552 297.34L351.04 301.404C351.201 301.478 351.378 301.517 351.557 301.517C351.736 301.517 351.913 301.478 352.074 301.404L358.542 297.883C358.824 297.731 358.811 297.479 358.542 297.327L351.054 293.264C350.899 293.192 350.729 293.155 350.557 293.155C350.385 293.155 350.215 293.192 350.061 293.264H350.101ZM338.64 299.485L332.172 302.994C331.89 303.145 331.903 303.397 332.172 303.562L339.66 307.625C339.82 307.703 339.997 307.743 340.177 307.743C340.357 307.743 340.534 307.703 340.694 307.625L347.175 304.117C347.444 303.965 347.43 303.713 347.175 303.549L339.687 299.485C339.519 299.402 339.333 299.359 339.144 299.359C338.954 299.359 338.768 299.402 338.6 299.485H338.64ZM359.562 288.127L353.08 291.636C352.812 291.787 352.825 292.039 353.08 292.204L360.569 296.267C360.729 296.342 360.906 296.381 361.085 296.381C361.264 296.381 361.441 296.342 361.602 296.267L368.07 292.746C368.352 292.595 368.339 292.342 368.07 292.191L360.582 288.115C360.417 288.038 360.235 287.999 360.05 288.001C359.866 288.003 359.685 288.047 359.522 288.127H359.562ZM310.539 335.692L317.021 332.171C317.289 332.02 317.276 331.767 317.021 331.616L309.532 327.54C309.372 327.465 309.195 327.426 309.016 327.426C308.836 327.426 308.66 327.465 308.499 327.54L301.95 330.972C301.682 331.124 301.695 331.376 301.95 331.54L309.438 335.604C309.6 335.703 309.785 335.763 309.977 335.778C310.169 335.793 310.362 335.764 310.539 335.692ZM370.016 283.067C369.856 282.992 369.679 282.953 369.5 282.953C369.32 282.953 369.144 282.992 368.983 283.067L362.514 286.474C362.233 286.626 362.246 286.878 362.514 287.042L370.003 291.106C370.163 291.183 370.34 291.224 370.52 291.224C370.699 291.224 370.876 291.183 371.036 291.106L377.518 287.597C377.786 287.446 377.773 287.193 377.518 287.029L370.016 283.067ZM276.452 365.766L282.92 362.257C283.202 362.106 283.189 361.853 282.92 361.689L275.432 357.626C275.271 357.551 275.095 357.512 274.915 357.512C274.736 357.512 274.559 357.551 274.399 357.626L267.917 361.147C267.648 361.298 267.662 361.55 267.917 361.702L275.405 365.778C275.569 365.853 275.748 365.891 275.93 365.888C276.112 365.886 276.291 365.844 276.452 365.766ZM392.495 302.767L398.963 299.246C399.245 299.094 399.232 298.842 398.963 298.69L391.475 294.627C391.315 294.549 391.138 294.509 390.958 294.509C390.778 294.509 390.601 294.549 390.441 294.627L383.96 298.148C383.691 298.286 383.705 298.539 383.96 298.703L391.448 302.767C391.604 302.84 391.777 302.878 391.951 302.878C392.126 302.878 392.298 302.84 392.454 302.767H392.495ZM372.365 302.098L378.833 298.577C379.115 298.425 379.102 298.173 378.833 298.021L371.345 293.958C371.185 293.88 371.008 293.84 370.828 293.84C370.648 293.84 370.471 293.88 370.311 293.958L363.682 297.453C363.414 297.592 363.427 297.845 363.682 298.009L371.17 302.072C371.339 302.169 371.533 302.223 371.73 302.227C371.928 302.232 372.124 302.187 372.298 302.098H372.365ZM380.779 288.809C380.618 288.734 380.442 288.695 380.262 288.695C380.083 288.695 379.906 288.734 379.746 288.809L373.264 292.317C372.996 292.469 373.009 292.721 373.264 292.885L380.752 296.949C380.913 297.023 381.09 297.062 381.269 297.062C381.448 297.062 381.625 297.023 381.786 296.949L388.267 293.428C388.536 293.276 388.522 293.024 388.267 292.872L380.779 288.809ZM382.765 287.736L400.949 297.605C401.11 297.679 401.287 297.718 401.466 297.718C401.645 297.718 401.822 297.679 401.983 297.605L408.465 294.084C408.733 293.932 408.72 293.68 408.465 293.529L390.28 283.647C390.12 283.573 389.943 283.534 389.764 283.534C389.585 283.534 389.408 283.573 389.247 283.647L382.779 287.156C382.39 287.32 382.47 287.572 382.698 287.736H382.765ZM360.824 299.094L354.288 302.59C354.02 302.741 354.033 302.981 354.288 303.145L361.776 307.209C361.936 307.286 362.113 307.327 362.293 307.327C362.473 307.327 362.65 307.286 362.81 307.209L369.278 303.688C369.56 303.536 369.547 303.297 369.278 303.132L361.79 299.094C361.63 299.017 361.453 298.976 361.273 298.976C361.093 298.976 360.916 299.017 360.756 299.094H360.824ZM289.604 337.762L283.122 341.283C282.853 341.434 282.867 341.674 283.122 341.838L290.61 345.902C290.77 345.979 290.947 346.02 291.127 346.02C291.307 346.02 291.484 345.979 291.643 345.902L298.112 342.381C298.394 342.229 298.367 341.989 298.112 341.825L290.637 337.762C290.471 337.669 290.283 337.619 290.09 337.614C289.898 337.61 289.707 337.652 289.536 337.737L289.604 337.762ZM381.96 307.928C382.12 308.006 382.297 308.046 382.477 308.046C382.656 308.046 382.834 308.006 382.993 307.928L389.462 304.407C389.744 304.256 389.73 304.016 389.462 303.852L381.973 299.788C381.814 299.711 381.637 299.67 381.457 299.67C381.277 299.67 381.1 299.711 380.94 299.788L374.418 303.259C374.15 303.41 374.163 303.65 374.418 303.814L381.96 307.928ZM298.998 332.6L292.556 336.121C292.288 336.26 292.301 336.512 292.556 336.676L300.044 340.74C300.204 340.818 300.381 340.858 300.561 340.858C300.741 340.858 300.918 340.818 301.078 340.74L307.546 337.219C307.828 337.068 307.815 336.815 307.546 336.664L300.058 332.6C299.895 332.518 299.713 332.476 299.528 332.476C299.343 332.476 299.161 332.518 298.998 332.6ZM228.059 391.435C228.22 391.509 228.397 391.548 228.576 391.548C228.755 391.548 228.932 391.509 229.093 391.435L235.575 387.914C235.843 387.762 235.83 387.51 235.575 387.358L228.086 383.295C227.927 383.217 227.749 383.177 227.57 383.177C227.39 383.177 227.213 383.217 227.053 383.295L220.585 386.816C220.303 386.955 220.316 387.207 220.585 387.371L228.059 391.435ZM213.834 378.815L207.352 382.386C207.084 382.525 207.097 382.777 207.352 382.941L214.841 387.005C215.001 387.08 215.178 387.118 215.357 387.118C215.537 387.118 215.713 387.08 215.874 387.005L222.343 383.484C222.624 383.333 222.598 383.08 222.343 382.929L214.868 378.865C214.71 378.784 214.534 378.739 214.354 378.735C214.174 378.73 213.996 378.766 213.834 378.84V378.815ZM238.554 386.298L245.036 382.777C245.304 382.626 245.291 382.373 245.036 382.222L237.534 378.171C237.373 378.096 237.197 378.058 237.017 378.058C236.838 378.058 236.661 378.096 236.501 378.171L230.032 381.679C229.75 381.831 229.777 382.083 230.032 382.247L237.534 386.298C237.691 386.375 237.864 386.417 238.041 386.421C238.218 386.426 238.393 386.392 238.554 386.324V386.298ZM248.028 381.149L254.497 377.641C254.765 377.49 254.752 377.237 254.497 377.073L246.928 373.035C246.767 372.96 246.591 372.921 246.411 372.921C246.232 372.921 246.055 372.96 245.895 373.035L239.426 376.543C239.144 376.694 239.171 376.947 239.426 377.111L246.915 381.175C247.089 381.258 247.283 381.297 247.479 381.288C247.674 381.279 247.863 381.223 248.028 381.124V381.149ZM257.49 376.013L263.958 372.505C264.24 372.353 264.213 372.101 263.958 371.937L256.47 367.873C256.311 367.799 256.137 367.76 255.96 367.76C255.783 367.76 255.608 367.799 255.45 367.873L248.968 371.381C248.699 371.533 248.713 371.785 248.968 371.949L256.456 376.076C256.617 376.151 256.794 376.189 256.973 376.189C257.152 376.189 257.329 376.151 257.49 376.076V376.013ZM223.295 373.678L216.814 377.187C216.545 377.338 216.559 377.59 216.814 377.755L224.302 381.818C224.463 381.893 224.639 381.932 224.819 381.932C224.998 381.932 225.175 381.893 225.335 381.818L231.804 378.297C232.085 378.146 232.072 377.893 231.804 377.742L224.315 373.666C224.153 373.599 223.977 373.568 223.801 373.574C223.624 373.581 223.451 373.625 223.295 373.704V373.678ZM232.756 368.542L226.275 372.05C226.006 372.202 226.02 372.454 226.275 372.618L233.763 376.682C233.923 376.759 234.1 376.8 234.28 376.8C234.459 376.8 234.637 376.759 234.796 376.682L241.265 373.174C241.547 373.022 241.533 372.77 241.265 372.606L233.776 368.542C233.615 368.473 233.44 368.44 233.263 368.444C233.087 368.449 232.913 368.491 232.756 368.567V368.542ZM270.601 347.984L264.132 351.505C263.851 351.656 263.877 351.909 264.132 352.06L271.621 356.124C271.778 356.201 271.953 356.242 272.131 356.242C272.308 356.242 272.483 356.201 272.641 356.124L279.123 352.603C279.391 352.464 279.378 352.212 279.123 352.048L271.634 347.984C271.471 347.913 271.294 347.879 271.114 347.883C270.935 347.888 270.759 347.931 270.601 348.009V347.984ZM261.207 353.12L254.738 356.641C254.457 356.793 254.483 357.045 254.738 357.197L262.213 361.273C262.374 361.347 262.551 361.386 262.73 361.386C262.909 361.386 263.086 361.347 263.247 361.273L269.729 357.764C269.997 357.613 269.984 357.361 269.729 357.197L262.24 353.133C262.07 353.05 261.88 353.007 261.688 353.01C261.496 353.012 261.308 353.059 261.14 353.146L261.207 353.12ZM280.143 342.848L273.661 346.369C273.392 346.52 273.406 346.772 273.661 346.924L281.149 350.988C281.309 351.065 281.486 351.105 281.666 351.105C281.845 351.105 282.023 351.065 282.182 350.988L288.651 347.467C288.933 347.328 288.906 347.075 288.651 346.911L281.162 342.848C280.994 342.763 280.806 342.721 280.615 342.725C280.425 342.73 280.239 342.78 280.075 342.873L280.143 342.848ZM242.218 363.456L235.749 366.964C235.467 367.116 235.481 367.368 235.749 367.532L243.238 371.596C243.398 371.671 243.575 371.709 243.754 371.709C243.933 371.709 244.11 371.671 244.271 371.596L250.753 368.088C251.021 367.936 251.008 367.684 250.753 367.52L243.251 363.456C243.09 363.382 242.913 363.343 242.734 363.343C242.555 363.343 242.378 363.382 242.218 363.456ZM251.612 358.32L245.143 361.828C244.861 361.98 244.875 362.232 245.143 362.396L252.632 366.46C252.792 366.534 252.969 366.573 253.148 366.573C253.327 366.573 253.504 366.534 253.665 366.46L260.147 362.951C260.415 362.8 260.402 362.547 260.147 362.383L252.658 358.32C252.508 358.246 252.341 358.206 252.172 358.202C252.002 358.197 251.833 358.229 251.679 358.295L251.612 358.32ZM244.7 394.59L251.182 391.069C251.451 390.917 251.437 390.665 251.182 390.513L243.694 386.437C243.533 386.363 243.356 386.324 243.177 386.324C242.998 386.324 242.821 386.363 242.66 386.437L236.192 389.958C235.91 390.11 235.924 390.362 236.192 390.526L243.667 394.59C243.838 394.671 244.029 394.711 244.221 394.707C244.412 394.702 244.6 394.653 244.767 394.564L244.7 394.59ZM189.222 389.289L181.747 385.226C181.587 385.148 181.41 385.108 181.23 385.108C181.051 385.108 180.873 385.148 180.714 385.226L174.245 388.696C173.977 388.835 173.99 389.087 174.245 389.251L181.734 393.315C181.893 393.392 182.071 393.433 182.25 393.433C182.43 393.433 182.607 393.392 182.767 393.315L189.235 389.794C189.557 389.693 189.531 389.441 189.222 389.289ZM203.407 393.201L195.932 389.138C195.772 389.06 195.595 389.02 195.415 389.02C195.236 389.02 195.058 389.06 194.899 389.138L184.941 394.552C184.673 394.703 184.686 394.943 184.941 395.107L192.429 399.171C192.589 399.248 192.766 399.289 192.946 399.289C193.126 399.289 193.303 399.248 193.463 399.171L203.42 393.757C203.729 393.605 203.716 393.365 203.42 393.201H203.407ZM177.748 381.427L170.273 377.338C170.112 377.264 169.935 377.225 169.756 377.225C169.577 377.225 169.4 377.264 169.24 377.338L161.268 381.667C160.986 381.818 161.013 382.071 161.268 382.235L168.743 386.298C168.904 386.373 169.081 386.412 169.26 386.412C169.439 386.412 169.616 386.373 169.776 386.298L177.748 381.97C178.07 381.843 178.057 381.591 177.761 381.427H177.748ZM183.854 378.108C184.014 378.185 184.191 378.226 184.371 378.226C184.55 378.226 184.728 378.185 184.887 378.108L191.356 374.587C191.638 374.435 191.611 374.196 191.356 374.032L183.854 369.993C183.694 369.916 183.517 369.875 183.337 369.875C183.158 369.875 182.98 369.916 182.821 369.993L176.339 373.552C176.07 373.704 176.084 373.943 176.339 374.107L183.854 378.108ZM216.599 397.656L209.11 393.593C208.951 393.515 208.774 393.475 208.594 393.475C208.414 393.475 208.237 393.515 208.077 393.593L195.623 400.357C195.355 400.508 195.368 400.761 195.623 400.912L203.112 404.976C203.271 405.053 203.449 405.094 203.628 405.094C203.808 405.094 203.985 405.053 204.145 404.976L216.585 398.212C216.921 398.06 216.907 397.82 216.612 397.656H216.599ZM222.812 405.897L215.324 401.834C215.164 401.756 214.987 401.716 214.807 401.716C214.627 401.716 214.45 401.756 214.291 401.834L206.319 406.162C206.051 406.314 206.064 406.566 206.319 406.717L213.807 410.794C213.968 410.868 214.145 410.907 214.324 410.907C214.503 410.907 214.68 410.868 214.841 410.794L222.799 406.465C223.134 406.364 223.121 406.061 222.772 405.897H222.812ZM254.202 339.907C254.361 339.985 254.539 340.025 254.718 340.025C254.898 340.025 255.075 339.985 255.235 339.907L261.717 336.386C261.985 336.247 261.972 335.995 261.717 335.831L254.228 331.767C254.069 331.69 253.892 331.649 253.712 331.649C253.532 331.649 253.355 331.69 253.195 331.767L246.727 335.288C246.445 335.44 246.472 335.692 246.727 335.844L254.202 339.907ZM235.279 350.192C235.44 350.267 235.617 350.306 235.796 350.306C235.975 350.306 236.152 350.267 236.313 350.192L242.795 346.684C243.063 346.533 243.05 346.28 242.795 346.116L235.306 342.053C235.146 341.978 234.969 341.939 234.79 341.939C234.61 341.939 234.434 341.978 234.273 342.053L227.804 345.574C227.523 345.725 227.536 345.977 227.804 346.129L235.279 350.192ZM193.315 372.972C193.475 373.049 193.652 373.089 193.832 373.089C194.012 373.089 194.189 373.049 194.348 372.972L200.817 369.451C201.099 369.299 201.085 369.047 200.817 368.895L193.329 364.832C193.169 364.754 192.992 364.714 192.812 364.714C192.632 364.714 192.455 364.754 192.295 364.832L185.813 368.353C185.545 368.491 185.558 368.744 185.813 368.908L193.315 372.972ZM244.741 345.044C244.9 345.121 245.077 345.161 245.257 345.161C245.437 345.161 245.614 345.121 245.774 345.044L252.256 341.523C252.524 341.384 252.511 341.131 252.256 340.967L244.741 336.954C244.58 336.88 244.403 336.841 244.224 336.841C244.045 336.841 243.868 336.88 243.707 336.954L237.239 340.475C236.957 340.627 236.97 340.879 237.239 341.03L244.741 345.044ZM225.818 355.329C225.979 355.403 226.156 355.442 226.335 355.442C226.514 355.442 226.691 355.403 226.852 355.329L233.334 351.82C233.602 351.669 233.589 351.417 233.334 351.253L225.845 347.189C225.685 347.111 225.508 347.071 225.329 347.071C225.149 347.071 224.972 347.111 224.812 347.189L218.33 350.697C218.062 350.849 218.075 351.101 218.33 351.265L225.818 355.329ZM228.006 406.553C227.846 406.476 227.669 406.435 227.489 406.435C227.309 406.435 227.132 406.476 226.972 406.553L217.015 411.955C216.746 412.106 216.76 412.359 217.015 412.523L224.503 416.586C224.664 416.661 224.841 416.7 225.02 416.7C225.199 416.7 225.376 416.661 225.537 416.586L235.494 411.185C235.763 411.033 235.749 410.781 235.494 410.617L228.006 406.553ZM212.251 362.699C212.41 362.776 212.588 362.817 212.767 362.817C212.947 362.817 213.124 362.776 213.284 362.699L219.766 359.191C220.034 359.039 220.021 358.787 219.766 358.623L212.237 354.622C212.077 354.548 211.9 354.509 211.721 354.509C211.541 354.509 211.365 354.548 211.204 354.622L204.736 358.13C204.454 358.282 204.467 358.534 204.736 358.698L212.251 362.699ZM202.857 367.835C203.017 367.91 203.194 367.949 203.373 367.949C203.553 367.949 203.729 367.91 203.89 367.835L210.358 364.314C210.64 364.163 210.627 363.91 210.358 363.759L202.776 359.67C202.616 359.593 202.439 359.552 202.26 359.552C202.08 359.552 201.903 359.593 201.743 359.67L195.261 363.178C194.993 363.33 195.006 363.582 195.261 363.746L202.857 367.835ZM403.405 311.373C403.245 311.299 403.068 311.26 402.889 311.26C402.709 311.26 402.533 311.299 402.372 311.373L386.429 320.031C386.161 320.182 386.174 320.434 386.429 320.599L393.917 324.662C394.078 324.737 394.255 324.776 394.434 324.776C394.613 324.776 394.79 324.737 394.951 324.662L410.88 316.005C411.162 315.866 411.149 315.614 410.88 315.45L403.405 311.373ZM382.483 322.731C382.324 322.654 382.147 322.613 381.967 322.613C381.787 322.613 381.61 322.654 381.45 322.731L374.982 326.252C374.7 326.404 374.713 326.656 374.982 326.808L382.47 330.871C382.63 330.949 382.807 330.989 382.987 330.989C383.166 330.989 383.344 330.949 383.503 330.871L389.985 327.35C390.254 327.211 390.24 326.959 389.985 326.795L382.483 322.731ZM254.296 389.415L260.777 385.907C261.046 385.756 261.032 385.503 260.777 385.339L253.289 381.276C253.128 381.201 252.952 381.162 252.772 381.162C252.593 381.162 252.416 381.201 252.256 381.276L245.787 384.784C245.505 384.935 245.532 385.188 245.787 385.352L253.276 389.415C253.424 389.483 253.587 389.517 253.752 389.517C253.917 389.517 254.08 389.483 254.228 389.415H254.296ZM363.561 333.004C363.401 332.927 363.224 332.886 363.045 332.886C362.865 332.886 362.688 332.927 362.528 333.004L356.046 336.512C355.778 336.664 355.791 336.916 356.046 337.08L363.534 341.144C363.695 341.219 363.872 341.257 364.051 341.257C364.23 341.257 364.407 341.219 364.568 341.144L371.036 337.636C371.318 337.484 371.305 337.232 371.036 337.068L363.561 333.004ZM412.866 306.237C412.707 306.16 412.529 306.119 412.35 306.119C412.17 306.119 411.993 306.16 411.833 306.237L405.284 309.733C405.016 309.884 405.029 310.137 405.284 310.288L412.772 314.352C412.932 314.429 413.109 314.47 413.289 314.47C413.469 314.47 413.646 314.429 413.806 314.352L420.274 310.831C420.556 310.692 420.543 310.439 420.274 310.275L412.866 306.237ZM429.816 305.164L411.565 295.308C411.405 295.231 411.228 295.19 411.048 295.19C410.868 295.19 410.691 295.231 410.531 295.308L404.063 298.829C403.781 298.968 403.794 299.22 404.063 299.384L422.274 309.19C422.434 309.268 422.611 309.308 422.79 309.308C422.97 309.308 423.147 309.268 423.307 309.19L429.789 305.669C430.057 305.568 430.044 305.328 429.749 305.164H429.816ZM328.2 352.199C328.039 352.124 327.862 352.086 327.683 352.086C327.504 352.086 327.327 352.124 327.166 352.199L319.195 356.528C318.913 356.667 318.94 356.919 319.195 357.083L326.683 361.147C326.843 361.224 327.02 361.265 327.2 361.265C327.379 361.265 327.557 361.224 327.716 361.147L335.674 356.818C335.956 356.667 335.943 356.414 335.674 356.263L328.2 352.199ZM352.101 339.226C351.94 339.151 351.763 339.112 351.584 339.112C351.405 339.112 351.228 339.151 351.067 339.226L341.11 344.64C340.828 344.791 340.855 345.044 341.11 345.195L348.598 349.259C348.758 349.336 348.935 349.376 349.115 349.376C349.294 349.376 349.472 349.336 349.631 349.259L359.589 343.845C359.857 343.706 359.844 343.453 359.589 343.289L352.101 339.226ZM306.285 364.1C306.125 364.022 305.948 363.982 305.768 363.982C305.588 363.982 305.411 364.022 305.251 364.1L251.893 393.012C251.612 393.164 251.638 393.416 251.893 393.58L259.368 397.644C259.529 397.718 259.706 397.757 259.885 397.757C260.064 397.757 260.241 397.718 260.402 397.644L313.693 368.719C313.974 368.567 313.961 368.315 313.693 368.151L306.285 364.1ZM250.001 394.653C249.84 394.578 249.664 394.539 249.485 394.539C249.305 394.539 249.129 394.578 248.968 394.653L240.996 398.981C240.728 399.12 240.741 399.373 240.996 399.537L248.485 403.6C248.644 403.678 248.822 403.718 249.001 403.718C249.181 403.718 249.358 403.678 249.518 403.6L257.49 399.272C257.758 399.12 257.745 398.868 257.49 398.716L250.001 394.653ZM317.235 358.156C317.076 358.078 316.898 358.038 316.719 358.038C316.539 358.038 316.362 358.078 316.202 358.156L308.244 362.484C307.962 362.636 307.976 362.888 308.244 363.04L315.732 367.116C315.893 367.19 316.07 367.229 316.249 367.229C316.428 367.229 316.605 367.19 316.766 367.116L324.737 362.787C325.006 362.636 324.992 362.396 324.737 362.232L317.235 358.156ZM239.05 400.609C238.891 400.532 238.714 400.491 238.534 400.491C238.354 400.491 238.177 400.532 238.017 400.609L230.046 404.938C229.764 405.089 229.791 405.342 230.046 405.493L237.534 409.57C237.692 409.644 237.867 409.683 238.044 409.683C238.221 409.683 238.396 409.644 238.554 409.57L246.525 405.241C246.807 405.089 246.794 404.85 246.525 404.686L239.05 400.609ZM339.15 346.255C338.99 346.18 338.813 346.142 338.634 346.142C338.454 346.142 338.278 346.18 338.117 346.255L330.132 350.558C329.864 350.71 329.877 350.962 330.132 351.126L337.62 355.19C337.78 355.267 337.957 355.308 338.137 355.308C338.317 355.308 338.494 355.267 338.654 355.19L346.625 350.874C346.894 350.723 346.88 350.47 346.625 350.306L339.15 346.255ZM373.022 327.868C372.862 327.793 372.685 327.754 372.506 327.754C372.326 327.754 372.15 327.793 371.989 327.868L365.507 331.389C365.239 331.54 365.252 331.792 365.507 331.944L372.995 336.02C373.156 336.095 373.333 336.134 373.512 336.134C373.691 336.134 373.868 336.095 374.029 336.02L380.497 332.512C380.779 332.36 380.766 332.108 380.497 331.944L373.022 327.868ZM393.756 313.708L400.225 310.187C400.507 310.048 400.493 309.796 400.225 309.632L392.736 305.568C392.577 305.491 392.399 305.45 392.22 305.45C392.04 305.45 391.863 305.491 391.703 305.568L385.154 309.064C384.886 309.215 384.899 309.468 385.154 309.619L392.642 313.683C392.802 313.766 392.98 313.812 393.162 313.817C393.345 313.821 393.525 313.784 393.689 313.708H393.756ZM351.443 313.456L357.925 309.935C358.193 309.783 358.18 309.531 357.925 309.379L350.436 305.316C350.277 305.238 350.1 305.198 349.92 305.198C349.74 305.198 349.563 305.238 349.403 305.316L342.935 308.824C342.653 308.976 342.666 309.228 342.935 309.392L350.423 313.456C350.573 313.519 350.735 313.551 350.899 313.551C351.064 313.551 351.226 313.519 351.376 313.456H351.443ZM329.971 348.325L348.893 338.039C349.162 337.901 349.148 337.648 348.893 337.484L341.405 333.42C341.245 333.343 341.068 333.303 340.888 333.303C340.708 333.303 340.531 333.343 340.371 333.42L321.449 343.693C321.167 343.845 321.194 344.097 321.449 344.261L328.938 348.325C329.096 348.393 329.268 348.428 329.442 348.426C329.617 348.423 329.788 348.385 329.944 348.312L329.971 348.325ZM383.222 318.819C383.381 318.897 383.558 318.937 383.738 318.937C383.918 318.937 384.095 318.897 384.255 318.819L390.723 315.311C391.005 315.159 390.978 314.907 390.723 314.743L383.248 310.679C383.088 310.605 382.911 310.566 382.732 310.566C382.553 310.566 382.376 310.605 382.215 310.679L375.666 314.238C375.398 314.39 375.411 314.642 375.666 314.793L383.222 318.819ZM373.559 313.039L380.028 309.518C380.309 309.379 380.296 309.127 380.028 308.963L372.553 304.899C372.393 304.822 372.216 304.781 372.036 304.781C371.856 304.781 371.679 304.822 371.519 304.899L365.024 308.395C364.756 308.546 364.769 308.799 365.024 308.95L372.512 313.014C372.668 313.093 372.842 313.137 373.019 313.141C373.196 313.146 373.372 313.111 373.532 313.039H373.559ZM320.496 353.423L326.978 349.902C327.247 349.751 327.233 349.498 326.978 349.347L319.396 345.321C319.236 345.244 319.059 345.203 318.879 345.203C318.7 345.203 318.522 345.244 318.363 345.321L311.894 348.842C311.612 348.981 311.639 349.233 311.894 349.397L319.369 353.461C319.538 353.546 319.727 353.591 319.919 353.591C320.111 353.591 320.3 353.546 320.47 353.461L320.496 353.423ZM362.34 330.177C362.5 330.255 362.677 330.295 362.857 330.295C363.036 330.295 363.214 330.255 363.373 330.177L369.842 326.656C370.124 326.517 370.11 326.265 369.842 326.101L362.353 322.037C362.194 321.96 362.017 321.919 361.837 321.919C361.657 321.919 361.48 321.96 361.32 322.037L354.744 325.596C354.476 325.748 354.489 326 354.744 326.151L362.34 330.177ZM273.231 379.143L279.7 375.634C279.981 375.483 279.955 375.231 279.7 375.066L272.117 371.028C271.958 370.951 271.78 370.91 271.601 370.91C271.421 370.91 271.244 370.951 271.084 371.028L264.602 374.536C264.334 374.688 264.347 374.94 264.602 375.104L272.09 379.168C272.259 379.245 272.444 379.283 272.631 379.278C272.817 379.274 273 379.227 273.164 379.143H273.231ZM282.625 374.006L289.094 370.498C289.375 370.347 289.362 370.094 289.094 369.93L281.605 365.867C281.445 365.792 281.268 365.753 281.089 365.753C280.909 365.753 280.733 365.792 280.572 365.867L274.09 369.387C273.822 369.539 273.835 369.791 274.09 369.943L281.578 374.006C281.74 374.086 281.92 374.128 282.102 374.128C282.284 374.128 282.464 374.086 282.625 374.006ZM263.703 384.279L270.171 380.771C270.453 380.619 270.426 380.367 270.171 380.203L262.683 376.139C262.522 376.065 262.346 376.026 262.166 376.026C261.987 376.026 261.81 376.065 261.65 376.139L255.181 379.648C254.913 379.799 254.926 380.051 255.181 380.215L262.67 384.279C262.83 384.354 263.007 384.392 263.186 384.392C263.366 384.392 263.542 384.354 263.703 384.279ZM301.547 363.734L308.029 360.213C308.298 360.061 308.284 359.822 308.029 359.657L300.541 355.594C300.381 355.516 300.204 355.476 300.024 355.476C299.844 355.476 299.667 355.516 299.508 355.594L293.039 359.115C292.757 359.266 292.771 359.506 293.039 359.67L300.527 363.734C300.686 363.809 300.86 363.848 301.037 363.848C301.215 363.848 301.389 363.809 301.547 363.734ZM292.153 368.87L298.622 365.349C298.904 365.21 298.89 364.958 298.622 364.794L291.133 360.73C290.974 360.653 290.797 360.612 290.617 360.612C290.437 360.612 290.26 360.653 290.1 360.73L283.618 364.251C283.35 364.403 283.363 364.655 283.618 364.806L291.107 368.87C291.259 368.939 291.427 368.975 291.596 368.975C291.766 368.975 291.934 368.939 292.086 368.87H292.153ZM311.076 358.597L317.557 355.076C317.826 354.925 317.812 354.673 317.557 354.521L310.002 350.457C309.842 350.38 309.665 350.34 309.485 350.34C309.306 350.34 309.128 350.38 308.969 350.457L302.5 353.978C302.218 354.117 302.232 354.37 302.5 354.534L309.989 358.597C310.147 358.673 310.321 358.712 310.499 358.712C310.676 358.712 310.85 358.673 311.008 358.597H311.076ZM354.288 282.587C354.448 282.665 354.625 282.705 354.805 282.705C354.984 282.705 355.162 282.665 355.321 282.587L361.803 279.066C362.072 278.915 362.058 278.675 361.803 278.511L359.804 277.426C359.644 277.348 359.467 277.308 359.287 277.308C359.107 277.308 358.93 277.348 358.77 277.426L352.302 280.934C352.033 281.085 352.047 281.338 352.302 281.502L354.288 282.587ZM307.734 310.856C307.895 310.931 308.072 310.969 308.251 310.969C308.43 310.969 308.607 310.931 308.767 310.856L315.236 307.348C315.518 307.196 315.504 306.944 315.236 306.78L307.761 302.716C307.601 302.639 307.424 302.598 307.244 302.598C307.064 302.598 306.887 302.639 306.728 302.716L300.246 306.224C299.977 306.376 299.991 306.628 300.246 306.792L307.734 310.856ZM326.656 300.571C326.816 300.648 326.993 300.689 327.173 300.689C327.353 300.689 327.53 300.648 327.69 300.571L334.158 297.075C334.44 296.936 334.426 296.684 334.158 296.52L326.67 292.456C326.509 292.381 326.332 292.343 326.153 292.343C325.974 292.343 325.797 292.381 325.636 292.456L319.154 295.977C318.886 296.128 318.899 296.381 319.154 296.532L326.656 300.571ZM296.179 317.128C296.34 317.203 296.517 317.241 296.696 317.241C296.875 317.241 297.052 317.203 297.213 317.128L303.681 313.62C303.963 313.468 303.936 313.216 303.681 313.052L296.206 308.988C296.046 308.914 295.869 308.875 295.69 308.875C295.51 308.875 295.334 308.914 295.173 308.988L288.691 312.497C288.423 312.648 288.436 312.9 288.691 313.064L296.179 317.128ZM317.195 305.77C317.356 305.845 317.533 305.883 317.712 305.883C317.891 305.883 318.068 305.845 318.228 305.77L324.697 302.262C324.979 302.11 324.965 301.858 324.697 301.694L317.209 297.63C317.048 297.556 316.871 297.517 316.692 297.517C316.513 297.517 316.336 297.556 316.175 297.63L309.693 301.151C309.425 301.303 309.438 301.555 309.693 301.706L317.195 305.77ZM277.257 327.451C277.416 327.526 277.59 327.564 277.767 327.564C277.944 327.564 278.119 327.526 278.277 327.451L284.759 323.93C285.027 323.779 285.014 323.526 284.759 323.375L277.244 319.286C277.083 319.212 276.906 319.173 276.727 319.173C276.548 319.173 276.371 319.212 276.21 319.286L269.742 322.769C269.46 322.921 269.487 323.173 269.742 323.337L277.257 327.451ZM286.651 322.315C286.811 322.392 286.988 322.433 287.168 322.433C287.348 322.433 287.525 322.392 287.685 322.315L294.153 318.807C294.435 318.655 294.408 318.403 294.153 318.239L286.665 314.175C286.506 314.101 286.332 314.062 286.155 314.062C285.978 314.062 285.803 314.101 285.645 314.175L279.163 317.683C278.894 317.835 278.908 318.087 279.163 318.251L286.651 322.315ZM335.299 292.91C335.458 292.988 335.636 293.028 335.815 293.028C335.995 293.028 336.172 292.988 336.332 292.91L342.8 289.389C343.082 289.25 343.069 288.998 342.8 288.834L340.868 287.736C340.707 287.662 340.531 287.623 340.351 287.623C340.172 287.623 339.995 287.662 339.835 287.736L333.366 291.244C333.084 291.396 333.098 291.648 333.366 291.812L335.299 292.91ZM363.682 277.501C363.842 277.579 364.019 277.619 364.199 277.619C364.378 277.619 364.556 277.579 364.715 277.501L371.197 273.98C371.466 273.829 371.452 273.576 371.197 273.425L369.211 272.34C369.05 272.265 368.874 272.226 368.694 272.226C368.515 272.226 368.338 272.265 368.178 272.34L361.696 275.861C361.427 276.012 361.441 276.264 361.696 276.416L363.682 277.501ZM379.41 286.045C379.571 286.12 379.748 286.158 379.927 286.158C380.106 286.158 380.283 286.12 380.444 286.045L386.925 282.537C387.194 282.385 387.18 282.133 386.925 281.969L379.437 277.905C379.276 277.831 379.1 277.792 378.92 277.792C378.741 277.792 378.564 277.831 378.404 277.905L371.976 281.426C371.694 281.578 371.707 281.83 371.976 281.994L379.41 286.045ZM403.07 308.622L409.538 305.101C409.82 304.95 409.807 304.71 409.538 304.546L402.05 300.482C401.89 300.405 401.713 300.364 401.533 300.364C401.353 300.364 401.176 300.405 401.016 300.482L394.548 303.928C394.28 304.079 394.293 304.319 394.548 304.483L402.036 308.546C402.204 308.641 402.395 308.693 402.59 308.698C402.785 308.702 402.978 308.659 403.15 308.572L403.07 308.622ZM344.894 287.736C345.054 287.814 345.231 287.854 345.411 287.854C345.59 287.854 345.768 287.814 345.927 287.736L352.396 284.215C352.678 284.076 352.664 283.824 352.396 283.66L350.396 282.575C350.236 282.5 350.059 282.461 349.88 282.461C349.7 282.461 349.524 282.5 349.363 282.575L342.894 286.083C342.613 286.234 342.639 286.487 342.894 286.651L344.894 287.736ZM267.796 332.537C267.956 332.615 268.133 332.655 268.313 332.655C268.493 332.655 268.67 332.615 268.829 332.537L275.311 329.016C275.58 328.865 275.566 328.612 275.311 328.461L267.823 324.397C267.663 324.32 267.486 324.279 267.306 324.279C267.127 324.279 266.949 324.32 266.79 324.397L260.348 327.918C260.066 328.057 260.093 328.309 260.348 328.473L267.796 332.537Z" fill="#455A64"/>
<path d="M309.76 385.958L373.653 351.265C374.734 350.749 375.93 350.479 377.142 350.479C378.355 350.479 379.55 350.749 380.631 351.265L417.268 371.154C419.201 372.202 419.201 373.893 417.268 374.94L353.375 409.633C352.294 410.149 351.099 410.418 349.886 410.418C348.674 410.418 347.478 410.149 346.397 409.633L309.76 389.744C307.841 388.696 307.841 386.992 309.76 385.958Z" fill="#263238"/>
<path d="M427.266 219.134H427.185L416.275 213.228C415.644 212.962 414.718 213.228 413.591 214.01C403.445 221.304 389.797 223.576 378.699 220.244C377.982 219.614 377.301 218.948 376.659 218.25L376.458 218.036C376.138 217.687 375.756 217.392 375.33 217.165L375.143 217.064L364.219 211.17C362.971 210.615 361.843 211.17 361.092 212.912C350.544 237.559 328.065 262.534 313.075 268.781C311.942 269.259 310.934 269.966 310.123 270.85C309.045 271.951 308.451 273.393 308.459 274.889L310.619 330.228C310.619 346.217 317.799 363.103 332.44 371.318L343.74 377.452L343.941 377.553C350.05 380.778 356.958 382.429 363.964 382.336C365.534 382.336 367.131 382.272 368.782 382.121C371.992 381.625 374.968 380.226 377.317 378.108C410.075 346.293 426.004 303.233 426.004 279.407L428.098 221.456C428.178 220.206 427.856 219.437 427.266 219.134Z" fill="#FF5700"/>
<path d="M428.098 221.456L425.937 279.344C425.937 303.17 410.008 346.23 377.25 378.045C374.901 380.163 371.925 381.562 368.715 382.058C367.064 382.209 365.467 382.272 363.897 382.272C356.891 382.365 349.983 380.715 343.874 377.489L343.673 377.389L343.284 377.161C328.642 368.946 321.463 352.06 321.463 336.071L319.396 280.732C319.388 279.236 319.983 277.794 321.06 276.694C321.871 275.809 322.879 275.102 324.012 274.624C339.003 268.314 361.481 243.402 372.029 218.755C372.781 217.014 373.921 216.446 375.17 217.001L375.357 217.102C375.783 217.329 376.165 217.624 376.485 217.973L376.686 218.187C387.878 230.441 409.887 230.429 424.582 219.853C425.696 219.058 426.622 218.806 427.266 219.071H427.346C427.856 219.437 428.179 220.206 428.098 221.456Z" fill="#FF5700"/>
<path opacity="0.4" d="M427.199 219.058C426.568 218.793 425.642 219.058 424.515 219.84C410.679 229.798 390.348 230.391 378.686 220.169C389.838 223.513 403.459 221.241 413.578 213.934C414.691 213.139 415.617 212.887 416.262 213.152L427.199 219.058Z" fill="white"/>
<path opacity="0.4" d="M375.102 216.988C373.854 216.433 372.714 216.988 371.962 218.742C361.414 243.389 338.936 268.364 323.945 274.611C322.812 275.089 321.804 275.796 320.993 276.681C320.711 276.983 320.46 277.308 320.242 277.653L309.344 271.734C309.562 271.395 309.809 271.075 310.083 270.775C310.233 270.61 310.395 270.454 310.566 270.308L310.754 270.131L310.941 269.967C311.561 269.448 312.263 269.022 313.022 268.705C328.012 262.458 350.49 237.483 361.038 212.836C361.79 211.095 362.917 210.539 364.165 211.095L375.102 216.988Z" fill="white"/>
<path d="M310.579 270.283C310.635 270.222 310.698 270.166 310.767 270.119L310.579 270.295C310.579 270.295 310.566 270.283 310.579 270.283Z" fill="#FF5700"/>
<path opacity="0.15" d="M310.767 270.068L310.579 270.245C310.634 270.179 310.697 270.12 310.767 270.068Z" fill="black"/>
<path opacity="0.15" d="M343.901 377.477L343.7 377.389L332.4 371.243C317.759 363.027 310.579 346.141 310.579 330.152L308.418 274.813C308.395 273.723 308.717 272.651 309.344 271.734L320.241 277.653C319.624 278.569 319.307 279.635 319.329 280.719L321.49 336.058C321.49 352.048 328.669 368.87 343.31 377.149L343.7 377.376L343.901 377.477Z" fill="black"/>
<path d="M382.47 326.568L365.024 336.033L367.708 306.363C365.628 305.328 364.286 302.779 364.286 299.107C364.286 292.582 368.513 284.985 373.68 282.158C378.847 279.331 383.074 282.335 383.074 288.859C382.97 292.731 381.795 296.511 379.665 299.826L382.47 326.568Z" fill="#455A64"/>
<path d="M382.443 326.568L366.648 317.986L365.011 336.033L382.443 326.568Z" fill="#37474F"/>
<path d="M373.734 282.158C370.311 284.013 367.346 287.9 365.682 292.191L379.786 299.826C381.916 296.511 383.091 292.731 383.195 288.859C383.154 282.335 378.941 279.331 373.734 282.158Z" fill="#37474F"/>
<path d="M522.219 384.101L514.378 387.526C505.129 391.565 494.163 392.005 483.585 387.811C467.695 381.5 457.328 366.571 456.22 350.746L438.11 343.52L437.135 332.348L427.593 328.585L414.13 334.03L408.954 331.941L403.355 323.644L394.242 319.911L386.742 323.186L375.127 318.56L365.28 298.215L368.809 287.845L376.731 284.385L463.356 325.332C466.558 320.592 471.928 316.294 478.348 313.334L486.39 309.821C494.545 307.449 500.348 309.524 509.175 313.019C530.264 321.366 541.628 344.847 534.569 365.486C531.309 374.854 530.164 379.834 522.219 384.101ZM521.769 360.174C522.616 357.014 522.407 354.021 521.157 351.439C519.907 348.856 517.652 346.757 514.575 345.31C508.567 342.961 502.153 345.763 500.159 351.606C499.312 354.766 499.521 357.759 500.771 360.342C502.021 362.924 504.276 365.024 507.353 366.47C513.24 368.871 519.775 366.018 521.769 360.174Z" fill="#FFCC05"/>
<path opacity="0.1" d="M522.219 384.101L514.378 387.526C505.129 391.565 494.163 392.005 483.585 387.811C467.695 381.5 457.328 366.571 456.22 350.746L438.11 343.52L437.135 332.348L427.593 328.585L414.13 334.03L408.954 331.941L403.355 323.644L394.242 319.911L386.742 323.186L375.127 318.56L365.28 298.215L368.809 287.845L376.731 284.385L463.356 325.332C466.558 320.592 471.928 316.294 478.348 313.334L486.39 309.821C494.545 307.449 500.348 309.524 509.175 313.019C530.264 321.366 541.628 344.847 534.569 365.486C531.309 374.854 530.164 379.834 522.219 384.101ZM521.769 360.174C522.616 357.014 522.407 354.021 521.157 351.439C519.907 348.856 517.652 346.757 514.575 345.31C508.567 342.961 502.153 345.763 500.159 351.606C499.312 354.766 499.521 357.759 500.771 360.342C502.021 362.924 504.276 365.024 507.353 366.47C513.24 368.871 519.775 366.018 521.769 360.174Z" fill="black"/>
<path d="M491.506 384.351C475.596 378.048 465.229 363.12 464.141 347.286L446.031 340.06L445.036 328.896L435.514 325.125L422.031 330.578L416.875 328.481L411.276 320.184L401.454 316.094L394.724 319.7L383.088 315.083L373.241 294.737L376.771 284.367L471.337 321.846C481.282 308.224 499.732 302.718 517.036 309.586C538.125 317.932 549.489 341.413 542.43 362.052C535.371 382.692 512.594 392.697 491.506 384.351ZM529.69 356.714C530.538 353.554 530.328 350.561 529.078 347.979C527.828 345.396 525.573 343.296 522.496 341.85C516.488 339.501 510.075 342.302 508.08 348.146C507.233 351.306 507.443 354.299 508.693 356.882C509.942 359.464 512.197 361.564 515.275 363.01C521.282 365.359 527.716 362.549 529.71 356.705L529.69 356.714Z" fill="#FFCC05"/>
<path opacity="0.3" d="M475.19 359.698C479.645 368.901 487.216 375.99 496.501 379.676C504.64 382.906 513.296 383.026 520.232 379.996C527.169 376.967 532.748 370.631 535.446 362.668C538.545 353.572 537.81 343.499 533.355 334.296C528.901 325.092 521.33 318.004 512.045 314.318C503.885 311.097 495.25 310.968 488.293 314.006C481.337 317.044 475.778 323.372 473.1 331.326C470.001 340.421 470.736 350.495 475.19 359.698ZM530.581 335.507C534.896 344.423 535.633 354.148 532.659 362.899C530.189 370.124 525.364 375.755 519.433 378.345C513.502 380.935 505.962 380.705 498.5 377.817C489.491 374.3 482.26 367.411 477.945 358.495C473.629 349.579 472.913 339.846 475.887 331.095C478.357 323.869 483.182 318.239 489.093 315.658C495.004 313.076 502.564 313.297 510.046 316.177C518.974 319.729 526.266 326.591 530.581 335.507Z" fill="black"/>
<path opacity="0.1" d="M477.231 374.986L469.189 378.498C461.464 370.853 457.014 361.384 456.159 350.772L464.081 347.313C464.988 357.908 469.479 367.359 477.231 374.986Z" fill="black"/>
<path opacity="0.1" d="M445.991 340.078L438.049 343.546L437.063 332.35L444.984 328.89L445.991 340.078Z" fill="black"/>
<path opacity="0.1" d="M435.463 325.119L427.521 328.587L414.058 334.032L421.979 330.573L435.463 325.119Z" fill="black"/>
<path opacity="0.1" d="M416.852 328.535L408.911 332.003L403.312 323.706L411.254 320.237L416.852 328.535Z" fill="black"/>
<path opacity="0.1" d="M373.224 294.803L383.065 315.136L375.124 318.605L365.282 298.272L373.224 294.803Z" fill="black"/>
<path opacity="0.15" d="M376.774 284.424L368.832 287.892L365.303 298.263L373.224 294.803L374.78 290.268L371.362 291.76L372.213 289.243L375.672 287.732L376.774 284.424Z" fill="black"/>
<path d="M375.672 287.733L374.78 290.268L371.362 291.76L372.213 289.243L375.672 287.733Z" fill="#FFCC05"/>
<path opacity="0.15" d="M375.671 287.733L372.213 289.243L469.193 327.683L470.071 325.168L375.671 287.733Z" fill="black"/>
<path opacity="0.15" d="M470.071 325.168L466.613 326.679L469.193 327.683L470.071 325.168Z" fill="black"/>
<g filter="url(#filter0_d)">
<path d="M636.263 386.14C637.216 353.328 634.411 345.39 625.098 339.37L621.501 358.413C621.501 358.413 625.742 380.864 625.286 388.335C624.883 394.91 624.199 403.126 622.602 408.427C622.297 409.366 621.639 410.169 620.75 410.686C618.817 411.97 617.094 413.513 615.637 415.267C614.295 416.642 613.06 416.983 613.234 417.425C613.507 417.906 613.962 418.272 614.509 418.452C615.056 418.632 615.655 418.612 616.187 418.396C617.378 417.96 618.505 417.383 619.542 416.68C618.727 418.699 617.566 420.579 616.106 422.245C612.778 426.031 612.63 428.429 619.34 428.492C623.554 428.492 626.909 426.082 630.077 417.374C631.308 414.184 632.294 410.916 633.029 407.594C634.572 398.974 636.116 391.427 636.263 386.14Z" fill="#B16668"/>
<path d="M617.274 336.871C620.134 336.395 623.081 336.804 625.673 338.038C628.265 339.271 630.361 341.262 631.647 343.711C635.552 350.261 636.505 361.543 637.015 372.737C637.015 372.737 629.271 378.833 619.985 375.842L617.274 336.871Z" fill="#00763D"/>
<path opacity="0.7" d="M617.274 336.871C620.134 336.395 623.081 336.804 625.673 338.038C628.265 339.271 630.361 341.262 631.647 343.711C635.552 350.261 636.505 361.543 637.015 372.737C637.015 372.737 629.271 378.833 619.985 375.842L617.274 336.871Z" fill="black"/>
<path d="M630.345 517.665C631.043 517.918 631.217 519.18 631.325 521.691C631.405 523.584 631.848 526.903 629.473 527.572C627.097 528.241 623.635 527.887 622.118 526.095C620.284 523.695 618.322 521.383 616.24 519.167C613.905 516.807 611.369 514.586 610.416 511.267C609.571 508.276 610.282 506.976 612.456 506.105C615.449 504.843 620.146 508.819 622.494 509.437C624.507 509.967 629.634 517.413 630.345 517.665Z" fill="#032535"/>
<path d="M630.345 515.331V518.422C629.112 519.161 627.689 519.57 626.228 519.605C624.767 519.641 623.323 519.302 622.051 518.624C621.904 518.334 621.192 514.22 621.192 514.22L630.345 515.331Z" fill="#B16668"/>
<path d="M603.773 535.434C604.35 537.092 604.834 538.777 605.223 540.482C605.625 542.35 606.202 545.53 605.518 546.868C604.833 548.206 602.109 549.177 597.909 549.152C595.225 549.152 590.957 550.868 588.058 552.395C585.16 553.922 578.825 554.591 575.645 554.238C571.914 553.822 568.049 551.79 567.445 550.338C566.841 548.887 567.633 547.373 576.45 543.839C576.531 543.839 588.689 540.053 592.943 535.674L603.773 535.434Z" fill="#032535"/>
<path d="M603.773 532.103V535.699C603.773 536.961 602.15 538.955 597.895 538.816C594.916 538.715 592.823 537.958 592.943 535.649V532.304L603.773 532.103Z" fill="#B16668"/>
<path d="M632.479 474.404C631.749 468.942 630.45 463.561 628.6 458.339C628.6 458.339 629.768 444.457 630.331 431.344C630.935 417.147 630.331 399.315 630.586 395.769C630.586 395.769 581.885 386.506 581.013 402.912C580.141 419.318 582.945 461.077 583.523 468.283C584.1 475.489 585.415 481.875 586.998 493.523C588.582 505.171 592.943 532.279 592.943 532.279C594.627 533.085 596.496 533.487 598.385 533.452C600.274 533.417 602.125 532.945 603.773 532.077C603.773 532.077 607.209 499.265 606.846 490.949C606.568 484.788 605.44 478.688 603.491 472.801C603.491 472.801 604.417 459.272 605.236 447.561C606.055 435.85 606.914 430.133 607.101 425.022L608.148 424.53C608.148 424.53 609.222 444.835 609.799 452.041C610.376 459.247 611.584 466.15 613.825 479.54C615.757 491.163 621.488 515.734 621.488 515.734C627.044 518.561 630.372 515.356 630.372 515.356C630.372 515.356 633.968 484.487 632.479 474.404Z" fill="#37474F"/>
<path d="M607.101 424.997C607.101 424.997 618.911 419.507 624.816 414.585C624.816 414.585 619.327 421.854 612.121 425.085C612.121 425.085 609.557 450.325 609.571 449.795L608.081 424.959L607.101 424.997Z" fill="#032535"/>
<path d="M596.58 331.684L599.465 346.601L613.798 345.604L610.792 328.706L596.58 331.684Z" fill="#B16668"/>
<path d="M628.922 344.519C627.513 340.468 622.038 336.051 616.563 336.947C608.435 338.266 600.426 340.169 592.608 342.638C587.602 344.317 583.026 348.393 582.61 363.903C582.61 363.903 580.932 400.047 580.906 407.038C591.368 410.898 602.763 411.955 613.825 410.092C628.882 407 630.707 401.119 630.707 401.119C630.707 401.119 630.895 375.122 630.439 363.903C630.036 354.362 629.902 347.308 628.922 344.519Z" fill="#032535"/>
<g opacity="0.15">
<path opacity="0.15" d="M628.922 344.519C627.513 340.468 622.038 336.051 616.563 336.947C608.435 338.266 600.426 340.169 592.608 342.638C587.602 344.317 583.026 348.393 582.61 363.903C582.61 363.903 580.932 400.047 580.906 407.038C591.368 410.898 602.763 411.955 613.825 410.092C628.882 407 630.707 401.119 630.707 401.119C630.707 401.119 630.895 375.122 630.439 363.903C630.036 354.362 629.902 347.308 628.922 344.519Z" fill="#2F80ED"/>
</g>
<path d="M585.536 313.499C585.536 313.499 581.899 318.951 582.342 319.468C582.784 319.985 585.562 320.402 585.562 320.402L585.536 313.499Z" fill="#9A4A4D"/>
<path d="M595.614 298.468C588.045 300.134 585.925 303.327 585.482 314.723C585.012 326.611 586.394 330.321 588.085 331.886C589.239 332.946 595.466 333.009 598.593 332.126C602.498 331.028 611.315 327.873 615.328 321.815C620.052 314.673 621.112 305.119 615.784 301.321C608.269 295.97 598.701 297.787 595.614 298.468Z" fill="#B16668"/>
<path d="M585.562 301.434C587.3 303.816 589.753 305.657 592.608 306.722C594.057 308.274 593.266 314.294 595.815 315.303C595.815 315.303 596.916 310.886 600.861 311.366C604.807 311.846 605.491 316.565 603.062 319.506C600.633 322.446 598.285 321.386 598.285 321.386C598.285 321.386 598.553 327.696 601.599 331.154C601.599 331.154 604.981 332.113 611.154 330.738C614.939 329.892 620.213 325.311 622.36 320.528C626.909 310.432 627.017 301.384 620.159 298.822C619.314 294.215 615.395 292.234 610.966 291.376C601.425 289.521 595.278 295.162 587.938 294.632C583.737 294.354 582.959 297.232 585.562 301.434Z" fill="#032535"/>
<path d="M620.307 300.361L624.802 297.749C624.658 297.406 624.435 297.097 624.15 296.844C623.865 296.59 623.524 296.399 623.152 296.283C622.779 296.167 622.384 296.129 621.995 296.172C621.605 296.215 621.23 296.337 620.896 296.531C620.562 296.725 620.278 296.986 620.063 297.294C619.848 297.603 619.707 297.952 619.651 298.317C619.595 298.682 619.624 299.054 619.737 299.408C619.851 299.761 620.045 300.087 620.307 300.361Z" fill="#032535"/>
<path d="M532.003 369.494C534.352 370.478 562.118 389.762 566.439 387.515C570.76 385.269 592.97 360.874 592.97 360.874C594.847 358.149 595.845 354.972 595.845 351.725C595.845 348.478 594.847 345.301 592.97 342.575C592.97 342.575 585.858 343.837 582.127 349.112C578.396 354.388 562.319 373.381 562.319 373.381C558.347 371.513 554.383 369.62 550.429 367.702C547.181 366.112 543.92 364.534 540.74 362.83C539.846 362.441 539.003 361.954 538.23 361.379C536.66 359.915 536.888 356.331 536.969 354.463C536.969 353.567 536.969 352.671 537.103 351.775C537.237 350.677 537.465 347.989 535.358 348.847C534.959 349.026 534.614 349.295 534.352 349.63C534.028 350.041 533.775 350.496 533.6 350.98C533.211 352.141 533.332 353.416 532.969 354.59C532.926 354.762 532.838 354.923 532.714 355.057C532.527 355.193 532.293 355.261 532.057 355.246C528.997 355.157 526.098 351.119 524.689 348.936C524.202 347.895 523.393 347.015 522.368 346.412C520.704 345.667 518.69 346.727 517.603 348.141C516.294 349.999 515.759 352.245 516.1 354.451C516.384 357.47 517.813 360.292 520.126 362.401C523.623 365.389 527.64 367.789 532.003 369.494Z" fill="#B16668"/>
<path d="M595.292 341.793C592.232 342.121 587.146 342.336 582.154 347.649C576.276 353.883 568.613 363.979 568.613 363.979C569.396 366.965 571.079 369.675 573.459 371.784C575.84 373.892 578.817 375.31 582.033 375.867C582.033 375.867 592.541 365.771 595.453 360.168C598.365 354.564 598.848 345.554 595.292 341.793Z" fill="#00763D"/>
<path opacity="0.7" d="M595.292 341.793C592.232 342.121 587.146 342.336 582.154 347.649C576.276 353.883 568.613 363.979 568.613 363.979C569.396 366.965 571.079 369.675 573.459 371.784C575.84 373.892 578.817 375.31 582.033 375.867C582.033 375.867 592.541 365.771 595.453 360.168C598.365 354.564 598.848 345.554 595.292 341.793Z" fill="black"/>
</g>
<defs>
<filter id="filter0_d" x="512" y="291" width="129.015" height="271.33" filterUnits="userSpaceOnUse" color-interpolation-filters="sRGB">
<feFlood flood-opacity="0" result="BackgroundImageFix"/>
<feColorMatrix in="SourceAlpha" type="matrix" values="0 0 0 0 0 0 0 0 0 0 0 0 0 0 0 0 0 0 127 0"/>
<feOffset dy="4"/>
<feGaussianBlur stdDeviation="2"/>
<feColorMatrix type="matrix" values="0 0 0 0 0 0 0 0 0 0 0 0 0 0 0 0 0 0 0.25 0"/>
<feBlend mode="normal" in2="BackgroundImageFix" result="effect1_dropShadow"/>
<feBlend mode="normal" in="SourceGraphic" in2="effect1_dropShadow" result="shape"/>
</filter>
</defs>
</svg>
