<svg id="Layer_1" data-name="Layer 1" xmlns="http://www.w3.org/2000/svg" viewBox="0 0 193.92 198.96"><defs><style>.cls-1,.cls-2{fill:#f15a24;}.cls-1,.cls-2,.cls-3{stroke:#f15a24;stroke-miterlimit:10;}.cls-1{stroke-width:3.09px;}.cls-2{stroke-width:1.55px;}.cls-3{fill:none;stroke-width:4.64px;}</style></defs><title>Logo-orange</title><g id="Feather"><path class="cls-1" d="M325.15,139.78s-.25.48-.71,1.4-1.13,2.26-2,3.95-2.05,3.7-3.36,6-2.95,4.85-4.7,7.63-3.85,5.67-6.21,8.6l-1.75,2.27c-.63.73-1.26,1.48-1.89,2.24l-1.94,2.29-2.08,2.24-2.12,2.27-2.24,2.21c-1.48,1.51-3.09,2.93-4.69,4.37s-3.32,2.78-5,4.18-3.44,2.69-5.24,3.92c-3.55,2.56-7.28,4.84-11,7s-7.46,4.05-11.09,5.87-7.19,3.43-10.52,5-6.45,3.16-9.2,4.8a45.14,45.14,0,0,0-7.07,5.09,25.26,25.26,0,0,0-2.49,2.66,19.41,19.41,0,0,0-1.81,2.53,21.79,21.79,0,0,0-1.93,3.94l-.55,1.47s.14-.53.41-1.51a12.28,12.28,0,0,1,.58-1.81c.14-.35.29-.72.46-1.12l.25-.61c.1-.21.22-.41.34-.62a20,20,0,0,1,1.68-2.72,26.12,26.12,0,0,1,2.38-2.92,41.48,41.48,0,0,1,7-5.69c2.74-1.82,5.84-3.53,9.13-5.27l10.36-5.36c3.57-1.86,7.22-3.86,10.86-6s7.26-4.43,10.72-7c1.79-1.19,3.45-2.54,5.17-3.81s3.34-2.65,4.92-4.06,3.18-2.76,4.66-4.21l2.25-2.13,2.13-2.19,2.09-2.15,2-2.2,1.94-2.14,1.8-2.17c2.41-2.82,4.51-5.65,6.49-8.23l2.71-3.8,1.26-1.76,1.13-1.71c1.45-2.21,2.79-4.1,3.75-5.76s1.79-2.89,2.33-3.76Z" transform="translate(-183.5 -42.6)"/><path class="cls-2" d="M247.78,209.51a82.54,82.54,0,0,0,12.22-11,55.26,55.26,0,0,0,9-13.71c1.16-2.49,2.1-5.07,3.09-7.67.5-1.3,1-2.61,1.62-3.9a13.8,13.8,0,0,1,2.4-3.65,8.58,8.58,0,0,1,1.76-1.41,7.79,7.79,0,0,1,1-.52l.52-.21a2.17,2.17,0,0,1,.77-.19,1.2,1.2,0,0,1,.67.23,1.36,1.36,0,0,1,.39.42,2.31,2.31,0,0,1,.27.72,6.44,6.44,0,0,1,.13,1.18,19.39,19.39,0,0,1-.06,2.17c-.11,1.41-1.62,3.25-1.78,4.62-.08.67,1.45-2.27,1.43-1.69,0,.06-.17-3-.17-3l-.11,6.34.37-3.15s-1.08-3.54-.48-5.27c-.65,1.64-.05,8-.21,8a1.21,1.21,0,0,0-.32-.11.73.73,0,0,0-.52.14c-.16.14-.07.08-.06,0l.11-.21.5-.91a217.09,217.09,0,0,1,18.19-27.93,226.91,226.91,0,0,1,22.07-24.9c2-1.94,4-3.84,6.08-5.68,1-.93,2.09-1.84,3.16-2.73.53-.45,1.08-.89,1.63-1.32l.86-.66.25-.17.16-.1.06,0,.1,0a1.45,1.45,0,0,1,.6-.18,1.14,1.14,0,0,1,.86.46,1.21,1.21,0,0,1,.22.42l.33.65a55.34,55.34,0,0,1,2.71,7.79,54.17,54.17,0,0,1,1.55,8.35,47.28,47.28,0,0,1-1.2,17,53.87,53.87,0,0,1-6.85,15.5,71,71,0,0,1-10.7,12.94,105.32,105.32,0,0,1-12.89,10.54,134.42,134.42,0,0,1-14.14,8.6,137.23,137.23,0,0,1-14.45,6.57l-.42-.54a3,3,0,0,1,.75,2.25,3.36,3.36,0,0,1-1.12,2,7.82,7.82,0,0,1-1.78,1.22,15.52,15.52,0,0,1-1.93.82,29.28,29.28,0,0,1-4,1.08c-1.34.29-2.69.5-4,.69-.67.1-1.35.16-2,.25s-1.35.13-2,.2c-1.36.12-2.71.21-4.07.29-2.72.16-5.43.21-8.15.26,2.71-.14,5.43-.28,8.13-.53,1.35-.12,2.71-.25,4.05-.42.67-.09,1.35-.15,2-.25s1.34-.18,2-.3c1.34-.22,2.67-.46,4-.78a28.26,28.26,0,0,0,3.87-1.15,15,15,0,0,0,1.83-.82,7.54,7.54,0,0,0,1.58-1.13,2.55,2.55,0,0,0,.82-1.54,2.08,2.08,0,0,0-.55-1.54l-.44-.49.61-.25A139.24,139.24,0,0,0,292.74,194a135.94,135.94,0,0,0,13.81-8.78A103.26,103.26,0,0,0,319,174.57a74,74,0,0,0,10.19-12.7A51.38,51.38,0,0,0,335.58,147a45.67,45.67,0,0,0,1.06-16,51.36,51.36,0,0,0-1.51-8,63.15,63.15,0,0,0-2.65-7.66l-.19-.48c-.52-.14,3,1.4,1.72.67l0,0-.05,0-.18.12-.78.6c-.53.41-1.05.84-1.57,1.27-1.05.87-2.08,1.76-3.1,2.67-2.05,1.81-4.05,3.67-6,5.57q-5.91,5.71-11.4,11.86t-10.62,12.61q-5.08,6.5-9.75,13.32t-8.8,14l-.52.9-.14.24a1.53,1.53,0,0,1-.37.45.84.84,0,0,1-.64.18.83.83,0,0,1-.66-.45,1.05,1.05,0,0,1-.11-.27,1.25,1.25,0,0,1,0-.15,2.83,2.83,0,0,1,0-.38c0-.8.13-1.46.21-2.16.17-1.39.35-2.75.46-4.1a16.89,16.89,0,0,0,.08-2A5.55,5.55,0,0,0,280,169a.63.63,0,0,0-.08-.24c0-.05.09.11.25.1s-.1,0-.21.09-.29.11-.44.16a7.46,7.46,0,0,0-2.3,1.55c-1.78,1.81-2.78,4.44-3.82,7s-2.09,5.16-3.35,7.66a55.69,55.69,0,0,1-9.57,13.64A77.11,77.11,0,0,1,247.78,209.51Z" transform="translate(-183.5 -42.6)"/></g><path id="Circle" class="cls-3" d="M225.89,229.45c58.59,26,124.1-2.39,143.32-53.7C386,130.91,366.37,71.39,316.7,51.38c-46.2-18.61-98.39,5-120,45-22,40.74-4.09,83.16-1.58,88.84" transform="translate(-183.5 -42.6)"/></svg>