<svg id="Layer_1" data-name="Layer 1" xmlns="http://www.w3.org/2000/svg" viewBox="0 0 486.43 198.96"><defs><style>.cls-1{font-size:101.4px;font-family:MADETommySoft-Light, MADE Tommy Soft;font-weight:300;}.cls-1,.cls-2,.cls-3{fill:#f15a24;}.cls-2,.cls-3,.cls-4{stroke:#f15a24;stroke-miterlimit:10;}.cls-2{stroke-width:3.09px;}.cls-3{stroke-width:1.55px;}.cls-4{fill:none;stroke-width:4.64px;}</style></defs><title>LogoText-Orange</title><g id="Text"><text class="cls-1" transform="translate(201.92 87.56)">test<tspan x="0" y="80">space</tspan></text></g><g id="Feather"><path class="cls-2" d="M194.89,129.82l-.71,1.4c-.47.91-1.13,2.26-2,3.95s-2,3.7-3.36,6-3,4.85-4.71,7.63-3.85,5.66-6.21,8.6l-1.75,2.26-1.89,2.24-1.94,2.29-2.07,2.24-2.13,2.27L165.86,171c-1.48,1.51-3.08,2.92-4.69,4.36s-3.31,2.78-5,4.18-3.44,2.7-5.25,3.93c-3.55,2.56-7.27,4.84-11,7s-7.46,4-11.09,5.87-7.19,3.43-10.51,5-6.45,3.15-9.2,4.79a46.4,46.4,0,0,0-7.08,5.09,25.26,25.26,0,0,0-2.49,2.66,20.11,20.11,0,0,0-1.81,2.53,23.63,23.63,0,0,0-1.93,4l-.55,1.47s.15-.53.42-1.52a11.44,11.44,0,0,1,.58-1.8l.45-1.12.26-.62c.09-.2.22-.4.33-.61A21.07,21.07,0,0,1,99,213.43a26,26,0,0,1,2.39-2.92,41.06,41.06,0,0,1,7-5.68,100.81,100.81,0,0,1,9.12-5.27l10.36-5.36c3.58-1.87,7.23-3.86,10.86-6s7.26-4.43,10.73-7c1.78-1.19,3.45-2.55,5.17-3.81s3.34-2.66,4.91-4.07,3.18-2.76,4.67-4.21l2.24-2.13,2.13-2.18c.71-.72,1.4-1.44,2.09-2.16l2-2.19,1.94-2.14,1.8-2.17c2.42-2.83,4.51-5.66,6.5-8.23q1.41-2,2.7-3.8l1.27-1.77,1.13-1.7c1.45-2.22,2.78-4.11,3.74-5.76s1.8-2.9,2.34-3.77Z" transform="translate(-53.24 -32.65)"/><path class="cls-3" d="M117.51,199.56a82.11,82.11,0,0,0,12.22-11,55.2,55.2,0,0,0,9-13.7c1.17-2.49,2.11-5.08,3.09-7.67.5-1.3,1-2.61,1.62-3.9a14.05,14.05,0,0,1,2.4-3.65,8.63,8.63,0,0,1,1.76-1.42,9.48,9.48,0,0,1,1-.52c.17-.07.34-.15.52-.21a1.9,1.9,0,0,1,.76-.18,1.15,1.15,0,0,1,.68.22,1.34,1.34,0,0,1,.38.43,2.31,2.31,0,0,1,.27.72,6.31,6.31,0,0,1,.14,1.18c0,.75,0,1.46-.07,2.17-.11,1.41-1.62,3.25-1.78,4.62-.08.67,1.45-2.28,1.44-1.7a.58.58,0,0,0,0,.14l-.3,3.23.36-3.15s-1.51,4.13-.91,2.4c.07-.22.39.34.22.3a1,1,0,0,0-.31-.1.72.72,0,0,0-.53.14c-.16.14-.07.07-.06,0l.12-.21.49-.91a217.05,217.05,0,0,1,18.2-27.92A228,228,0,0,1,190.32,114c2-1.93,4-3.83,6.08-5.68,1-.92,2.09-1.83,3.16-2.73.54-.44,1.08-.88,1.64-1.32l.86-.65.24-.17.16-.11.06,0,.1-.05a1.59,1.59,0,0,1,.6-.19,1.26,1.26,0,0,1,1.09.89l.32.64a55.17,55.17,0,0,1,4.27,16.15,47.08,47.08,0,0,1-1.21,17,53.45,53.45,0,0,1-6.85,15.5,70.9,70.9,0,0,1-10.7,12.94,104.49,104.49,0,0,1-12.89,10.53,131.48,131.48,0,0,1-14.14,8.6,136.61,136.61,0,0,1-14.45,6.58l-.42-.55a2.93,2.93,0,0,1,.75,2.26,3.3,3.3,0,0,1-1.11,2,8,8,0,0,1-1.78,1.22,16.11,16.11,0,0,1-1.93.81,28,28,0,0,1-4,1.08c-1.33.29-2.68.5-4,.69-.67.1-1.35.17-2,.25s-1.36.14-2,.21c-1.35.12-2.71.21-4.07.28-2.71.17-5.43.22-8.14.27,2.71-.14,5.42-.28,8.13-.53q2-.18,4.05-.42c.67-.09,1.35-.15,2-.26s1.34-.18,2-.29c1.33-.23,2.67-.47,4-.78a29.88,29.88,0,0,0,3.88-1.15,15.81,15.81,0,0,0,1.82-.83,6.67,6.67,0,0,0,1.58-1.13,2.48,2.48,0,0,0,.82-1.53,2.08,2.08,0,0,0-.55-1.54l-.44-.49.61-.25A137.44,137.44,0,0,0,162.47,184a134.22,134.22,0,0,0,13.81-8.78,103.18,103.18,0,0,0,12.45-10.59,74.07,74.07,0,0,0,10.19-12.71,51.16,51.16,0,0,0,6.39-14.85A45.71,45.71,0,0,0,206.37,121a51,51,0,0,0-1.5-7.94,63.3,63.3,0,0,0-2.65-7.67l-.19-.48c-.52-.14,3,1.4,1.71.68l0,0-.06,0-.18.13-.78.59-1.57,1.28c-1,.87-2.08,1.76-3.1,2.66q-3.06,2.71-6,5.58c-3.94,3.8-7.74,7.77-11.4,11.86s-7.22,8.28-10.61,12.61-6.64,8.77-9.75,13.32-6,9.21-8.81,14l-.51.9-.14.25a1.42,1.42,0,0,1-.37.44.86.86,0,0,1-1.31-.27.89.89,0,0,1-.1-.26c0-.07,0-.12,0-.15a2.83,2.83,0,0,1,0-.38c0-.81.13-1.47.21-2.17.17-1.38.36-2.75.47-4.1a19.1,19.1,0,0,0,.07-2,4.63,4.63,0,0,0-.08-.88c0-.12.14-.13.13-.15s-.12,0,0,0-.09,0-.21.08l-.43.17a8,8,0,0,0-.83.41,6.74,6.74,0,0,0-1.47,1.14c-1.78,1.81-2.78,4.44-3.83,7s-2.09,5.17-3.34,7.67a55.94,55.94,0,0,1-9.58,13.63A76.75,76.75,0,0,1,117.51,199.56Z" transform="translate(-53.24 -32.65)"/></g><path id="Circle" class="cls-4" d="M95.62,219.5c58.6,26,124.1-2.4,143.33-53.7C255.75,121,236.1,61.44,186.43,41.43c-46.2-18.61-98.39,5-120,45-22,40.74-4.09,83.15-1.58,88.84" transform="translate(-53.24 -32.65)"/></svg>