<svg id="Layer_1" data-name="Layer 1" xmlns="http://www.w3.org/2000/svg" viewBox="0 0 560 288"><defs><style>.cls-1{font-size:101.4px;font-family:MADETommySoft-Light, MADE Tommy Soft;font-weight:300;}.cls-1,.cls-2,.cls-3,.cls-4{fill:#fff;stroke:#fff;stroke-miterlimit:10;}.cls-2{stroke-width:3.09px;}.cls-3{stroke-width:1.55px;}.cls-4{stroke-width:4.64px;}</style></defs><title>LogoText-White</title><g id="Text"><text class="cls-1" transform="translate(236.33 130.17)">test<tspan x="0" y="80">space</tspan></text></g><g id="Feather"><path class="cls-2" d="M176.06,139.78s-.25.48-.71,1.4-1.13,2.26-2,3.95-2.05,3.7-3.36,6-2.95,4.85-4.71,7.63-3.84,5.67-6.2,8.6l-1.76,2.27-1.89,2.24-1.93,2.29-2.08,2.24-2.12,2.27L147,180.9c-1.48,1.51-3.09,2.93-4.7,4.37s-3.31,2.78-5,4.18-3.44,2.69-5.25,3.92c-3.55,2.56-7.27,4.84-11,7s-7.47,4.05-11.09,5.87-7.19,3.43-10.52,5-6.45,3.16-9.2,4.8a45.73,45.73,0,0,0-7.08,5.09,25.26,25.26,0,0,0-2.49,2.66,20.28,20.28,0,0,0-1.8,2.53A22.67,22.67,0,0,0,77,230.31c-.35,1-.55,1.47-.55,1.47l.42-1.51a12.28,12.28,0,0,1,.58-1.81l.45-1.12c.09-.2.17-.4.26-.61s.22-.41.34-.62a20.86,20.86,0,0,1,1.67-2.72,26.25,26.25,0,0,1,2.39-2.92,41.48,41.48,0,0,1,7-5.69c2.73-1.82,5.83-3.53,9.12-5.27L109,204.15c3.58-1.86,7.23-3.86,10.87-6s7.26-4.43,10.72-7c1.78-1.19,3.45-2.54,5.17-3.81s3.34-2.65,4.92-4.06,3.18-2.76,4.66-4.21q1.13-1.08,2.25-2.13l2.13-2.19,2.08-2.15,2-2.2c.65-.72,1.3-1.43,1.93-2.14l1.81-2.17c2.41-2.82,4.5-5.65,6.49-8.23l2.71-3.8,1.26-1.76,1.13-1.71c1.45-2.21,2.78-4.1,3.74-5.76s1.8-2.89,2.34-3.76Z"/><path class="cls-3" d="M98.68,209.51a82,82,0,0,0,12.22-11,55,55,0,0,0,9-13.71c1.17-2.49,2.11-5.07,3.1-7.67.5-1.3,1-2.61,1.61-3.9a13.84,13.84,0,0,1,2.41-3.65,8.8,8.8,0,0,1,1.75-1.41,8.66,8.66,0,0,1,1-.52c.17-.07.34-.15.52-.21a2.1,2.1,0,0,1,.77-.19,1.2,1.2,0,0,1,.67.23,1.31,1.31,0,0,1,.38.42,2.65,2.65,0,0,1,.28.72,7.45,7.45,0,0,1,.13,1.18c0,.75,0,1.46-.07,2.17-.1,1.41-1.61,3.25-1.78,4.62-.07.67,1.45-2.27,1.44-1.69,0,.06-.17-3-.17-3l-.11,6.34.37-3.15s-1.08-3.54-.48-5.27c-.65,1.64-.05,8-.22,8a1,1,0,0,0-.31-.11.73.73,0,0,0-.52.14c-.17.14-.07.08-.07,0l.12-.21.5-.91a216,216,0,0,1,18.19-27.93,227.87,227.87,0,0,1,22.06-24.9c2-1.94,4-3.84,6.09-5.68q1.54-1.4,3.15-2.73c.54-.45,1.08-.89,1.64-1.32l.86-.66.25-.17.15-.1.07,0,.09,0a1.47,1.47,0,0,1,.61-.18,1.16,1.16,0,0,1,.86.46,1.21,1.21,0,0,1,.22.42c.11.22.22.43.32.65a54,54,0,0,1,2.72,7.79,55.48,55.48,0,0,1,1.55,8.35,47.06,47.06,0,0,1-1.21,17,53.58,53.58,0,0,1-6.84,15.5,71.38,71.38,0,0,1-10.7,12.94,105.32,105.32,0,0,1-12.89,10.54,135.59,135.59,0,0,1-14.14,8.6,137.23,137.23,0,0,1-14.45,6.57l-.42-.54a2.94,2.94,0,0,1,.74,2.25,3.3,3.3,0,0,1-1.11,2,8,8,0,0,1-1.78,1.22,16.19,16.19,0,0,1-1.93.82,29.68,29.68,0,0,1-4,1.08c-1.34.29-2.69.5-4,.69-.68.1-1.36.16-2,.25s-1.36.13-2,.2c-1.36.12-2.72.21-4.08.29-2.71.16-5.43.21-8.14.26,2.71-.14,5.42-.28,8.13-.53,1.35-.12,2.7-.25,4-.42.67-.09,1.35-.15,2-.25s1.34-.18,2-.3c1.34-.22,2.67-.46,4-.78a28.69,28.69,0,0,0,3.87-1.15,14.23,14.23,0,0,0,1.82-.82,7.29,7.29,0,0,0,1.58-1.13,2.52,2.52,0,0,0,.83-1.54,2.17,2.17,0,0,0-.55-1.54l-.45-.49.62-.25A139.24,139.24,0,0,0,143.65,194a138.19,138.19,0,0,0,13.81-8.78,103.26,103.26,0,0,0,12.45-10.6,74,74,0,0,0,10.19-12.7A51.08,51.08,0,0,0,186.48,147a45.44,45.44,0,0,0,1.06-16,51.33,51.33,0,0,0-1.5-8,63.15,63.15,0,0,0-2.65-7.66l-.19-.48c-.52-.14,3,1.4,1.71.67l.05,0-.06,0-.17.12-.78.6c-.53.41-1,.84-1.57,1.27-1,.87-2.08,1.76-3.11,2.67q-3.06,2.72-6,5.57-5.91,5.71-11.4,11.86c-3.67,4.08-7.22,8.29-10.61,12.61s-6.64,8.78-9.75,13.32-6.05,9.21-8.8,14l-.52.9-.14.24a1.53,1.53,0,0,1-.37.45.86.86,0,0,1-.64.18.85.85,0,0,1-.67-.45,1.37,1.37,0,0,1-.1-.27,1.3,1.3,0,0,0,0-.15,2.58,2.58,0,0,1,0-.38c0-.8.12-1.46.2-2.16.18-1.39.36-2.75.47-4.1.05-.68.09-1.35.08-2a5.55,5.55,0,0,0-.09-.88,1.54,1.54,0,0,0-.08-.24c0-.05.09.11.25.1s-.1,0-.21.09-.3.11-.44.16a6.46,6.46,0,0,0-.83.42,6.7,6.7,0,0,0-1.47,1.13c-1.78,1.81-2.78,4.44-3.83,7s-2.09,5.16-3.34,7.66a56,56,0,0,1-9.57,13.64A76.76,76.76,0,0,1,98.68,209.51Z"/></g><path id="Circle" class="cls-4" d="M76.79,229.45c58.6,26,124.11-2.39,143.33-53.7,16.8-44.84-2.84-104.36-52.51-124.37-46.2-18.61-98.4,5-120,45-22,40.74-4.1,83.16-1.58,88.84"/></svg>