<svg width="854" height="561" viewBox="0 0 854 561" fill="none" xmlns="http://www.w3.org/2000/svg">
<path d="M854 0H0V561H854V0Z" fill="white"/>
<path d="M128.442 448.16C127.52 447.936 126.609 447.712 125.687 447.465" stroke="#A9C6EA" stroke-miterlimit="10"/>
<path d="M121.837 446.354C104.757 441.081 88.1099 431.387 76.6436 417.956C36.2323 370.653 83.5894 310.02 130.696 290.935C153.674 281.622 174.387 270.492 181.139 244.686C187.595 220.002 169.912 194.196 165.346 170.634C156.145 123.196 199.506 86.4839 245.121 86.4839C287.251 86.4839 306.176 102.293 347.954 129.872C379.529 150.718 438.831 162.937 484.377 158.527C538.658 153.277 559.085 129.86 602.355 110.798C632.119 97.6702 673.601 94.8652 701.419 114.309C731.161 135.089 719.854 175.761 723.247 206.123C723.956 213.773 726.246 221.2 729.976 227.946C754.344 270.312 804.252 272.489 804.252 335.22C804.252 380.481 730.956 398.422 691.376 404.313" stroke="#A9C6EA" stroke-miterlimit="10" stroke-dasharray="5 3.5"/>
<path d="M689.429 404.593C688.472 404.739 687.539 404.863 686.616 404.986" stroke="#A9C6EA" stroke-miterlimit="10"/>
<path d="M117.055 211.71H133.303" stroke="#A9C6EA" stroke-miterlimit="10"/>
<path d="M133.304 220.608H149.541" stroke="#A9C6EA" stroke-miterlimit="10"/>
<path d="M612.671 141.798H628.909" stroke="#A9C6EA" stroke-miterlimit="10"/>
<path d="M602.355 150.707H618.604" stroke="#A9C6EA" stroke-miterlimit="10"/>
<path d="M627.109 146.455H649.177" stroke="#A9C6EA" stroke-miterlimit="10"/>
<path d="M768.748 331.495H780.431" stroke="#A9C6EA" stroke-miterlimit="10"/>
<path d="M758.147 322.698H774.385" stroke="#A9C6EA" stroke-miterlimit="10"/>
<path d="M231.765 98.6013H248.002" stroke="#A9C6EA" stroke-miterlimit="10"/>
<path d="M205.302 291.451H232.015" stroke="#A9C6EA" stroke-miterlimit="10"/>
<path d="M237.651 291.451H251.509" stroke="#A9C6EA" stroke-miterlimit="10"/>
<path d="M549.634 257.892C549.632 258.912 549.323 259.909 548.746 260.756C548.169 261.603 547.35 262.263 546.393 262.652C545.436 263.041 544.383 263.141 543.368 262.941C542.352 262.741 541.42 262.248 540.689 261.526C539.957 260.804 539.46 259.884 539.259 258.883C539.057 257.882 539.162 256.845 539.558 255.903C539.955 254.96 540.627 254.155 541.488 253.588C542.349 253.022 543.361 252.719 544.397 252.719C545.085 252.719 545.767 252.853 546.404 253.113C547.04 253.373 547.618 253.754 548.104 254.235C548.591 254.715 548.976 255.286 549.239 255.913C549.502 256.541 549.636 257.213 549.634 257.892V257.892Z" stroke="#A9C6EA" stroke-miterlimit="10"/>
<path d="M755.654 222.156C755.656 223.18 755.35 224.182 754.774 225.034C754.198 225.886 753.378 226.551 752.419 226.944C751.459 227.337 750.403 227.44 749.383 227.241C748.364 227.042 747.428 226.549 746.693 225.825C745.958 225.101 745.458 224.178 745.256 223.174C745.053 222.169 745.158 221.128 745.557 220.183C745.956 219.237 746.63 218.429 747.495 217.862C748.36 217.294 749.377 216.993 750.416 216.995C751.805 216.995 753.137 217.539 754.12 218.507C755.102 219.474 755.654 220.787 755.654 222.156Z" stroke="#A9C6EA" stroke-miterlimit="10"/>
<path d="M561.056 110.798C561.056 111.821 560.748 112.821 560.171 113.671C559.594 114.522 558.774 115.185 557.815 115.576C556.856 115.968 555.801 116.07 554.782 115.871C553.764 115.671 552.829 115.179 552.095 114.455C551.36 113.732 550.861 112.81 550.658 111.807C550.455 110.803 550.559 109.763 550.957 108.818C551.354 107.873 552.027 107.065 552.89 106.497C553.753 105.929 554.768 105.625 555.806 105.625C556.496 105.624 557.179 105.757 557.817 106.016C558.454 106.275 559.034 106.656 559.521 107.137C560.009 107.618 560.396 108.188 560.659 108.817C560.922 109.445 561.057 110.118 561.056 110.798Z" stroke="#A9C6EA" stroke-miterlimit="10"/>
<path d="M663.479 118.528C663.481 119.039 663.329 119.539 663.043 119.965C662.756 120.391 662.348 120.723 661.87 120.92C661.391 121.117 660.864 121.17 660.356 121.072C659.847 120.973 659.379 120.729 659.012 120.368C658.644 120.008 658.394 119.548 658.292 119.047C658.19 118.546 658.241 118.027 658.439 117.554C658.637 117.082 658.973 116.679 659.403 116.394C659.834 116.11 660.341 115.959 660.86 115.959C661.552 115.959 662.217 116.229 662.707 116.711C663.198 117.192 663.476 117.846 663.479 118.528V118.528Z" stroke="#A9C6EA" stroke-miterlimit="10"/>
<path d="M504.043 311.591C504.045 312.101 503.893 312.602 503.607 313.027C503.32 313.453 502.912 313.786 502.434 313.983C501.955 314.18 501.428 314.233 500.92 314.134C500.411 314.036 499.943 313.791 499.576 313.431C499.208 313.07 498.958 312.61 498.856 312.109C498.754 311.609 498.805 311.089 499.003 310.617C499.201 310.145 499.536 309.741 499.967 309.457C500.398 309.173 500.905 309.021 501.424 309.021C501.767 309.02 502.107 309.085 502.425 309.214C502.743 309.342 503.031 309.531 503.275 309.77C503.518 310.009 503.711 310.292 503.843 310.605C503.975 310.917 504.043 311.252 504.043 311.591V311.591Z" stroke="#A9C6EA" stroke-miterlimit="10"/>
<path d="M201.021 127.28C201.021 127.788 200.868 128.285 200.581 128.707C200.295 129.13 199.888 129.459 199.411 129.654C198.935 129.848 198.41 129.899 197.904 129.8C197.399 129.701 196.934 129.456 196.569 129.097C196.205 128.737 195.956 128.28 195.856 127.781C195.755 127.283 195.807 126.766 196.004 126.297C196.202 125.827 196.536 125.426 196.965 125.143C197.393 124.861 197.897 124.71 198.413 124.71C198.756 124.709 199.096 124.774 199.413 124.903C199.73 125.032 200.018 125.221 200.26 125.46C200.503 125.699 200.695 125.982 200.825 126.295C200.956 126.607 201.022 126.942 201.021 127.28V127.28Z" stroke="#A9C6EA" stroke-miterlimit="10"/>
<path d="M83.1233 287.849C83.1233 288.357 82.9704 288.854 82.6838 289.277C82.3973 289.699 81.9901 290.029 81.5136 290.223C81.0371 290.417 80.5129 290.468 80.007 290.369C79.5012 290.27 79.0366 290.025 78.6719 289.666C78.3073 289.307 78.0589 288.849 77.9583 288.35C77.8577 287.852 77.9093 287.335 78.1067 286.866C78.304 286.396 78.6383 285.995 79.0671 285.713C79.4959 285.431 80 285.28 80.5157 285.28C80.8586 285.278 81.1983 285.344 81.5154 285.472C81.8324 285.601 82.1205 285.79 82.3629 286.029C82.6054 286.268 82.7974 286.552 82.9279 286.864C83.0584 287.177 83.1248 287.511 83.1233 287.849Z" stroke="#A9C6EA" stroke-miterlimit="10"/>
<path d="M211.61 235.216C211.61 235.724 211.457 236.221 211.17 236.644C210.884 237.066 210.476 237.395 210 237.59C209.523 237.784 208.999 237.835 208.493 237.736C207.988 237.637 207.523 237.392 207.158 237.033C206.794 236.674 206.545 236.216 206.445 235.717C206.344 235.219 206.396 234.702 206.593 234.233C206.79 233.763 207.125 233.362 207.553 233.08C207.982 232.797 208.486 232.647 209.002 232.647C209.694 232.647 210.357 232.917 210.846 233.399C211.335 233.881 211.61 234.535 211.61 235.216Z" stroke="#A9C6EA" stroke-miterlimit="10"/>
<path d="M131.141 155.476V161.557" stroke="#A9C6EA" stroke-miterlimit="10"/>
<path d="M134.226 158.516H128.055" stroke="#A9C6EA" stroke-miterlimit="10"/>
<path d="M492.189 74.355V80.4362" stroke="#A9C6EA" stroke-miterlimit="10"/>
<path d="M495.275 77.3955H489.103" stroke="#A9C6EA" stroke-miterlimit="10"/>
<path d="M686.434 168.401V174.482" stroke="#A9C6EA" stroke-miterlimit="10"/>
<path d="M689.52 171.442H683.348" stroke="#A9C6EA" stroke-miterlimit="10"/>
<path d="M787.332 249.679V255.76" stroke="#A9C6EA" stroke-miterlimit="10"/>
<path d="M790.417 252.719H784.246" stroke="#A9C6EA" stroke-miterlimit="10"/>
<path d="M758.147 356.426V362.507" stroke="#A9C6EA" stroke-miterlimit="10"/>
<path d="M761.233 359.466H755.062" stroke="#A9C6EA" stroke-miterlimit="10"/>
<path d="M581.495 289.038C585.543 282.039 587.857 274.197 588.247 266.15L577.304 264.646C577.381 261.045 576.975 257.45 576.097 253.954L586.482 250.139C584.303 242.374 580.31 235.219 574.822 229.247L565.918 235.844C563.4 233.231 560.535 230.967 557.4 229.112L561.955 219.183C554.852 215.193 546.893 212.914 538.726 212.529L537.212 223.334C533.557 223.247 529.907 223.647 526.36 224.523L522.568 214.302C514.691 216.45 507.431 220.38 501.367 225.78L508.062 234.498C505.41 236.978 503.112 239.802 501.23 242.891L491.153 238.403C487.104 245.402 484.791 253.244 484.4 261.291L495.377 262.784C495.291 266.384 495.693 269.98 496.573 273.476L486.211 277.246C488.388 285.009 492.381 292.16 497.871 298.127L506.707 291.541C509.224 294.154 512.089 296.418 515.224 298.273L510.669 308.202C517.773 312.192 525.732 314.471 533.898 314.856L535.413 304.04C539.068 304.126 542.718 303.726 546.264 302.85L550.147 313.083C558.029 310.945 565.291 307.013 571.349 301.605L564.654 292.898C567.306 290.418 569.604 287.595 571.486 284.506L581.495 289.038ZM529.002 288.511C524.034 287.08 519.607 284.23 516.282 280.321C512.956 276.412 510.881 271.62 510.317 266.55C509.754 261.48 510.728 256.359 513.117 251.834C515.506 247.309 519.201 243.583 523.738 241.126C528.274 238.67 533.448 237.593 538.605 238.032C543.762 238.471 548.671 240.406 552.713 243.592C556.755 246.779 559.748 251.074 561.314 255.936C562.879 260.797 562.948 266.007 561.511 270.907C560.554 274.169 558.953 277.213 556.8 279.864C554.648 282.516 551.985 284.722 548.965 286.358C545.945 287.993 542.627 289.025 539.201 289.395C535.776 289.764 532.31 289.464 529.002 288.511V288.511ZM530.926 281.992C527.248 280.942 523.968 278.841 521.501 275.953C519.035 273.066 517.494 269.522 517.072 265.771C516.65 262.02 517.368 258.23 519.133 254.881C520.898 251.532 523.631 248.774 526.988 246.956C530.344 245.138 534.172 244.342 537.988 244.669C541.804 244.996 545.435 246.431 548.423 248.792C551.411 251.153 553.62 254.334 554.773 257.934C555.925 261.533 555.967 265.388 554.895 269.011C553.46 273.862 550.13 277.953 545.636 280.387C541.142 282.821 535.852 283.398 530.926 281.992V281.992Z" fill="#E4ECF9"/>
<path d="M592.596 183.716C592.255 179.736 590.963 175.892 588.827 172.496L583.943 175.032C582.95 173.546 581.763 172.196 580.413 171.015L583.544 166.595C580.453 164.036 576.794 162.229 572.863 161.321L571.144 166.449C569.378 166.085 567.57 165.957 565.769 166.067L564.813 160.76C560.793 161.106 556.912 162.378 553.483 164.474L555.943 169.287C554.433 170.263 553.062 171.432 551.866 172.766L547.38 169.68C544.783 172.726 542.95 176.331 542.028 180.205L547.232 181.899C546.857 183.638 546.727 185.42 546.845 187.195L541.459 188.137C541.801 192.117 543.092 195.962 545.228 199.357L550.113 196.934C551.099 198.424 552.287 199.775 553.643 200.95L550.511 205.371C553.603 207.93 557.261 209.736 561.192 210.644L562.911 205.517C564.677 205.886 566.485 206.015 568.286 205.898L569.242 211.205C573.262 210.86 577.143 209.588 580.572 207.492L578.113 202.678C579.623 201.704 580.994 200.534 582.189 199.2L586.675 202.285C589.272 199.24 591.106 195.634 592.027 191.761L586.823 190.067C587.193 188.327 587.323 186.545 587.211 184.771L592.596 183.716ZM570.472 196.058C568.425 196.731 566.222 196.79 564.14 196.229C562.059 195.667 560.193 194.51 558.78 192.904C557.366 191.297 556.467 189.314 556.198 187.204C555.929 185.094 556.3 182.953 557.266 181.052C558.232 179.15 559.748 177.573 561.623 176.521C563.498 175.469 565.648 174.989 567.801 175.14C569.953 175.292 572.011 176.07 573.715 177.375C575.419 178.68 576.692 180.453 577.372 182.471C577.829 183.812 578.013 185.228 577.913 186.639C577.814 188.05 577.432 189.427 576.791 190.693C576.15 191.958 575.262 193.086 574.178 194.013C573.093 194.939 571.834 195.646 570.472 196.092V196.058Z" fill="#E4ECF9"/>
<path d="M323.655 147.363C323.134 141.297 321.155 135.439 317.882 130.275L310.412 133.978C308.896 131.703 307.077 129.639 305.004 127.841L309.798 121.109C305.067 117.196 299.47 114.433 293.458 113.041L290.827 120.895C288.122 120.341 285.353 120.144 282.595 120.312L281.126 112.2C274.978 112.701 269.037 114.623 263.784 117.81L267.553 125.181C265.238 126.672 263.139 128.465 261.313 130.511L254.481 125.787C250.513 130.45 247.709 135.964 246.294 141.888L254.265 144.48C253.696 147.145 253.496 149.874 253.673 152.592L245.429 154.028C245.965 160.092 247.942 165.946 251.202 171.116L258.671 167.414C260.188 169.688 262.007 171.753 264.08 173.551L259.286 180.283C263.994 184.199 269.567 186.977 275.558 188.395L278.177 180.541C280.882 181.096 283.651 181.292 286.409 181.124L287.878 189.236C294.032 188.715 299.973 186.77 305.22 183.559L301.451 176.188C303.766 174.697 305.865 172.904 307.691 170.858L314.523 175.582C318.491 170.919 321.295 165.405 322.71 159.481L314.739 156.889C315.306 154.228 315.509 151.503 315.343 148.788L323.655 147.363ZM289.791 166.303C286.661 167.33 283.292 167.419 280.11 166.56C276.928 165.701 274.077 163.931 271.916 161.474C269.755 159.018 268.381 155.985 267.969 152.76C267.557 149.534 268.126 146.261 269.602 143.353C271.078 140.446 273.396 138.035 276.262 136.426C279.129 134.816 282.415 134.081 285.706 134.312C288.997 134.543 292.144 135.73 294.75 137.724C297.356 139.718 299.304 142.428 300.347 145.512C301.742 149.648 301.414 154.161 299.435 158.06C297.456 161.958 293.987 164.923 289.791 166.303V166.303Z" fill="#E4ECF9"/>
<path d="M248.776 208.692C249.922 206.718 250.824 204.616 251.463 202.431C252.109 200.239 252.491 197.979 252.602 195.699L246.385 194.846C246.439 192.806 246.209 190.767 245.702 188.788L251.588 186.622C250.356 182.226 248.094 178.175 244.984 174.796L239.985 178.533C238.56 177.05 236.935 175.767 235.157 174.718L237.765 169.108C235.761 167.977 233.628 167.085 231.411 166.449C229.185 165.818 226.893 165.442 224.579 165.327L223.725 171.442C221.655 171.398 219.587 171.625 217.576 172.115L215.379 166.325C210.915 167.539 206.802 169.763 203.366 172.822L207.158 177.758C205.657 179.167 204.355 180.767 203.286 182.516L197.593 179.946C195.295 183.935 193.988 188.402 193.778 192.984L199.995 193.825C199.94 195.866 200.17 197.905 200.679 199.884L194.792 202.05C196.023 206.45 198.285 210.505 201.396 213.887L206.406 210.151C207.831 211.629 209.451 212.912 211.223 213.965L208.627 219.575C212.654 221.811 217.16 223.08 221.778 223.278L222.644 217.152C224.711 217.206 226.776 216.98 228.781 216.479L230.979 222.279C235.444 221.066 239.559 218.837 242.992 215.772L239.2 210.835C240.7 209.431 242.002 207.835 243.071 206.089L248.776 208.692ZM219.045 208.4C216.241 207.587 213.745 205.973 211.87 203.763C209.995 201.553 208.827 198.846 208.511 195.983C208.196 193.119 208.748 190.228 210.097 187.673C211.447 185.118 213.534 183.014 216.096 181.627C218.657 180.239 221.578 179.63 224.491 179.876C227.403 180.121 230.176 181.211 232.461 183.008C234.746 184.805 236.439 187.228 237.329 189.971C238.218 192.715 238.263 195.657 237.458 198.426C236.92 200.276 236.015 202.003 234.797 203.507C233.579 205.011 232.07 206.263 230.359 207.19C228.647 208.117 226.767 208.702 224.825 208.909C222.883 209.117 220.919 208.944 219.045 208.4V208.4ZM220.184 204.709C218.103 204.114 216.249 202.925 214.854 201.291C213.459 199.658 212.588 197.653 212.349 195.531C212.11 193.41 212.516 191.266 213.513 189.371C214.511 187.476 216.057 185.916 217.955 184.886C219.853 183.857 222.018 183.406 224.176 183.589C226.335 183.772 228.39 184.582 230.081 185.916C231.772 187.25 233.024 189.048 233.679 191.083C234.333 193.118 234.36 195.298 233.757 197.349C233.357 198.715 232.686 199.99 231.784 201.1C230.882 202.211 229.766 203.134 228.501 203.818C227.235 204.502 225.845 204.933 224.41 205.086C222.975 205.239 221.523 205.111 220.138 204.709H220.184Z" fill="#E4ECF9"/>
<path d="M392.055 516.344C395.528 509.298 413.598 478.443 432.66 468.244C435.021 466.83 437.646 465.896 440.38 465.495C441.75 465.312 443.145 465.47 444.438 465.954C445.731 466.438 446.88 467.233 447.781 468.267C448.466 469.308 448.931 470.475 449.146 471.697C449.361 472.92 449.323 474.173 449.034 475.38C445.618 494.69 423.254 502.073 412.357 516.344" fill="#D7E3F4"/>
<path d="M392.055 516.232C392.055 516.232 409.989 481.349 427.501 460.57C435.791 450.73 441.484 432.52 432.773 427.044C420.157 419.19 407.723 436.739 402.086 445.479C393.501 458.696 387.181 473.316 382.308 488.216C381.602 490.37 375.168 516.266 375.043 516.266H392.055V516.232Z" fill="#D7E3F4"/>
<path d="M426.351 437.03C409.818 457.641 396.097 488.137 386.976 516.232" stroke="white" stroke-miterlimit="10"/>
<path d="M354.445 516.232C354.445 516.232 352.372 462.556 328.255 437.692C321.742 430.96 311.061 424.026 302.305 422.108C290.918 419.639 291.26 432.8 293.31 441.328C295.974 452.368 305.14 459.28 311.745 467.493C323.906 482.628 331.102 492.625 340.041 516.187" fill="#B2CDED"/>
<path d="M361.698 516.232C368.199 504.496 365.911 454.343 362.654 438.624C360.401 427.728 355.876 417.412 349.366 408.33C343.593 400.476 326.365 383.006 316.219 390.086C310.355 394.181 319.237 408.924 321.582 413.356C329.186 427.911 335.326 443.165 339.915 458.898C345.597 477.353 349.299 496.344 350.96 515.559C350.96 515.806 350.96 516.042 350.96 516.288" fill="#D7E3F4"/>
<path d="M362.882 516.232C360.741 488.182 362.108 445.041 374.963 420.694C389.538 393.082 408.531 380.302 411.287 391.096C419.257 422.298 387.193 506.247 378.163 516.232" fill="#B2CDED"/>
<path d="M299.128 431.117C325.067 448.935 342.967 482.729 346.303 516.232" stroke="white" stroke-miterlimit="10"/>
<path d="M325.659 399.039C338.4 410.259 344.879 427.796 348.796 444.783C354.022 468.272 356.981 492.195 357.632 516.232" stroke="white" stroke-miterlimit="10"/>
<path d="M403.088 402.899C387.397 438.421 374.177 476.783 371.957 516.221" stroke="white" stroke-miterlimit="10"/>
<path d="M440.118 472.239C440.118 472.239 417.185 487.24 401.187 516.232" stroke="white" stroke-miterlimit="10"/>
<path d="M674.717 516.12C678.133 471.756 674.33 428.245 691.479 386.204C696.352 374.277 707.42 355.45 722.78 354.788C746.476 353.8 731.969 400.7 727.677 418.248C724.719 429.586 720.991 440.715 716.518 451.56C708.934 470.735 697.536 497.495 688.894 516.12" fill="#B2CDED"/>
<path d="M662.419 516.12C654.961 497.315 647.617 478.443 640.284 459.605C633.736 442.898 626.119 426.562 620.835 409.395C616.804 396.335 606.408 366.4 621.632 357.2C648.744 340.808 670.424 404.223 673.282 426.764C677.051 456.441 676.243 486.308 676.698 516.142" fill="#D7E3F4"/>
<path d="M640.865 516.12C640.865 516.12 625.026 496.171 617.875 486.825C601.934 465.922 582.223 443.235 585.161 419.74C585.844 414.332 587.848 408.318 593.359 405.154C596.841 403.304 600.818 402.56 604.746 403.023C617.716 404.234 629.341 422.803 635.183 432.318C646.569 450.954 664.31 516.154 664.31 516.154" fill="#B2CDED"/>
<path d="M628.749 370.361C648.106 408.913 666.963 480.317 667.464 516.143" stroke="white" stroke-miterlimit="10"/>
<path d="M598.677 414.635C615.757 446.848 650.304 516.143 650.304 516.143" stroke="white" stroke-miterlimit="10"/>
<path d="M721.79 365.031C707.909 395.55 688.894 461.703 681.208 516.232" stroke="white" stroke-miterlimit="10"/>
<path d="M689.588 516.12C689.588 516.12 697.559 481.338 702.99 461.613C708.957 440.161 728.451 407.308 748.958 397.973C753.672 395.83 759.354 394.349 763.92 396.851C766.658 398.49 768.685 401.067 769.613 404.088C773.098 414.13 756.029 445.838 750.154 454.735C738.664 472.16 722.199 499.84 709.162 516.165" fill="#D7E3F4"/>
<path d="M760.117 405.042C735.886 425.777 703.469 491.885 694.405 516.199" stroke="white" stroke-miterlimit="10"/>
<path d="M163.695 494.51C160.598 478.298 155.508 446.152 151.637 426.416C149.769 416.868 144.361 405.21 140.933 396.122C134.671 379.595 119.538 350.872 100.773 352.364C77.4868 354.272 96.309 395.516 102.23 411.09C106.25 421.135 110.995 430.884 116.429 440.262C125.732 456.89 139.521 480.048 149.792 496.115" fill="#B2CDED"/>
<path d="M177.143 477.018C171.449 462.432 172.987 443.751 173.009 428.245C173.009 400.352 182.87 361.138 201.305 342.838C208.911 335.287 221.482 326.895 229.647 338.429C237.378 349.357 228.44 379.045 225.627 391.803C220.105 416.778 193.676 463.05 186.047 487.24" fill="#B2CDED"/>
<path d="M216.107 351.186C203.013 384.667 185.363 445.748 180.911 481.338" stroke="white" stroke-miterlimit="10"/>
<path d="M102.742 361.677C119.344 387.976 143.666 444.335 156.544 493.377" stroke="white" stroke-miterlimit="10"/>
<path d="M164.355 459.066C171.346 447.846 179.625 411.247 181.515 398.175C184.168 379.808 184.464 360.398 179.841 342.3C176.732 330.092 162.476 293.56 144.542 310.031C136.15 317.773 137.483 359.926 138.485 371.214C140.443 393.317 152.069 432.924 156.054 454.724" fill="#D7E3F4"/>
<path d="M154.494 319.456C166.78 350.973 163.603 429.288 159.823 456.688" stroke="white" stroke-miterlimit="10"/>
<path d="M55.2256 516.232H770.103" stroke="#648ACC" stroke-miterlimit="10"/>
<path d="M343.752 199.065C347.248 195.699 355.72 184.199 356.688 184.479C357.656 184.76 354.718 188.833 355.549 188.967C356.38 189.102 361.322 183.088 362.199 183.615C363.406 184.345 358.02 190.19 358.02 190.19C358.02 190.19 364.237 184.075 365.102 185.007C365.706 185.657 361.174 190.538 359.671 192.625C361.584 190.572 365.08 187.61 365.695 188.305C366.309 189.001 363.292 192.378 361.14 195.105C362.654 193.523 365.569 190.819 366.161 191.424C366.754 192.03 359.466 202.992 352.782 210.981" fill="#F886BC"/>
<path d="M299.265 240.994C316.93 226.176 333.53 210.168 348.945 193.085L360.104 200.434C360.104 200.434 341.373 229.056 316.834 253.695" fill="#F886BC"/>
<path d="M290.36 249.364C296.509 241.769 306.643 234.419 306.643 234.419L324.657 248.77L308.875 267.036" fill="#BF2C4C"/>
<path d="M321.412 379.505L311.881 503.206L323.154 510.286C323.154 510.286 292.159 511.868 291.146 510.869C290.132 509.871 292.421 503.015 292.421 503.015L287.24 379.236L321.412 379.505Z" fill="#F886BC"/>
<path d="M296.053 510.779L291.499 506.291L292.148 503.935L299.241 510.768H302.657L314.682 504.922L327.754 512.978C328.082 513.178 328.336 513.478 328.475 513.833C328.614 514.187 328.631 514.577 328.524 514.943C328.417 515.308 328.191 515.629 327.881 515.856C327.571 516.082 327.195 516.203 326.809 516.199L309.228 516.12L303.625 512.283H302.031V516.12H290.645V510.79L296.053 510.779Z" fill="#28364C"/>
<path d="M296.372 378.843L268.259 503.206L279.531 510.286C279.531 510.286 248.537 511.868 247.524 510.869C246.51 509.87 248.799 503.015 248.799 503.015L257.02 378.843H296.372Z" fill="#F886BC"/>
<path d="M252.465 510.779L247.854 506.291L248.503 503.935L255.597 510.768H259.013L271.003 504.956L284.063 513.012C284.392 513.211 284.645 513.511 284.785 513.866C284.924 514.221 284.941 514.611 284.834 514.976C284.727 515.342 284.501 515.662 284.191 515.889C283.881 516.116 283.504 516.236 283.118 516.232L265.605 516.12L260.003 512.283H258.409V516.12H247.022V510.79L252.465 510.779Z" fill="#28364C"/>
<path d="M266.812 314.699C251.349 341.526 251.372 391.421 251.372 391.421H323.108C323.108 391.421 322.117 347.596 314.113 322.901L266.812 314.699Z" fill="#101D54"/>
<path d="M290.771 317.111L292.558 391.421" stroke="#273B7A" stroke-width="0.75" stroke-miterlimit="10"/>
<path d="M306.644 320.23C306.644 320.23 303.011 329.285 290.771 332.415" stroke="#273B7A" stroke-width="0.75" stroke-miterlimit="10"/>
<path d="M370.067 288.612C374.781 289.97 389.094 291.675 389.311 292.64C389.527 293.605 384.483 293.078 384.813 293.829C385.143 294.581 392.84 295.939 392.784 296.96C392.715 298.351 384.915 296.556 384.915 296.556C384.915 296.556 393.364 298.934 392.966 300.124C392.67 300.965 386.134 299.439 383.56 299.17C386.316 299.81 390.643 301.414 390.324 302.256C390.005 303.097 385.542 302.166 382.08 301.627C384.209 302.166 388.035 303.344 387.773 304.163C387.511 304.982 376.489 303.422 366.139 301.56" fill="#F886BC"/>
<path d="M285.68 242.195C285.68 242.195 286.819 245.18 293.298 245.18C297.796 245.18 299.492 242.857 299.492 242.857C299.492 242.857 301.155 244.327 318.85 267.238C322.607 272.085 321.799 282.553 315.525 291.597C313.949 301.954 313.461 312.444 314.067 322.901H262.827C262.827 322.901 261.928 286.604 265.48 266.801C266.535 261.379 268.93 256.297 272.453 252.005C275.976 247.713 280.52 244.344 285.68 242.195V242.195Z" fill="#E03B5A"/>
<path d="M319.556 257.892C353.716 284.304 377.4 290.026 377.4 290.026L374.622 302.94C374.622 302.94 333.63 297.813 306.655 275.485" fill="#F886BC"/>
<path fill-rule="evenodd" clip-rule="evenodd" d="M299.709 243.732C308.477 245.191 321.924 257.903 321.924 257.903L307.657 278.548C307.657 278.548 301.588 274.408 293.378 267.451" fill="#E03B5A"/>
<path d="M307.657 277.774C296.965 271.356 292.148 266.655 292.148 266.655" stroke="#A31D4A" stroke-width="0.75" stroke-miterlimit="10"/>
<path fill-rule="evenodd" clip-rule="evenodd" d="M303.535 219.822C307.099 225.634 308.579 231.435 303.535 234.408C298.491 237.381 290.52 238.896 285.407 230.605C281.832 224.815 283.005 217.679 288.003 214.706C293.002 211.733 299.971 214.021 303.535 219.822Z" fill="#F886BC"/>
<path d="M299.39 221.314C299.549 221.898 300.028 222.594 300.62 222.571C300.697 222.569 300.772 222.543 300.833 222.497C300.895 222.451 300.939 222.386 300.961 222.313C301.303 221.314 299.048 220.08 299.39 221.314Z" fill="#0B0B3A"/>
<path d="M297.021 220.81C297.413 220.26 297.922 219.8 298.511 219.463C299.101 219.126 299.759 218.919 300.438 218.857" stroke="#0B0B3A" stroke-width="0.5" stroke-miterlimit="10" stroke-linecap="round"/>
<path d="M304.901 226.442L301.588 228.069C301.588 228.069 302.727 230.874 304.548 230.313C306.04 229.909 304.901 226.442 304.901 226.442Z" fill="white"/>
<path fill-rule="evenodd" clip-rule="evenodd" d="M299.709 243.732C297.719 244.709 295.522 245.206 293.298 245.179C288.14 245.056 285.681 243.025 285.681 243.025L289.097 228.708L301.622 229.606L299.709 243.732Z" fill="#F886BC"/>
<path fill-rule="evenodd" clip-rule="evenodd" d="M302.339 220.092C302.339 220.092 306.609 222.908 306.757 223.648C306.905 224.389 305.163 225.522 305.163 225.522" fill="#F886BC"/>
<path d="M290.36 210.712C289.904 210.936 288.31 210.51 287.729 210.51C286.917 210.51 286.105 210.577 285.304 210.712C280.544 211.576 276.992 215.458 274.749 219.452C273.268 222.078 272.039 224.984 269.363 226.655C263.464 230.313 255.699 229 249.14 231.143C242.581 233.286 237.287 240.119 239.086 247.255C239.666 249.6 240.919 251.743 241.659 253.987C243.23 258.913 242.49 264.635 245.485 268.854C246.309 269.978 247.308 270.966 248.445 271.782C250.96 273.677 253.886 274.972 256.994 275.565C260.102 276.159 263.307 276.035 266.358 275.204C269.409 274.372 272.223 272.856 274.58 270.773C276.937 268.69 278.772 266.098 279.941 263.199C282.605 256.658 281.774 248.86 285.634 242.936C287.456 240.164 290.189 238.055 291.965 235.284C293.616 232.748 294.482 227.979 294.687 224.928C294.687 224.221 293.446 218.364 293.833 218.364C297.124 218.155 300.247 216.854 302.691 214.672C302.159 213.602 301.414 212.648 300.501 211.867C299.588 211.086 298.525 210.493 297.375 210.124C296.225 209.754 295.012 209.616 293.807 209.717C292.602 209.818 291.43 210.156 290.36 210.712V210.712Z" fill="#0B0B3A"/>
<path d="M293.776 225.78C293.549 225.615 293.29 225.497 293.016 225.434C292.741 225.37 292.456 225.363 292.178 225.411C291.9 225.459 291.635 225.562 291.399 225.715C291.163 225.867 290.961 226.065 290.804 226.296C289.279 228.54 292.945 231.368 294.71 231.491C296.475 231.615 296.429 229.741 296.429 229.741" fill="#F886BC"/>
<path d="M677.609 190.224H566.123V336.925H677.609V190.224Z" fill="#D9E4F4" stroke="#648ACC" stroke-miterlimit="10"/>
<path d="M694.257 190.224H582.77V336.925H694.257V190.224Z" fill="white" stroke="#648ACC" stroke-miterlimit="10"/>
<path opacity="0.45" d="M602.127 201.635H675.799C676.336 201.635 676.867 201.739 677.363 201.941C677.859 202.144 678.31 202.44 678.689 202.815C679.069 203.189 679.37 203.633 679.575 204.121C679.781 204.61 679.887 205.134 679.887 205.663V216.771C679.887 217.3 679.781 217.823 679.575 218.312C679.37 218.801 679.069 219.245 678.689 219.619C678.31 219.993 677.859 220.29 677.363 220.492C676.867 220.694 676.336 220.799 675.799 220.799H602.127C601.04 220.799 599.997 220.373 599.228 219.615C598.46 218.858 598.028 217.831 598.028 216.759V205.652C598.034 204.584 598.468 203.563 599.236 202.81C600.005 202.057 601.044 201.635 602.127 201.635V201.635Z" fill="#D7E3F4"/>
<path opacity="0.45" d="M602.127 270.907H641.069C642.154 270.907 643.193 271.331 643.96 272.087C644.727 272.842 645.157 273.867 645.157 274.935V320.78C645.157 321.851 644.725 322.879 643.957 323.636C643.188 324.394 642.145 324.819 641.058 324.819H602.127C601.04 324.819 599.997 324.394 599.228 323.636C598.46 322.879 598.028 321.851 598.028 320.78V274.89C598.04 273.828 598.477 272.813 599.245 272.067C600.013 271.321 601.049 270.904 602.127 270.907Z" fill="#D7E3F4"/>
<path d="M604.143 239.895H601.661C599.656 239.895 598.04 237.797 598.04 235.216C598.04 232.635 599.656 230.526 601.661 230.526H604.143V239.895Z" fill="#B2CDED"/>
<path d="M607.763 235.216C607.763 237.797 606.146 239.895 604.142 239.895C602.138 239.895 600.521 237.797 600.521 235.216C600.521 232.635 602.138 230.526 604.142 230.526C606.146 230.526 607.763 232.624 607.763 235.216Z" fill="#D7E3F4"/>
<path d="M628.191 239.895H625.709C623.705 239.895 622.077 237.797 622.077 235.216C622.077 232.635 623.705 230.526 625.709 230.526H628.191V239.895Z" fill="#B2CDED"/>
<path d="M631.812 235.216C631.812 237.797 630.184 239.895 628.191 239.895C626.199 239.895 624.57 237.797 624.57 235.216C624.57 232.635 626.187 230.526 628.191 230.526C630.195 230.526 631.812 232.624 631.812 235.216Z" fill="#D7E3F4"/>
<path d="M652.229 239.895H649.746C647.742 239.895 646.125 237.797 646.125 235.216C646.125 232.635 647.742 230.526 649.746 230.526H652.229V239.895Z" fill="#B2CDED"/>
<path d="M655.872 235.216C655.872 237.797 654.255 239.895 652.251 239.895C650.247 239.895 648.63 237.797 648.63 235.216C648.63 232.635 650.259 230.526 652.251 230.526C654.244 230.526 655.872 232.624 655.872 235.216Z" fill="#D7E3F4"/>
<path d="M676.277 239.895H673.795C671.791 239.895 670.163 237.797 670.163 235.216C670.163 232.635 671.791 230.526 673.795 230.526H676.277V239.895Z" fill="#B2CDED"/>
<path d="M679.898 235.216C679.898 237.797 678.27 239.895 676.277 239.895C674.285 239.895 672.656 237.797 672.656 235.216C672.656 232.635 674.273 230.526 676.277 230.526C678.281 230.526 679.898 232.624 679.898 235.216Z" fill="#D7E3F4"/>
<path d="M604.143 262.548H601.661C599.656 262.548 598.04 260.45 598.04 257.869C598.04 255.289 599.656 253.179 601.661 253.179H604.143V262.548Z" fill="#B2CDED"/>
<path d="M607.763 257.892C607.763 260.472 606.146 262.57 604.142 262.57C602.138 262.57 600.521 260.472 600.521 257.892C600.521 255.311 602.138 253.202 604.142 253.202C606.146 253.202 607.763 255.3 607.763 257.892Z" fill="#D7E3F4"/>
<path d="M628.191 262.548H625.709C623.705 262.548 622.077 260.45 622.077 257.869C622.077 255.289 623.705 253.179 625.709 253.179H628.191V262.548Z" fill="#B2CDED"/>
<path d="M631.812 257.892C631.812 260.472 630.184 262.57 628.191 262.57C626.199 262.57 624.57 260.472 624.57 257.892C624.57 255.311 626.187 253.202 628.191 253.202C630.195 253.202 631.812 255.3 631.812 257.892Z" fill="#D7E3F4"/>
<path d="M652.229 262.548H649.746C647.742 262.548 646.125 260.45 646.125 257.869C646.125 255.289 647.742 253.179 649.746 253.179H652.229V262.548Z" fill="#B2CDED"/>
<path d="M655.872 257.892C655.872 260.472 654.255 262.57 652.251 262.57C650.247 262.57 648.63 260.472 648.63 257.892C648.63 255.311 650.259 253.202 652.251 253.202C654.244 253.202 655.872 255.3 655.872 257.892Z" fill="#D7E3F4"/>
<path d="M676.277 262.548H673.795C671.791 262.548 670.163 260.45 670.163 257.869C670.163 255.289 671.791 253.179 673.795 253.179H676.277V262.548Z" fill="#B2CDED"/>
<path d="M679.898 257.892C679.898 260.472 678.27 262.57 676.277 262.57C674.285 262.57 672.656 260.472 672.656 257.892C672.656 255.311 674.273 253.202 676.277 253.202C678.281 253.202 679.898 255.3 679.898 257.892Z" fill="#D7E3F4"/>
<path d="M142.767 516.232H331.967V373.379H190.374L142.767 428.234V516.232Z" fill="white" stroke="#648ACC" stroke-miterlimit="10"/>
<path d="M278.256 516.232H347.976V373.379H324.907L278.256 428.234V516.232Z" fill="#D9E4F4" stroke="#648ACC" stroke-miterlimit="10"/>
<path d="M142.766 516.232H278.256V428.234H142.766V516.232Z" fill="#D9E4F4" stroke="#648ACC" stroke-miterlimit="10"/>
<path d="M290.36 389.39C291.658 390.568 294.311 389.783 296.281 387.64C298.251 385.497 298.809 382.815 297.511 381.637L294.846 379.236L287.695 386.989L290.36 389.39Z" fill="#B2CDED"/>
<path d="M287.866 387.09C289.164 388.212 291.817 387.472 293.787 385.329C295.757 383.185 296.315 380.504 295.017 379.337C293.719 378.17 291.066 378.956 289.096 381.099C287.126 383.242 286.568 385.968 287.866 387.09Z" fill="#D7E3F4"/>
<path d="M269.295 389.39C270.593 390.568 273.246 389.783 275.216 387.64C277.186 385.497 277.744 382.815 276.446 381.637L273.758 379.236L266.607 386.989L269.295 389.39Z" fill="#B2CDED"/>
<path d="M266.767 387.09C268.066 388.212 270.719 387.472 272.7 385.329C274.681 383.185 275.228 380.504 273.93 379.337C272.632 378.17 269.978 378.956 267.997 381.099C266.016 383.242 265.481 385.968 266.767 387.09Z" fill="#D7E3F4"/>
<path d="M225.877 389.39C227.175 390.568 229.829 389.783 231.81 387.64C233.791 385.497 234.338 382.815 233.04 381.637C232.151 380.852 230.352 379.214 230.352 379.214L223.179 386.967L225.877 389.39Z" fill="#B2CDED"/>
<path d="M223.362 387.09C224.66 388.212 227.313 387.472 229.283 385.329C231.253 383.185 231.811 380.504 230.512 379.337C229.214 378.17 226.573 378.956 224.591 381.099C222.61 383.242 222.041 385.968 223.362 387.09Z" fill="#D7E3F4"/>
<path d="M203.514 389.39C204.812 390.568 207.466 389.783 209.447 387.64C211.428 385.497 211.963 382.815 210.677 381.637C209.788 380.852 207.989 379.214 207.989 379.214L200.827 386.967L203.514 389.39Z" fill="#B2CDED"/>
<path d="M200.998 387.09C202.296 388.212 204.949 387.472 206.919 385.329C208.889 383.185 209.447 380.504 208.149 379.337C206.851 378.17 204.209 378.956 202.228 381.099C200.247 383.242 199.7 385.968 200.998 387.09Z" fill="#D7E3F4"/>
<path opacity="0.45" d="M276.651 418.237L284.166 408.632H169.673L161.076 418.237H276.651Z" fill="#D7E3F4"/>
<path d="M403.259 351.5V470.802C403.259 473.576 402.141 476.236 400.151 478.197C398.16 480.158 395.461 481.26 392.646 481.26H325.294C323.901 481.26 322.522 480.989 321.235 480.463C319.948 479.938 318.779 479.167 317.794 478.196C316.81 477.225 316.029 476.072 315.497 474.803C314.965 473.535 314.692 472.175 314.693 470.802V467.38" stroke="#648ACC" stroke-miterlimit="10"/>
<path d="M419.952 356.976V493.276C419.952 496.103 418.813 498.814 416.784 500.813C414.755 502.812 412.004 503.935 409.135 503.935H302.043C299.232 503.935 296.535 502.835 294.547 500.876C292.559 498.917 291.442 496.26 291.442 493.489V467.38" stroke="#648ACC" stroke-miterlimit="10"/>
<path d="M450.252 354.687V433.765C450.25 435.138 450.524 436.497 451.056 437.766C451.588 439.035 452.368 440.188 453.353 441.159C454.337 442.13 455.507 442.9 456.793 443.426C458.08 443.952 459.46 444.222 460.853 444.222H544.499C545.892 444.222 547.272 443.952 548.559 443.426C549.846 442.9 551.015 442.13 551.999 441.159C552.984 440.188 553.765 439.035 554.297 437.766C554.829 436.497 555.102 435.138 555.1 433.765V298.295C555.1 296.922 555.375 295.563 555.908 294.295C556.442 293.027 557.224 291.875 558.209 290.905C559.195 289.935 560.365 289.165 561.652 288.641C562.94 288.117 564.32 287.848 565.713 287.849H600.203" stroke="#648ACC" stroke-miterlimit="10"/>
<path d="M436.804 356.976V467.807C436.804 470.577 437.921 473.234 439.909 475.193C441.897 477.152 444.594 478.253 447.405 478.253H600.977C602.37 478.254 603.75 477.985 605.037 477.461C606.325 476.936 607.495 476.167 608.481 475.197C609.466 474.227 610.248 473.075 610.782 471.807C611.315 470.539 611.59 469.179 611.59 467.807V313.722" stroke="#648ACC" stroke-miterlimit="10"/>
<path d="M327.219 183.537C327.217 168.014 330.945 152.712 338.098 138.882C345.251 125.052 355.626 113.087 368.373 103.967C381.12 94.8465 395.877 88.8296 411.437 86.4086C426.998 83.9876 442.919 85.2312 457.897 90.0377C472.876 94.8442 486.487 103.077 497.617 114.063C508.746 125.048 517.078 138.474 521.93 153.242C526.783 168.01 528.017 183.7 525.534 199.028C523.05 214.356 516.918 228.887 507.641 241.432C493.407 262.582 456.401 286.458 456.401 300.763V317.1C456.401 318.668 455.768 320.172 454.643 321.281C453.518 322.39 451.991 323.013 450.4 323.013H403.601C402.009 323.013 400.483 322.39 399.357 321.281C398.232 320.172 397.6 318.668 397.6 317.1V300.763C397.6 286.458 360.593 262.615 346.36 241.432C333.89 224.633 327.184 204.351 327.219 183.537Z" fill="#FDD305"/>
<path d="M438.387 321.374C438.273 318.917 436.486 279.445 439.697 244.865C431.297 245.793 422.818 245.793 414.418 244.865C417.629 279.445 415.842 318.917 415.728 321.374L413.963 321.296C413.963 320.69 415.841 279.872 412.574 244.63C382.968 240.568 369.725 224.052 367.346 208.456C365.957 199.346 369.122 190.28 374.861 186.892C376.694 185.869 378.723 185.234 380.819 185.027C382.915 184.821 385.031 185.047 387.033 185.691C394.082 187.688 400.777 193.668 404.944 201.702C409.761 210.981 412.608 226.386 414.259 243.093C422.762 244.08 431.353 244.08 439.856 243.093C441.507 226.375 444.354 210.981 449.17 201.702C453.338 193.668 460.033 187.688 467.082 185.691C469.084 185.047 471.2 184.821 473.296 185.027C475.392 185.234 477.421 185.869 479.254 186.892C484.947 190.258 488.158 199.346 486.769 208.456C484.389 224.052 471.135 240.568 441.541 244.63C438.273 279.872 440.118 320.69 440.152 321.296L438.387 321.374ZM472.023 186.734C470.516 186.748 469.018 186.967 467.571 187.385C460.978 189.248 454.693 194.903 450.73 202.51C446.107 211.43 443.329 226.453 441.712 242.902C470.065 238.874 482.704 223.132 484.981 208.254C486.245 199.952 483.376 191.424 478.309 188.44C476.395 187.303 474.201 186.705 471.966 186.712L472.023 186.734ZM382.069 186.734C379.853 186.71 377.672 187.28 375.76 188.384C370.693 191.38 367.79 199.896 369.088 208.198C371.365 223.076 384.05 238.818 412.357 242.846C410.74 226.431 407.962 211.43 403.339 202.454C399.376 194.847 393.091 189.192 386.498 187.329C385.046 186.921 383.544 186.714 382.035 186.712L382.069 186.734Z" fill="white"/>
<path d="M510.123 189.18C508.613 189.18 507.165 188.589 506.097 187.537C505.03 186.485 504.43 185.058 504.43 183.57C504.451 166.596 498.721 150.1 488.147 136.7C477.573 123.299 462.762 113.761 446.062 109.597C444.589 109.231 443.325 108.304 442.547 107.019C441.768 105.735 441.54 104.198 441.911 102.747C442.283 101.297 443.224 100.051 444.527 99.2837C445.831 98.5168 447.391 98.2915 448.863 98.6575C468.031 103.441 485.032 114.391 497.17 129.772C509.308 145.153 515.89 164.086 515.873 183.57C515.873 184.312 515.724 185.046 515.435 185.73C515.145 186.415 514.72 187.036 514.186 187.557C513.651 188.079 513.017 188.491 512.319 188.77C511.622 189.048 510.875 189.188 510.123 189.18V189.18Z" fill="#FFEE99"/>
<path d="M425.076 101.44C425.076 102.55 425.41 103.634 426.036 104.557C426.661 105.479 427.55 106.198 428.591 106.623C429.631 107.048 430.776 107.159 431.88 106.942C432.985 106.726 433.999 106.192 434.795 105.407C435.591 104.622 436.134 103.623 436.353 102.535C436.573 101.446 436.46 100.318 436.029 99.2932C435.599 98.2681 434.869 97.392 433.933 96.7755C432.996 96.1591 431.896 95.8301 430.769 95.8301C429.26 95.8301 427.811 96.4211 426.744 97.4732C425.676 98.5253 425.076 99.9522 425.076 101.44V101.44Z" fill="#FFEE99"/>
<g style="mix-blend-mode:multiply" opacity="0.55">
<g style="mix-blend-mode:multiply" opacity="0.55">
<path d="M526.588 189.36C521.077 229.673 488.044 271.401 427 271.401C365.956 271.401 334.154 227.766 327.413 189.36C328.512 208.152 335.091 226.233 346.36 241.432C360.593 262.582 397.6 286.458 397.6 300.763V317.1C397.6 318.668 398.232 320.172 399.358 321.281C400.483 322.39 402.009 323.013 403.601 323.013H450.4C451.991 323.013 453.518 322.39 454.643 321.281C455.769 320.172 456.401 318.668 456.401 317.1V300.763C456.401 286.458 493.407 262.615 507.641 241.432C518.91 226.233 525.489 208.152 526.588 189.36V189.36Z" fill="#FFC043"/>
</g>
</g>
<path d="M458.758 307.742H395.243V337.565C395.249 342.435 396.655 347.204 399.296 351.321V351.321C401.763 355.142 405.168 358.289 409.197 360.47C413.225 362.651 417.747 363.795 422.343 363.797H431.657C436.254 363.795 440.775 362.651 444.804 360.47C448.832 358.289 452.237 355.142 454.704 351.321V351.321C457.345 347.204 458.751 342.435 458.758 337.565V307.742Z" fill="#28364C"/>
<path d="M395.243 327.849C395.425 327.865 395.608 327.865 395.789 327.849L459.304 321.363C459.82 321.317 460.321 321.167 460.776 320.924C461.23 320.68 461.63 320.347 461.95 319.946C462.27 319.545 462.503 319.083 462.636 318.59C462.768 318.097 462.797 317.582 462.72 317.077C462.567 316.043 462.019 315.105 461.187 314.456C460.355 313.807 459.302 313.497 458.245 313.588L394.73 320.084C394.214 320.129 393.713 320.278 393.257 320.521C392.801 320.764 392.401 321.097 392.081 321.498C391.761 321.9 391.527 322.362 391.396 322.856C391.264 323.35 391.236 323.865 391.314 324.37C391.455 325.311 391.924 326.173 392.641 326.808C393.359 327.443 394.279 327.811 395.243 327.849Z" fill="#475577"/>
<path d="M395.243 341.503C395.425 341.514 395.607 341.514 395.789 341.503L459.304 335.018C459.819 334.97 460.319 334.819 460.773 334.575C461.227 334.331 461.626 333.998 461.946 333.597C462.265 333.196 462.499 332.736 462.632 332.243C462.765 331.75 462.795 331.236 462.72 330.732C462.572 329.695 462.025 328.754 461.192 328.104C460.358 327.454 459.303 327.146 458.245 327.243L394.73 333.728C394.215 333.774 393.714 333.924 393.259 334.167C392.804 334.411 392.404 334.744 392.085 335.145C391.765 335.546 391.531 336.008 391.399 336.501C391.267 336.994 391.238 337.509 391.314 338.014C391.454 338.955 391.923 339.819 392.64 340.456C393.357 341.093 394.278 341.463 395.243 341.503Z" fill="#475577"/>
<path d="M397.782 355.012C397.964 355.029 398.147 355.029 398.329 355.012L458.53 348.863C459.046 348.817 459.546 348.668 460.001 348.424C460.456 348.18 460.856 347.847 461.176 347.446C461.496 347.045 461.729 346.583 461.861 346.09C461.994 345.597 462.023 345.082 461.946 344.577C461.796 343.542 461.248 342.602 460.415 341.953C459.582 341.304 458.529 340.994 457.471 341.088L397.27 347.248C396.754 347.294 396.253 347.444 395.799 347.687C395.344 347.931 394.944 348.264 394.624 348.665C394.304 349.067 394.071 349.528 393.939 350.021C393.806 350.514 393.777 351.029 393.854 351.534C393.996 352.473 394.466 353.334 395.183 353.969C395.9 354.604 396.819 354.973 397.782 355.012V355.012Z" fill="#475577"/>
<path d="M427 43.4888V74.3774" stroke="#FFC043" stroke-width="3" stroke-linecap="round" stroke-linejoin="round"/>
<path d="M483.546 55.7971L470.884 84.0603" stroke="#FFC043" stroke-width="3" stroke-linecap="round" stroke-linejoin="round"/>
<path d="M531.2 89.9731L508.028 110.797" stroke="#FFC043" stroke-width="3" stroke-linecap="round" stroke-linejoin="round"/>
<path d="M370.454 55.7971L383.116 84.0603" stroke="#FFC043" stroke-width="3" stroke-linecap="round" stroke-linejoin="round"/>
<path d="M322.801 89.9731L345.973 110.797" stroke="#FFC043" stroke-width="3" stroke-linecap="round" stroke-linejoin="round"/>
<path d="M291.442 469.681C292.637 469.681 293.605 468.726 293.605 467.549C293.605 466.371 292.637 465.417 291.442 465.417C290.247 465.417 289.278 466.371 289.278 467.549C289.278 468.726 290.247 469.681 291.442 469.681Z" fill="#648ACC"/>
<path d="M314.694 469.681C315.889 469.681 316.857 468.726 316.857 467.549C316.857 466.371 315.889 465.417 314.694 465.417C313.499 465.417 312.53 466.371 312.53 467.549C312.53 468.726 313.499 469.681 314.694 469.681Z" fill="#648ACC"/>
<path d="M611.59 315.854C612.784 315.854 613.753 314.9 613.753 313.722C613.753 312.545 612.784 311.591 611.59 311.591C610.395 311.591 609.426 312.545 609.426 313.722C609.426 314.9 610.395 315.854 611.59 315.854Z" fill="#648ACC"/>
<path d="M623.75 315.854C624.945 315.854 625.914 314.9 625.914 313.722C625.914 312.545 624.945 311.591 623.75 311.591C622.555 311.591 621.587 312.545 621.587 313.722C621.587 314.9 622.555 315.854 623.75 315.854Z" fill="#648ACC"/>
<path d="M638.086 313.722C638.086 314.144 637.959 314.556 637.722 314.907C637.484 315.257 637.146 315.531 636.751 315.692C636.355 315.853 635.92 315.895 635.501 315.813C635.081 315.731 634.695 315.528 634.393 315.23C634.09 314.932 633.884 314.552 633.801 314.138C633.717 313.725 633.76 313.296 633.924 312.907C634.088 312.517 634.365 312.184 634.721 311.95C635.077 311.716 635.495 311.591 635.923 311.591C636.497 311.591 637.047 311.815 637.453 312.215C637.858 312.615 638.086 313.157 638.086 313.722V313.722Z" fill="#648ACC"/>
<path d="M600.203 289.981C601.398 289.981 602.366 289.026 602.366 287.849C602.366 286.672 601.398 285.717 600.203 285.717C599.008 285.717 598.04 286.672 598.04 287.849C598.04 289.026 599.008 289.981 600.203 289.981Z" fill="#648ACC"/>
<path d="M550.854 452.952C573.557 443.598 584.266 417.881 574.774 395.51C565.282 373.139 539.182 362.586 516.479 371.94C493.776 381.293 483.067 407.011 492.559 429.381C502.051 451.752 528.151 462.305 550.854 452.952Z" fill="#F46072"/>
<path d="M540.806 443.444C558.167 439.557 569.043 422.539 565.099 405.432C561.155 388.325 543.883 377.608 526.522 381.495C509.162 385.381 498.285 402.4 502.23 419.506C506.174 436.613 523.445 447.33 540.806 443.444Z" fill="white"/>
<path d="M511.523 412.447C511.521 416.764 512.818 420.984 515.25 424.574C517.683 428.165 521.141 430.963 525.187 432.617C529.234 434.27 533.687 434.704 537.984 433.863C542.281 433.023 546.228 430.945 549.327 427.893C552.425 424.842 554.536 420.953 555.391 416.72C556.247 412.486 555.809 408.098 554.133 404.11C552.457 400.121 549.618 396.713 545.976 394.314C542.334 391.916 538.051 390.635 533.67 390.635C527.799 390.635 522.167 392.933 518.014 397.023C513.861 401.113 511.526 406.661 511.523 412.447V412.447Z" fill="#F46072"/>
<path d="M522.067 412.447C522.065 414.709 522.744 416.921 524.017 418.802C525.291 420.684 527.102 422.151 529.222 423.018C531.342 423.885 533.676 424.113 535.927 423.673C538.179 423.234 540.247 422.146 541.871 420.547C543.495 418.949 544.601 416.911 545.05 414.693C545.498 412.475 545.269 410.176 544.391 408.086C543.513 405.996 542.026 404.21 540.118 402.953C538.21 401.696 535.966 401.025 533.67 401.025C530.595 401.025 527.646 402.228 525.47 404.37C523.294 406.512 522.07 409.417 522.067 412.447V412.447Z" fill="white"/>
<path d="M531.872 414.22H539.159L531.872 407.039V414.22Z" fill="#0C3656"/>
<path d="M579.104 367.679H587.439V365.615H581.21V359.466H579.104V367.679Z" fill="#0C3656"/>
<path d="M582.918 363.921H591.253V361.845H585.013V355.708H582.918V363.921Z" fill="#0C3656"/>
<path d="M583.572 361.802L533.177 411.46L534.666 412.927L585.061 363.27L583.572 361.802Z" fill="#0C3656"/>
<path d="M190.966 334.109L185.466 344.387C182.329 344.181 179.271 343.324 176.493 341.874C171.358 339.372 169.866 335.938 169.866 335.938L179.158 323.821" fill="#F886BC"/>
<path d="M202.683 314.676C207.796 317.649 199.347 336.443 194.712 337.632C190.078 338.822 180.946 329.935 178.213 322.418C175.48 314.901 184.271 310.783 189.429 309.246C194.587 307.709 202.683 314.676 202.683 314.676Z" fill="#F886BC"/>
<path d="M198.857 323.787C198.686 324.09 198.515 324.393 198.367 324.707C198.219 325.021 198.765 325.436 198.948 325.044C199.13 324.651 199.255 324.359 199.392 324.011C199.528 323.664 199.016 323.506 198.857 323.787V323.787Z" fill="#00276F"/>
<path d="M201.693 322.014C201.693 322.014 200.554 320.354 197.616 320.892" stroke="#00276F" stroke-width="0.75" stroke-linecap="round" stroke-linejoin="round"/>
<path d="M194.359 331.102L197.616 333.346C197.616 333.346 196.341 335.77 195.179 334.827C194.018 333.885 194.359 331.102 194.359 331.102Z" fill="white"/>
<path d="M207.237 318.794C204.954 317.964 202.738 316.962 200.61 315.798C198.253 316.281 195.817 318.446 195.748 320.903C195.748 321.464 195.68 322.216 195.122 322.295C194.746 322.295 194.427 321.969 194.314 321.61C194.258 321.232 194.178 320.857 194.074 320.488C193.888 320.147 193.582 319.884 193.213 319.748C192.845 319.612 192.439 319.612 192.07 319.748C191.704 319.892 191.373 320.112 191.1 320.392C190.827 320.673 190.618 321.008 190.488 321.374C189.702 323.203 189.019 325.414 190.784 326.984C191.083 327.195 191.344 327.453 191.558 327.747C191.945 328.432 191.49 329.273 191.034 329.913C190.248 331.224 189.124 332.306 187.776 333.051C186.428 333.796 184.905 334.176 183.36 334.154C180.433 334.154 175.582 330.35 175.264 328.454C175.264 328.286 172.44 316.673 177.632 309.279C180.41 305.319 185.307 302.435 190.419 302.85C193.164 303.234 195.744 304.369 197.866 306.127C206.395 307.63 208.217 316.281 207.237 318.794Z" fill="#212237"/>
<path d="M202.318 325.661C202.318 325.661 203.07 331.271 201.943 331.91C200.815 332.55 198.436 330.923 198.436 330.923" fill="#F886BC"/>
<path d="M204.664 478.219L200.497 504.743L200.28 512.732L232.06 512.574C232.427 512.563 232.775 512.411 233.03 512.151C233.285 511.892 233.427 511.544 233.427 511.183V511.183C233.426 510.902 233.339 510.628 233.176 510.398C233.013 510.167 232.783 509.991 232.516 509.893L218.852 503.688L224.318 476.132" fill="#F886BC"/>
<path d="M234.85 512.238C234.631 511.296 234.098 510.455 233.335 509.848L218.795 503.688C210.824 506.886 200.417 504.44 200.417 504.44L198.561 515.222C198.561 515.307 198.578 515.391 198.611 515.47C198.644 515.548 198.693 515.619 198.755 515.679C198.816 515.738 198.889 515.785 198.969 515.816C199.049 515.848 199.135 515.863 199.221 515.862L234.611 515.682C235.317 515.682 234.861 512.272 234.85 512.238Z" fill="#4868EF"/>
<path d="M221.938 504.305C221.127 505.347 220.439 506.476 219.889 507.671" stroke="#273B7A" stroke-width="0.75" stroke-miterlimit="10"/>
<path d="M223.771 505.383C223.083 506.275 222.503 507.243 222.04 508.266" stroke="#273B7A" stroke-width="0.75" stroke-miterlimit="10"/>
<path d="M225.32 506.168C224.729 507.012 224.2 507.897 223.737 508.816" stroke="#273B7A" stroke-width="0.75" stroke-miterlimit="10"/>
<path d="M198.743 513.539L234.998 513.36" stroke="#273B7A" stroke-width="0.75" stroke-miterlimit="10"/>
<path d="M199.757 508.266C199.757 508.266 208.274 508.434 209.003 513.495" stroke="#273B7A" stroke-width="0.75" stroke-miterlimit="10"/>
<path d="M230.353 508.592C229.253 510.094 228.31 511.703 227.54 513.394" stroke="#273B7A" stroke-width="0.75" stroke-miterlimit="10"/>
<path d="M105.999 485.175L79.4794 482.056L71.3721 481.843L71.5315 513.169C71.5315 513.351 71.5681 513.531 71.6394 513.698C71.7106 513.866 71.815 514.018 71.9464 514.145C72.0778 514.273 72.2336 514.373 72.4048 514.44C72.576 514.508 72.7591 514.541 72.9434 514.538V514.538C73.2268 514.537 73.5031 514.452 73.7367 514.294C73.9702 514.135 74.1501 513.912 74.2529 513.652L80.5497 500.188L108.037 503.24" fill="#F886BC"/>
<path d="M71.8732 515.918C72.8297 515.699 73.6838 515.169 74.2986 514.415L80.5499 500.087C77.3046 492.233 79.7869 481.978 79.7869 481.978L68.8444 480.149C68.6712 480.152 68.5061 480.221 68.3847 480.343C68.2633 480.465 68.1953 480.629 68.1953 480.799L68.3775 515.671C68.3775 516.378 71.839 515.918 71.8732 515.918Z" fill="#4868EF"/>
<path d="M79.9228 503.195C78.8687 502.391 77.7221 501.714 76.5068 501.175" stroke="#273B7A" stroke-width="0.75" stroke-miterlimit="10"/>
<path d="M78.8297 504.99C77.9188 504.333 76.9375 503.776 75.9033 503.329" stroke="#273B7A" stroke-width="0.75" stroke-miterlimit="10"/>
<path d="M78.033 506.516C77.1775 505.931 76.2793 505.41 75.3457 504.956" stroke="#273B7A" stroke-width="0.75" stroke-miterlimit="10"/>
<path d="M70.5518 480.339L70.7453 516.064" stroke="#273B7A" stroke-width="0.75" stroke-miterlimit="10"/>
<path d="M75.9042 481.338C75.9042 481.338 75.7334 489.731 70.6094 490.46" stroke="#273B7A" stroke-width="0.75" stroke-miterlimit="10"/>
<path d="M75.5737 511.475C74.0485 510.391 72.4156 509.463 70.7002 508.704" stroke="#273B7A" stroke-width="0.75" stroke-miterlimit="10"/>
<path d="M121.77 412.357C116.076 427.37 125.379 449.17 125.379 449.17L130.276 484.278L83.7725 482.258L84.2621 512.754C84.2621 512.754 134.136 516.255 146.206 516.255C158.275 516.255 162.933 513.596 166.474 506.628C171.746 496.249 164.196 438.87 164.196 437.917L155.918 401.07" fill="#22252D"/>
<path d="M89.3516 482.505L89.7046 513.113" stroke="#474B51" stroke-width="0.75" stroke-miterlimit="10"/>
<path d="M137.904 420.47C137.904 420.47 132.62 447.061 159.425 452.772C171.403 455.319 201.851 456.138 201.851 456.138L196.659 497.203H227.061C227.061 497.203 233.358 466.258 235.26 445.591C236.524 431.813 230.512 425.664 219.216 424.273C209.651 423.151 180.889 421.255 180.889 421.255L176.049 415.275" fill="#22252D"/>
<path d="M165.437 453.714C165.437 453.714 142.88 453.782 137.482 428.885" stroke="#474B51" stroke-width="0.75" stroke-miterlimit="10"/>
<path d="M149.382 426.54C154.026 427.277 158.74 427.488 163.433 427.168" stroke="#474B51" stroke-width="0.75" stroke-miterlimit="10"/>
<path d="M119.936 422.994C123.153 423.914 126.464 424.479 129.808 424.677" stroke="#474B51" stroke-width="0.75" stroke-miterlimit="10"/>
<path d="M198.663 491.885H228.189" stroke="#474B51" stroke-width="0.75" stroke-miterlimit="10"/>
<path d="M261.802 378.518H259.377V404.593H261.802V378.518Z" fill="#648ACC"/>
<path d="M260.595 380.28C263.061 380.28 265.059 378.31 265.059 375.881C265.059 373.452 263.061 371.483 260.595 371.483C258.13 371.483 256.132 373.452 256.132 375.881C256.132 378.31 258.13 380.28 260.595 380.28Z" fill="#648ACC"/>
<path d="M238.198 383.365L247.171 384.016C247.171 384.016 254.071 381.772 256.827 381.66C257.756 381.602 258.671 381.904 259.377 382.501V385.183C259.377 386.956 261.803 387.741 261.803 386.529V385.059C261.803 385.16 266.767 387.472 263.875 389.682C265.23 389.963 265.959 391.836 263.374 393.127C263.677 393.294 263.927 393.541 264.096 393.84C264.266 394.138 264.349 394.477 264.336 394.819C264.323 395.161 264.215 395.493 264.023 395.778C263.831 396.064 263.563 396.291 263.249 396.436C264.091 397.693 262.383 399.073 261.028 399.365C258.455 399.915 237.925 399.488 237.925 399.488" fill="#F886BC"/>
<path d="M185.808 343.422C200.554 363.528 192.64 370.047 182.039 421.322C161.061 421.37 140.13 419.348 119.561 415.286C126.061 395.745 134.105 376.736 143.621 358.434C151.067 344.151 163.456 337.038 170.47 335.22" fill="#FF570C"/>
<path d="M163.433 366.03C163.433 366.03 186.206 401.194 197.057 402.753C214.251 405.233 242.684 404.537 242.684 404.537L244.38 379.797C244.38 379.797 207.829 377.968 206.315 377.127C201.419 374.389 185.819 343.467 185.819 343.467" fill="#FF570C"/>
<path d="M187.698 396.335C178.634 388.426 171.093 378.969 165.438 368.42" stroke="#273B7A" stroke-width="0.75" stroke-miterlimit="10"/>
<path d="M239.109 379.517L236.957 404.627" stroke="#273B7A" stroke-width="0.75" stroke-miterlimit="10"/>
<path d="M722.701 340.695C722.143 345.497 718.226 359.163 719.045 359.769C719.865 360.375 721.323 355.551 721.892 356.145C722.461 356.74 720.753 364.257 721.744 364.616C723.065 365.099 724.397 357.301 724.397 357.301C724.397 357.301 723.361 365.907 724.636 365.996C725.536 366.064 726.629 359.534 727.358 357.088C726.902 359.837 726.709 364.381 727.642 364.426C728.576 364.47 729.407 360.039 730.239 356.684C729.92 358.827 729.555 362.765 730.409 362.844C731.263 362.922 734.076 352.297 736.319 342.176" fill="#F886BC"/>
<path d="M738.574 274.767C738.574 274.767 746.465 288.578 747.603 297.061C750.416 317.952 732.801 353.329 732.801 353.329C732.801 353.329 720.025 349.896 720.025 348.314C720.025 346.732 728.929 309.56 728.929 309.56L716.222 280.5" fill="#F886BC"/>
<path d="M700.189 229.404L701.909 244.978C701.909 244.978 692.435 252.899 684.043 244.035L685.068 233.78L700.189 229.404Z" fill="#F886BC"/>
<path d="M686.969 213.797C686.969 213.797 676.721 227.721 680.9 232.938C683.997 236.798 692.105 237.236 694.564 235.721C695.111 232.871 701.76 223.446 700.69 221.348C696.659 213.337 686.969 213.797 686.969 213.797Z" fill="#F886BC"/>
<path d="M702.945 216.21C702.615 210.947 697.342 209.41 687.231 210.005C685.876 210.083 683.474 209.175 682.847 210.364C682.027 211.912 681.879 215.065 683.462 216.49C684.339 217.288 685.444 217.802 686.628 217.96C688.461 218.386 690.328 220.103 689.349 221.988C689.099 222.493 688.495 223.323 688.871 223.738C689.229 223.965 689.611 224.153 690.009 224.299C690.738 224.692 690.693 225.78 690.237 226.453C689.782 227.127 689.987 227.89 689.531 228.563C688.45 230.167 689.725 233.129 691.41 234.105C692.902 234.981 697.775 236.428 701.351 234.599C704.448 233.017 706.304 228.709 706.327 220.967C706.304 218.005 704.072 216.008 702.945 216.21Z" fill="#212237"/>
<path d="M688.085 224.165C689.759 222.078 691.103 222.414 691.843 223.559C692.822 225.073 690.852 228.249 689.941 228.787C688.074 229.909 686.525 229.763 686.434 228.282" fill="#F886BC"/>
<path d="M683.975 221.034C683.496 221.427 683.052 222.156 683.314 222.65C683.349 222.719 683.405 222.776 683.475 222.812C683.544 222.848 683.623 222.862 683.701 222.852C684.772 222.695 684.977 220.159 683.975 221.034Z" fill="#28364C"/>
<path d="M684.111 219.048C685.006 219.328 685.766 219.918 686.252 220.709" stroke="#28364C" stroke-width="0.75" stroke-miterlimit="10"/>
<path d="M684.088 228.394L681.811 227.16C681.811 227.16 680.274 229.999 681.355 230.605C682.437 231.211 684.088 228.394 684.088 228.394Z" fill="white"/>
<path d="M648.778 516.188L685.796 516.163L685.795 514.524L648.777 514.55L648.778 516.188Z" fill="#7487BE"/>
<path d="M680.502 501.108L683.701 501.848C683.701 501.848 684.92 505.977 685.398 508.838C685.684 510.736 685.806 512.654 685.762 514.572H648.744C648.744 514.572 649.712 511.419 658.548 506.314C660.544 505.201 662.322 503.746 663.797 502.016L680.502 501.108Z" fill="#22252D"/>
<path d="M684.339 487.98L683.735 501.848C683.735 501.848 682.175 503.7 675.89 503.711C671.819 503.655 667.771 503.094 663.843 502.039L662.602 483.324" fill="#F2B18F"/>
<path d="M701.499 516.179L738.517 516.154L738.515 514.516L701.497 514.541L701.499 516.179Z" fill="#7487BE"/>
<path d="M733.222 501.108L736.421 501.848C736.421 501.848 737.64 505.977 738.118 508.838C738.404 510.736 738.526 512.654 738.482 514.572H701.464C701.464 514.572 702.432 511.419 711.268 506.314C713.264 505.201 715.042 503.746 716.518 502.016L733.222 501.108Z" fill="#22252D"/>
<path d="M735.169 487.419L736.421 501.848C736.421 501.848 734.861 503.7 728.576 503.711C724.501 503.656 720.45 503.095 716.518 502.039L713.671 483.324" fill="#F2B18F"/>
<path d="M729.202 343.915C729.202 343.915 734.975 355.764 730.341 378.428C732.698 429.042 738.835 497.08 738.835 497.08L703.537 496.956C703.537 496.956 696.352 423.824 692.07 387.371C687.311 346.777 684.339 297.061 684.339 297.061" fill="#FF570C"/>
<path d="M709.264 496.956C709.264 496.956 702.079 423.824 697.798 387.371" stroke="#0B2E6B" stroke-width="0.75" stroke-miterlimit="10"/>
<path d="M661.861 346.182C661.861 346.182 658.149 399.544 658.149 425.148C658.149 450.752 656.441 497.046 656.441 497.046H692.093L705.358 375.937C716.221 363.124 715.424 335.298 712.805 324.471L677.507 314.957L661.861 346.182Z" fill="#FF570C"/>
<path d="M698.071 442.472L705.359 375.971C710.885 369.643 714.093 361.669 714.468 353.329" stroke="#0B2E6B" stroke-width="0.75" stroke-miterlimit="10"/>
<path d="M669.297 340.83L660.871 497.08" stroke="#0B2E6B" stroke-width="0.75" stroke-miterlimit="10"/>
<path d="M692.708 354.911L710.027 355.248" stroke="#0B2E6B" stroke-width="0.75" stroke-miterlimit="10"/>
<path d="M722.371 354.372L728.952 354.238" stroke="#0B2E6B" stroke-width="0.75" stroke-miterlimit="10"/>
<path d="M631.812 264.915C626.973 259.53 614.004 239.042 612.546 239.367C611.089 239.693 615.017 246.032 613.776 246.099C612.535 246.167 605.805 236.798 604.439 237.494C602.594 238.459 609.984 247.67 609.984 247.67C609.984 247.67 607.092 243.754 605.725 245.045C604.758 245.954 605.27 247.872 607.274 251.104C605.93 249.454 604.655 249.162 603.676 250.127C602.697 251.092 603.676 252.854 604.814 254.615C603.869 253.493 602.48 252.854 602.127 254.077C601.66 255.67 605.543 263.939 614.869 277.426" fill="#F886BC"/>
<path d="M701.738 243.396C701.738 243.396 722.154 244.237 728.28 267.148C731.047 277.471 732.835 348.291 732.835 348.291L658.149 347.82C658.149 347.82 659.14 283.799 660.814 269.931C663.866 244.607 684.1 243.003 684.1 243.003C684.1 243.003 685.022 245.247 692.936 245.247C700.849 245.247 701.738 243.396 701.738 243.396Z" fill="#D8CAC0"/>
<path d="M701.738 243.396C725.98 243.396 740.897 276.203 740.897 276.203L725.661 283.754" fill="#D8CAC0"/>
<path d="M669.707 289.947C669.707 289.947 656.772 308.292 646.33 309.291C632.29 310.626 607.319 264.579 607.319 264.579L623.067 254.088L644.645 280.837L652.012 269.987" fill="#F886BC"/>
<path d="M684.145 243.003C663.273 244.125 648.004 274.767 648.004 274.767L672.44 292.057L686.309 274.228" fill="#D8CAC0"/>
<path d="M671.574 291.451L683.405 276.292" stroke="#846A6A" stroke-width="0.75" stroke-miterlimit="10"/>
<path d="M730.341 281.443C729.435 275.337 727.866 269.345 725.661 263.569" stroke="#846A6A" stroke-width="0.75" stroke-miterlimit="10"/>
<path d="M683.098 222.156C683.098 222.156 679.739 223.749 679.898 224.4C680.208 225.127 680.59 225.822 681.037 226.476" fill="#F886BC"/>
<path d="M656.441 489.461H692.708" stroke="#0B2E6B" stroke-width="0.75" stroke-miterlimit="10"/>
<path d="M702.831 489.764H738.107" stroke="#0B2E6B" stroke-width="0.75" stroke-miterlimit="10"/>
</svg>
