<svg width="442" height="385" viewBox="0 0 442 385" fill="none" xmlns="http://www.w3.org/2000/svg">
<path d="M442 0H0V385H442V0Z" fill="white"/>
<g style="mix-blend-mode:multiply">
<g style="mix-blend-mode:multiply">
<path d="M69.3598 55L71.5198 60.69C69.4283 62.0603 67.5994 63.7944 66.1198 65.81L60.5498 63.3C59.4611 62.8107 58.2226 62.7739 57.1068 63.1977C55.9909 63.6216 55.0892 64.4713 54.5998 65.56C54.1105 66.6487 54.0737 67.8872 54.4975 69.0031C54.9214 70.1189 55.7711 71.0207 56.8598 71.51L62.4298 74C61.9091 76.4461 61.8279 78.9654 62.1898 81.44L56.4998 83.6C55.4507 84.0686 54.6206 84.9207 54.1796 85.9817C53.7386 87.0428 53.7202 88.2323 54.1281 89.3064C54.536 90.3806 55.3394 91.258 56.3735 91.7589C57.4076 92.2597 58.5941 92.346 59.6898 92L65.3898 89.83C66.7563 91.9241 68.487 93.7564 70.4998 95.24L67.9998 100.83C67.5105 101.919 67.4737 103.157 67.8976 104.273C68.3214 105.389 69.1711 106.291 70.2598 106.78C71.3486 107.269 72.5871 107.306 73.7029 106.882C74.8187 106.458 75.7205 105.609 76.2098 104.52L78.7198 98.95C81.1626 99.4722 83.6795 99.5501 86.1498 99.18L88.3198 104.88C88.5215 105.443 88.8336 105.961 89.2377 106.402C89.6419 106.844 90.13 107.2 90.6736 107.451C91.2171 107.701 91.8052 107.84 92.4033 107.861C93.0014 107.881 93.5976 107.782 94.1569 107.569C94.7163 107.356 95.2275 107.034 95.6608 106.621C96.0941 106.209 96.4407 105.713 96.6802 105.165C96.9198 104.617 97.0476 104.026 97.0561 103.428C97.0647 102.829 96.9537 102.235 96.7298 101.68L94.5698 96C96.6639 94.6294 98.496 92.8954 99.9798 90.88L105.55 93.39C106.089 93.6323 106.67 93.766 107.261 93.7836C107.852 93.8011 108.44 93.7022 108.993 93.4923C109.545 93.2824 110.051 92.9658 110.481 92.5605C110.911 92.1552 111.258 91.6691 111.5 91.13C111.742 90.5909 111.876 90.0094 111.893 89.4187C111.911 88.8279 111.812 88.2395 111.602 87.687C111.392 87.1344 111.076 86.6287 110.67 86.1986C110.265 85.7684 109.779 85.4223 109.24 85.18L103.67 82.67C104.192 80.2239 104.27 77.7037 103.9 75.23L109.6 73.07C110.153 72.8599 110.659 72.5429 111.089 72.1373C111.52 71.7316 111.866 71.2451 112.108 70.7056C112.35 70.1661 112.484 69.5841 112.502 68.9929C112.519 68.4017 112.42 67.8129 112.21 67.26C112 66.7072 111.683 66.2011 111.277 65.7707C110.871 65.3403 110.385 64.9941 109.845 64.7517C109.306 64.5094 108.724 64.3756 108.133 64.3582C107.542 64.3407 106.953 64.4399 106.4 64.65L100.7 66.82C99.3335 64.7258 97.6028 62.8935 95.5898 61.41L98.0998 55.84C98.5251 54.761 98.5183 53.5596 98.0809 52.4854C97.6435 51.4112 96.8091 50.5469 95.751 50.0719C94.6929 49.5969 93.4924 49.5478 92.3991 49.9348C91.3057 50.3218 90.4035 51.1152 89.8798 52.15L87.3798 57.72C84.9337 57.1977 82.4136 57.1198 79.9398 57.49L77.7798 51.79C77.3555 50.6735 76.505 49.7712 75.4154 49.2817C74.3258 48.7923 73.0864 48.7557 71.9698 49.18C70.8533 49.6044 69.951 50.4549 69.4615 51.5445C68.9721 52.6341 68.9355 53.8735 69.3598 54.99V55ZM91.2398 87.23V87.12C90.6137 87.7205 89.9453 88.2752 89.2398 88.78C88.6641 89.1178 88.0622 89.4087 87.4398 89.65C84.7535 90.6788 81.7888 90.7187 79.0758 89.7624C76.3628 88.8061 74.0784 86.916 72.631 84.43C71.1836 81.9441 70.6676 79.0244 71.1753 76.1929C71.6829 73.3614 73.1811 70.8028 75.4019 68.9746C77.6228 67.1463 80.4215 66.1675 83.2978 66.2132C86.174 66.259 88.9402 67.3263 91.1018 69.2243C93.2634 71.1222 94.6795 73.7272 95.0968 76.5734C95.5142 79.4195 94.9056 82.3214 93.3798 84.76V84.76C92.7766 85.5579 92.1076 86.3039 91.3798 86.99L91.4998 87.04C91.3698 87.1 91.2998 87.15 91.2398 87.21V87.23Z" fill="#DDDDDD"/>
</g>
<g style="mix-blend-mode:multiply">
<path d="M115.47 17.1L115.64 21.41C113.928 21.8621 112.31 22.6137 110.86 23.63L107.69 20.7C107.386 20.3977 107.024 20.1598 106.626 20.0004C106.229 19.8411 105.803 19.7635 105.374 19.7724C104.946 19.7813 104.523 19.8765 104.132 20.0522C103.741 20.228 103.39 20.4807 103.099 20.7953C102.808 21.1099 102.583 21.48 102.438 21.8834C102.293 22.2867 102.231 22.7152 102.255 23.1431C102.28 23.571 102.39 23.9897 102.58 24.374C102.77 24.7583 103.035 25.1004 103.36 25.38L106.54 28.31C105.638 29.8331 105.018 31.5066 104.71 33.25L100.4 33.43C99.9703 33.4297 99.545 33.5161 99.1496 33.6842C98.7542 33.8523 98.3968 34.0985 98.0989 34.4081C97.801 34.7177 97.5687 35.0843 97.4159 35.4859C97.2632 35.8875 97.1931 36.3158 97.21 36.7451C97.2268 37.1744 97.3302 37.5959 97.514 37.9843C97.6977 38.3726 97.958 38.7199 98.2793 39.0052C98.6005 39.2905 98.9761 39.5079 99.3835 39.6445C99.7908 39.7811 100.222 39.834 100.65 39.8L104.96 39.62C105.412 41.3318 106.164 42.9502 107.18 44.4L104.25 47.58C103.677 48.2006 103.374 49.0233 103.408 49.8673C103.442 50.7112 103.809 51.5071 104.43 52.08C105.05 52.6528 105.873 52.9557 106.717 52.922C107.561 52.8882 108.357 52.5206 108.93 51.9L111.87 48.73C113.396 49.6266 115.068 50.2462 116.81 50.56L116.98 54.87C117.045 55.6922 117.426 56.4573 118.044 57.0045C118.661 57.5518 119.466 57.8387 120.29 57.8051C121.114 57.7714 121.893 57.4198 122.464 56.8241C123.034 56.2284 123.352 55.4348 123.35 54.61L123.18 50.3C124.892 49.8575 126.509 49.1051 127.95 48.08L131.13 51.02C131.752 51.5942 132.576 51.8978 133.422 51.864C134.268 51.8303 135.066 51.4619 135.64 50.84C136.214 50.218 136.518 49.3935 136.484 48.5477C136.45 47.7019 136.082 46.9042 135.46 46.33L132.28 43.4C133.175 41.8736 133.795 40.2014 134.11 38.46L138.42 38.29C138.849 38.2889 139.274 38.2013 139.668 38.0323C140.063 37.8633 140.419 37.6164 140.716 37.3064C141.013 36.9964 141.244 36.6297 141.396 36.2282C141.548 35.8267 141.617 35.3988 141.6 34.9699C141.582 34.541 141.478 34.1201 141.294 33.7323C141.11 33.3446 140.85 32.9979 140.529 32.7132C140.207 32.4284 139.832 32.2114 139.425 32.0751C139.018 31.9388 138.588 31.886 138.16 31.92L133.85 32.09C133.405 30.3774 132.656 28.7585 131.64 27.31L134.57 24.13C134.857 23.8242 135.079 23.4639 135.223 23.0705C135.367 22.677 135.431 22.2585 135.41 21.84C135.398 21.4238 135.303 21.0142 135.131 20.6349C134.96 20.2555 134.714 19.914 134.41 19.63C133.789 19.0585 132.966 18.7565 132.123 18.7903C131.279 18.824 130.484 19.1907 129.91 19.81L127 23C125.46 22.0858 123.765 21.4621 122 21.16L121.83 16.85C121.765 16.0286 121.384 15.2643 120.768 14.7172C120.152 14.17 119.348 13.8825 118.525 13.9148C117.701 13.9471 116.923 14.2968 116.351 14.8905C115.78 15.4842 115.461 16.276 115.46 17.1H115.47ZM122.91 43.66V43.57C122.341 43.834 121.752 44.0547 121.15 44.23C120.689 44.3262 120.221 44.3864 119.75 44.41C117.717 44.5118 115.714 43.8876 114.099 42.6489C112.484 41.4102 111.362 39.6376 110.933 37.6479C110.505 35.6582 110.797 33.5808 111.759 31.7869C112.72 29.993 114.289 28.5994 116.183 27.8551C118.077 27.1107 120.175 27.064 122.1 27.7234C124.026 28.3828 125.654 29.7053 126.695 31.4547C127.735 33.2041 128.12 35.2663 127.78 37.2732C127.44 39.28 126.398 41.1007 124.84 42.41V42.41C124.259 42.8317 123.644 43.203 123 43.52L123.07 43.59L122.91 43.66Z" fill="#DDDDDD"/>
</g>
</g>
<path d="M362.33 193.83C361.932 193.83 361.551 193.672 361.269 193.391C360.988 193.109 360.83 192.728 360.83 192.33V175.67C360.83 175.272 360.988 174.891 361.269 174.609C361.551 174.328 361.932 174.17 362.33 174.17C362.728 174.17 363.109 174.328 363.391 174.609C363.672 174.891 363.83 175.272 363.83 175.67V192.33C363.83 192.527 363.791 192.722 363.716 192.904C363.641 193.086 363.53 193.251 363.391 193.391C363.251 193.53 363.086 193.64 362.904 193.716C362.722 193.791 362.527 193.83 362.33 193.83Z" fill="#DDDDDD"/>
<path d="M370.67 185.5H354C353.602 185.5 353.221 185.342 352.939 185.061C352.658 184.779 352.5 184.398 352.5 184C352.5 183.602 352.658 183.221 352.939 182.939C353.221 182.658 353.602 182.5 354 182.5H370.67C371.068 182.5 371.449 182.658 371.731 182.939C372.012 183.221 372.17 183.602 372.17 184C372.17 184.398 372.012 184.779 371.731 185.061C371.449 185.342 371.068 185.5 370.67 185.5V185.5Z" fill="#DDDDDD"/>
<path d="M412.94 153.39C412.743 153.392 412.547 153.353 412.365 153.278C412.183 153.202 412.018 153.091 411.88 152.95C411.74 152.811 411.628 152.646 411.552 152.464C411.476 152.282 411.437 152.087 411.437 151.89C411.437 151.693 411.476 151.498 411.552 151.316C411.628 151.134 411.74 150.969 411.88 150.83L423.67 139.05C423.808 138.91 423.974 138.798 424.155 138.722C424.337 138.646 424.533 138.607 424.73 138.607C424.927 138.607 425.122 138.646 425.304 138.722C425.486 138.798 425.651 138.91 425.79 139.05C426.068 139.333 426.224 139.713 426.224 140.11C426.224 140.507 426.068 140.888 425.79 141.17L414 153C413.858 153.132 413.691 153.234 413.509 153.301C413.327 153.368 413.134 153.398 412.94 153.39V153.39Z" fill="#DDDDDD"/>
<path d="M424.73 153.39C424.533 153.393 424.337 153.355 424.155 153.279C423.972 153.204 423.808 153.092 423.67 152.95L411.88 141.17C411.615 140.886 411.471 140.51 411.478 140.121C411.485 139.732 411.642 139.362 411.917 139.087C412.192 138.812 412.562 138.655 412.951 138.648C413.34 138.641 413.716 138.785 414 139.05L425.79 150.83C426.069 151.113 426.225 151.493 426.225 151.89C426.225 152.287 426.069 152.668 425.79 152.95C425.652 153.09 425.487 153.201 425.304 153.277C425.122 153.353 424.927 153.391 424.73 153.39V153.39Z" fill="#DDDDDD"/>
<path d="M98 291.17C97.6022 291.17 97.2206 291.012 96.9393 290.731C96.658 290.449 96.5 290.068 96.5 289.67V273C96.5 272.602 96.658 272.221 96.9393 271.939C97.2206 271.658 97.6022 271.5 98 271.5C98.3978 271.5 98.7794 271.658 99.0607 271.939C99.342 272.221 99.5 272.602 99.5 273V289.67C99.5 290.068 99.342 290.449 99.0607 290.731C98.7794 291.012 98.3978 291.17 98 291.17V291.17Z" fill="#DDDDDD"/>
<path d="M106.33 282.83H89.6699C89.2721 282.83 88.8906 282.672 88.6093 282.391C88.328 282.109 88.1699 281.728 88.1699 281.33C88.1699 280.932 88.328 280.551 88.6093 280.269C88.8906 279.988 89.2721 279.83 89.6699 279.83H106.33C106.728 279.83 107.109 279.988 107.391 280.269C107.672 280.551 107.83 280.932 107.83 281.33C107.83 281.728 107.672 282.109 107.391 282.391C107.109 282.672 106.728 282.83 106.33 282.83V282.83Z" fill="#DDDDDD"/>
<path d="M11.2099 243.17C10.8129 243.166 10.4328 243.009 10.1499 242.73C9.87144 242.447 9.71533 242.067 9.71533 241.67C9.71533 241.273 9.87144 240.892 10.1499 240.61L21.9399 228.82C22.2225 228.541 22.6032 228.385 22.9999 228.385C23.3966 228.385 23.7774 228.541 24.0599 228.82C24.2002 228.959 24.3116 229.124 24.3876 229.306C24.4636 229.488 24.5028 229.683 24.5028 229.88C24.5028 230.077 24.4636 230.272 24.3876 230.454C24.3116 230.636 24.2002 230.801 24.0599 230.94L12.2799 242.73C11.9946 243.011 11.6104 243.169 11.2099 243.17V243.17Z" fill="#DDDDDD"/>
<path d="M23 243.17C22.6025 243.169 22.2217 243.011 21.94 242.73L10.15 230.94C10.0108 230.8 9.90052 230.634 9.82543 230.452C9.75035 230.269 9.71194 230.074 9.71241 229.876C9.71287 229.679 9.7522 229.484 9.82814 229.302C9.90408 229.12 10.0151 228.954 10.155 228.815C10.2949 228.676 10.4608 228.566 10.6433 228.49C10.8257 228.415 11.0212 228.377 11.2185 228.377C11.4159 228.378 11.6112 228.417 11.7933 228.493C11.9754 228.569 12.1408 228.68 12.28 228.82L24.06 240.61C24.2003 240.749 24.3117 240.914 24.3877 241.096C24.4637 241.278 24.5029 241.473 24.5029 241.67C24.5029 241.867 24.4637 242.062 24.3877 242.244C24.3117 242.426 24.2003 242.591 24.06 242.73C23.7784 243.011 23.3975 243.169 23 243.17Z" fill="#DDDDDD"/>
<path d="M415.33 332.5C414.932 332.5 414.551 332.342 414.269 332.061C413.988 331.779 413.83 331.398 413.83 331V314.33C413.83 313.932 413.988 313.551 414.269 313.269C414.551 312.988 414.932 312.83 415.33 312.83C415.728 312.83 416.109 312.988 416.391 313.269C416.672 313.551 416.83 313.932 416.83 314.33V331C416.83 331.398 416.672 331.779 416.391 332.061C416.109 332.342 415.728 332.5 415.33 332.5V332.5Z" fill="#DDDDDD"/>
<path d="M423.67 324.17H407C406.602 324.17 406.221 324.012 405.939 323.731C405.658 323.449 405.5 323.068 405.5 322.67C405.5 322.272 405.658 321.891 405.939 321.609C406.221 321.328 406.602 321.17 407 321.17H423.67C424.068 321.17 424.449 321.328 424.731 321.609C425.012 321.891 425.17 322.272 425.17 322.67C425.17 323.068 425.012 323.449 424.731 323.731C424.449 324.012 424.068 324.17 423.67 324.17V324.17Z" fill="#DDDDDD"/>
<path d="M82.9399 196.06C82.5424 196.059 82.1615 195.9 81.8799 195.62C81.7396 195.481 81.6282 195.316 81.5522 195.134C81.4762 194.952 81.437 194.757 81.437 194.56C81.437 194.363 81.4762 194.168 81.5522 193.986C81.6282 193.804 81.7396 193.639 81.8799 193.5L93.6699 181.71C93.9542 181.445 94.3303 181.301 94.7189 181.308C95.1075 181.314 95.4783 181.472 95.7531 181.747C96.0279 182.022 96.1854 182.392 96.1922 182.781C96.1991 183.17 96.0548 183.546 95.7899 183.83L83.9999 195.62C83.7182 195.9 83.3373 196.059 82.9399 196.06V196.06Z" fill="#DDDDDD"/>
<path d="M94.7299 196.06C94.5329 196.06 94.3378 196.022 94.1558 195.946C93.9739 195.871 93.8087 195.76 93.6699 195.62L81.8799 183.83C81.7396 183.691 81.6282 183.526 81.5522 183.344C81.4762 183.162 81.437 182.967 81.437 182.77C81.437 182.573 81.4762 182.378 81.5522 182.196C81.6282 182.014 81.7396 181.849 81.8799 181.71C82.1624 181.432 82.5432 181.275 82.9399 181.275C83.3366 181.275 83.7173 181.432 83.9999 181.71L95.7899 193.5C96.0684 193.783 96.2245 194.163 96.2245 194.56C96.2245 194.957 96.0684 195.337 95.7899 195.62C95.507 195.899 95.1269 196.056 94.7299 196.06Z" fill="#DDDDDD"/>
<g style="mix-blend-mode:multiply">
<path d="M380.06 366.34C380.06 371.46 310.19 375.61 224 375.61C137.81 375.61 67.9399 371.46 67.9399 366.34C67.9399 361.22 137.81 357.08 224 357.08C310.19 357.08 380.06 361.23 380.06 366.34Z" fill="#DDDDDD"/>
</g>
<path d="M219.55 9.73999L260.7 71.64L336.69 84.99L294.8 21.6L219.55 9.73999Z" fill="#2C3A45"/>
<path d="M219.55 9.73999L218.44 10.85L335.58 86.1L336.69 84.99L219.55 9.73999Z" fill="#2C3A45"/>
<path d="M218.44 10.85L259.59 72.75L335.58 86.1L293.69 22.71L218.44 10.85Z" fill="#1D262D"/>
<path d="M304.81 67.19L296.57 80.67L285.57 98.67L228.85 61.59C229.31 60.53 236.85 49.96 242.85 41.59L250.35 31.22C275.52 31.57 293.72 43.48 304.81 67.19Z" fill="#2C3A45"/>
<path d="M262.32 32.38C258.359 31.6605 254.345 31.2791 250.32 31.24L242.82 41.61C236.82 50 229.28 60.61 228.82 61.61L238.17 67.72C245.86 55.86 253.66 43.58 262.32 32.38Z" fill="#415666"/>
<g style="mix-blend-mode:multiply" opacity="0.49">
<path d="M304.81 67.19L296.57 80.67L296.47 80.36C285.35 43.28 242.9 42.17 242.9 42.17L242.82 41.61L250.32 31.24C275.52 31.57 293.72 43.48 304.81 67.19Z" fill="#788B9C"/>
</g>
<path d="M205 244.09H222.27C225.328 244.09 228.261 245.305 230.423 247.467C232.585 249.629 233.8 252.562 233.8 255.62V271.62C233.8 274.678 232.585 277.611 230.423 279.773C228.261 281.935 225.328 283.15 222.27 283.15H205C201.945 283.15 199.015 281.936 196.854 279.776C194.694 277.615 193.48 274.685 193.48 271.63V255.63C193.477 254.115 193.773 252.615 194.351 251.215C194.929 249.815 195.777 248.543 196.847 247.471C197.917 246.399 199.188 245.549 200.587 244.969C201.986 244.389 203.485 244.09 205 244.09V244.09Z" fill="#788B9C"/>
<path d="M233 221.52H194.24C189.325 221.52 185.34 225.505 185.34 230.42V267.38C185.34 272.295 189.325 276.28 194.24 276.28H233C237.915 276.28 241.9 272.295 241.9 267.38V230.42C241.9 225.505 237.915 221.52 233 221.52Z" fill="#A5B7C6"/>
<path d="M294.08 133.38C294.082 118.94 290.198 104.766 282.835 92.3445C275.472 79.9229 264.902 69.7116 252.234 62.7818C239.566 55.8519 225.266 52.459 210.835 52.9589C196.404 53.4587 182.373 57.833 170.215 65.6228C158.056 73.4125 148.218 84.3307 141.733 97.232C135.247 110.133 132.353 124.542 133.354 138.947C134.354 153.352 139.213 167.223 147.421 179.103C155.628 190.983 166.881 200.436 180 206.47V227.77C180 230.316 181.012 232.758 182.812 234.558C184.612 236.359 187.054 237.37 189.6 237.37H237.6C240.146 237.37 242.588 236.359 244.388 234.558C246.189 232.758 247.2 230.316 247.2 227.77V206.47C261.187 200.048 273.038 189.748 281.348 176.793C289.657 163.838 294.076 148.771 294.08 133.38V133.38Z" fill="#FAC408"/>
<path opacity="0.54" d="M242.26 209.73V227.8C242.26 227.8 241.42 232.8 234.19 232.8H216.4C216.4 232.8 236.7 227.8 242.26 209.73Z" fill="#FFE736"/>
<path opacity="0.54" d="M245.12 67.49C227.87 59.4698 208.141 58.6294 190.271 65.1535C172.402 71.6776 157.855 85.0321 149.83 102.28C179.33 77.21 211.29 66.76 245.12 67.49" fill="#FFE736"/>
<path d="M237.81 240.87H187.67V241.79H237.81V240.87Z" fill="#788B9C"/>
<path d="M237.81 244.21H187.67V245.13H237.81V244.21Z" fill="#788B9C"/>
<path d="M237.81 247.54H187.67V248.46H237.81V247.54Z" fill="#788B9C"/>
<path d="M237.81 250.88H187.67V251.8H237.81V250.88Z" fill="#788B9C"/>
<path d="M237.81 254.21H187.67V255.13H237.81V254.21Z" fill="#788B9C"/>
<path d="M237.81 257.55H187.67V258.47H237.81V257.55Z" fill="#788B9C"/>
<path d="M237.81 260.89H187.67V261.81H237.81V260.89Z" fill="#788B9C"/>
<path d="M237.81 264.22H187.67V265.14H237.81V264.22Z" fill="#788B9C"/>
<path d="M237.81 267.56H187.67V268.48H237.81V267.56Z" fill="#788B9C"/>
<path d="M237.81 270.89H187.67V271.81H237.81V270.89Z" fill="#788B9C"/>
<g style="mix-blend-mode:multiply" opacity="0.51">
<path d="M237.81 241.61V265.72C237.81 265.82 237.48 272 230.3 272H220.2C220.151 272 220.104 271.981 220.069 271.948C220.033 271.914 220.012 271.869 220.01 271.82V241.88C220.012 241.83 220.033 241.784 220.068 241.748C220.103 241.713 220.15 241.692 220.2 241.69L237.62 241.42C237.669 241.422 237.716 241.443 237.751 241.478C237.787 241.513 237.807 241.56 237.81 241.61V241.61Z" fill="#788B9C"/>
</g>
<path d="M286.75 282.2H187.78C186.708 282.2 185.84 283.069 185.84 284.14V304.6C185.84 305.671 186.708 306.54 187.78 306.54H286.75C287.821 306.54 288.69 305.671 288.69 304.6V284.14C288.69 283.069 287.821 282.2 286.75 282.2Z" fill="#E3D9D3"/>
<path d="M289 286.08H190C189.744 286.081 189.491 286.032 189.254 285.935C189.018 285.838 188.803 285.696 188.622 285.515C188.44 285.335 188.297 285.121 188.198 284.885C188.1 284.649 188.05 284.396 188.05 284.14C188.05 283.884 188.1 283.631 188.198 283.395C188.297 283.159 188.44 282.945 188.622 282.765C188.803 282.584 189.018 282.442 189.254 282.345C189.491 282.248 189.744 282.199 190 282.2H289C289.514 282.2 290.008 282.404 290.372 282.768C290.735 283.132 290.94 283.625 290.94 284.14C290.94 284.654 290.735 285.148 290.372 285.512C290.008 285.876 289.514 286.08 289 286.08Z" fill="#E86C27"/>
<path d="M289 302.76H190C189.744 302.761 189.491 302.712 189.254 302.615C189.018 302.518 188.803 302.376 188.622 302.195C188.44 302.015 188.297 301.801 188.198 301.565C188.1 301.329 188.05 301.076 188.05 300.82C188.05 300.564 188.1 300.311 188.198 300.075C188.297 299.839 188.44 299.625 188.622 299.445C188.803 299.264 189.018 299.122 189.254 299.025C189.491 298.928 189.744 298.879 190 298.88H289C289.514 298.88 290.008 299.084 290.372 299.448C290.735 299.812 290.94 300.306 290.94 300.82V300.82C290.94 301.335 290.735 301.828 290.372 302.192C290.008 302.556 289.514 302.76 289 302.76V302.76Z" fill="#E86C27"/>
<path d="M306.09 342.19H167.9C166.829 342.19 165.96 343.059 165.96 344.13V364.59C165.96 365.661 166.829 366.53 167.9 366.53H306.09C307.161 366.53 308.03 365.661 308.03 364.59V344.13C308.03 343.059 307.161 342.19 306.09 342.19Z" fill="#D4D3CF"/>
<path d="M309.39 342.19H166.51C166.206 342.19 165.96 342.436 165.96 342.74V344.29C165.96 344.594 166.206 344.84 166.51 344.84H309.39C309.694 344.84 309.94 344.594 309.94 344.29V342.74C309.94 342.436 309.694 342.19 309.39 342.19Z" fill="#43759C"/>
<path d="M309.39 363.69H166.51C166.206 363.69 165.96 363.936 165.96 364.24V365.79C165.96 366.094 166.206 366.34 166.51 366.34H309.39C309.694 366.34 309.94 366.094 309.94 365.79V364.24C309.94 363.936 309.694 363.69 309.39 363.69Z" fill="#43759C"/>
<path d="M296.68 306.54H177.49C176.418 306.54 175.55 307.409 175.55 308.48V318.66C175.55 319.731 176.418 320.6 177.49 320.6H296.68C297.751 320.6 298.62 319.731 298.62 318.66V308.48C298.62 307.409 297.751 306.54 296.68 306.54Z" fill="#E3D9D3"/>
<path d="M299.06 306.54H177.35C176.974 306.54 176.67 306.844 176.67 307.22V308.02C176.67 308.396 176.974 308.7 177.35 308.7H299.06C299.435 308.7 299.74 308.396 299.74 308.02V307.22C299.74 306.844 299.435 306.54 299.06 306.54Z" fill="#E84E27"/>
<path d="M299.06 318.4H177.35C176.974 318.4 176.67 318.704 176.67 319.08V319.89C176.67 320.266 176.974 320.57 177.35 320.57H299.06C299.435 320.57 299.74 320.266 299.74 319.89V319.08C299.74 318.704 299.435 318.4 299.06 318.4Z" fill="#E84E27"/>
<path d="M296.53 302.65H178.67C178.4 302.65 178.18 302.869 178.18 303.14V306.05C178.18 306.321 178.4 306.54 178.67 306.54H296.53C296.801 306.54 297.02 306.321 297.02 306.05V303.14C297.02 302.869 296.801 302.65 296.53 302.65Z" fill="#D4D3CF"/>
<path d="M298.86 322.97H180.58C179.509 322.97 178.64 323.839 178.64 324.91V340.25C178.64 341.321 179.509 342.19 180.58 342.19H298.86C299.932 342.19 300.8 341.321 300.8 340.25V324.91C300.8 323.839 299.932 322.97 298.86 322.97Z" fill="#E3D9D3"/>
<path d="M300.46 342.19H180.58C180.066 342.19 179.572 341.986 179.208 341.622C178.845 341.258 178.64 340.764 178.64 340.25V340.25C178.639 339.994 178.688 339.741 178.785 339.504C178.882 339.268 179.025 339.053 179.205 338.872C179.385 338.69 179.599 338.547 179.835 338.449C180.071 338.35 180.325 338.3 180.58 338.3H300.46C300.716 338.3 300.969 338.35 301.205 338.449C301.441 338.547 301.655 338.69 301.835 338.872C302.016 339.053 302.158 339.268 302.255 339.504C302.352 339.741 302.401 339.994 302.4 340.25C302.4 340.764 302.196 341.258 301.832 341.622C301.468 341.986 300.975 342.19 300.46 342.19V342.19Z" fill="#43999C"/>
<path d="M300.46 324.48H180.58C180.066 324.48 179.572 324.276 179.208 323.912C178.844 323.548 178.64 323.055 178.64 322.54V322.54C178.632 322.28 178.676 322.022 178.77 321.779C178.864 321.537 179.006 321.316 179.187 321.129C179.368 320.943 179.584 320.794 179.824 320.693C180.063 320.592 180.32 320.54 180.58 320.54H300.46C300.72 320.54 300.977 320.592 301.217 320.693C301.456 320.794 301.673 320.943 301.854 321.129C302.034 321.316 302.176 321.537 302.27 321.779C302.364 322.022 302.408 322.28 302.4 322.54V322.54C302.4 323.055 302.196 323.548 301.832 323.912C301.468 324.276 300.975 324.48 300.46 324.48V324.48Z" fill="#43999C"/>
<path d="M238.1 282.2H139.13C138.059 282.2 137.19 283.069 137.19 284.14V304.6C137.19 305.671 138.059 306.54 139.13 306.54H238.1C239.171 306.54 240.04 305.671 240.04 304.6V284.14C240.04 283.069 239.171 282.2 238.1 282.2Z" fill="#E86C27"/>
<path d="M259.34 342.19H119.24C118.168 342.19 117.3 343.059 117.3 344.13V364.59C117.3 365.661 118.168 366.53 119.24 366.53H259.34C260.411 366.53 261.28 365.661 261.28 364.59V344.13C261.28 343.059 260.411 342.19 259.34 342.19Z" fill="#43759C"/>
<path d="M248.03 306.54H128.84C127.768 306.54 126.9 307.409 126.9 308.48V318.66C126.9 319.731 127.768 320.6 128.84 320.6H248.03C249.101 320.6 249.97 319.731 249.97 318.66V308.48C249.97 307.409 249.101 306.54 248.03 306.54Z" fill="#E84E27"/>
<path d="M247.37 302.65H130.53C129.978 302.65 129.53 303.098 129.53 303.65V305.54C129.53 306.092 129.978 306.54 130.53 306.54H247.37C247.922 306.54 248.37 306.092 248.37 305.54V303.65C248.37 303.098 247.922 302.65 247.37 302.65Z" fill="#43999C"/>
<path d="M251.81 320.59H131.93C130.859 320.59 129.99 321.459 129.99 322.53V340.25C129.99 341.321 130.859 342.19 131.93 342.19H251.81C252.882 342.19 253.75 341.321 253.75 340.25V322.53C253.75 321.459 252.882 320.59 251.81 320.59Z" fill="#43999C"/>
<path d="M140.38 306.62H134.68V320.38H140.38V306.62Z" fill="#E86C27"/>
<path d="M151.77 320.38H139.54V342.07H151.77V320.38Z" fill="white"/>
<path d="M159.09 324.27H158.17V338.73H159.09V324.27Z" fill="white"/>
<path d="M233.7 354.59H129.35V357.35H233.7V354.59Z" fill="white"/>
<path d="M146.12 310.18H145.2V315.74H146.12V310.18Z" fill="white"/>
<path d="M142.78 302.59H140.02V306.48H142.78V302.59Z" fill="#EFD32E"/>
<path d="M149.27 282.38H146.51V302.21H149.27V282.38Z" fill="#EFD32E"/>
<path d="M224.06 291.57H157.89V294.33H224.06V291.57Z" fill="white"/>
<path d="M327.73 319.24L320.86 320.91L314.37 329.25L324.11 331.76C324.11 331.76 330.95 333.32 331.06 330C330.723 326.218 329.588 322.551 327.73 319.24V319.24Z" fill="#202A42"/>
<path d="M324.32 312.34C322.802 313.409 321.172 314.311 319.46 315.03C317.717 315.799 315.844 316.226 313.94 316.29C313.444 316.286 312.949 316.243 312.46 316.16C311.986 316.068 311.518 315.944 311.06 315.79C310.23 315.51 309.4 315.2 308.58 314.87C306.931 314.204 305.35 313.38 303.86 312.41C303.727 312.336 303.63 312.212 303.588 312.066C303.547 311.919 303.566 311.763 303.64 311.63C303.714 311.497 303.838 311.4 303.984 311.358C304.131 311.317 304.287 311.336 304.42 311.41V311.41C305.923 312.139 307.494 312.718 309.11 313.14C309.92 313.37 310.74 313.56 311.56 313.73C311.933 313.807 312.31 313.861 312.69 313.89C313.053 313.91 313.417 313.91 313.78 313.89C315.312 313.636 316.781 313.093 318.11 312.29C319.487 311.497 320.778 310.562 321.96 309.5V309.5C322.319 309.172 322.794 309.001 323.28 309.024C323.766 309.046 324.222 309.261 324.55 309.62C324.877 309.979 325.049 310.454 325.026 310.94C325.004 311.426 324.789 311.882 324.43 312.21L324.32 312.34Z" fill="#3C8A8C"/>
<path d="M328.89 313.8C328.716 312.31 328.673 310.808 328.76 309.31C328.595 309.344 328.425 309.344 328.26 309.31C328.069 309.253 327.894 309.154 327.747 309.02C327.6 308.886 327.485 308.721 327.41 308.537C327.335 308.353 327.303 308.154 327.315 307.955C327.327 307.757 327.383 307.564 327.48 307.39V307.39C327.48 307.39 327.48 307.39 327.48 307.34L325.85 307.46C325.85 307.46 320.8 310.88 320.35 313.46C320.167 315.696 320.284 317.946 320.7 320.15C322.152 319.862 323.63 319.732 325.11 319.76C325.148 319.43 325.25 319.111 325.41 318.82C325.551 318.518 325.751 318.247 325.998 318.024C326.245 317.801 326.535 317.629 326.85 317.52C327.014 317.49 327.184 317.499 327.345 317.544C327.506 317.589 327.654 317.669 327.78 317.78C328.019 317.654 328.296 317.619 328.56 317.68L329.22 314.47C329.118 314.39 329.035 314.289 328.978 314.173C328.921 314.057 328.891 313.929 328.89 313.8V313.8Z" fill="#43999C"/>
<path d="M328.17 299.02H325.26V310.15H328.17V299.02Z" fill="#FFCE88"/>
<path d="M322.23 298.31C321.48 301.16 322.11 303.79 324.97 304.53C325.648 304.707 326.353 304.748 327.047 304.652C327.741 304.556 328.408 304.324 329.013 303.97C329.617 303.615 330.145 303.146 330.567 302.587C330.99 302.029 331.298 301.393 331.475 300.715C331.652 300.037 331.693 299.332 331.597 298.638C331.501 297.944 331.269 297.276 330.915 296.672C330.56 296.068 330.091 295.54 329.532 295.118C328.974 294.695 328.338 294.387 327.66 294.21C324.81 293.47 323 295.46 322.23 298.31Z" fill="#FFCE88"/>
<path d="M325 304.09C325 304.09 329.16 298.09 328.88 298.09L322 296.26C322 296.26 324.67 290.81 331.56 294.65C335.87 297.04 336.56 303.57 334.18 305.81C332.76 307.16 325 304.09 325 304.09Z" fill="#202A42"/>
<path d="M320.45 330.32L303.38 325.87L305.23 324.18L306.23 341.08C306.236 341.216 306.187 341.349 306.096 341.45C306.004 341.551 305.876 341.612 305.74 341.62C305.615 341.629 305.491 341.591 305.393 341.513C305.295 341.435 305.23 341.324 305.21 341.2L302.15 324.55C302.08 324.166 302.165 323.769 302.386 323.447C302.607 323.125 302.946 322.903 303.33 322.83C303.499 322.8 303.671 322.8 303.84 322.83H304L321.4 325.83C321.978 325.956 322.485 326.3 322.816 326.79C323.146 327.281 323.276 327.879 323.177 328.462C323.077 329.045 322.758 329.568 322.283 329.921C321.809 330.275 321.217 330.432 320.63 330.36L320.45 330.32Z" fill="#202A42"/>
<path d="M328.23 328V330.51C328.23 331.36 328.23 332.13 328.23 332.94L328.33 337.74L328.55 347.79L328.39 347.15L335.39 364.89C335.452 365.023 335.46 365.175 335.41 365.312C335.36 365.45 335.258 365.563 335.125 365.625C334.992 365.687 334.841 365.694 334.703 365.645C334.565 365.595 334.452 365.493 334.39 365.36L325.25 348.62C325.167 348.465 325.116 348.295 325.1 348.12V348L324.32 337.95L323.94 332.7L323.63 327.58C323.611 327.281 323.651 326.98 323.748 326.696C323.845 326.413 323.997 326.151 324.195 325.925C324.394 325.7 324.634 325.516 324.904 325.384C325.173 325.252 325.466 325.174 325.765 325.155C326.065 325.136 326.365 325.176 326.649 325.273C326.933 325.37 327.195 325.522 327.42 325.72C327.645 325.919 327.829 326.159 327.961 326.429C328.093 326.698 328.171 326.991 328.19 327.29V328H328.23Z" fill="#202A42"/>
<path d="M330.59 308.41C331.97 310.58 333.23 312.75 334.4 315.05C335.021 316.231 335.543 317.462 335.96 318.73C336.083 319.091 336.173 319.463 336.23 319.84C336.339 320.379 336.308 320.937 336.14 321.46C335.972 321.91 335.654 322.288 335.24 322.53C334.982 322.64 334.714 322.724 334.44 322.78C334.049 322.836 333.655 322.867 333.26 322.87C330.703 322.71 328.163 322.355 325.66 321.81C323.2 321.32 320.76 320.81 318.33 320.18C318.259 320.164 318.191 320.133 318.132 320.09C318.073 320.048 318.022 319.994 317.984 319.931C317.946 319.869 317.921 319.799 317.91 319.727C317.899 319.655 317.902 319.581 317.92 319.51C317.951 319.375 318.032 319.256 318.147 319.178C318.262 319.1 318.403 319.069 318.54 319.09C321 319.45 323.47 319.76 325.93 320.02C328.335 320.314 330.758 320.428 333.18 320.36C333.408 320.336 333.635 320.3 333.86 320.25C333.86 320.25 334.01 320.2 333.95 320.25C333.798 320.325 333.675 320.448 333.6 320.6C333.55 320.76 333.6 320.6 333.51 320.38C333.446 320.145 333.366 319.914 333.27 319.69C332.794 318.633 332.239 317.613 331.61 316.64C330.33 314.64 328.88 312.59 327.41 310.64C327.215 310.227 327.168 309.76 327.276 309.316C327.383 308.873 327.639 308.479 328.001 308.201C328.363 307.924 328.81 307.778 329.266 307.788C329.722 307.799 330.161 307.965 330.51 308.26L330.59 308.41Z" fill="#43999C"/>
<path d="M326.8 307.31C328.7 307.31 330.69 308.31 330.69 311.55C330.69 314.79 327.69 319.24 327.69 319.24H322.1L323.7 309.75L326.8 307.31Z" fill="#43999C"/>
<path d="M328.78 307.49L328.15 306.17L325.76 307.17C325.76 307.17 324.68 309.5 324.76 309.47C324.84 309.44 328.78 307.49 328.78 307.49Z" fill="#3C8A8C"/>
<path d="M325.2 307.07L324.47 307.17L322.98 309.33L323.67 309.12L325.23 307.87L325.2 307.07Z" fill="#3C8A8C"/>
<path d="M327.73 319.24L320.86 320.91L320.47 318.09L328.43 317.91L327.73 319.24Z" fill="#43999C"/>
<path d="M306.94 342C306.94 341.73 306.67 337.74 306.67 337.74L302.96 337.65L304.53 340.98C304.53 340.98 303.24 341.26 303.14 341.98C303.04 342.7 306.94 342 306.94 342Z" fill="#43999C"/>
<path d="M336 364.31C336 364.31 335.35 361.53 335.07 361.62L331.37 362.92L334.42 366.44C334.42 366.44 332.85 366.81 332.76 367.44C332.67 368.07 336.37 367.44 336.37 367.44L336 364.31Z" fill="#43999C"/>
<path d="M318.88 319.13L318.74 320.38L315.89 320.66C315.89 320.66 315.47 317.95 316.72 318.22C317.487 318.396 318.218 318.704 318.88 319.13V319.13Z" fill="#FFCE88"/>
<path d="M303.86 312.41C303.38 312.41 301.15 310.93 301.15 310.93C301.15 310.93 301.85 308.29 303.15 309.05C303.548 309.318 303.874 309.68 304.099 310.104C304.324 310.527 304.441 311 304.44 311.48L303.86 312.41Z" fill="#FFCE88"/>
<path d="M322.23 298.31C321.93 298.55 320.33 299.46 320.33 299.46L322.49 300.85L323.18 298.42L322.23 298.31Z" fill="#FFCE88"/>
<path d="M168.57 251.8C169.682 252.844 170.918 253.748 172.25 254.49C173.516 255.245 174.948 255.678 176.42 255.75C176.796 255.745 177.171 255.705 177.54 255.63C177.902 255.53 178.257 255.403 178.6 255.25C179.23 254.97 179.86 254.66 180.48 254.33C181.756 253.647 182.954 252.825 184.05 251.88C184.146 251.777 184.208 251.647 184.227 251.507C184.247 251.368 184.224 251.226 184.16 251.1C184.142 251.048 184.112 251.001 184.073 250.963C184.034 250.924 183.986 250.895 183.934 250.878C183.882 250.86 183.827 250.855 183.772 250.862C183.718 250.87 183.666 250.889 183.62 250.92V250.92C182.511 251.635 181.323 252.218 180.08 252.66C179.46 252.88 178.84 253.07 178.22 253.24C177.942 253.317 177.657 253.37 177.37 253.4C177.096 253.408 176.821 253.392 176.55 253.35C175.351 253.078 174.231 252.53 173.28 251.75C172.205 250.933 171.225 249.997 170.36 248.96C170.248 248.791 170.094 248.654 169.913 248.563C169.732 248.472 169.531 248.43 169.329 248.441C169.126 248.452 168.93 248.516 168.761 248.627C168.591 248.737 168.453 248.89 168.36 249.07C168.108 249.459 167.981 249.916 167.997 250.379C168.013 250.843 168.171 251.29 168.45 251.66L168.57 251.8Z" fill="#CF6023"/>
<path d="M165.3 254C165.484 252.511 165.527 251.007 165.43 249.51C165.595 249.544 165.765 249.544 165.93 249.51C166.122 249.454 166.298 249.356 166.446 249.223C166.594 249.089 166.71 248.924 166.785 248.739C166.86 248.554 166.893 248.355 166.88 248.156C166.867 247.957 166.809 247.763 166.71 247.59L168.35 247.7C168.35 247.7 171.17 248.9 171.62 251.44C171.96 253.34 173.74 258.83 173.5 260.36C172.048 260.072 170.57 259.942 169.09 259.97V259.97C169.05 259.644 168.948 259.328 168.79 259.04C168.649 258.736 168.448 258.465 168.199 258.241C167.949 258.018 167.657 257.847 167.34 257.74C167.178 257.71 167.011 257.717 166.851 257.76C166.692 257.803 166.545 257.882 166.42 257.99C166.18 257.865 165.904 257.83 165.64 257.89L164.98 254.69C165.084 254.608 165.167 254.503 165.223 254.383C165.278 254.263 165.305 254.132 165.3 254V254Z" fill="#E86C27"/>
<path d="M168.93 239.25H166.02V250.38H168.93V239.25Z" fill="#FFCE88"/>
<path d="M172 238.53C172.74 241.38 172.11 244.01 169.26 244.76C168.582 244.937 167.876 244.979 167.182 244.884C166.489 244.788 165.82 244.557 165.216 244.203C164.611 243.85 164.082 243.38 163.659 242.822C163.236 242.264 162.927 241.628 162.75 240.95C162.573 240.272 162.53 239.567 162.626 238.873C162.722 238.179 162.953 237.51 163.307 236.906C163.66 236.301 164.13 235.773 164.688 235.349C165.246 234.926 165.882 234.617 166.56 234.44C169.38 233.69 171.22 235.68 172 238.53Z" fill="#FFCE88"/>
<path d="M170 273.88C170.14 273.67 175.63 269.5 175.63 269.5L174.31 268.81L169.79 265.89L167.57 269.64L170.14 273.64" fill="#202A42"/>
<path d="M169.16 266.05L186.56 263.05H186.72C187.105 262.989 187.499 263.081 187.817 263.308C188.135 263.534 188.351 263.876 188.42 264.26C188.45 264.432 188.45 264.608 188.42 264.78L185.35 281.43C185.316 281.547 185.242 281.648 185.14 281.715C185.038 281.782 184.915 281.81 184.794 281.795C184.673 281.779 184.562 281.72 184.48 281.63C184.399 281.539 184.353 281.422 184.35 281.3L185.35 264.4L187.21 266.1L170.13 270.54C169.545 270.678 168.93 270.581 168.416 270.271C167.901 269.961 167.529 269.463 167.377 268.881C167.226 268.3 167.307 267.683 167.605 267.161C167.903 266.64 168.393 266.255 168.97 266.09L169.16 266.05Z" fill="#202A42"/>
<path d="M170.54 267.75C170.54 268.02 170.54 269.05 170.54 269.32L170.46 270.55L170.28 273L169.9 277.87L169.12 287.61V287.75C169.1 287.932 169.046 288.108 168.96 288.27L159.82 304.47C159.786 304.534 159.739 304.591 159.682 304.636C159.625 304.682 159.56 304.715 159.49 304.735C159.42 304.754 159.347 304.76 159.274 304.75C159.202 304.741 159.133 304.717 159.07 304.68C158.954 304.613 158.866 304.506 158.822 304.379C158.778 304.253 158.781 304.115 158.83 303.99L165.83 286.76L165.66 287.42L165.89 277.67L165.99 272.79V270.36V269.16C165.99 268.62 165.99 268.83 165.99 268.29V267.85C165.977 267.549 166.023 267.249 166.126 266.966C166.229 266.683 166.387 266.423 166.59 266.201C166.793 265.979 167.039 265.8 167.311 265.673C167.584 265.545 167.879 265.473 168.18 265.46C168.481 265.447 168.781 265.493 169.064 265.596C169.347 265.699 169.607 265.857 169.829 266.06C170.051 266.263 170.23 266.508 170.358 266.781C170.485 267.054 170.557 267.349 170.57 267.65L170.54 267.75Z" fill="#202A42"/>
<path d="M165 248.49C163.62 250.67 162.35 252.83 161.18 255.14C160.567 256.322 160.046 257.549 159.62 258.81C159.506 259.177 159.42 259.551 159.36 259.93C159.251 260.469 159.282 261.027 159.45 261.55C159.613 262 159.933 262.376 160.35 262.61C160.604 262.729 160.873 262.813 161.15 262.86C161.537 262.924 161.928 262.957 162.32 262.96C164.88 262.8 167.425 262.443 169.93 261.89C172.39 261.397 174.833 260.857 177.26 260.27C177.331 260.254 177.398 260.223 177.458 260.18C177.517 260.138 177.567 260.083 177.606 260.021C177.644 259.959 177.669 259.889 177.68 259.817C177.691 259.745 177.688 259.671 177.67 259.6C177.637 259.466 177.555 259.349 177.44 259.271C177.326 259.194 177.187 259.161 177.05 259.18C174.59 259.54 172.12 259.85 169.66 260.11C167.255 260.399 164.832 260.513 162.41 260.45C162.18 260.428 161.953 260.388 161.73 260.33C161.73 260.33 161.58 260.28 161.64 260.33C161.786 260.414 161.905 260.539 161.98 260.69C162.03 260.85 161.98 260.69 162.08 260.46C162.141 260.227 162.221 260 162.32 259.78C162.799 258.711 163.361 257.681 164 256.7C165.28 254.7 166.73 252.7 168.2 250.75C168.399 250.337 168.45 249.867 168.345 249.421C168.239 248.974 167.983 248.577 167.62 248.297C167.256 248.017 166.807 247.87 166.349 247.882C165.89 247.893 165.449 248.062 165.1 248.36L165 248.49Z" fill="#E86C27"/>
<path d="M167.4 247.54C165.5 247.54 163.51 248.54 163.51 251.78C163.51 255.02 166.51 259.47 166.51 259.47H172.1L170.5 249.97L167.4 247.54Z" fill="#E86C27"/>
<path d="M186.05 281.18L186.12 281.04C185.31 281.04 184.51 281.04 183.71 281.04C183.71 281.63 183.64 282.04 183.64 282.17C183.64 282.3 187.53 282.91 187.44 282.17C187.35 281.43 186.05 281.18 186.05 281.18Z" fill="#E84E27"/>
<path d="M159.82 305.49L160.1 305.18C159.444 305.043 158.796 304.87 158.16 304.66H158.1L157.88 306.49C157.88 306.49 161.59 307.12 161.49 306.49C161.39 305.86 159.82 305.49 159.82 305.49Z" fill="#E84E27"/>
<path d="M176.71 259.21L176.85 260.47L179.7 260.74C179.7 260.74 180.12 258.03 178.87 258.31C178.104 258.485 177.374 258.79 176.71 259.21V259.21Z" fill="#FFCE88"/>
<path d="M184.05 251.88C184.41 251.88 186.05 250.39 186.05 250.39C186.05 250.39 185.52 247.75 184.52 248.51C184.2 248.828 183.946 249.206 183.774 249.624C183.603 250.041 183.516 250.489 183.52 250.94L184.05 251.88Z" fill="#FFCE88"/>
<path d="M172 238.6C172.3 238.85 173.89 239.75 173.89 239.75L171.74 241.14L171.04 238.71L172 238.6Z" fill="#FFCE88"/>
<path d="M162.37 236.05C162.37 236.05 165.43 232.99 169.32 233.73C173.21 234.47 170.53 237.44 169.14 238.64C167.75 239.84 164.32 243.64 164.32 243.64C164.32 243.64 158.76 239.66 162.37 236.05Z" fill="#202A42"/>
<path d="M165.87 244.62C166.07 244.69 166.36 237.46 166.36 237.46L161.77 240.66C162.132 241.574 162.686 242.4 163.393 243.082C164.1 243.765 164.944 244.289 165.87 244.62Z" fill="#202A42"/>
<path d="M164.06 253.72C164.13 253.89 164.41 266.89 164.41 266.89C166.68 267.073 168.962 267.016 171.22 266.72C172.867 266.568 174.436 265.947 175.74 264.93L172.68 255.85L164.06 253.72Z" fill="#E86C27"/>
<path d="M165.8 247.75L165.94 246.22L169.28 246.77L169.21 249.62L166.15 248.51L165.8 247.75Z" fill="#E86C27"/>
</svg>
