<svg width="651" height="614" viewBox="0 0 651 614" fill="none" xmlns="http://www.w3.org/2000/svg">
<path d="M573.804 323.897C576.408 291.269 568.362 257.205 557.581 226.885C541.632 181.744 510.488 135.485 458.148 124.802C427.967 118.662 397.253 125.244 371.369 140.667C346.488 155.502 327.101 174.671 296.491 178.379C265.543 182.137 233.787 180.627 202.682 180.627C122.7 180.627 57.7958 259.869 74.0187 342.415C90.2416 424.962 166.747 482.199 231.652 482.199C289.981 482.199 337.973 449.202 393.373 440.336C420.845 435.94 448.435 441.147 475.621 434.565C507.22 426.902 536.932 408.642 554.444 382.203C566.37 364.176 572.177 344.319 573.804 323.897Z" fill="#A8A8A8"/>
<path opacity="0.7" d="M573.805 323.897C576.409 291.269 568.362 257.205 557.582 226.885C541.632 181.744 510.488 135.485 458.148 124.802C427.968 118.662 397.253 125.244 371.37 140.667C346.488 155.502 327.102 174.671 296.492 178.379C265.543 182.137 233.787 180.627 202.682 180.627C122.701 180.627 57.7958 259.869 74.0187 342.415C90.2416 424.962 166.747 482.199 231.652 482.199C289.982 482.199 337.973 449.202 393.373 440.336C420.846 435.94 448.435 441.147 475.621 434.565C507.22 426.902 536.932 408.642 554.444 382.203C566.37 364.176 572.177 344.319 573.805 323.897Z" fill="white"/>
<path d="M564.443 312.44C564.443 312.44 564.443 306.3 555.329 297.79C546.215 289.28 540.434 284.343 540.434 284.343C540.434 284.343 535.903 298.392 544.34 306.951C550.534 312.962 557.249 318.475 564.417 323.431L564.443 312.44Z" fill="#00763D"/>
<path d="M551.293 350.582C551.293 350.582 551.293 344.442 542.179 335.932C533.065 327.422 527.31 322.485 527.31 322.485C527.31 322.485 522.766 336.533 531.216 345.093C537.41 351.104 544.125 356.616 551.293 361.572V350.582Z" fill="#00763D"/>
<path d="M563.87 322.841C563.87 322.841 564.56 316.775 574.533 309.174C584.507 301.572 590.848 297.299 590.848 297.299C590.848 297.299 593.777 311.716 584.455 319.403C577.623 324.765 570.328 329.579 562.646 333.795L563.87 322.841Z" fill="#00763D"/>
<path d="M547.986 367.884C547.986 367.884 549.288 361.916 560.107 355.346C570.927 348.777 577.645 345.154 577.645 345.154C577.645 345.154 578.947 359.792 568.831 366.484C561.439 371.141 553.647 375.208 545.538 378.642L547.986 367.884Z" fill="#00763D"/>
<path d="M550.967 417.004C550.967 417.004 550.967 410.864 560.081 402.342C569.195 393.82 574.963 388.908 574.963 388.908C574.963 388.908 579.507 402.956 571.057 411.503C564.866 417.52 558.15 423.037 550.98 427.995L550.967 417.004Z" fill="#00763D"/>
<path d="M550.824 428.99C550.824 428.99 551.735 422.948 544.054 413.271C536.372 403.594 531.333 397.97 531.333 397.97C531.333 397.97 524.732 411.269 531.776 420.86C536.997 427.643 542.812 434.002 549.158 439.87L550.824 428.99Z" fill="#00763D"/>
<path d="M541.879 464.516C541.879 464.516 541.879 458.376 550.993 449.866C560.107 441.355 565.888 436.419 565.888 436.419C565.888 436.419 570.419 450.467 561.982 459.026C555.787 465.04 549.071 470.556 541.905 475.518L541.879 464.516Z" fill="#00763D"/>
<path d="M547.934 496.726C547.934 496.726 546.293 490.819 552.764 480.381C559.235 469.943 563.571 463.828 563.571 463.828C563.571 463.828 571.721 476.329 565.875 486.62C561.502 493.915 556.489 500.853 550.889 507.36L547.934 496.726Z" fill="#00763D"/>
<path d="M565.263 310.88C564.807 317.239 563.982 323.568 562.789 329.841C559.196 347.303 550.238 358.576 546.658 374.344C543.077 390.111 553.363 410.434 550.564 430.696C547.764 450.958 539.458 462.219 541.84 475.739C544.223 489.26 556.774 525.879 556.774 525.879" stroke="#263238" stroke-linecap="round" stroke-linejoin="round"/>
<path d="M563.792 326.906L573.557 319.833" stroke="#263238" stroke-linecap="round" stroke-linejoin="round"/>
<path d="M564.248 318.764L560.146 311.9" stroke="#263238" stroke-linecap="round" stroke-linejoin="round"/>
<path d="M547.205 373.619C547.205 373.619 555.381 367.835 563.792 362.051" stroke="#263238" stroke-linecap="round" stroke-linejoin="round"/>
<path d="M551.293 361.572C551.293 361.572 544.47 348.973 536.749 340.623" stroke="#263238" stroke-linecap="round" stroke-linejoin="round"/>
<path d="M551.293 425.699C555.957 417.568 561.852 410.122 568.792 403.594" stroke="#263238" stroke-linecap="round" stroke-linejoin="round"/>
<path d="M549.704 434.27C547.223 428.757 544.257 423.45 540.838 418.404C536.073 411.761 535.382 410.901 535.382 410.901" stroke="#263238" stroke-linecap="round" stroke-linejoin="round"/>
<path d="M541.879 475.74C543.955 470.899 546.419 466.215 549.249 461.728C552.08 457.557 555.272 453.614 558.792 449.939" stroke="#263238" stroke-linecap="round" stroke-linejoin="round"/>
<path d="M550.889 507.36C550.415 502.733 551.26 498.069 553.337 493.852C556.748 487.639 560.602 479.497 562.191 476.28" stroke="#263238" stroke-linecap="round" stroke-linejoin="round"/>
<path d="M490.463 394.041C490.463 394.041 489.76 390.209 494.461 383.91C499.161 377.61 502.273 373.963 502.273 373.963C502.273 373.963 506.725 382.313 502.429 388.527C499.238 392.934 495.662 397.083 491.739 400.93L490.463 394.041Z" fill="#00763D"/>
<path d="M503.106 416.611C503.106 416.611 502.403 412.78 507.103 406.48C511.803 400.181 514.915 396.534 514.915 396.534C514.915 396.534 519.368 404.884 515.071 411.11C511.878 415.512 508.302 419.656 504.382 423.5L503.106 416.611Z" fill="#00763D"/>
<path d="M492.013 400.5C492.013 400.5 490.893 396.816 483.758 393.021C476.623 389.227 472.17 387.237 472.17 387.237C472.17 387.237 471.988 396.583 478.68 400.439C483.58 403.099 488.706 405.37 494.005 407.229L492.013 400.5Z" fill="#00763D"/>
<path d="M507.168 427.123C507.168 427.123 505.632 423.513 498.132 420.492C490.633 417.471 485.945 415.899 485.945 415.899C485.945 415.899 486.805 425.207 493.94 428.376C499.11 430.536 504.462 432.286 509.941 433.607L507.168 427.123Z" fill="#00763D"/>
<path d="M510.944 458.228C510.944 458.228 510.254 454.397 503.575 449.964C496.895 445.531 492.69 443.062 492.69 443.062C492.69 443.062 491.466 452.334 497.729 456.828C502.303 459.97 507.151 462.743 512.22 465.117L510.944 458.228Z" fill="#00763D"/>
<path d="M512.428 465.731C512.428 465.731 511.126 462.047 514.863 455.17C518.6 448.294 521.073 444.278 521.073 444.278C521.073 444.278 526.737 451.941 523.43 458.683C520.938 463.469 518.025 468.049 514.72 472.375L512.428 465.731Z" fill="#00763D"/>
<path d="M523.808 496.616C523.808 496.616 524.276 492.76 530.669 488.02C537.062 483.279 541.085 480.541 541.085 480.541C541.085 480.541 542.869 489.739 536.893 494.565C532.516 497.943 527.847 500.97 522.935 503.615L523.808 496.616Z" fill="#00763D"/>
<path d="M522.102 487.086C522.102 487.086 521.399 483.255 514.733 478.822C508.067 474.389 503.874 471.92 503.874 471.92C503.874 471.92 502.65 481.192 508.913 485.699C513.491 488.836 518.338 491.608 523.404 493.988L522.102 487.086Z" fill="#00763D"/>
<path d="M522.102 507.913C522.102 507.913 522.441 504.033 517.18 498.15C511.92 492.268 508.509 488.879 508.509 488.879C508.509 488.879 504.824 497.549 509.681 503.406C513.241 507.531 517.16 511.368 521.399 514.876L522.102 507.913Z" fill="#00763D"/>
<path d="M489.773 393.132C490.792 397.074 492.04 400.96 493.51 404.773C497.768 415.359 504.681 421.511 508.743 431.028C512.806 440.545 508.744 454.36 512.754 466.775C516.764 479.19 523.404 485.404 523.404 494.123C523.404 502.841 519.811 527.094 519.811 527.094" stroke="#263238" stroke-linecap="round" stroke-linejoin="round"/>
<path d="M492.547 403.03L485.607 399.603" stroke="#263238" stroke-linecap="round" stroke-linejoin="round"/>
<path d="M491.323 397.97L493.093 393.255" stroke="#263238" stroke-linecap="round" stroke-linejoin="round"/>
<path d="M508.314 430.635C508.314 430.635 502.52 427.847 496.596 425.072" stroke="#263238" stroke-linecap="round" stroke-linejoin="round"/>
<path d="M504.369 423.5C506.077 418.441 508.323 413.557 511.074 408.924" stroke="#263238" stroke-linecap="round" stroke-linejoin="round"/>
<path d="M511.751 463.705C507.888 459.094 503.335 455.036 498.236 451.658" stroke="#263238" stroke-linecap="round" stroke-linejoin="round"/>
<path d="M513.73 468.912C514.657 465.206 515.907 461.58 517.467 458.069C519.693 453.414 520.071 452.8 520.071 452.8" stroke="#263238" stroke-linecap="round" stroke-linejoin="round"/>
<path d="M523.091 500.741C525.349 498.103 527.85 495.658 530.565 493.435C532.292 492.236 533.912 490.905 535.408 489.456" stroke="#263238" stroke-linecap="round" stroke-linejoin="round"/>
<path d="M523.404 494.123C521.544 491.293 519.459 488.6 517.167 486.067C514.911 483.744 512.454 481.6 509.824 479.657" stroke="#263238" stroke-linecap="round" stroke-linejoin="round"/>
<path d="M521.399 514.876C521.166 511.923 520.101 509.082 518.313 506.648C515.462 503.099 512.103 498.384 510.736 496.53" stroke="#263238" stroke-linecap="round" stroke-linejoin="round"/>
<path d="M120.656 340.549L114.954 325.187L120.656 331.707L116.177 308.658L123.104 325.187L125.552 292.903L129.627 323.639L134.106 317.499V325.187L139.405 314.81L136.554 332.862L141.436 329.792L133.702 339.775L120.656 340.549Z" fill="#00763D"/>
<path d="M138.585 336.705H117.401L121.216 377.045H134.77L138.585 336.705Z" fill="#263238" stroke="#263238" stroke-linecap="round" stroke-linejoin="round"/>
<path d="M178.322 376.591H106.152V520.758H178.322V376.591Z" fill="white" stroke="#263238" stroke-linecap="round" stroke-linejoin="round"/>
<path d="M182.267 376.591H142.23V520.758H182.267V376.591Z" fill="white" stroke="#263238" stroke-linecap="round" stroke-linejoin="round"/>
<path d="M177.762 376.591H142.23V520.758H177.762V376.591Z" fill="#263238" stroke="#263238" stroke-linecap="round" stroke-linejoin="round"/>
<path d="M173.765 487.234H142.23V516.755H173.765V487.234Z" fill="#FF5700" stroke="#263238" stroke-linecap="round" stroke-linejoin="round"/>
<path d="M173.765 488.83H142.23V492.612H173.765V488.83Z" fill="white" stroke="#263238" stroke-linecap="round" stroke-linejoin="round"/>
<path d="M173.765 510.566H142.23V514.348H173.765V510.566Z" fill="white" stroke="#263238" stroke-linecap="round" stroke-linejoin="round"/>
<path d="M148.207 487.848V525.179" stroke="#263238" stroke-linecap="round" stroke-linejoin="round"/>
<path d="M159.209 487.848V525.179" stroke="#263238" stroke-linecap="round" stroke-linejoin="round"/>
<path d="M168.869 487.848V525.179" stroke="#263238" stroke-linecap="round" stroke-linejoin="round"/>
<path d="M173.765 381.945H142.23V425.355H173.765V381.945Z" fill="#FF5700" stroke="#263238" stroke-linecap="round" stroke-linejoin="round"/>
<path d="M173.765 383.762H142.23V388.06H173.765V383.762Z" fill="white" stroke="#263238" stroke-linecap="round" stroke-linejoin="round"/>
<path d="M173.765 411.589H142.23V415.887H173.765V411.589Z" fill="white" stroke="#263238" stroke-linecap="round" stroke-linejoin="round"/>
<path d="M148.207 382.633V425.06" stroke="#263238" stroke-linecap="round" stroke-linejoin="round"/>
<path d="M159.209 382.633V425.06" stroke="#263238" stroke-linecap="round" stroke-linejoin="round"/>
<path d="M168.869 382.633V425.06" stroke="#263238" stroke-linecap="round" stroke-linejoin="round"/>
<path d="M173.765 434.258H142.23V477.667H173.765V434.258Z" fill="#FF5700" stroke="#263238" stroke-linecap="round" stroke-linejoin="round"/>
<path d="M173.765 436.075H142.23V440.373H173.765V436.075Z" fill="white" stroke="#263238" stroke-linecap="round" stroke-linejoin="round"/>
<path d="M173.765 463.901H142.23V468.2H173.765V463.901Z" fill="white" stroke="#263238" stroke-linecap="round" stroke-linejoin="round"/>
<path d="M148.207 434.958V477.373" stroke="#263238" stroke-linecap="round" stroke-linejoin="round"/>
<path d="M159.209 434.958V477.373" stroke="#263238" stroke-linecap="round" stroke-linejoin="round"/>
<path d="M168.869 434.958V477.373" stroke="#263238" stroke-linecap="round" stroke-linejoin="round"/>
<path d="M178.309 424.753H142.23V429.689H178.309V424.753Z" fill="white" stroke="#263238" stroke-linecap="round" stroke-linejoin="round"/>
<path d="M178.309 477.397H142.23V482.334H178.309V477.397Z" fill="white" stroke="#263238" stroke-linecap="round" stroke-linejoin="round"/>
<path d="M178.309 376.591V520.746" stroke="#263238" stroke-linecap="round" stroke-linejoin="round"/>
<path d="M137.14 376.591V520.746H142.23V381.945H177.684V376.529L137.14 376.591Z" fill="white" stroke="#263238" stroke-linecap="round" stroke-linejoin="round"/>
<path d="M142.23 381.945V376.591" stroke="#263238" stroke-linecap="round" stroke-linejoin="round"/>
<path d="M178.035 310.365C174.246 303.476 172.658 298.539 172.658 297.397C172.658 295.138 177.866 293.787 177.866 293.787C185.99 289.734 224.204 295.592 241.404 298.293C251.032 299.877 260.772 300.78 270.542 300.995C270.542 300.995 272.925 299.202 275.75 296.943C278.576 294.683 291.986 279.824 297.246 278.523C302.506 277.221 307.272 280.328 307.272 280.328C307.272 280.328 315.878 285.24 314.433 286.185C312.987 287.131 291.986 304.2 286.726 307.356C281.466 310.512 270.49 309.161 260.934 310.966C252.705 312.514 219.374 314.429 211.731 315.019C205.991 316.303 199.967 315.83 194.532 313.668" fill="white"/>
<path d="M307.363 280.279C307.363 280.279 302.584 277.123 297.337 278.474C292.09 279.824 278.706 294.695 275.841 296.894C272.977 299.092 270.633 300.946 270.633 300.946C260.863 300.731 251.123 299.827 241.495 298.244C224.295 295.543 186.081 289.648 177.957 293.738C177.957 293.738 172.749 295.088 172.749 297.348C172.93 298.611 173.275 299.848 173.778 301.032L174.494 301.278C174.494 301.278 184.037 300.332 204.635 300.799C225.233 301.265 272.873 303.93 275.932 304.974C277.234 305.44 286.466 303.476 296.699 300.062C304.511 294.057 313.69 286.554 314.615 286.026C315.969 285.228 307.363 280.279 307.363 280.279Z" fill="#032535"/>
<path opacity="0.5" d="M307.363 280.279C307.363 280.279 302.584 277.123 297.337 278.474C292.09 279.824 278.706 294.695 275.841 296.894C272.977 299.092 270.633 300.946 270.633 300.946C260.863 300.731 251.123 299.827 241.495 298.244C224.295 295.543 186.081 289.648 177.957 293.738C177.957 293.738 172.749 295.088 172.749 297.348C172.93 298.611 173.275 299.848 173.778 301.032L174.494 301.278C174.494 301.278 184.037 300.332 204.635 300.799C225.233 301.265 272.873 303.93 275.932 304.974C277.234 305.44 286.466 303.476 296.699 300.062C304.511 294.057 313.69 286.554 314.615 286.026C315.969 285.228 307.363 280.279 307.363 280.279Z" fill="white"/>
<path d="M178.035 310.365C174.246 303.476 172.658 298.539 172.658 297.397C172.658 295.138 177.866 293.787 177.866 293.787C185.99 289.734 224.204 295.592 241.404 298.293C251.032 299.877 260.772 300.78 270.542 300.995C270.542 300.995 272.925 299.202 275.75 296.943C278.576 294.683 291.986 279.824 297.246 278.523C302.506 277.221 307.272 280.328 307.272 280.328C307.272 280.328 315.878 285.24 314.433 286.185C312.987 287.131 291.986 304.2 286.726 307.356C281.466 310.512 270.49 309.161 260.934 310.966C252.705 312.514 219.374 314.429 211.731 315.019C205.991 316.303 199.967 315.83 194.532 313.668" stroke="#263238" stroke-linecap="round" stroke-linejoin="round"/>
<path d="M366.708 350.422C367.572 348.875 368.869 347.58 370.457 346.678C372.045 345.775 373.864 345.299 375.718 345.301H462.562C462.562 345.301 468.837 345.301 466.962 356.55C465.087 367.798 439.334 436.48 433.11 457.246C426.887 478.011 425.572 521.777 425.572 521.777H321.412C321.412 521.777 329.666 417.115 366.708 350.422Z" fill="white"/>
<path opacity="0.16" d="M405.82 345.301H375.718C373.864 345.299 372.045 345.775 370.457 346.678C368.869 347.58 367.572 348.875 366.708 350.422C329.666 417.115 321.321 521.74 321.321 521.74H368.036L379.559 480.467L427.603 489.812C427.941 486.349 428.332 482.825 428.788 479.35L427.733 468.298C427.733 468.298 417.89 458.535 414.791 456.091C411.692 453.648 413.75 449.239 413.229 430.193C412.708 411.147 394.584 397.454 387.84 385.727C381.095 374 391.472 366.669 400.795 354.941C404.115 350.705 405.469 347.585 405.82 345.301Z" fill="black"/>
<path d="M366.708 350.422C367.572 348.875 368.869 347.58 370.457 346.678C372.045 345.775 373.864 345.299 375.718 345.301H462.562C462.562 345.301 468.837 345.301 466.962 356.55C465.087 367.798 439.334 436.48 433.11 457.246C426.887 478.011 425.572 521.777 425.572 521.777H321.412C321.412 521.777 329.666 417.115 366.708 350.422Z" stroke="#263238" stroke-linecap="round" stroke-linejoin="round"/>
<path d="M447.497 364.839C438.722 384.155 420.155 460.623 417.135 521.74H425.52C425.52 521.74 426.822 477.925 433.058 457.209C439.295 436.493 465.074 367.798 466.91 356.513C468.746 345.228 462.509 345.264 462.509 345.264C462.509 345.264 454.541 349.354 447.497 364.839Z" fill="#263238" stroke="#263238" stroke-linecap="round" stroke-linejoin="round"/>
<path d="M294.942 326.23C294.942 326.23 281.089 318.568 275.842 305.06C270.595 291.552 316.92 269.914 337.036 268.564C357.152 267.213 362.828 272.162 374.794 291.539C386.759 310.917 394.858 337.491 388.647 350.557C382.436 363.623 371.929 366.779 379.533 377.573C387.137 388.367 408.672 419.018 407.24 433.435C405.807 447.852 391.004 460.451 369.482 461.826C347.96 463.202 319.316 451.008 295.437 431.126C271.558 411.245 277.756 382.006 286.323 372.551C294.89 363.095 307.819 359.485 308.769 350.029C309.72 340.574 294.942 326.23 294.942 326.23Z" fill="black" stroke="black" stroke-linecap="round" stroke-linejoin="round"/>
<path d="M353.988 304.851C361.344 317.77 370.549 335.072 373.427 345.522C378.452 363.82 352.595 375.338 359.769 384.143" stroke="white" stroke-linecap="round" stroke-linejoin="round"/>
<path d="M343.962 287.929C343.962 287.929 346.827 292.534 350.785 299.313" stroke="white" stroke-linecap="round" stroke-linejoin="round"/>
<path d="M382.554 320.434C383.402 322.856 383.953 325.361 384.194 327.901" stroke="white" stroke-linecap="round" stroke-linejoin="round"/>
<path d="M348.936 281.212C348.936 281.212 371.565 296.98 380.601 315.854" stroke="white" stroke-linecap="round" stroke-linejoin="round"/>
<path d="M317.532 293.038C301.374 297.311 278.133 304.249 280.021 308.253" stroke="white" stroke-linecap="round" stroke-linejoin="round"/>
<path d="M332.466 289.28C332.466 289.28 329.015 290.09 323.872 291.392" stroke="white" stroke-linecap="round" stroke-linejoin="round"/>
<path d="M312.48 281.323C321.735 278.571 331.429 277.366 341.124 277.761" stroke="white" stroke-linecap="round" stroke-linejoin="round"/>
<path d="M305.892 283.864C307.355 283.145 308.869 282.522 310.423 281.998" stroke="white" stroke-linecap="round" stroke-linejoin="round"/>
<path d="M218.54 345.224C217.098 342.53 215.949 339.683 215.114 336.734C215.945 339.684 217.094 342.532 218.54 345.224ZM215.02 336.236C215.02 336.288 215.02 336.349 215.02 336.428C215.037 336.349 215.029 336.288 215.02 336.236ZM218.54 345.216C221.743 351.403 225.728 357.136 230.393 362.266C241.707 374.766 274.389 407.462 277.498 409.707C280.607 411.951 279.699 418.354 277.498 424.766C275.297 431.177 267.126 440.489 267.443 450.726C267.76 460.964 270.869 476.687 270.586 479.893C270.303 483.099 262.441 494 262.441 494H343.512C343.512 494 333.406 480.897 333.406 476.416C333.406 471.935 347.281 414.52 347.906 410.353C348.531 406.186 346.022 403.304 340.994 402.981C335.967 402.657 316.8 398.491 315.858 395.285C314.916 392.079 320.885 379.902 320.885 379.902L302.043 380.863C302.043 380.863 301.101 389.197 299.842 390.804C298.583 392.411 296.699 389.197 292.297 386.96C287.895 384.724 279.45 382.794 276.273 380.226C273.095 377.658 242.966 348.779 242.966 348.779" fill="#FFCC05"/>
<path d="M273.121 363.046C275.503 366.976 277.886 370.524 277.886 370.524C277.886 370.524 285.919 374.786 287.924 374.786C289.929 374.786 301.986 380.926 301.986 380.926C301.986 380.926 312.037 378.556 308.496 370.5C307.379 368.438 305.968 366.529 304.303 364.827C303.705 368.4 302.741 373.079 301.608 374.417C299.694 376.664 296.83 372.158 290.138 369.014C285.802 366.976 278.784 365.109 273.121 363.046Z" fill="#032535"/>
<path d="M248.591 344.81C233.839 331.928 215.169 315.412 215.169 315.412L204.31 313.938L203.008 314.626C203.008 314.626 233.657 340.205 240.18 343.054C242.819 344.198 245.687 344.797 248.591 344.81Z" fill="#032535"/>
<path d="M264.046 358.146L262.874 357.164C263.473 358.097 263.811 358.687 263.811 358.687L264.046 358.146Z" fill="#032535"/>
<g opacity="0.5">
<path opacity="0.5" d="M273.121 363.046C275.503 366.976 277.886 370.524 277.886 370.524C277.886 370.524 285.919 374.786 287.924 374.786C289.929 374.786 301.986 380.926 301.986 380.926C301.986 380.926 312.037 378.556 308.496 370.5C307.379 368.438 305.968 366.529 304.303 364.827C303.705 368.4 302.741 373.079 301.608 374.417C299.694 376.664 296.83 372.158 290.138 369.014C285.802 366.976 278.784 365.109 273.121 363.046Z" fill="white"/>
<path opacity="0.5" d="M248.591 344.81C233.839 331.928 215.169 315.412 215.169 315.412L204.31 313.938L203.008 314.626C203.008 314.626 233.657 340.205 240.18 343.054C242.819 344.198 245.687 344.797 248.591 344.81Z" fill="white"/>
<path opacity="0.5" d="M264.046 358.146L262.874 357.164C263.473 358.097 263.811 358.687 263.811 358.687L264.046 358.146Z" fill="white"/>
</g>
<path d="M178.035 310.352C182.905 319.051 188.963 327.11 196.055 334.323C213.255 351.896 262.939 397.86 267.665 401.016C272.391 404.172 271.011 413.173 267.665 422.186C264.319 431.2 251.898 444.29 252.38 458.683C252.861 473.075 257.588 495.179 257.158 499.686C256.728 504.192 244.776 519.518 244.776 519.518H368.023C368.023 519.518 352.66 501.098 352.66 494.798C352.66 488.498 373.752 407.782 374.703 401.924C375.653 396.067 371.838 392.014 364.195 391.56C356.553 391.106 327.414 385.248 325.982 380.741C324.55 376.235 333.624 359.116 333.624 359.116L304.98 360.467C304.98 360.467 303.548 372.182 301.634 374.442C299.72 376.701 296.856 372.182 290.164 369.039C283.471 365.895 270.634 363.181 265.803 359.571C260.973 355.96 215.169 315.363 215.169 315.363M172.658 297.397C172.652 297.483 172.652 297.569 172.658 297.655C172.652 297.569 172.652 297.483 172.658 297.397V297.397ZM178.035 310.365C175.843 306.577 174.096 302.575 172.827 298.429C174.09 302.577 175.837 306.58 178.035 310.365V310.365ZM172.684 297.729C172.684 297.802 172.684 297.888 172.684 297.999C172.71 297.888 172.697 297.802 172.684 297.729V297.729ZM172.749 298.072C172.765 298.193 172.792 298.312 172.827 298.429C172.792 298.312 172.765 298.193 172.749 298.072Z" stroke="#263238" stroke-linecap="round" stroke-linejoin="round"/>
<path d="M215.168 315.412C215.168 315.412 199.909 315.682 191.394 309.063" stroke="#263238" stroke-linecap="round" stroke-linejoin="round"/>
<path d="M325.995 380.741C324.563 376.247 333.638 359.116 333.638 359.116L304.994 360.467C304.994 360.467 303.561 372.182 301.647 374.442C299.733 376.701 296.869 372.182 290.177 369.039C289.669 368.793 289.109 368.56 288.536 368.326L286.805 394.004C286.805 394.004 289.317 418.871 319.446 414.143C331.645 412.227 344.665 401.961 355.902 390.418C344.34 388.416 327.088 384.192 325.995 380.741Z" fill="white"/>
<path d="M325.188 362.518C325.188 362.518 323.456 371.679 322.063 381.81C320.67 391.941 319.641 399.481 319.641 399.481L325.995 380.741L333.156 360.885C333.156 360.885 326.229 360.885 325.188 362.518Z" fill="#032535"/>
<path opacity="0.5" d="M325.188 362.518C325.188 362.518 323.456 371.679 322.063 381.81C320.67 391.941 319.641 399.481 319.641 399.481L325.995 380.741L333.156 360.885C333.156 360.885 326.229 360.885 325.188 362.518Z" fill="white"/>
<path d="M325.995 380.741C324.563 376.247 333.638 359.116 333.638 359.116L304.994 360.467C304.994 360.467 303.561 372.182 301.647 374.442C299.733 376.701 296.869 372.182 290.177 369.039C289.669 368.793 289.109 368.56 288.536 368.326L286.805 394.004C286.805 394.004 289.317 418.871 319.446 414.143C331.645 412.227 344.665 401.961 355.902 390.418C344.34 388.416 327.088 384.192 325.995 380.741Z" stroke="#263238" stroke-linecap="round" stroke-linejoin="round"/>
<path d="M301.634 374.442C299.72 376.689 296.856 372.182 290.164 369.039C285.945 367.037 279.227 365.22 273.667 363.255C272.092 359.73 270.009 355.138 268.668 352.362C266.285 347.45 262.457 350.557 262.457 350.557C260.46 348.415 258.846 345.98 257.679 343.349C255.296 338.437 251.468 338.842 246.221 337.946C240.974 337.049 229.972 327.581 229.972 327.581C229.972 327.581 224.829 323.897 222.707 322.068C220.233 326.66 214.309 334.741 201.497 339.788C221.926 359.915 263.369 398.154 267.717 401.028C272.496 404.172 271.063 413.185 267.717 422.199C264.371 431.212 251.95 444.303 252.432 458.695C252.913 473.087 257.64 495.191 257.21 499.698C256.78 503.713 247.25 516.3 245.18 519.002L250.036 519.518H275.321C275.178 507.434 275.191 458.118 283.953 438.47C293.992 415.887 301.634 374.442 301.634 374.442Z" fill="#032535"/>
<path opacity="0.16" d="M290.164 369.039C285.945 367.037 279.227 365.219 273.667 363.255C272.092 359.73 270.009 355.138 268.668 352.362C266.285 347.45 262.457 350.557 262.457 350.557C260.46 348.415 258.846 345.98 257.679 343.349C255.296 338.437 251.468 338.842 246.221 337.946C240.974 337.049 229.972 327.581 229.972 327.581C229.972 327.581 224.829 323.897 222.707 322.068C221.648 324.018 220.388 325.865 218.944 327.581C227.485 334.397 236.912 341.617 240.206 343.054C246.716 345.891 248.239 343.521 253.226 346.37C258.213 349.219 263.772 358.65 263.772 358.65C263.772 358.65 266.793 351.061 269.306 356.28C271.819 361.499 277.847 370.488 277.847 370.488C277.847 370.488 285.88 374.749 287.885 374.749C289.461 374.749 297.182 378.531 300.463 380.164C301.192 376.566 301.595 374.405 301.595 374.405C299.72 376.689 296.856 372.182 290.164 369.039Z" fill="#F2994A"/>
<path d="M301.634 374.442C299.72 376.689 296.856 372.182 290.164 369.039C285.945 367.037 279.227 365.219 273.667 363.255C272.092 359.73 270.009 355.138 268.668 352.362C266.285 347.45 262.457 350.557 262.457 350.557C260.46 348.415 258.846 345.98 257.679 343.349C255.296 338.437 251.468 338.842 246.221 337.946C240.974 337.049 229.972 327.581 229.972 327.581C229.972 327.581 224.829 323.897 222.707 322.068C220.233 326.66 214.309 334.741 201.497 339.788C221.926 359.915 263.369 398.154 267.717 401.028C272.496 404.172 271.063 413.185 267.717 422.199C264.371 431.212 251.95 444.303 252.432 458.695C252.913 473.087 257.64 495.191 257.21 499.698C256.78 503.713 247.25 516.3 245.18 519.002L250.036 519.518H275.321C275.178 507.434 275.191 458.118 283.953 438.47C293.992 415.887 301.634 374.442 301.634 374.442Z" stroke="#263238" stroke-linecap="round" stroke-linejoin="round"/>
<path d="M301.973 372.87C301.973 372.87 296.036 371.151 292.377 374.172C288.718 377.193 283.263 392.69 280.047 409.501C278.065 419.288 279.433 429.415 283.953 438.421C283.953 438.421 291.466 419.841 293.744 410.791C296.023 401.74 301.973 372.87 301.973 372.87Z" fill="#032535"/>
<path opacity="0.16" d="M290.58 375.608C290.58 375.608 294.877 374.626 296.648 375.191C298.139 375.794 299.532 376.592 300.788 377.561L301.973 372.87C300.196 372.013 298.18 371.7 296.205 371.973C293.249 372.538 290.58 375.608 290.58 375.608Z" fill="black"/>
<path d="M301.973 372.87C301.973 372.87 296.036 371.151 292.377 374.172C288.718 377.193 283.263 392.69 280.047 409.501C278.065 419.288 279.433 429.415 283.953 438.421C283.953 438.421 291.466 419.841 293.744 410.791C296.023 401.74 301.973 372.87 301.973 372.87Z" stroke="#263238" stroke-linecap="round" stroke-linejoin="round"/>
<path d="M261.988 374.344L269.631 403.631L252.432 366.681" stroke="#263238" stroke-linecap="round" stroke-linejoin="round"/>
<path d="M312.337 519.518H368.036C368.036 519.518 352.673 501.098 352.673 494.798C352.673 488.498 373.765 407.782 374.716 401.924C375.666 396.067 371.851 392.014 364.208 391.56C356.566 391.106 327.427 385.248 325.995 380.741C325.995 380.741 315.006 417.238 311.191 442.019C307.91 463.275 311.308 507.385 312.337 519.518Z" fill="#032535"/>
<path opacity="0.16" d="M364.208 391.56C357.946 391.192 337.257 387.188 329.198 383.283L332.127 389.669C337.435 392.325 343.143 394.197 349.053 395.22C358.753 396.853 367.776 396.533 373.674 404.712L373.96 405.117C374.325 403.545 374.572 402.44 374.651 401.924C375.679 396.067 371.851 392.014 364.208 391.56Z" fill="black"/>
<path d="M312.337 519.518H368.036C368.036 519.518 352.673 501.098 352.673 494.798C352.673 488.498 373.765 407.782 374.716 401.924C375.666 396.067 371.851 392.014 364.208 391.56C356.566 391.106 327.427 385.248 325.995 380.741C325.995 380.741 315.006 417.238 311.191 442.019C307.91 463.275 311.308 507.385 312.337 519.518Z" stroke="#263238" stroke-linecap="round" stroke-linejoin="round"/>
<path d="M325.995 380.741C325.995 380.741 311.256 424.949 311.191 442.019C311.191 442.019 332.127 418.109 334.861 401.31C337.596 384.511 325.995 380.741 325.995 380.741Z" fill="#032535"/>
<path opacity="0.16" d="M323.456 386.39C325.67 386.32 327.87 386.76 329.864 387.671C331.858 388.583 333.587 389.939 334.9 391.621C334.9 391.621 332.01 383.603 325.995 380.741L323.456 386.39Z" fill="black"/>
<path d="M325.995 380.741C325.995 380.741 311.256 424.949 311.191 442.019C311.191 442.019 332.127 418.109 334.861 401.31C337.596 384.511 325.995 380.741 325.995 380.741Z" stroke="#263238" stroke-linecap="round" stroke-linejoin="round"/>
<path d="M483.341 511.204C483.341 511.204 494.135 511.622 501.205 512.579C505.92 513.182 510.666 513.539 515.423 513.648C515.423 513.648 511.517 506.206 507.35 504.106C503.184 502.006 495.632 498.249 489.305 499.084C482.977 499.919 473.928 505.936 474.683 507.852C475.438 509.767 478.81 510.627 483.341 511.204Z" fill="white"/>
<path d="M483.341 511.204C483.341 511.204 494.135 511.622 501.205 512.579C505.92 513.182 510.666 513.539 515.423 513.648C515.423 513.648 511.517 506.206 507.35 504.106C503.184 502.006 495.632 498.249 489.305 499.084C482.977 499.919 473.928 505.936 474.683 507.852C475.438 509.767 478.81 510.627 483.341 511.204Z" fill="#032535"/>
<path opacity="0.5" d="M483.341 511.204C483.341 511.204 494.135 511.622 501.205 512.579C505.92 513.182 510.666 513.539 515.423 513.648C515.423 513.648 511.517 506.206 507.35 504.106C503.184 502.006 495.632 498.249 489.305 499.084C482.977 499.919 473.928 505.936 474.683 507.852C475.438 509.767 478.81 510.627 483.341 511.204Z" fill="white"/>
<path d="M483.341 511.204C483.341 511.204 494.135 511.622 501.205 512.579C505.92 513.182 510.666 513.539 515.423 513.648C515.423 513.648 511.517 506.206 507.35 504.106C503.184 502.006 495.632 498.249 489.305 499.084C482.977 499.919 473.928 505.936 474.683 507.852C475.438 509.767 478.81 510.627 483.341 511.204Z" stroke="#263238" stroke-linecap="round" stroke-linejoin="round"/>
<path d="M501.27 508.159C501.27 508.159 509.824 503.971 511.959 504.033C514.095 504.094 528.286 513.144 527.583 514.593C527.106 515.265 526.417 515.779 525.613 516.061C524.809 516.343 523.932 516.379 523.105 516.165C521.529 515.465 511.972 511.634 511.972 511.634L505.723 513.022L501.27 508.159Z" fill="white"/>
<path d="M501.27 508.159C501.27 508.159 509.824 503.971 511.959 504.033C514.095 504.094 528.286 513.144 527.583 514.593C526.88 516.042 523.521 517.221 523.105 516.165C522.688 515.109 511.972 511.634 511.972 511.634L505.723 513.022L501.27 508.159Z" fill="#032535"/>
<path opacity="0.5" d="M501.27 508.159C501.27 508.159 509.824 503.971 511.959 504.033C514.095 504.094 528.286 513.144 527.583 514.593C526.88 516.042 523.521 517.221 523.105 516.165C522.688 515.109 511.972 511.634 511.972 511.634L505.723 513.022L501.27 508.159Z" fill="white"/>
<path d="M501.27 508.159C501.27 508.159 509.824 503.971 511.959 504.033C514.095 504.094 528.286 513.144 527.583 514.593C527.106 515.265 526.417 515.779 525.613 516.061C524.809 516.343 523.932 516.379 523.105 516.165C521.529 515.465 511.972 511.634 511.972 511.634L505.723 513.022L501.27 508.159Z" stroke="#263238" stroke-linecap="round" stroke-linejoin="round"/>
<path d="M495.164 501.27C495.164 501.27 506.569 500.926 508.835 502.006C511.1 503.087 521.334 519.64 519.797 520.844C518.261 522.047 514.017 521.691 514.147 520.353C514.277 519.014 504.72 510.148 504.72 510.148L497.286 508.613L495.164 501.27Z" fill="white"/>
<path d="M495.164 501.27C495.164 501.27 506.569 500.926 508.835 502.006C511.1 503.087 521.334 519.64 519.797 520.844C518.261 522.047 514.017 521.691 514.147 520.353C514.277 519.014 504.72 510.148 504.72 510.148L497.286 508.613L495.164 501.27Z" fill="#032535"/>
<path opacity="0.5" d="M495.164 501.27C495.164 501.27 506.569 500.926 508.835 502.006C511.1 503.087 521.334 519.64 519.797 520.844C518.261 522.047 514.017 521.691 514.147 520.353C514.277 519.014 504.72 510.148 504.72 510.148L497.286 508.613L495.164 501.27Z" fill="white"/>
<path d="M495.164 501.27C495.164 501.27 506.569 500.926 508.835 502.006C511.1 503.087 521.334 519.64 519.797 520.844C518.261 522.047 514.017 521.691 514.147 520.353C514.277 519.014 504.72 510.148 504.72 510.148L497.286 508.613L495.164 501.27Z" stroke="#263238" stroke-linecap="round" stroke-linejoin="round"/>
<path d="M488.406 499.047C488.406 499.047 499.955 498.691 502.247 499.796C504.538 500.901 514.902 517.639 513.34 518.867C511.777 520.095 507.507 519.714 507.637 518.363C507.767 517.013 498.093 508.036 498.093 508.036L490.568 506.476L488.406 499.047Z" fill="white"/>
<path d="M488.406 499.047C488.406 499.047 499.955 498.691 502.247 499.796C504.538 500.901 514.902 517.639 513.34 518.867C511.777 520.095 507.507 519.714 507.637 518.363C507.767 517.013 498.093 508.036 498.093 508.036L490.568 506.476L488.406 499.047Z" fill="#032535"/>
<path opacity="0.5" d="M488.406 499.047C488.406 499.047 499.955 498.691 502.247 499.796C504.538 500.901 514.902 517.639 513.34 518.867C511.777 520.095 507.507 519.714 507.637 518.363C507.767 517.013 498.093 508.036 498.093 508.036L490.568 506.476L488.406 499.047Z" fill="white"/>
<path d="M488.406 499.047C488.406 499.047 499.955 498.691 502.247 499.796C504.538 500.901 514.902 517.639 513.34 518.867C511.777 520.095 507.507 519.714 507.637 518.363C507.767 517.013 498.093 508.036 498.093 508.036L490.568 506.476L488.406 499.047Z" stroke="#263238" stroke-linecap="round" stroke-linejoin="round"/>
<path d="M357.1 436.64C365.458 448.785 382.241 479.559 387.137 483.022C394.779 488.425 445.87 501.54 450.791 505.126C455.713 508.711 455.374 512.309 460.036 513.623C464.697 514.937 482.17 518.707 488.836 519.297C495.502 519.886 492.521 515.993 492.521 515.993L481.154 508.625L491.062 506.317C491.062 506.317 500.997 517.59 502.858 518.204C504.72 518.818 508.001 518.204 507.793 516.816C507.428 514.593 496.83 496.407 493.067 495.633C489.305 494.859 466.467 497.843 466.467 497.843C466.467 497.843 418.567 467.377 417.708 466.296C417.708 466.296 414.843 458.633 412.5 455.477C410.156 452.322 408.672 453.23 408.672 453.23C408.672 453.23 409.635 449.166 408.203 447.815L400.56 440.606L400.287 440.95C398.985 438.494 397.683 435.694 396.251 432.502C392.254 423.623 378.101 398.707 375.718 395.109C373.934 392.42 358.987 390.492 351.41 389.681" fill="#032535"/>
<path opacity="0.16" d="M390.379 437.414C396.628 442.645 394.545 442.645 393.152 447.238C391.759 451.83 394.194 445.604 400.092 445.936C405.99 446.268 404.258 453.451 403.555 454.765C402.852 456.079 410.846 457.712 409.453 460.647C408.06 463.582 400.092 467.843 395.587 472.105C391.082 476.366 407.37 465.228 412.916 464.909C414.609 464.798 416.002 465.007 417.174 464.982C415.945 461.696 414.365 458.537 412.461 455.551C410.065 452.395 408.633 453.304 408.633 453.304C408.633 453.304 409.596 449.239 408.164 447.888L400.521 440.68L400.248 441.024C398.946 438.568 397.644 435.768 396.212 432.575C392.214 423.697 378.062 398.781 375.679 395.183C373.895 392.493 358.948 390.565 351.371 389.755L352.061 395.441L352.23 395.563C352.23 395.563 361.591 397.197 364.716 397.528C367.841 397.86 371.656 400.463 371.304 402.44C370.953 404.417 361.943 413.234 364.716 413.897C367.489 414.561 370.614 407.352 373.739 408.335C376.864 409.317 384.09 432.182 390.379 437.414Z" fill="black"/>
<path d="M357.1 436.64C365.458 448.785 382.241 479.559 387.137 483.022C394.779 488.425 445.87 501.54 450.791 505.126C455.713 508.711 455.374 512.309 460.036 513.623C464.697 514.937 482.17 518.707 488.836 519.297C495.502 519.886 492.521 515.993 492.521 515.993L481.154 508.625L491.062 506.317C491.062 506.317 500.997 517.59 502.858 518.204C504.72 518.818 508.001 518.204 507.793 516.816C507.428 514.593 496.83 496.407 493.067 495.633C489.305 494.859 466.467 497.843 466.467 497.843C466.467 497.843 418.567 467.377 417.708 466.296C417.708 466.296 414.843 458.633 412.5 455.477C410.156 452.322 408.672 453.23 408.672 453.23C408.672 453.23 409.635 449.166 408.203 447.815L400.56 440.606L400.287 440.95C398.985 438.494 397.683 435.694 396.251 432.502C392.254 423.623 378.101 398.707 375.718 395.109C373.934 392.42 358.987 390.492 351.41 389.681" stroke="#263238" stroke-linecap="round" stroke-linejoin="round"/>
<path d="M357.23 419.976C356.878 421.081 356.579 422.186 356.344 423.316" stroke="#263238" stroke-linecap="round" stroke-linejoin="round"/>
<path d="M369.885 399.653C365.794 404.051 362.343 408.945 359.625 414.204" stroke="#263238" stroke-linecap="round" stroke-linejoin="round"/>
<path d="M389.012 469.378C392.527 464.466 398.126 458.241 404.297 456.46" stroke="#263238" stroke-linecap="round" stroke-linejoin="round"/>
<path d="M385.119 475.42C385.119 475.42 385.744 474.266 386.863 472.522" stroke="#263238" stroke-linecap="round" stroke-linejoin="round"/>
<path d="M385.119 467.659C385.119 467.659 391.511 452.579 397.904 448.699C404.297 444.818 400.638 452.579 400.638 452.579" stroke="#263238" stroke-linecap="round" stroke-linejoin="round"/>
<path d="M450.791 505.138C455.726 508.736 455.374 512.322 460.036 513.636C464.697 514.95 482.17 518.72 488.836 519.309C495.502 519.898 492.521 516.006 492.521 516.006L481.154 508.638L491.062 506.329C491.062 506.329 500.997 517.602 502.858 518.216C504.72 518.83 508.262 519.051 507.793 516.828C506.882 512.53 496.83 496.419 493.067 495.645C489.305 494.872 466.468 497.856 466.468 497.856C466.468 497.856 422.838 469.612 418.059 466.554C399.532 468.236 390.717 477.385 387.006 482.874L387.137 482.972C394.779 488.425 445.87 501.54 450.791 505.138Z" fill="white"/>
<path d="M507.78 516.877C505.41 511.413 496.817 496.468 493.054 495.695C489.292 494.921 466.455 497.905 466.455 497.905C466.455 497.905 422.824 469.661 418.046 466.603C413.183 467.002 408.412 468.091 403.893 469.833C410.781 473.517 456.689 498.077 462.483 499.17C468.629 500.398 489.135 497.217 492.742 499.501C495.033 500.95 501.856 511.155 506.465 518.4C507.78 518.216 508.262 517.983 507.78 516.877Z" fill="#032535"/>
<path opacity="0.5" d="M507.78 516.877C504.082 509.055 496.817 496.468 493.054 495.695C489.292 494.921 466.455 497.905 466.455 497.905C466.455 497.905 422.824 469.661 418.046 466.603C413.183 467.002 408.412 468.091 403.893 469.833C410.781 473.517 456.69 498.077 462.483 499.17C468.629 500.398 489.135 497.217 492.742 499.501C495.033 500.95 501.856 511.155 506.465 518.4C507.78 518.216 508.301 517.97 507.78 516.877Z" fill="white"/>
<path d="M450.791 505.138C455.726 508.736 455.374 512.322 460.036 513.636C464.697 514.95 482.17 518.72 488.836 519.309C495.502 519.898 492.521 516.006 492.521 516.006L481.154 508.638L491.062 506.329C491.062 506.329 500.997 517.602 502.858 518.216C504.72 518.83 508.262 519.051 507.793 516.828C506.882 512.53 496.83 496.419 493.067 495.645C489.305 494.872 466.468 497.856 466.468 497.856C466.468 497.856 422.838 469.612 418.059 466.554C399.532 468.236 390.717 477.385 387.006 482.874L387.137 482.972C394.779 488.425 445.87 501.54 450.791 505.138Z" stroke="#263238" stroke-linecap="round" stroke-linejoin="round"/>
<path d="M335.721 290.704L296.504 306.14C296.029 312.641 294.323 319.008 291.466 324.941C286.831 334.188 289.539 351.687 293.992 361.13C298.444 370.574 318.066 366.877 325.24 365.698C330.105 364.825 334.871 363.514 339.47 361.781C341.565 362.542 343.83 362.789 346.053 362.496C348.276 362.204 350.384 361.383 352.178 360.111C352.178 360.111 331.19 304.544 335.721 290.704Z" fill="white"/>
<path d="M335.721 290.704L296.504 306.14C296.029 312.641 294.323 319.008 291.466 324.941C286.831 334.188 289.539 351.687 293.992 361.13C294.737 362.649 295.936 363.929 297.442 364.814V364.102C297.442 364.102 290.164 347.094 291.544 337.282C292.924 327.471 298.835 322.546 299.525 316.345C300.215 310.144 299.864 307.196 313.053 302.616C326.242 298.036 331.776 293.787 333.156 298.355C334.536 302.923 340.095 333.034 343.91 340.23C347.725 347.426 347.374 354.966 341.489 358.22C335.541 361.587 329.167 364.236 322.518 366.104L325.292 365.649C330.157 364.776 334.923 363.465 339.523 361.732C341.617 362.493 343.882 362.739 346.105 362.447C348.328 362.155 350.436 361.334 352.23 360.062C352.23 360.062 331.19 304.544 335.721 290.704Z" fill="#032535"/>
<path opacity="0.5" d="M335.721 290.704L296.504 306.14C296.029 312.641 294.323 319.008 291.466 324.941C286.831 334.188 289.539 351.687 293.992 361.13C294.737 362.649 295.936 363.929 297.442 364.814V364.102C297.442 364.102 290.164 347.094 291.544 337.282C292.924 327.471 298.835 322.546 299.525 316.345C300.215 310.144 299.864 307.196 313.053 302.616C326.242 298.036 331.776 293.787 333.156 298.355C334.536 302.923 340.095 333.034 343.91 340.23C347.725 347.426 347.374 354.966 341.489 358.22C335.541 361.587 329.167 364.236 322.518 366.104L325.292 365.649C330.157 364.776 334.923 363.465 339.523 361.732C341.617 362.493 343.882 362.739 346.105 362.447C348.328 362.155 350.436 361.334 352.23 360.062C352.23 360.062 331.19 304.544 335.721 290.704Z" fill="white"/>
<path d="M335.721 290.704L296.504 306.14C296.029 312.641 294.323 319.008 291.466 324.941C286.831 334.188 289.539 351.687 293.992 361.13C298.444 370.574 318.066 366.877 325.24 365.698C330.105 364.825 334.871 363.514 339.47 361.781C341.565 362.542 343.83 362.789 346.053 362.496C348.276 362.204 350.384 361.383 352.178 360.111C352.178 360.111 331.19 304.544 335.721 290.704Z" stroke="#263238" stroke-linecap="round" stroke-linejoin="round"/>
<path d="M315.904 314.908C316.011 317.083 315.724 319.259 315.058 321.343C314.016 323.799 304.186 333.451 304.486 334.495C304.785 335.539 305.671 338.891 307.415 339.21" stroke="#263238" stroke-linecap="round" stroke-linejoin="round"/>
<path d="M326.802 323.541C328.169 320.962 332.661 323.48 332.596 329.288" stroke="#263238" stroke-linecap="round" stroke-linejoin="round"/>
<path d="M304.538 315.952C304.538 315.952 308.366 314.368 311.79 320.213" stroke="#263238" stroke-linecap="round" stroke-linejoin="round"/>
<path d="M321.36 332.051C325.783 332.261 329.989 333.925 333.247 336.754" stroke="#263238" stroke-width="0.5" stroke-linecap="round" stroke-linejoin="round"/>
<path d="M299.916 324.376C302.203 324.664 304.437 325.247 306.556 326.108" stroke="#263238" stroke-width="0.5" stroke-linecap="round" stroke-linejoin="round"/>
<path d="M315.475 309.456C314.464 308.952 313.342 308.676 312.199 308.65C311.056 308.625 309.922 308.85 308.887 309.309C305.384 310.893 303.236 312.636 303.47 310.61C303.705 308.584 307.819 306.349 309.056 306.054C310.293 305.76 315.826 304.949 315.475 309.456Z" fill="#263238"/>
<path d="M325.292 304.876C328.942 307.661 331.842 311.221 333.755 315.264C336.359 321.404 338.416 314.7 336.359 310.684C334.302 306.668 328.351 302.395 325.292 304.876Z" fill="#263238"/>
<path d="M352.751 370.61C352.751 373.472 351.032 375.793 348.923 375.793C346.814 375.793 345.108 373.472 345.108 370.61C345.108 367.749 346.814 360.467 348.923 360.467C351.032 360.467 352.751 367.749 352.751 370.61Z" fill="#032535" stroke="#263238" stroke-linecap="round" stroke-linejoin="round"/>
<path d="M327.141 322.424C326.991 322.799 326.873 323.185 326.789 323.578C326.411 325.395 326.034 329.19 326.789 329.35C327.544 329.509 329.393 325.96 329.718 324.143C329.792 323.786 329.835 323.425 329.849 323.062C328.96 322.799 328.056 322.586 327.141 322.424Z" fill="#263238"/>
<path d="M304.928 315.596C304.813 315.917 304.721 316.245 304.655 316.578C304.264 318.396 304.277 322.387 305.098 322.534C305.918 322.682 307.259 318.948 307.637 317.131C307.731 316.69 307.783 316.242 307.793 315.793C306.861 315.551 305.888 315.484 304.928 315.596Z" fill="#263238"/>
<path d="M326.802 323.603L328.104 321.318C330.168 321.698 332.038 322.718 333.416 324.217" stroke="#263238" stroke-width="0.75" stroke-linecap="round" stroke-linejoin="round"/>
<path d="M304.928 315.596L306.23 314.159C306.23 314.159 306.79 313.901 309.863 315.215" stroke="#263238" stroke-width="0.75" stroke-linecap="round" stroke-linejoin="round"/>
<path d="M299.994 348.899C299.994 348.899 302.181 345.105 305.111 345.105C308.04 345.105 310.228 351.306 310.228 351.306" stroke="#263238" stroke-linecap="round" stroke-linejoin="round"/>
<path d="M205.716 512.543C202.885 512.41 200.104 511.785 197.513 510.701C197.152 510.575 196.822 510.381 196.543 510.13C196.263 509.88 196.041 509.579 195.889 509.245C195.737 508.911 195.659 508.552 195.659 508.189C195.66 507.825 195.738 507.466 195.89 507.132C196.042 506.799 196.265 506.498 196.544 506.248C196.824 505.998 197.154 505.804 197.516 505.678C197.877 505.552 198.262 505.497 198.646 505.516C199.031 505.535 199.407 505.628 199.753 505.789C202.357 506.832 205.729 507.483 206.627 507.115C208.281 505.371 210.82 494.835 207.539 489.751C206.797 488.621 206.107 488.412 205.651 488.363C203.789 488.118 201.029 489.923 200.052 490.819C199.78 491.061 199.461 491.25 199.111 491.376C198.762 491.501 198.39 491.56 198.016 491.55C197.643 491.54 197.275 491.46 196.934 491.316C196.593 491.171 196.286 490.965 196.029 490.709C195.773 490.452 195.572 490.151 195.439 489.821C195.306 489.492 195.244 489.141 195.254 488.789C195.265 488.436 195.35 488.089 195.503 487.768C195.656 487.446 195.874 487.156 196.146 486.914C196.654 486.448 201.354 482.457 206.367 483.095C207.61 483.266 208.795 483.706 209.829 484.379C210.863 485.052 211.719 485.94 212.33 486.976C217.161 494.405 213.853 508.539 210.143 511.339C208.853 512.2 207.293 512.624 205.716 512.543Z" fill="white"/>
<path d="M209.531 488.94C209.189 488.178 208.655 487.506 207.974 486.983C207.293 486.461 206.486 486.104 205.625 485.944C202.37 485.453 199.31 488.535 198.972 488.879C198.66 489.233 198.468 489.666 198.419 490.123C198.371 490.58 198.468 491.041 198.698 491.446C199.21 491.349 199.684 491.119 200.065 490.782C201.042 489.923 203.802 488.118 205.664 488.326C206.12 488.326 206.81 488.584 207.552 489.714C210.833 494.749 208.294 505.334 206.64 507.078C205.742 507.446 202.383 506.796 199.766 505.752C199.444 505.624 199.099 505.553 198.75 505.543C198.774 505.88 198.886 506.205 199.077 506.49C199.268 506.776 199.532 507.011 199.844 507.176C201.49 508.006 203.306 508.491 205.169 508.601C206.232 508.649 207.273 508.305 208.073 507.643C210.52 505.518 212.682 494.651 209.531 488.94Z" fill="black"/>
<path opacity="0.5" d="M209.531 488.94C209.189 488.178 208.655 487.506 207.974 486.983C207.293 486.461 206.486 486.104 205.625 485.944C202.37 485.453 199.31 488.535 198.972 488.879C198.66 489.233 198.468 489.666 198.419 490.123C198.371 490.58 198.468 491.041 198.698 491.446C199.21 491.349 199.684 491.119 200.065 490.782C201.042 489.923 203.802 488.118 205.664 488.326C206.12 488.326 206.81 488.584 207.552 489.714C210.833 494.749 208.294 505.334 206.64 507.078C205.742 507.446 202.383 506.796 199.766 505.752C199.444 505.624 199.099 505.553 198.75 505.543C198.774 505.88 198.886 506.205 199.077 506.49C199.268 506.776 199.532 507.011 199.844 507.176C201.49 508.006 203.306 508.491 205.169 508.601C206.232 508.649 207.273 508.305 208.073 507.643C210.52 505.518 212.682 494.651 209.531 488.94Z" fill="white"/>
<path d="M205.716 512.543C202.885 512.41 200.104 511.785 197.513 510.701C197.152 510.575 196.822 510.381 196.543 510.13C196.263 509.88 196.041 509.579 195.889 509.245C195.737 508.911 195.659 508.552 195.659 508.189C195.66 507.825 195.738 507.466 195.89 507.132C196.042 506.799 196.265 506.498 196.544 506.248C196.824 505.998 197.154 505.804 197.516 505.678C197.877 505.552 198.262 505.497 198.646 505.516C199.031 505.535 199.407 505.628 199.753 505.789C202.357 506.832 205.729 507.483 206.627 507.115C208.281 505.371 210.82 494.835 207.539 489.751C206.797 488.621 206.107 488.412 205.651 488.363C203.789 488.118 201.029 489.923 200.052 490.819C199.78 491.061 199.461 491.25 199.111 491.376C198.762 491.501 198.39 491.56 198.016 491.55C197.643 491.54 197.275 491.46 196.934 491.316C196.593 491.171 196.286 490.965 196.029 490.709C195.773 490.452 195.572 490.151 195.439 489.821C195.306 489.492 195.244 489.141 195.254 488.789C195.265 488.436 195.35 488.089 195.503 487.768C195.656 487.446 195.874 487.156 196.146 486.914C196.654 486.448 201.354 482.457 206.367 483.095C207.61 483.266 208.795 483.706 209.829 484.379C210.863 485.052 211.719 485.94 212.33 486.976C217.161 494.405 213.853 508.539 210.143 511.339C208.853 512.2 207.293 512.624 205.716 512.543V512.543Z" stroke="#263238" stroke-linecap="round" stroke-linejoin="round"/>
<path d="M200.742 480.86H169.429V520.058H200.742V480.86Z" fill="white"/>
<path d="M182.254 480.86H169.429V520.058H182.254V480.86Z" fill="#E0E0E0"/>
<path opacity="0.5" d="M182.254 480.86H169.429V520.058H182.254V480.86Z" fill="white"/>
<path d="M200.742 480.86H169.429V520.058H200.742V480.86Z" stroke="#263238" stroke-linecap="round" stroke-linejoin="round"/>
<path d="M372.815 519.518H239.047L234.686 450.16C234.565 449.488 234.6 448.799 234.79 448.14C234.979 447.482 235.317 446.87 235.781 446.347C236.246 445.824 236.824 445.403 237.478 445.111C238.132 444.82 238.845 444.665 239.568 444.659H372.242C372.969 444.658 373.688 444.807 374.348 445.096C375.008 445.384 375.594 445.805 376.064 446.329C376.534 446.853 376.877 447.467 377.069 448.129C377.261 448.79 377.298 449.484 377.176 450.16L372.815 519.518Z" fill="#263238" stroke="#263238" stroke-linecap="round" stroke-linejoin="round"/>
<path d="M245.635 446.317H371.278C371.988 446.31 372.691 446.449 373.337 446.726C373.984 447.002 374.559 447.408 375.021 447.916C375.484 448.423 375.823 449.02 376.016 449.665C376.208 450.309 376.249 450.985 376.135 451.646" stroke="white" stroke-linecap="round" stroke-linejoin="round"/>
<path d="M235.662 450.553C235.767 449.393 236.332 448.312 237.244 447.527C238.156 446.741 239.349 446.309 240.584 446.317" stroke="white" stroke-linecap="round" stroke-linejoin="round"/>
<path d="M373.375 512.764H238.487V519.518H373.375V512.764Z" fill="white" stroke="#263238" stroke-linecap="round" stroke-linejoin="round"/>
<path d="M305.449 487.762C310.727 487.762 315.006 485.343 315.006 482.358C315.006 479.374 310.727 476.955 305.449 476.955C300.171 476.955 295.893 479.374 295.893 482.358C295.893 485.343 300.171 487.762 305.449 487.762Z" fill="white" stroke="#263238" stroke-linecap="round" stroke-linejoin="round"/>
<path d="M576.825 518.719H74.4353V530.226H576.825V518.719Z" fill="#263238"/>
<path d="M446.56 92.1H204.87C196.723 92.1 190.118 98.3292 190.118 106.013V236.808C190.118 244.492 196.723 250.721 204.87 250.721H446.56C454.707 250.721 461.312 244.492 461.312 236.808V106.013C461.312 98.3292 454.707 92.1 446.56 92.1Z" fill="#FF5700"/>
<path d="M332.092 183.255C354.016 179.932 368.932 160.475 365.409 139.797C361.886 119.12 341.257 105.051 319.333 108.374C297.409 111.697 282.493 131.154 286.016 151.831C289.54 172.509 310.169 186.578 332.092 183.255Z" fill="#263238"/>
<path d="M325.409 152.825L312.011 169.046C311.556 169.722 310.929 170.28 310.188 170.67C309.447 171.06 308.615 171.27 307.767 171.281C306.603 171.296 305.48 170.877 304.642 170.115C304.216 169.746 303.879 169.296 303.655 168.794C303.43 168.291 303.323 167.749 303.34 167.204C303.382 165.984 303.838 164.809 304.642 163.852L319.914 146.034L305.592 128.203C304.927 127.366 304.562 126.351 304.551 125.305C304.547 124.681 304.681 124.064 304.943 123.491C305.205 122.918 305.59 122.403 306.074 121.977C306.528 121.53 307.074 121.174 307.678 120.931C308.283 120.689 308.933 120.564 309.59 120.565C310.431 120.578 311.255 120.789 311.987 121.18C312.719 121.57 313.337 122.127 313.782 122.8L326.724 138.875L339.744 123.07C340.209 122.333 340.86 121.715 341.639 121.272C342.418 120.828 343.301 120.573 344.21 120.528C344.774 120.527 345.332 120.635 345.849 120.847C346.367 121.058 346.832 121.367 347.217 121.756C347.628 122.121 347.955 122.56 348.179 123.048C348.402 123.536 348.518 124.061 348.519 124.593C348.505 125.544 348.157 126.464 347.53 127.209L332.205 145.702L347.009 164.122C347.709 164.946 348.098 165.965 348.116 167.02C348.12 167.63 347.984 168.234 347.716 168.79C347.449 169.345 347.056 169.839 346.566 170.238C345.611 171.104 344.337 171.588 343.012 171.588C342.167 171.579 341.337 171.369 340.6 170.978C339.863 170.588 339.242 170.029 338.793 169.353L325.409 152.825Z" fill="white"/>
<path d="M402.318 223.25H249.06C245.952 223.25 242.971 222.086 240.774 220.013C238.576 217.941 237.342 215.13 237.342 212.198C237.342 209.267 238.576 206.456 240.774 204.383C242.971 202.311 245.952 201.146 249.06 201.146H402.318C405.426 201.146 408.406 202.311 410.604 204.383C412.801 206.456 414.036 209.267 414.036 212.198C414.036 215.13 412.801 217.941 410.604 220.013C408.406 222.086 405.426 223.25 402.318 223.25Z" fill="white"/>
<path d="M270.061 215.76C269.959 215.76 269.857 215.74 269.763 215.702C269.669 215.664 269.585 215.608 269.514 215.539C269.437 215.466 269.376 215.38 269.336 215.285C269.296 215.19 269.277 215.088 269.28 214.986C269.279 214.813 269.329 214.643 269.423 214.495L270.595 212.776H268.199C268.088 212.781 267.978 212.764 267.874 212.726C267.771 212.688 267.678 212.629 267.6 212.555C267.466 212.408 267.393 212.22 267.393 212.026C267.393 211.833 267.466 211.645 267.6 211.498C267.678 211.424 267.771 211.365 267.874 211.327C267.978 211.289 268.088 211.272 268.199 211.277L270.556 211.339L269.514 209.742C269.41 209.579 269.351 209.393 269.345 209.202C269.342 209.1 269.361 208.998 269.401 208.903C269.442 208.808 269.502 208.722 269.579 208.649C269.652 208.579 269.739 208.524 269.835 208.486C269.931 208.448 270.035 208.428 270.139 208.428C270.285 208.426 270.428 208.465 270.551 208.539C270.673 208.613 270.77 208.72 270.829 208.846L271.975 210.774L273.068 208.932C273.137 208.789 273.247 208.666 273.384 208.577C273.522 208.488 273.683 208.437 273.85 208.428C273.952 208.428 274.053 208.448 274.147 208.486C274.241 208.524 274.326 208.58 274.396 208.649C274.473 208.717 274.533 208.799 274.574 208.89C274.614 208.981 274.633 209.079 274.631 209.178C274.629 209.352 274.575 209.522 274.475 209.669L273.329 211.4L275.712 211.339C275.822 211.333 275.933 211.349 276.037 211.387C276.14 211.426 276.233 211.484 276.31 211.56C276.444 211.707 276.518 211.894 276.518 212.088C276.518 212.282 276.444 212.469 276.31 212.616C276.233 212.691 276.14 212.75 276.037 212.788C275.933 212.827 275.822 212.843 275.712 212.837H273.303L274.37 214.409C274.491 214.599 274.558 214.814 274.566 215.035C274.569 215.135 274.552 215.234 274.514 215.327C274.476 215.419 274.418 215.504 274.344 215.575C274.276 215.644 274.193 215.699 274.101 215.737C274.01 215.775 273.911 215.795 273.811 215.796C273.649 215.793 273.493 215.746 273.359 215.661C273.225 215.576 273.12 215.457 273.055 215.317L271.975 213.512L270.894 215.317C270.816 215.46 270.695 215.577 270.547 215.656C270.399 215.734 270.23 215.77 270.061 215.76Z" fill="black"/>
<path d="M282.013 215.76C281.911 215.76 281.81 215.74 281.716 215.702C281.622 215.664 281.537 215.608 281.466 215.539C281.389 215.466 281.329 215.38 281.288 215.285C281.248 215.19 281.229 215.088 281.232 214.986C281.232 214.813 281.281 214.643 281.375 214.495L282.547 212.776H280.151C280.041 212.781 279.93 212.764 279.827 212.726C279.723 212.688 279.63 212.629 279.552 212.555C279.419 212.408 279.345 212.22 279.345 212.026C279.345 211.833 279.419 211.645 279.552 211.498C279.63 211.424 279.723 211.365 279.827 211.327C279.93 211.289 280.041 211.272 280.151 211.277L282.508 211.339L281.401 209.681C281.297 209.517 281.239 209.331 281.232 209.141C281.229 209.038 281.248 208.937 281.288 208.841C281.329 208.746 281.389 208.66 281.466 208.588C281.539 208.518 281.626 208.462 281.723 208.424C281.819 208.386 281.922 208.367 282.026 208.367C282.172 208.365 282.315 208.404 282.438 208.478C282.561 208.552 282.657 208.659 282.716 208.785L283.862 210.713L284.956 208.871C285.025 208.727 285.134 208.604 285.272 208.516C285.409 208.427 285.57 208.375 285.737 208.367C285.839 208.367 285.94 208.387 286.034 208.425C286.128 208.463 286.213 208.518 286.284 208.588C286.36 208.656 286.42 208.737 286.461 208.828C286.501 208.919 286.521 209.017 286.518 209.116C286.516 209.29 286.462 209.461 286.362 209.607L285.216 211.339L287.599 211.277C287.71 211.271 287.821 211.288 287.924 211.326C288.027 211.364 288.121 211.423 288.198 211.498C288.332 211.645 288.405 211.833 288.405 212.026C288.405 212.22 288.332 212.408 288.198 212.555C288.121 212.63 288.027 212.689 287.924 212.727C287.821 212.765 287.71 212.782 287.599 212.776H285.19L286.258 214.347C286.378 214.537 286.445 214.753 286.453 214.974C286.457 215.073 286.439 215.172 286.401 215.265C286.363 215.358 286.305 215.443 286.232 215.514C286.163 215.583 286.08 215.638 285.989 215.676C285.897 215.714 285.798 215.734 285.698 215.735C285.536 215.733 285.379 215.686 285.245 215.601C285.111 215.516 285.006 215.396 284.943 215.256L283.862 213.451L282.781 215.256C282.717 215.4 282.611 215.524 282.475 215.613C282.339 215.702 282.179 215.753 282.013 215.76Z" fill="black"/>
<path d="M293.966 215.76C293.863 215.76 293.762 215.74 293.668 215.702C293.574 215.664 293.489 215.608 293.419 215.539C293.342 215.466 293.281 215.38 293.241 215.285C293.201 215.19 293.181 215.088 293.184 214.986C293.184 214.813 293.234 214.643 293.328 214.495L294.499 212.776H292.104C291.993 212.781 291.882 212.764 291.779 212.726C291.676 212.688 291.582 212.629 291.505 212.555C291.371 212.408 291.297 212.22 291.297 212.026C291.297 211.833 291.371 211.645 291.505 211.498C291.582 211.424 291.676 211.365 291.779 211.327C291.882 211.289 291.993 211.272 292.104 211.277L294.46 211.339L293.354 209.681C293.249 209.517 293.191 209.331 293.184 209.141C293.181 209.038 293.201 208.937 293.241 208.841C293.281 208.746 293.342 208.66 293.419 208.588C293.492 208.518 293.579 208.462 293.675 208.424C293.771 208.386 293.874 208.367 293.979 208.367C294.124 208.365 294.268 208.404 294.39 208.478C294.513 208.552 294.61 208.659 294.669 208.785L295.814 210.713L296.908 208.871C296.977 208.727 297.086 208.604 297.224 208.516C297.362 208.427 297.523 208.375 297.689 208.367C297.792 208.367 297.893 208.387 297.987 208.425C298.081 208.463 298.166 208.518 298.236 208.588C298.312 208.656 298.373 208.737 298.413 208.828C298.454 208.919 298.473 209.017 298.47 209.116C298.469 209.29 298.415 209.461 298.314 209.607L297.168 211.339L299.551 211.277C299.662 211.271 299.773 211.288 299.876 211.326C299.98 211.364 300.073 211.423 300.15 211.498C300.284 211.645 300.357 211.833 300.357 212.026C300.357 212.22 300.284 212.408 300.15 212.555C300.073 212.63 299.98 212.689 299.876 212.727C299.773 212.765 299.662 212.782 299.551 212.776H297.142L298.21 214.347C298.331 214.537 298.398 214.753 298.405 214.974C298.409 215.073 298.391 215.172 298.353 215.265C298.315 215.358 298.258 215.443 298.184 215.514C298.116 215.583 298.033 215.638 297.941 215.676C297.849 215.714 297.75 215.734 297.65 215.735C297.489 215.733 297.331 215.686 297.197 215.601C297.063 215.516 296.958 215.396 296.895 215.256L295.814 213.451L294.734 215.256C294.67 215.4 294.563 215.524 294.427 215.613C294.291 215.702 294.131 215.753 293.966 215.76Z" fill="black"/>
<path d="M305.97 215.76C305.868 215.76 305.767 215.74 305.673 215.702C305.579 215.664 305.494 215.608 305.423 215.539C305.346 215.466 305.286 215.38 305.245 215.285C305.205 215.19 305.186 215.088 305.189 214.986C305.189 214.813 305.238 214.643 305.332 214.495L306.504 212.776H304.108C303.997 212.781 303.887 212.764 303.783 212.726C303.68 212.688 303.587 212.629 303.509 212.555C303.375 212.408 303.302 212.22 303.302 212.026C303.302 211.833 303.375 211.645 303.509 211.498C303.587 211.424 303.68 211.365 303.783 211.327C303.887 211.289 303.997 211.272 304.108 211.277L306.465 211.339L305.358 209.681C305.254 209.517 305.195 209.331 305.189 209.141C305.186 209.038 305.205 208.937 305.245 208.841C305.286 208.746 305.346 208.66 305.423 208.588C305.496 208.518 305.583 208.462 305.679 208.424C305.776 208.386 305.879 208.367 305.983 208.367C306.129 208.365 306.272 208.404 306.395 208.478C306.517 208.552 306.614 208.659 306.673 208.785L307.819 210.713L308.913 208.871C308.981 208.727 309.091 208.604 309.228 208.516C309.366 208.427 309.527 208.375 309.694 208.367C309.796 208.367 309.897 208.387 309.991 208.425C310.085 208.463 310.17 208.518 310.241 208.588C310.317 208.656 310.377 208.737 310.418 208.828C310.458 208.919 310.478 209.017 310.475 209.116C310.473 209.29 310.419 209.461 310.319 209.607L309.173 211.339L311.556 211.277C311.666 211.271 311.777 211.288 311.881 211.326C311.984 211.364 312.078 211.423 312.155 211.498C312.288 211.645 312.362 211.833 312.362 212.026C312.362 212.22 312.288 212.408 312.155 212.555C312.078 212.63 311.984 212.689 311.881 212.727C311.777 212.765 311.666 212.782 311.556 212.776H309.147L310.215 214.347C310.335 214.537 310.402 214.753 310.41 214.974C310.414 215.073 310.396 215.172 310.358 215.265C310.32 215.358 310.262 215.443 310.189 215.514C310.12 215.583 310.037 215.638 309.946 215.676C309.854 215.714 309.755 215.734 309.655 215.735C309.494 215.731 309.337 215.684 309.203 215.599C309.069 215.515 308.964 215.395 308.9 215.256L307.819 213.451L306.738 215.256C306.674 215.4 306.568 215.524 306.432 215.613C306.296 215.702 306.136 215.753 305.97 215.76Z" fill="black"/>
<path d="M317.87 215.76C317.768 215.76 317.667 215.74 317.573 215.702C317.479 215.664 317.394 215.608 317.323 215.539C317.246 215.466 317.186 215.38 317.146 215.285C317.105 215.19 317.086 215.088 317.089 214.986C317.095 214.814 317.144 214.646 317.232 214.495L318.404 212.776H316.008C315.898 212.781 315.787 212.764 315.684 212.726C315.58 212.688 315.487 212.629 315.409 212.555C315.276 212.408 315.202 212.22 315.202 212.026C315.202 211.833 315.276 211.645 315.409 211.498C315.487 211.424 315.58 211.365 315.684 211.327C315.787 211.289 315.898 211.272 316.008 211.277L318.365 211.339L317.258 209.681C317.154 209.517 317.096 209.331 317.089 209.141C317.086 209.038 317.105 208.937 317.146 208.841C317.186 208.746 317.246 208.66 317.323 208.588C317.396 208.518 317.484 208.462 317.58 208.424C317.676 208.386 317.779 208.367 317.883 208.367C318.029 208.365 318.172 208.404 318.295 208.478C318.418 208.552 318.515 208.659 318.573 208.785L319.719 210.713L320.813 208.871C320.882 208.727 320.991 208.604 321.129 208.516C321.266 208.427 321.427 208.375 321.594 208.367C321.696 208.366 321.798 208.384 321.892 208.423C321.987 208.461 322.071 208.517 322.141 208.588C322.217 208.656 322.277 208.737 322.318 208.828C322.358 208.919 322.378 209.017 322.375 209.116C322.373 209.29 322.319 209.461 322.219 209.607L321.073 211.339L323.456 211.277C323.567 211.271 323.678 211.288 323.781 211.326C323.884 211.364 323.978 211.423 324.055 211.498C324.189 211.645 324.262 211.833 324.262 212.026C324.262 212.22 324.189 212.408 324.055 212.555C323.978 212.63 323.884 212.689 323.781 212.727C323.678 212.765 323.567 212.782 323.456 212.776H321.047L322.115 214.347C322.235 214.537 322.302 214.753 322.31 214.974C322.314 215.073 322.296 215.172 322.258 215.265C322.22 215.358 322.162 215.443 322.089 215.514C322.02 215.583 321.938 215.638 321.846 215.676C321.754 215.714 321.655 215.734 321.555 215.735C321.394 215.731 321.237 215.684 321.103 215.599C320.97 215.515 320.864 215.395 320.8 215.256L319.719 213.451L318.638 215.256C318.574 215.4 318.468 215.524 318.332 215.613C318.196 215.702 318.036 215.753 317.87 215.76Z" fill="black"/>
<path d="M329.823 215.76C329.72 215.76 329.619 215.74 329.525 215.702C329.431 215.664 329.346 215.608 329.276 215.539C329.199 215.466 329.138 215.38 329.098 215.285C329.058 215.19 329.038 215.088 329.041 214.986C329.047 214.814 329.097 214.646 329.185 214.495L330.356 212.776H327.974C327.861 212.782 327.748 212.765 327.642 212.727C327.537 212.689 327.441 212.63 327.362 212.555C327.228 212.408 327.154 212.22 327.154 212.026C327.154 211.833 327.228 211.645 327.362 211.498C327.441 211.423 327.537 211.364 327.642 211.326C327.748 211.287 327.861 211.271 327.974 211.277L330.317 211.339L329.211 209.681C329.106 209.517 329.048 209.331 329.041 209.141C329.038 209.038 329.058 208.937 329.098 208.841C329.138 208.746 329.199 208.66 329.276 208.588C329.349 208.518 329.436 208.462 329.532 208.424C329.628 208.386 329.731 208.367 329.836 208.367C329.981 208.365 330.125 208.404 330.247 208.478C330.37 208.552 330.467 208.659 330.526 208.785L331.671 210.713L332.765 208.871C332.834 208.727 332.943 208.604 333.081 208.516C333.219 208.427 333.38 208.375 333.546 208.367C333.649 208.366 333.751 208.384 333.845 208.423C333.939 208.461 334.024 208.517 334.093 208.588C334.17 208.656 334.23 208.737 334.27 208.828C334.311 208.919 334.33 209.017 334.328 209.116C334.326 209.29 334.272 209.461 334.171 209.607L333.026 211.339L335.408 211.277C335.519 211.271 335.63 211.288 335.733 211.326C335.837 211.364 335.93 211.423 336.007 211.498C336.141 211.645 336.215 211.833 336.215 212.026C336.215 212.22 336.141 212.408 336.007 212.555C335.93 212.63 335.837 212.689 335.733 212.727C335.63 212.765 335.519 212.782 335.408 212.776H333L334.067 214.347C334.188 214.537 334.255 214.753 334.262 214.974C334.266 215.073 334.249 215.172 334.21 215.265C334.172 215.358 334.115 215.443 334.041 215.514C333.973 215.583 333.89 215.638 333.798 215.676C333.706 215.714 333.607 215.734 333.507 215.735C333.346 215.731 333.189 215.684 333.056 215.599C332.922 215.515 332.817 215.395 332.752 215.256L331.671 213.451L330.591 215.256C330.527 215.4 330.42 215.524 330.284 215.613C330.148 215.702 329.988 215.753 329.823 215.76Z" fill="black"/>
<path d="M341.775 215.76C341.673 215.76 341.571 215.74 341.477 215.702C341.383 215.664 341.299 215.608 341.228 215.539C341.151 215.466 341.091 215.38 341.05 215.285C341.01 215.19 340.991 215.088 340.994 214.986C340.994 214.813 341.043 214.643 341.137 214.495L342.309 212.776H339.913C339.802 212.781 339.692 212.764 339.588 212.726C339.485 212.688 339.392 212.629 339.314 212.555C339.18 212.408 339.107 212.22 339.107 212.026C339.107 211.833 339.18 211.645 339.314 211.498C339.392 211.424 339.485 211.365 339.588 211.327C339.692 211.289 339.802 211.272 339.913 211.277L342.27 211.339L341.124 209.742C341.02 209.579 340.961 209.393 340.955 209.202C340.952 209.1 340.971 208.998 341.011 208.903C341.052 208.808 341.112 208.722 341.189 208.649C341.262 208.579 341.349 208.524 341.445 208.486C341.541 208.448 341.645 208.428 341.749 208.428C341.895 208.426 342.038 208.465 342.161 208.539C342.283 208.613 342.38 208.72 342.439 208.846L343.585 210.774L344.678 208.932C344.747 208.789 344.857 208.666 344.994 208.577C345.132 208.488 345.293 208.437 345.46 208.428C345.562 208.427 345.664 208.446 345.758 208.484C345.852 208.522 345.937 208.578 346.006 208.649C346.083 208.717 346.143 208.799 346.183 208.89C346.224 208.981 346.243 209.079 346.241 209.178C346.239 209.352 346.185 209.522 346.085 209.669L344.939 211.4L347.322 211.339C347.432 211.333 347.543 211.349 347.647 211.387C347.75 211.426 347.843 211.484 347.92 211.56C348.054 211.707 348.128 211.894 348.128 212.088C348.128 212.282 348.054 212.469 347.92 212.616C347.843 212.691 347.75 212.75 347.647 212.788C347.543 212.827 347.432 212.843 347.322 212.837H344.913L345.98 214.409C346.101 214.599 346.168 214.814 346.176 215.035C346.179 215.135 346.162 215.234 346.124 215.327C346.086 215.42 346.028 215.504 345.954 215.575C345.886 215.644 345.803 215.699 345.711 215.737C345.62 215.775 345.521 215.795 345.421 215.796C345.259 215.793 345.103 215.746 344.969 215.661C344.835 215.576 344.73 215.457 344.665 215.318L343.585 213.512L342.504 215.318C342.434 215.445 342.33 215.552 342.202 215.63C342.074 215.708 341.927 215.752 341.775 215.76Z" fill="black"/>
<path d="M353.727 215.76C353.625 215.76 353.524 215.74 353.43 215.702C353.336 215.664 353.251 215.608 353.181 215.539C353.104 215.466 353.043 215.38 353.003 215.285C352.962 215.19 352.943 215.088 352.946 214.986C352.952 214.814 353.001 214.646 353.089 214.495L354.261 212.776H351.879C351.768 212.783 351.656 212.768 351.552 212.729C351.449 212.691 351.355 212.631 351.28 212.554C351.138 212.411 351.059 212.223 351.059 212.026C351.059 211.83 351.138 211.642 351.28 211.498C351.355 211.422 351.449 211.362 351.552 211.324C351.656 211.285 351.768 211.269 351.879 211.277L354.222 211.339L353.115 209.681C353.011 209.517 352.953 209.331 352.946 209.141C352.943 209.04 352.961 208.94 352.999 208.846C353.037 208.753 353.095 208.667 353.169 208.595C353.243 208.523 353.332 208.465 353.43 208.426C353.528 208.387 353.634 208.367 353.74 208.367C353.886 208.365 354.029 208.403 354.152 208.478C354.275 208.552 354.372 208.659 354.43 208.785L355.576 210.712L356.67 208.87C356.739 208.727 356.848 208.604 356.986 208.516C357.124 208.427 357.284 208.375 357.451 208.367C357.554 208.364 357.656 208.382 357.751 208.42C357.845 208.458 357.929 208.516 357.998 208.588C358.074 208.656 358.135 208.737 358.175 208.828C358.215 208.919 358.235 209.017 358.232 209.116C358.231 209.29 358.176 209.461 358.076 209.607L356.93 211.339L359.313 211.277C359.424 211.271 359.535 211.288 359.638 211.326C359.741 211.364 359.835 211.423 359.912 211.498C360.046 211.645 360.119 211.833 360.119 212.026C360.119 212.22 360.046 212.408 359.912 212.554C359.835 212.63 359.741 212.689 359.638 212.727C359.535 212.765 359.424 212.782 359.313 212.776H356.904L357.972 214.347C358.092 214.537 358.16 214.753 358.167 214.974C358.171 215.07 358.154 215.167 358.118 215.258C358.082 215.348 358.027 215.431 357.957 215.502C357.887 215.573 357.803 215.63 357.709 215.67C357.616 215.71 357.515 215.732 357.412 215.735C357.251 215.731 357.094 215.684 356.96 215.599C356.827 215.515 356.721 215.395 356.657 215.256L355.576 213.451L354.496 215.256C354.431 215.4 354.325 215.524 354.189 215.613C354.053 215.702 353.893 215.753 353.727 215.76Z" fill="black"/>
<path d="M365.68 215.76C365.577 215.76 365.476 215.74 365.382 215.702C365.288 215.664 365.203 215.608 365.133 215.539C365.056 215.466 364.995 215.38 364.955 215.285C364.915 215.19 364.895 215.088 364.899 214.986C364.905 214.814 364.954 214.646 365.042 214.495L366.214 212.776H363.818C363.709 212.782 363.6 212.765 363.499 212.727C363.397 212.688 363.306 212.63 363.232 212.554C363.09 212.411 363.011 212.223 363.011 212.026C363.011 211.83 363.09 211.642 363.232 211.498C363.306 211.423 363.397 211.364 363.499 211.326C363.6 211.288 363.709 211.271 363.818 211.277L366.174 211.339L365.068 209.681C364.963 209.517 364.905 209.331 364.899 209.141C364.895 209.04 364.913 208.94 364.951 208.846C364.99 208.753 365.048 208.667 365.122 208.595C365.196 208.523 365.285 208.465 365.383 208.426C365.481 208.387 365.586 208.367 365.693 208.367C365.838 208.365 365.982 208.403 366.104 208.478C366.227 208.552 366.324 208.659 366.383 208.785L367.529 210.712L368.622 208.87C368.691 208.727 368.8 208.604 368.938 208.516C369.076 208.427 369.237 208.375 369.403 208.367C369.506 208.364 369.608 208.382 369.703 208.42C369.797 208.458 369.882 208.516 369.95 208.588C370.027 208.656 370.087 208.737 370.127 208.828C370.168 208.919 370.187 209.017 370.185 209.116C370.183 209.29 370.129 209.461 370.028 209.607L368.883 211.339L371.265 211.277C371.376 211.271 371.487 211.288 371.59 211.326C371.694 211.364 371.787 211.423 371.864 211.498C371.998 211.645 372.072 211.833 372.072 212.026C372.072 212.22 371.998 212.408 371.864 212.554C371.787 212.63 371.694 212.689 371.59 212.727C371.487 212.765 371.376 212.782 371.265 212.776H368.857L369.924 214.347C370.045 214.537 370.112 214.753 370.119 214.974C370.123 215.07 370.106 215.167 370.07 215.258C370.034 215.348 369.979 215.431 369.909 215.502C369.839 215.573 369.755 215.63 369.661 215.67C369.568 215.71 369.467 215.732 369.364 215.735C369.203 215.731 369.046 215.684 368.913 215.599C368.779 215.515 368.674 215.395 368.609 215.256L367.529 213.451L366.448 215.256C366.384 215.4 366.277 215.524 366.141 215.613C366.005 215.702 365.845 215.753 365.68 215.76Z" fill="black"/>
<path d="M377.58 215.76C377.478 215.76 377.376 215.74 377.282 215.702C377.188 215.664 377.104 215.608 377.033 215.539C376.956 215.466 376.896 215.38 376.855 215.285C376.815 215.19 376.796 215.088 376.799 214.986C376.805 214.814 376.854 214.646 376.942 214.495L378.114 212.776H375.718C375.609 212.782 375.5 212.765 375.399 212.727C375.298 212.688 375.207 212.63 375.132 212.554C374.99 212.411 374.911 212.223 374.911 212.026C374.911 211.83 374.99 211.642 375.132 211.498C375.207 211.423 375.298 211.364 375.399 211.326C375.5 211.288 375.609 211.271 375.718 211.277L378.075 211.339L376.968 209.681C376.864 209.517 376.805 209.331 376.799 209.141C376.796 209.038 376.815 208.937 376.855 208.841C376.896 208.746 376.956 208.66 377.033 208.588C377.106 208.518 377.193 208.462 377.289 208.424C377.386 208.386 377.489 208.367 377.593 208.367C377.739 208.365 377.882 208.403 378.005 208.478C378.127 208.552 378.224 208.659 378.283 208.785L379.429 210.712L380.523 208.87C380.591 208.727 380.701 208.604 380.838 208.516C380.976 208.427 381.137 208.375 381.304 208.367C381.406 208.364 381.509 208.382 381.603 208.42C381.698 208.458 381.782 208.516 381.851 208.588C381.927 208.656 381.987 208.737 382.028 208.828C382.068 208.919 382.087 209.017 382.085 209.116C382.083 209.29 382.029 209.461 381.929 209.607L380.783 211.339L383.166 211.277C383.276 211.271 383.387 211.288 383.491 211.326C383.594 211.364 383.688 211.423 383.764 211.498C383.898 211.645 383.972 211.833 383.972 212.026C383.972 212.22 383.898 212.408 383.764 212.554C383.688 212.63 383.594 212.689 383.491 212.727C383.387 212.765 383.276 212.782 383.166 212.776H380.757L381.825 214.347C381.945 214.537 382.012 214.753 382.02 214.974C382.024 215.073 382.006 215.172 381.968 215.265C381.93 215.358 381.872 215.443 381.798 215.514C381.73 215.583 381.647 215.638 381.556 215.676C381.464 215.714 381.365 215.734 381.265 215.735C381.103 215.731 380.947 215.684 380.813 215.599C380.679 215.515 380.574 215.395 380.509 215.256L379.429 213.451L378.348 215.256C378.284 215.4 378.178 215.524 378.042 215.613C377.906 215.702 377.745 215.753 377.58 215.76Z" fill="black"/>
<path d="M418.541 242.923H434.464" stroke="white" stroke-width="3" stroke-linecap="round" stroke-linejoin="round"/>
<path d="M197.683 132.342V232.092C197.683 234.981 198.899 237.751 201.065 239.794C203.231 241.837 206.168 242.984 209.231 242.984H403.425" stroke="white" stroke-width="3" stroke-linecap="round" stroke-linejoin="round"/>
<path d="M197.683 105.89V120.847" stroke="white" stroke-width="3" stroke-linecap="round" stroke-linejoin="round"/>
</svg>
