<svg width="1060" height="706" viewBox="0 0 1060 706" fill="none" xmlns="http://www.w3.org/2000/svg">
<path d="M1060 0H0V706H1060V0Z" fill="white"/>
<path d="M747.102 347.888C747.102 348.966 746.782 350.02 746.183 350.916C745.583 351.813 744.731 352.511 743.735 352.924C742.738 353.336 741.641 353.444 740.582 353.234C739.524 353.024 738.552 352.505 737.789 351.742C737.026 350.98 736.507 350.009 736.296 348.952C736.086 347.894 736.194 346.798 736.607 345.803C737.02 344.807 737.719 343.955 738.616 343.357C739.513 342.758 740.568 342.438 741.647 342.438C742.363 342.438 743.073 342.579 743.735 342.853C744.396 343.127 744.998 343.528 745.504 344.034C746.011 344.54 746.413 345.141 746.687 345.803C746.961 346.464 747.102 347.173 747.102 347.888ZM744.403 347.888C744.389 347.35 744.217 346.828 743.909 346.386C743.601 345.944 743.17 345.602 742.669 345.403C742.169 345.203 741.62 345.154 741.092 345.263C740.565 345.371 740.08 345.632 739.699 346.013C739.318 346.394 739.057 346.878 738.948 347.405C738.84 347.933 738.888 348.48 739.088 348.98C739.288 349.481 739.63 349.911 740.072 350.219C740.514 350.527 741.037 350.698 741.576 350.712C741.951 350.724 742.323 350.659 742.672 350.521C743.02 350.384 743.336 350.176 743.601 349.911C743.866 349.647 744.074 349.331 744.212 348.983C744.35 348.635 744.415 348.262 744.403 347.888Z" fill="#FF4F00" fill-opacity="0.9"/>
<path d="M838.743 148.472H807.876C807.664 148.406 807.44 148.391 807.222 148.428C807.004 148.465 806.797 148.552 806.619 148.683C806.44 148.815 806.295 148.986 806.195 149.183C806.095 149.381 806.043 149.599 806.043 149.82C806.043 150.041 806.095 150.26 806.195 150.457C806.295 150.655 806.44 150.826 806.619 150.957C806.797 151.088 807.004 151.176 807.222 151.213C807.44 151.249 807.664 151.234 807.876 151.169H838.743C838.955 151.234 839.179 151.249 839.397 151.213C839.615 151.176 839.822 151.088 840.001 150.957C840.179 150.826 840.324 150.655 840.424 150.457C840.524 150.26 840.576 150.041 840.576 149.82C840.576 149.599 840.524 149.381 840.424 149.183C840.324 148.986 840.179 148.815 840.001 148.683C839.822 148.552 839.615 148.465 839.397 148.428C839.179 148.391 838.955 148.406 838.743 148.472Z" fill="#FF4F00" fill-opacity="0.9"/>
<path d="M798.039 148.458H792.004C791.71 148.543 791.452 148.722 791.269 148.966C791.086 149.21 790.986 149.508 790.986 149.813C790.986 150.119 791.086 150.416 791.269 150.66C791.452 150.905 791.71 151.083 792.004 151.169H798.039C798.25 151.23 798.472 151.242 798.688 151.202C798.903 151.163 799.107 151.074 799.283 150.943C799.458 150.811 799.601 150.641 799.699 150.445C799.797 150.249 799.848 150.032 799.848 149.813C799.848 149.594 799.797 149.378 799.699 149.182C799.601 148.986 799.458 148.815 799.283 148.684C799.107 148.552 798.903 148.463 798.688 148.424C798.472 148.385 798.25 148.396 798.039 148.458Z" fill="#FF4F00" fill-opacity="0.9"/>
<path d="M824.242 159.217C824.242 159.592 824.094 159.951 823.828 160.215C823.563 160.48 823.204 160.629 822.829 160.629H819.027C818.734 160.543 818.476 160.365 818.292 160.121C818.109 159.876 818.01 159.579 818.01 159.274C818.01 158.968 818.109 158.671 818.292 158.426C818.476 158.182 818.734 158.004 819.027 157.918H822.886C823.232 157.931 823.561 158.07 823.811 158.31C824.062 158.549 824.215 158.872 824.242 159.217ZM813.628 159.217C813.628 159.592 813.479 159.951 813.214 160.215C812.949 160.48 812.59 160.629 812.215 160.629H805.459C805.166 160.543 804.908 160.365 804.724 160.121C804.541 159.876 804.442 159.579 804.442 159.274C804.442 158.968 804.541 158.671 804.724 158.426C804.908 158.182 805.166 158.004 805.459 157.918H812.215C812.571 157.917 812.914 158.05 813.176 158.291C813.438 158.532 813.6 158.862 813.628 159.217ZM800.117 159.217C800.117 159.592 799.968 159.951 799.703 160.215C799.438 160.48 799.078 160.629 798.704 160.629H791.962C791.668 160.543 791.411 160.365 791.227 160.121C791.044 159.876 790.944 159.579 790.944 159.274C790.944 158.968 791.044 158.671 791.227 158.426C791.411 158.182 791.668 158.004 791.962 157.918H798.704C799.06 157.917 799.403 158.05 799.665 158.291C799.927 158.532 800.088 158.862 800.117 159.217Z" fill="#FF4F00" fill-opacity="0.9"/>
<path d="M337.787 238.628C337.425 238.646 337.083 238.803 336.833 239.066C336.583 239.329 336.444 239.677 336.444 240.04V243.16C336.379 243.372 336.364 243.596 336.4 243.814C336.437 244.032 336.525 244.238 336.656 244.417C336.788 244.595 336.959 244.74 337.157 244.839C337.354 244.939 337.573 244.991 337.794 244.991C338.016 244.991 338.234 244.939 338.432 244.839C338.629 244.74 338.801 244.595 338.932 244.417C339.063 244.238 339.151 244.032 339.188 243.814C339.225 243.596 339.21 243.372 339.144 243.16V240.04C339.144 239.675 339.003 239.324 338.75 239.061C338.497 238.798 338.152 238.643 337.787 238.628Z" fill="#FF4F00" fill-opacity="0.9"/>
<path d="M334.254 235.55H331.116C330.828 235.639 330.576 235.818 330.397 236.061C330.219 236.303 330.122 236.597 330.122 236.898C330.122 237.199 330.219 237.493 330.397 237.735C330.576 237.978 330.828 238.157 331.116 238.247H334.254C334.465 238.312 334.689 238.327 334.908 238.29C335.126 238.254 335.333 238.166 335.511 238.035C335.69 237.904 335.834 237.733 335.934 237.535C336.034 237.338 336.086 237.119 336.086 236.898C336.086 236.677 336.034 236.459 335.934 236.261C335.834 236.064 335.69 235.892 335.511 235.761C335.333 235.63 335.126 235.542 334.908 235.506C334.689 235.469 334.465 235.484 334.254 235.55Z" fill="#FF4F00" fill-opacity="0.9"/>
<path d="M337.787 229.055C337.425 229.073 337.083 229.23 336.833 229.492C336.583 229.755 336.444 230.104 336.444 230.467V233.587C336.379 233.798 336.364 234.022 336.4 234.24C336.437 234.459 336.525 234.665 336.656 234.843C336.788 235.022 336.959 235.166 337.157 235.266C337.354 235.366 337.573 235.418 337.794 235.418C338.016 235.418 338.234 235.366 338.432 235.266C338.629 235.166 338.801 235.022 338.932 234.843C339.063 234.665 339.151 234.459 339.188 234.24C339.225 234.022 339.21 233.798 339.144 233.587V230.467C339.144 230.102 339.003 229.751 338.75 229.488C338.497 229.224 338.152 229.069 337.787 229.055Z" fill="#FF4F00" fill-opacity="0.9"/>
<path d="M344.458 235.324H341.32C341.027 235.409 340.769 235.588 340.585 235.832C340.402 236.076 340.303 236.374 340.303 236.679C340.303 236.985 340.402 237.282 340.585 237.526C340.769 237.771 341.027 237.949 341.32 238.035H344.458C344.752 237.949 345.009 237.771 345.193 237.526C345.376 237.282 345.476 236.985 345.476 236.679C345.476 236.374 345.376 236.076 345.193 235.832C345.009 235.588 344.752 235.409 344.458 235.324Z" fill="#FF4F00" fill-opacity="0.9"/>
<path d="M677.552 151.197C677.369 151.195 677.188 151.23 677.019 151.301C676.851 151.372 676.698 151.477 676.572 151.61C676.446 151.742 676.349 151.9 676.287 152.072C676.224 152.243 676.198 152.426 676.21 152.609V155.744C676.299 156.031 676.478 156.283 676.721 156.462C676.964 156.64 677.258 156.737 677.559 156.737C677.861 156.737 678.155 156.64 678.398 156.462C678.64 156.283 678.82 156.031 678.909 155.744V152.496C678.882 152.151 678.728 151.828 678.478 151.588C678.228 151.349 677.899 151.21 677.552 151.197Z" fill="#FF4F00" fill-opacity="0.9"/>
<path d="M674.019 148.048H670.881C670.593 148.138 670.341 148.317 670.163 148.559C669.984 148.802 669.887 149.095 669.887 149.397C669.887 149.698 669.984 149.991 670.163 150.234C670.341 150.477 670.593 150.656 670.881 150.745H674.019C674.231 150.811 674.455 150.826 674.673 150.789C674.891 150.752 675.098 150.665 675.276 150.534C675.455 150.402 675.6 150.231 675.7 150.034C675.8 149.836 675.852 149.618 675.852 149.397C675.852 149.175 675.8 148.957 675.7 148.76C675.6 148.562 675.455 148.391 675.276 148.26C675.098 148.128 674.891 148.041 674.673 148.004C674.455 147.967 674.231 147.983 674.019 148.048Z" fill="#FF4F00" fill-opacity="0.9"/>
<path d="M677.552 141.567C677.202 141.584 676.87 141.731 676.622 141.979C676.374 142.227 676.227 142.558 676.21 142.908V146.043C676.144 146.254 676.129 146.478 676.166 146.696C676.202 146.914 676.29 147.121 676.421 147.299C676.553 147.477 676.724 147.622 676.922 147.722C677.119 147.822 677.338 147.874 677.559 147.874C677.781 147.874 677.999 147.822 678.197 147.722C678.394 147.622 678.566 147.477 678.697 147.299C678.829 147.121 678.916 146.914 678.953 146.696C678.99 146.478 678.975 146.254 678.909 146.043V142.908C678.892 142.556 678.743 142.222 678.491 141.974C678.24 141.726 677.905 141.581 677.552 141.567Z" fill="#FF4F00" fill-opacity="0.9"/>
<path d="M684.223 147.836H681.085C680.797 147.926 680.546 148.105 680.367 148.347C680.188 148.59 680.091 148.883 680.091 149.185C680.091 149.486 680.188 149.779 680.367 150.022C680.546 150.265 680.797 150.444 681.085 150.533H684.223C684.435 150.599 684.659 150.614 684.877 150.577C685.095 150.54 685.302 150.453 685.48 150.322C685.659 150.19 685.804 150.019 685.904 149.822C686.004 149.624 686.056 149.406 686.056 149.185C686.056 148.963 686.004 148.745 685.904 148.548C685.804 148.35 685.659 148.179 685.48 148.048C685.302 147.917 685.095 147.829 684.877 147.792C684.659 147.756 684.435 147.771 684.223 147.836Z" fill="#FF4F00" fill-opacity="0.9"/>
<path d="M551.624 84.1551H520.743C520.533 84.0937 520.31 84.0822 520.095 84.1214C519.879 84.1606 519.675 84.2495 519.499 84.381C519.324 84.5126 519.181 84.6831 519.083 84.8792C518.985 85.0752 518.934 85.2914 518.934 85.5106C518.934 85.7298 518.985 85.946 519.083 86.1421C519.181 86.3382 519.324 86.5087 519.499 86.6402C519.675 86.7718 519.879 86.8606 520.095 86.8999C520.31 86.9391 520.533 86.9275 520.743 86.8662H551.624C551.918 86.7806 552.176 86.6022 552.359 86.3578C552.543 86.1134 552.642 85.8162 552.642 85.5106C552.642 85.2051 552.543 84.9078 552.359 84.6634C552.176 84.419 551.918 84.2407 551.624 84.1551Z" fill="#FF4F00" fill-opacity="0.9"/>
<path d="M510.92 84.1551H504.885C504.674 84.0895 504.45 84.0744 504.231 84.1112C504.013 84.1479 503.806 84.2354 503.628 84.3667C503.45 84.4979 503.305 84.6691 503.205 84.8666C503.105 85.0641 503.053 85.2823 503.053 85.5036C503.053 85.7248 503.105 85.943 503.205 86.1405C503.305 86.338 503.45 86.5092 503.628 86.6405C503.806 86.7717 504.013 86.8592 504.231 86.8959C504.45 86.9327 504.674 86.9176 504.885 86.852H510.92C511.208 86.7626 511.46 86.5835 511.639 86.3409C511.818 86.0983 511.914 85.8049 511.914 85.5036C511.914 85.2022 511.818 84.9088 511.639 84.6662C511.46 84.4236 511.208 84.2445 510.92 84.1551Z" fill="#FF4F00" fill-opacity="0.9"/>
<path d="M537.067 94.9144C537.067 95.277 536.928 95.6258 536.678 95.8887C536.428 96.1515 536.087 96.3083 535.724 96.3264H531.852C531.564 96.237 531.312 96.0579 531.133 95.8153C530.954 95.5727 530.857 95.2793 530.857 94.9779C530.857 94.6766 530.954 94.3832 531.133 94.1406C531.312 93.8979 531.564 93.7188 531.852 93.6295H535.724C536.066 93.6452 536.39 93.784 536.637 94.0203C536.884 94.2566 537.036 94.5742 537.067 94.9144ZM526.453 94.9144C526.453 95.277 526.314 95.6258 526.064 95.8887C525.814 96.1515 525.472 96.3083 525.11 96.3264H518.354C518.143 96.392 517.919 96.4071 517.7 96.3703C517.482 96.3336 517.275 96.2461 517.097 96.1148C516.919 95.9836 516.774 95.8124 516.674 95.6149C516.574 95.4174 516.522 95.1992 516.522 94.9779C516.522 94.7567 516.574 94.5385 516.674 94.341C516.774 94.1435 516.919 93.9722 517.097 93.841C517.275 93.7098 517.482 93.6223 517.7 93.5855C517.919 93.5488 518.143 93.5638 518.354 93.6295H525.11C525.459 93.635 525.793 93.7694 526.049 94.0066C526.305 94.2438 526.464 94.5672 526.495 94.9144H526.453ZM512.941 94.9144C512.942 95.277 512.802 95.6258 512.553 95.8887C512.303 96.1515 511.961 96.3083 511.599 96.3264H504.843C504.631 96.392 504.407 96.4071 504.189 96.3703C503.971 96.3336 503.764 96.2461 503.585 96.1148C503.407 95.9836 503.262 95.8124 503.162 95.6149C503.062 95.4174 503.01 95.1992 503.01 94.9779C503.01 94.7567 503.062 94.5385 503.162 94.341C503.262 94.1435 503.407 93.9722 503.585 93.841C503.764 93.7098 503.971 93.6223 504.189 93.5855C504.407 93.5488 504.631 93.5638 504.843 93.6295H511.627C511.981 93.628 512.322 93.7592 512.584 93.9971C512.845 94.235 513.008 94.5623 513.04 94.9144H512.941Z" fill="#FF4F00" fill-opacity="0.9"/>
<path d="M883.518 225.539C883.515 226.484 883.793 227.409 884.317 228.195C884.841 228.982 885.587 229.596 886.46 229.959C887.333 230.322 888.295 230.418 889.223 230.234C890.151 230.051 891.004 229.596 891.672 228.928C892.341 228.259 892.797 227.408 892.98 226.48C893.164 225.553 893.069 224.593 892.705 223.72C892.342 222.847 891.727 222.102 890.94 221.579C890.152 221.055 889.226 220.778 888.28 220.78C887.017 220.78 885.806 221.282 884.913 222.174C884.019 223.066 883.518 224.277 883.518 225.539Z" fill="#FF4F00" fill-opacity="0.9"/>
<path d="M258.217 459.027H289.098C289.386 458.938 289.638 458.759 289.817 458.516C289.996 458.273 290.092 457.98 290.092 457.679C290.092 457.377 289.996 457.084 289.817 456.841C289.638 456.599 289.386 456.419 289.098 456.33H258.217C257.929 456.419 257.677 456.599 257.498 456.841C257.319 457.084 257.223 457.377 257.223 457.679C257.223 457.98 257.319 458.273 257.498 458.516C257.677 458.759 257.929 458.938 258.217 459.027Z" fill="#FF4F00" fill-opacity="0.9"/>
<path d="M242.359 459.041H248.394C248.682 458.952 248.934 458.773 249.113 458.53C249.291 458.287 249.388 457.994 249.388 457.693C249.388 457.391 249.291 457.098 249.113 456.855C248.934 456.613 248.682 456.434 248.394 456.344H242.359C242.147 456.279 241.923 456.264 241.705 456.3C241.487 456.337 241.28 456.425 241.102 456.556C240.923 456.687 240.778 456.858 240.678 457.056C240.578 457.253 240.526 457.471 240.526 457.693C240.526 457.914 240.578 458.132 240.678 458.33C240.778 458.527 240.923 458.698 241.102 458.83C241.28 458.961 241.487 459.048 241.705 459.085C241.923 459.122 242.147 459.107 242.359 459.041Z" fill="#FF4F00" fill-opacity="0.9"/>
<path d="M841.655 480.984C841.655 480.984 843.492 494.129 828.129 493.819C828.129 493.819 841.33 493.96 840.976 506.287C840.976 506.287 842.163 496.586 854.29 494.412C854.29 494.412 844.043 496.77 841.655 480.984Z" fill="#FF4F00" fill-opacity="0.9"/>
<path d="M915.035 295.56C915.035 295.56 916.872 308.706 901.509 308.409C901.509 308.409 914.71 308.536 914.356 320.877C914.356 320.877 915.544 311.177 927.656 309.002C927.656 309.002 917.423 311.346 915.035 295.56Z" fill="#FF4F00" fill-opacity="0.9"/>
<path d="M427.562 117.591C427.562 117.591 429.413 130.737 414.036 130.426C414.036 130.426 427.237 130.568 426.897 142.908C426.897 142.908 428.085 133.194 440.197 131.034C440.197 131.034 429.964 133.377 427.562 117.591Z" fill="#FF4F00" fill-opacity="0.9"/>
<path d="M295.26 153.908C295.26 153.908 297.097 167.054 281.734 166.757C281.734 166.757 294.935 166.884 294.596 179.225C294.596 179.225 295.783 169.511 307.895 167.35C307.895 167.336 297.649 169.68 295.26 153.908Z" fill="#FF4F00" fill-opacity="0.9"/>
<path d="M375.452 97.7102C375.452 97.7102 376.088 102.285 370.731 102.186C370.731 102.186 375.339 102.186 375.212 106.535C375.44 105.441 376.013 104.448 376.847 103.704C377.682 102.959 378.733 102.501 379.847 102.398C379.847 102.398 376.286 103.217 375.452 97.7102Z" fill="#FF4F00" fill-opacity="0.9"/>
<path d="M616.129 255.671C616.129 255.671 616.765 260.246 611.422 260.147C611.422 260.147 616.016 260.147 615.889 264.496C616.117 263.399 616.693 262.405 617.53 261.66C618.367 260.915 619.422 260.459 620.539 260.359C620.539 260.359 616.963 261.22 616.129 255.671Z" fill="#FF4F00" fill-opacity="0.9"/>
<path d="M170.194 333.98C170.194 333.98 170.83 338.569 165.474 338.456C165.474 338.456 170.081 338.456 169.954 342.805C170.18 341.71 170.753 340.716 171.587 339.971C172.422 339.226 173.475 338.769 174.59 338.668C174.59 338.668 171.014 339.487 170.194 333.98Z" fill="#FF4F00" fill-opacity="0.9"/>
<path d="M570.365 457.488C570.365 457.488 571.015 462.077 565.659 461.964C565.659 461.964 570.252 461.964 570.139 466.313C570.365 465.217 570.938 464.224 571.772 463.479C572.607 462.734 573.66 462.277 574.775 462.176C574.775 462.176 571.199 463.009 570.365 457.488Z" fill="#FF4F00" fill-opacity="0.9"/>
<path d="M388.271 383.654H358.294C356.45 383.684 354.669 382.981 353.344 381.699C352.019 380.418 351.257 378.663 351.227 376.82C351.197 374.978 351.901 373.199 353.184 371.875C354.467 370.551 356.224 369.79 358.068 369.76C358.117 367.462 358.902 365.24 360.307 363.42C361.713 361.6 363.664 360.278 365.877 359.646C368.089 359.015 370.445 359.108 372.601 359.911C374.756 360.715 376.597 362.187 377.855 364.112C379.741 363.837 381.664 364.258 383.262 365.298C384.86 366.338 386.023 367.925 386.533 369.76H388.285C390.129 369.76 391.898 370.492 393.202 371.795C394.506 373.098 395.239 374.865 395.239 376.707C395.239 378.55 394.506 380.317 393.202 381.62C391.898 382.922 390.129 383.654 388.285 383.654H388.271ZM358.294 371.822C357.629 371.786 356.963 371.886 356.338 372.116C355.713 372.346 355.141 372.7 354.657 373.158C354.174 373.616 353.789 374.167 353.526 374.779C353.262 375.39 353.127 376.049 353.127 376.714C353.127 377.38 353.262 378.039 353.526 378.65C353.789 379.261 354.174 379.813 354.657 380.271C355.141 380.729 355.713 381.083 356.338 381.313C356.963 381.543 357.629 381.643 358.294 381.607H388.271C389.524 381.54 390.704 380.995 391.567 380.085C392.431 379.175 392.912 377.968 392.912 376.714C392.912 375.46 392.431 374.254 391.567 373.344C390.704 372.434 389.524 371.889 388.271 371.822H384.808L384.667 370.946C384.549 370.155 384.266 369.398 383.838 368.722C383.41 368.046 382.845 367.467 382.18 367.021C381.514 366.576 380.764 366.275 379.975 366.136C379.186 365.997 378.378 366.025 377.6 366.216L376.851 366.4L376.47 365.722C375.534 364.033 374.063 362.703 372.287 361.941C370.512 361.179 368.533 361.029 366.663 361.514C364.793 362 363.137 363.093 361.957 364.621C360.777 366.15 360.14 368.028 360.146 369.958C360.146 370.212 360.146 370.466 360.146 370.72L360.245 371.836L358.294 371.822Z" fill="#FF4F00" fill-opacity="0.9"/>
<path d="M923.133 130.172H893.227C891.383 130.202 889.602 129.499 888.277 128.217C886.951 126.936 886.19 125.181 886.16 123.338C886.13 121.496 886.834 119.717 888.117 118.393C889.4 117.069 891.156 116.308 893.001 116.278C893.04 113.975 893.82 111.746 895.224 109.919C896.628 108.092 898.583 106.764 900.8 106.131C903.017 105.498 905.378 105.594 907.537 106.404C909.695 107.214 911.536 108.696 912.787 110.63C914.674 110.351 916.599 110.772 918.197 111.812C919.795 112.852 920.958 114.441 921.465 116.278H923.218C925.062 116.278 926.831 117.01 928.135 118.313C929.439 119.616 930.171 121.383 930.171 123.225C930.171 125.068 929.439 126.835 928.135 128.137C926.831 129.44 925.062 130.172 923.218 130.172H923.133ZM893.227 118.325C892.562 118.29 891.896 118.39 891.271 118.62C890.645 118.849 890.074 119.204 889.59 119.662C889.107 120.12 888.721 120.671 888.458 121.282C888.195 121.894 888.059 122.552 888.059 123.218C888.059 123.884 888.195 124.542 888.458 125.154C888.721 125.765 889.107 126.317 889.59 126.774C890.074 127.232 890.645 127.587 891.271 127.817C891.896 128.046 892.562 128.146 893.227 128.111H923.204C924.457 128.043 925.637 127.499 926.5 126.588C927.363 125.678 927.845 124.472 927.845 123.218C927.845 121.964 927.363 120.758 926.5 119.848C925.637 118.938 924.457 118.393 923.204 118.325H919.741L919.599 117.464C919.481 116.673 919.199 115.915 918.77 115.239C918.342 114.564 917.777 113.984 917.112 113.539C916.447 113.094 915.696 112.792 914.908 112.654C914.119 112.515 913.31 112.542 912.533 112.734L911.784 112.903L911.402 112.226C910.459 110.548 908.987 109.229 907.215 108.475C905.442 107.721 903.47 107.575 901.606 108.058C899.742 108.542 898.09 109.629 896.909 111.149C895.729 112.669 895.085 114.537 895.078 116.462C895.078 116.716 895.078 116.97 895.078 117.21L895.177 118.325H893.227Z" fill="#FF4F00" fill-opacity="0.9"/>
<path d="M458.895 206.646H428.919C428.006 206.661 427.098 206.496 426.249 206.16C425.4 205.825 424.625 205.326 423.969 204.691C423.312 204.057 422.788 203.299 422.425 202.462C422.061 201.625 421.867 200.724 421.852 199.812C421.837 198.9 422.002 197.993 422.338 197.145C422.674 196.296 423.173 195.522 423.809 194.867C424.444 194.211 425.202 193.687 426.04 193.324C426.878 192.961 427.779 192.767 428.693 192.752C428.742 190.454 429.527 188.232 430.932 186.412C432.337 184.592 434.289 183.269 436.501 182.638C438.713 182.006 441.07 182.099 443.225 182.903C445.381 183.707 447.222 185.179 448.479 187.104C450.365 186.826 452.287 187.247 453.883 188.287C455.479 189.328 456.639 190.916 457.143 192.752H458.895C460.74 192.752 462.508 193.484 463.812 194.787C465.116 196.09 465.849 197.857 465.849 199.699C465.849 201.541 465.116 203.309 463.812 204.611C462.508 205.914 460.74 206.646 458.895 206.646ZM428.919 194.856C428.253 194.82 427.588 194.92 426.963 195.15C426.337 195.38 425.765 195.734 425.282 196.192C424.798 196.65 424.413 197.201 424.15 197.813C423.887 198.424 423.751 199.083 423.751 199.748C423.751 200.414 423.887 201.073 424.15 201.684C424.413 202.295 424.798 202.847 425.282 203.305C425.765 203.763 426.337 204.117 426.963 204.347C427.588 204.577 428.253 204.677 428.919 204.641H458.895C459.561 204.677 460.226 204.577 460.852 204.347C461.477 204.117 462.049 203.763 462.532 203.305C463.016 202.847 463.401 202.295 463.664 201.684C463.927 201.073 464.063 200.414 464.063 199.748C464.063 199.083 463.927 198.424 463.664 197.813C463.401 197.201 463.016 196.65 462.532 196.192C462.049 195.734 461.477 195.38 460.852 195.15C460.226 194.92 459.561 194.82 458.895 194.856H455.433L455.306 193.995C455.187 193.203 454.905 192.446 454.477 191.77C454.048 191.094 453.484 190.515 452.818 190.07C452.153 189.624 451.402 189.323 450.614 189.184C449.825 189.045 449.016 189.073 448.239 189.264L447.476 189.448L447.094 188.756C446.155 187.074 444.684 185.751 442.912 184.994C441.139 184.237 439.165 184.09 437.3 184.574C435.434 185.059 433.782 186.148 432.603 187.672C431.424 189.195 430.784 191.066 430.784 192.992C430.784 193.246 430.784 193.5 430.784 193.74L430.883 194.856H428.919Z" fill="#FF4F00" fill-opacity="0.9"/>
<path d="M552.797 590.625C546.62 592.36 540.006 591.576 534.407 588.444C528.809 585.312 524.682 580.089 522.934 573.921L503.698 506.046C501.948 499.867 502.727 493.247 505.862 487.641C508.998 482.036 514.233 477.904 520.418 476.154C526.603 474.406 533.229 475.184 538.84 478.316C544.451 481.449 548.587 486.68 550.338 492.858L569.574 560.747C570.439 563.81 570.691 567.012 570.316 570.172C569.941 573.332 568.946 576.387 567.387 579.162C565.829 581.937 563.738 584.378 561.235 586.345C558.731 588.312 555.864 589.767 552.797 590.625Z" fill="#FBD645"/>
<path d="M525.365 590.06C520.775 585.564 518.161 579.431 518.098 573.01C518.034 566.589 520.526 560.405 525.025 555.819L574.492 505.453C576.719 503.184 579.372 501.374 582.299 500.129C585.226 498.883 588.37 498.226 591.551 498.195C594.733 498.163 597.889 498.758 600.84 499.946C603.791 501.133 606.48 502.889 608.751 505.115C611.032 507.338 612.851 509.988 614.105 512.914C615.359 515.84 616.024 518.984 616.061 522.167C616.097 525.35 615.506 528.509 614.319 531.463C613.133 534.417 611.375 537.109 609.147 539.384L559.68 589.75C557.45 592.026 554.793 593.84 551.859 595.088C548.926 596.336 545.775 596.994 542.587 597.023C539.399 597.051 536.237 596.451 533.281 595.257C530.326 594.062 527.636 592.296 525.365 590.06Z" fill="#FBD645"/>
<path d="M623.761 493.325C626.078 496.813 627.308 500.909 627.296 505.095C627.284 509.281 626.031 513.37 623.694 516.845C621.358 520.32 618.043 523.025 614.168 524.619C610.294 526.213 606.033 526.625 601.925 525.801C597.817 524.977 594.045 522.956 591.086 519.992C588.127 517.028 586.113 513.254 585.299 509.148C584.486 505.041 584.909 500.786 586.514 496.919C588.12 493.052 590.837 489.748 594.321 487.422C596.641 485.875 599.243 484.799 601.98 484.258C604.716 483.717 607.532 483.721 610.267 484.269C613.002 484.817 615.602 485.899 617.917 487.453C620.233 489.007 622.219 491.002 623.761 493.325Z" fill="#FF8383"/>
<path d="M591.862 502.022C590.441 502.387 588.934 502.174 587.67 501.431C586.407 500.687 585.49 499.473 585.12 498.055L583.241 490.754C583.058 490.051 583.016 489.318 583.118 488.598C583.22 487.878 583.463 487.186 583.833 486.56C584.203 485.934 584.694 485.387 585.276 484.951C585.858 484.515 586.521 484.199 587.226 484.019C588.645 483.655 590.151 483.868 591.412 484.612C592.674 485.356 593.588 486.57 593.954 487.987L595.848 495.287C596.209 496.708 595.992 498.214 595.245 499.476C594.498 500.738 593.282 501.653 591.862 502.022Z" fill="#FF8383"/>
<path d="M613.161 476.889L605.642 495.923C605.078 497.337 603.976 498.471 602.577 499.075C601.178 499.678 599.596 499.702 598.179 499.142C597.479 498.865 596.84 498.452 596.298 497.928C595.757 497.404 595.325 496.779 595.025 496.088C594.726 495.397 594.566 494.654 594.554 493.901C594.543 493.148 594.679 492.401 594.957 491.701L602.476 472.681C602.752 471.98 603.164 471.34 603.688 470.798C604.211 470.256 604.837 469.822 605.529 469.522C606.221 469.221 606.965 469.06 607.719 469.047C608.473 469.035 609.223 469.171 609.924 469.448C610.626 469.723 611.267 470.135 611.809 470.658C612.352 471.182 612.786 471.807 613.087 472.498C613.387 473.189 613.548 473.933 613.561 474.686C613.574 475.439 613.438 476.188 613.161 476.889Z" fill="#FF8383"/>
<path d="M626.418 480.885L617.33 499.241C616.996 499.916 616.532 500.519 615.965 501.014C615.398 501.51 614.739 501.89 614.025 502.131C613.311 502.372 612.556 502.471 611.804 502.421C611.052 502.37 610.317 502.173 609.642 501.839C608.276 501.162 607.235 499.972 606.748 498.529C606.26 497.086 606.366 495.509 607.041 494.143L616.129 475.787C616.463 475.112 616.927 474.51 617.494 474.014C618.061 473.518 618.72 473.138 619.434 472.897C620.148 472.656 620.903 472.558 621.655 472.608C622.407 472.658 623.142 472.856 623.817 473.189C625.183 473.866 626.224 475.057 626.712 476.5C627.199 477.942 627.094 479.52 626.418 480.885Z" fill="#FF8383"/>
<path d="M636.283 491.094L623.563 507.148C622.617 508.341 621.237 509.111 619.724 509.288C618.211 509.466 616.689 509.036 615.493 508.094C614.299 507.149 613.528 505.77 613.351 504.258C613.173 502.747 613.603 501.227 614.546 500.032L627.266 483.977C628.212 482.784 629.592 482.014 631.105 481.837C632.618 481.66 634.14 482.089 635.336 483.031C636.53 483.976 637.301 485.355 637.478 486.867C637.656 488.378 637.226 489.898 636.283 491.094Z" fill="#FF8383"/>
<path d="M484.221 397.863L512.465 398.972L510.745 442.71C510.694 444.026 510.383 445.318 509.831 446.514C509.28 447.71 508.498 448.785 507.53 449.679C506.562 450.572 505.428 451.267 504.192 451.722C502.955 452.178 501.641 452.386 500.324 452.334L492.091 452.011C490.774 451.959 489.481 451.649 488.284 451.098C487.087 450.547 486.011 449.766 485.116 448.799C484.222 447.832 483.527 446.699 483.071 445.464C482.615 444.228 482.406 442.916 482.458 441.6L484.178 397.862L484.221 397.863Z" fill="#FF8383"/>
<path d="M512.489 397.464L484.223 396.348L483.785 407.447C483.361 418.319 492.265 427.864 503.091 427.088C503.769 427.031 504.447 426.946 505.126 426.833C507.348 426.425 509.484 425.642 511.443 424.518L512.489 397.464Z" fill="#D15E79"/>
<path d="M501.977 394.291C520.723 388.991 532.609 373.003 528.524 358.581C524.44 344.159 505.931 336.764 487.184 342.064C468.437 347.364 456.552 363.351 460.637 377.773C464.721 392.195 483.23 399.59 501.977 394.291Z" fill="#032535"/>
<path d="M519.886 386.95C536.946 384.055 549.248 372.714 547.362 361.62C545.475 350.526 530.116 343.88 513.055 346.775C495.994 349.67 483.693 361.01 485.579 372.104C487.465 383.198 502.825 389.845 519.886 386.95Z" fill="#032535"/>
<path d="M512.882 370.653C525.589 358.918 529.693 342.705 522.047 334.442C514.402 326.179 497.902 328.994 485.195 340.729C472.487 352.465 468.384 368.677 476.029 376.94C483.675 385.204 500.174 382.389 512.882 370.653Z" fill="#032535"/>
<path d="M528.869 390.446C531.696 405.978 523.485 420.536 510.637 422.823C497.776 425.125 485.099 414.351 482.371 398.749L480.18 386.478C477.354 370.946 485.565 356.403 498.412 354.101C511.273 351.814 523.951 362.573 526.679 378.19L528.869 390.446Z" fill="#FF8383"/>
<path d="M501.408 352.252C494.342 345.827 481.919 348.933 473.764 359.199C465.609 369.464 464.761 383.005 471.884 389.43C479.007 395.854 491.36 392.748 499.515 382.483C507.669 372.217 508.517 358.648 501.408 352.252Z" fill="#032535"/>
<path d="M506.101 386.987C505.826 386.988 505.558 386.902 505.335 386.739C505.113 386.577 504.949 386.348 504.867 386.086C504.785 385.824 504.789 385.542 504.879 385.282C504.968 385.023 505.139 384.799 505.366 384.643C506.632 383.806 508.102 383.33 509.618 383.265C511.135 383.2 512.64 383.55 513.973 384.276C514.12 384.361 514.248 384.474 514.351 384.609C514.454 384.744 514.529 384.898 514.572 385.062C514.615 385.226 514.626 385.396 514.603 385.564C514.58 385.732 514.525 385.894 514.439 386.041C514.354 386.187 514.241 386.316 514.106 386.418C513.971 386.521 513.817 386.596 513.653 386.639C513.489 386.683 513.318 386.693 513.15 386.67C512.981 386.648 512.819 386.592 512.673 386.507C511.763 386.025 510.741 385.794 509.713 385.839C508.684 385.883 507.686 386.202 506.822 386.761C506.611 386.911 506.359 386.99 506.101 386.987Z" fill="#86294E"/>
<path d="M528.403 386.987C528.141 386.988 527.885 386.909 527.668 386.761C526.807 386.2 525.811 385.881 524.785 385.836C523.758 385.791 522.738 386.023 521.831 386.507C521.685 386.595 521.523 386.653 521.355 386.677C521.186 386.701 521.014 386.691 520.849 386.647C520.684 386.604 520.53 386.528 520.395 386.424C520.26 386.319 520.148 386.189 520.065 386.041C519.978 385.895 519.921 385.734 519.897 385.567C519.872 385.399 519.881 385.228 519.923 385.064C519.965 384.9 520.04 384.746 520.141 384.611C520.243 384.476 520.371 384.362 520.517 384.276C521.851 383.546 523.359 383.194 524.879 383.259C526.398 383.323 527.871 383.802 529.138 384.643C529.365 384.798 529.536 385.023 529.625 385.282C529.715 385.542 529.719 385.824 529.637 386.086C529.555 386.348 529.391 386.577 529.169 386.739C528.947 386.901 528.678 386.988 528.403 386.987Z" fill="#86294E"/>
<path d="M511.938 390.46C511.937 390.744 511.851 391.021 511.69 391.255C511.529 391.489 511.301 391.669 511.036 391.772C510.771 391.875 510.481 391.895 510.205 391.831C509.928 391.767 509.677 391.621 509.485 391.412C509.292 391.203 509.167 390.941 509.126 390.66C509.085 390.379 509.13 390.092 509.254 389.837C509.379 389.582 509.577 389.37 509.824 389.229C510.071 389.089 510.354 389.026 510.638 389.048C510.993 389.077 511.324 389.238 511.565 389.5C511.806 389.761 511.939 390.105 511.938 390.46Z" fill="#86294E"/>
<path d="M524.87 390.969C524.869 391.252 524.783 391.53 524.622 391.764C524.461 391.998 524.233 392.178 523.968 392.28C523.703 392.383 523.414 392.404 523.137 392.339C522.86 392.275 522.609 392.129 522.417 391.92C522.224 391.711 522.099 391.449 522.058 391.168C522.017 390.887 522.062 390.601 522.186 390.345C522.311 390.09 522.509 389.878 522.756 389.738C523.003 389.597 523.287 389.534 523.57 389.557C523.925 389.585 524.256 389.746 524.497 390.008C524.738 390.27 524.871 390.613 524.87 390.969Z" fill="#86294E"/>
<path d="M528.007 400.344H527.583C524.877 400.288 522.303 399.168 520.418 397.227C518.534 395.285 517.493 392.679 517.521 389.975C517.549 387.271 518.644 384.687 520.568 382.785C522.491 380.883 525.089 379.816 527.795 379.816C530.502 379.816 533.1 380.883 535.023 382.785C536.947 384.687 538.042 387.271 538.07 389.975C538.098 392.679 537.057 395.285 535.173 397.227C533.288 399.168 530.714 400.288 528.007 400.344ZM528.007 380.943C525.73 380.949 523.542 381.833 521.901 383.412C520.26 384.991 519.293 387.141 519.202 389.415C519.157 390.573 519.34 391.727 519.742 392.814C520.144 393.9 520.756 394.897 521.544 395.747C522.331 396.596 523.279 397.283 524.332 397.766C525.386 398.25 526.524 398.521 527.682 398.565C530.019 398.643 532.293 397.801 534.014 396.221C535.299 395.04 536.203 393.503 536.612 391.807C537.02 390.111 536.915 388.332 536.309 386.696C535.703 385.06 534.624 383.641 533.209 382.619C531.793 381.597 530.106 381.019 528.361 380.957L528.007 380.943Z" fill="#FFD2D4"/>
<path d="M505.224 400.754H504.744C502.391 400.66 500.118 399.871 498.213 398.488C496.308 397.104 494.856 395.188 494.041 392.98C493.226 390.773 493.084 388.373 493.633 386.085C494.182 383.797 495.398 381.723 497.126 380.124C498.267 379.054 499.612 378.223 501.081 377.682C502.55 377.141 504.113 376.901 505.677 376.976C508.774 377.124 511.691 378.472 513.809 380.734C515.927 382.996 517.079 385.994 517.021 389.091C516.962 392.188 515.697 395.141 513.494 397.321C511.291 399.501 508.325 400.738 505.224 400.768V400.754ZM505.224 378.967C502.665 378.965 500.205 379.954 498.36 381.726C496.516 383.497 495.43 385.915 495.331 388.469C495.28 389.766 495.485 391.061 495.935 392.279C496.384 393.497 497.07 394.614 497.952 395.567C498.834 396.521 499.895 397.291 501.075 397.834C502.255 398.378 503.53 398.684 504.829 398.735C507.453 398.838 510.01 397.895 511.938 396.114C513.866 394.333 515.008 391.86 515.111 389.239C515.214 386.618 514.27 384.063 512.488 382.136C510.705 380.21 508.23 379.07 505.606 378.967H505.224Z" fill="#FFD2D4"/>
<path d="M515.061 390.714L519.443 390.884C519.688 390.891 519.926 390.802 520.106 390.636C520.286 390.47 520.393 390.239 520.404 389.994C520.411 389.749 520.322 389.511 520.156 389.332C519.989 389.152 519.758 389.045 519.513 389.034L515.132 388.865C515.011 388.861 514.891 388.881 514.778 388.924C514.665 388.966 514.562 389.031 514.474 389.113C514.386 389.196 514.315 389.295 514.266 389.405C514.216 389.515 514.189 389.634 514.185 389.754C514.179 389.875 514.198 389.995 514.239 390.109C514.28 390.222 514.342 390.327 514.424 390.416C514.505 390.505 514.603 390.577 514.713 390.629C514.822 390.68 514.941 390.709 515.061 390.714Z" fill="#FFD2D4"/>
<path d="M523.838 396.913C523.711 398.452 521.93 399.85 519.852 400.048C517.775 400.245 516.178 399.144 516.305 397.605C516.432 396.066 518.227 394.668 520.305 394.47C522.382 394.273 523.965 395.36 523.838 396.913Z" fill="#86294E"/>
<path d="M522.934 405.244C522.79 407.026 521.944 408.678 520.582 409.837C519.22 410.997 517.453 411.569 515.669 411.428C511.797 411.273 509.564 407.447 509.705 403.874C514.162 403.446 518.66 403.912 522.934 405.244Z" fill="#86294E"/>
<path d="M516.263 407.418C513.196 407.065 511.316 406.006 511.132 403.719C514.898 403.499 518.673 403.92 522.298 404.961C521.775 407.037 519.259 407.771 516.263 407.418Z" fill="#FFD2D4"/>
<path d="M507.217 412.798H499.614C496.549 412.795 493.593 411.658 491.317 409.607L486.554 405.371C486.467 405.287 486.398 405.186 486.351 405.074C486.303 404.963 486.279 404.843 486.279 404.722C486.279 404.6 486.303 404.48 486.351 404.369C486.398 404.257 486.467 404.156 486.554 404.072C486.635 403.982 486.733 403.908 486.842 403.856C486.951 403.804 487.069 403.773 487.19 403.767C487.311 403.76 487.432 403.778 487.546 403.818C487.66 403.858 487.765 403.92 487.855 404.001L492.618 408.237C494.553 409.989 497.073 410.955 499.684 410.949H507.288C507.533 410.952 507.767 411.052 507.938 411.226C508.11 411.401 508.207 411.636 508.207 411.88C508.207 412.007 508.181 412.133 508.131 412.249C508.08 412.365 508.006 412.47 507.913 412.556C507.82 412.642 507.71 412.708 507.591 412.75C507.471 412.791 507.344 412.808 507.217 412.798Z" fill="#201028"/>
<path d="M507.218 413.716H504.122C503.867 413.738 503.609 413.707 503.366 413.625C503.123 413.542 502.899 413.41 502.71 413.237C502.521 413.064 502.37 412.853 502.266 412.618C502.163 412.383 502.109 412.13 502.109 411.873C502.109 411.617 502.163 411.363 502.266 411.128C502.37 410.893 502.521 410.683 502.71 410.509C502.899 410.336 503.123 410.204 503.366 410.122C503.609 410.039 503.867 410.008 504.122 410.031H507.203C507.665 410.071 508.094 410.282 508.407 410.624C508.72 410.965 508.893 411.411 508.893 411.873C508.893 412.336 508.72 412.782 508.407 413.123C508.094 413.464 507.665 413.675 507.203 413.716H507.218Z" fill="#FFD2D4"/>
<path d="M496.996 401.031C499.904 393.009 495.753 384.151 487.724 381.246C479.695 378.341 470.829 382.488 467.921 390.51C465.013 398.531 469.164 407.389 477.193 410.294C485.222 413.199 494.088 409.052 496.996 401.031Z" fill="#FFCC05"/>
<path d="M492.23 396.134C492.516 388.856 487.349 382.745 480.688 382.483C474.027 382.222 468.395 387.91 468.109 395.188C467.823 402.466 472.991 408.577 479.651 408.839C486.312 409.1 491.944 403.412 492.23 396.134Z" fill="#FF4F00" fill-opacity="0.9"/>
<path d="M482.074 395.741C481.947 398.692 479.997 401.008 477.707 400.909C475.418 400.81 473.665 398.367 473.778 395.416C473.891 392.465 475.842 390.149 478.131 390.234C480.421 390.319 482.187 392.79 482.074 395.741Z" fill="#E0EEF7"/>
<path d="M519.796 611.396L445.837 613.471C439.916 613.236 434.332 610.662 430.311 606.314C426.291 601.966 424.163 596.201 424.396 590.286L429.06 466.637C429.185 463.482 430.281 460.441 432.198 457.929C434.115 455.418 436.76 453.558 439.773 452.602L494.893 435.051L538.961 456.16C541.671 457.454 543.942 459.513 545.492 462.083C547.042 464.653 547.803 467.621 547.681 470.619L542.989 589.962C542.757 595.876 540.184 601.457 535.835 605.476C531.486 609.496 525.716 611.625 519.796 611.396Z" fill="#FBD645"/>
<path d="M547.695 470.634C547.95 483.525 547.808 496.417 547.596 509.28C547.384 522.144 546.96 535.021 546.508 547.898C546.056 560.776 545.406 573.625 544.558 586.474C544.541 589.826 544.026 593.157 543.031 596.358C541.401 601.101 538.225 605.16 534.013 607.886C529.8 610.612 524.795 611.848 519.796 611.396C522.963 611.341 526.083 610.617 528.95 609.271C531.817 607.925 534.367 605.988 536.431 603.588C538.464 601.274 539.96 598.54 540.812 595.582C541.561 592.564 541.871 589.453 541.731 586.347C541.9 573.47 542.353 560.592 542.819 547.729C543.286 534.866 543.922 522.016 544.77 509.153C545.618 496.29 546.437 483.469 547.695 470.634Z" fill="#6EACCE"/>
<path d="M482.457 427.195L511.695 429.079C512.397 429.124 513.083 429.307 513.714 429.617C514.346 429.928 514.909 430.359 515.374 430.887C515.838 431.415 516.194 432.029 516.421 432.694C516.647 433.359 516.741 434.063 516.696 434.764L515.166 458.465L475.251 455.893L476.779 432.22C476.871 430.804 477.522 429.482 478.589 428.545C479.656 427.608 481.052 427.133 482.47 427.224L482.457 427.195Z" fill="#FBD645"/>
<path d="M396.228 575.164C390.296 572.697 385.586 567.98 383.133 562.047C380.679 556.115 380.682 549.451 383.141 543.521L410.234 478.371C411.454 475.434 413.241 472.766 415.493 470.52C417.745 468.273 420.418 466.491 423.359 465.277C426.3 464.063 429.452 463.44 432.635 463.443C435.818 463.446 438.968 464.076 441.907 465.296C444.846 466.516 447.515 468.302 449.762 470.552C452.01 472.803 453.791 475.474 455.005 478.412C456.219 481.35 456.842 484.499 456.838 487.678C456.833 490.857 456.202 494.004 454.981 496.939L427.901 562.089C425.435 568.018 420.714 572.726 414.774 575.177C408.835 577.629 402.164 577.624 396.228 575.164Z" fill="#FBD645"/>
<path d="M441.908 465.296C446.325 466.767 450.216 469.496 453.101 473.147C456.01 476.932 457.775 481.469 458.189 486.222C458.825 490.967 457.299 496.007 455.56 500.088L450.444 512.669C446.939 521 443.377 529.345 439.632 537.563L433.979 549.904C431.958 553.956 430.05 558.065 427.93 562.089C429.272 557.754 430.855 553.504 432.297 549.212L437.032 536.504C440.197 528.032 443.632 519.644 447.066 511.285L452.366 498.789C453.312 496.834 454.079 494.797 454.656 492.703C455.19 490.648 455.438 488.529 455.391 486.406C455.243 482.003 453.913 477.721 451.541 474.007C449.169 470.294 445.842 467.285 441.908 465.296Z" fill="#6EACCE"/>
<path d="M509.012 541.008L496.66 540.217C494.442 540.054 492.378 539.027 490.91 537.358C489.443 535.689 488.691 533.511 488.816 531.293L489.183 525.744C489.253 524.644 489.54 523.569 490.026 522.58C490.512 521.591 491.189 520.707 492.017 519.98C492.845 519.252 493.809 518.694 494.853 518.339C495.897 517.983 497.001 517.837 498.101 517.908L510.44 518.698L509.012 541.008ZM497.705 523.428C497.33 523.4 496.952 523.446 496.594 523.566C496.237 523.685 495.907 523.875 495.623 524.123C495.34 524.372 495.11 524.675 494.945 525.014C494.781 525.353 494.686 525.721 494.667 526.097L494.299 531.66C494.271 532.037 494.318 532.416 494.438 532.774C494.558 533.132 494.749 533.462 495 533.745C495.25 534.028 495.555 534.258 495.896 534.422C496.237 534.585 496.607 534.678 496.985 534.696L503.797 535.134L504.518 523.838L497.705 523.428Z" fill="#86294E"/>
<path d="M520.998 558.742L510.327 558.051C508.786 557.952 507.28 557.55 505.894 556.869C504.509 556.188 503.271 555.241 502.252 554.082C501.234 552.922 500.454 551.574 499.957 550.113C499.461 548.652 499.258 547.108 499.359 545.568L501.564 511.299C501.819 507.473 535.951 509.675 535.71 513.502L533.492 547.771C533.394 549.312 532.994 550.818 532.313 552.204C531.632 553.59 530.684 554.828 529.524 555.847C528.363 556.867 527.012 557.647 525.549 558.144C524.086 558.64 522.54 558.844 520.998 558.742Z" fill="#D15E79"/>
<path d="M532.304 514.434C532.219 515.846 525.873 516.524 518.171 516.015C510.468 515.507 504.235 513.996 504.334 512.626C504.433 511.257 510.751 510.537 518.467 511.031C526.184 511.525 532.389 513.05 532.304 514.434Z" fill="#86294E"/>
<path d="M382.802 553.391C382.852 550.213 383.528 547.075 384.791 544.158C386.055 541.241 387.881 538.601 390.166 536.388C392.451 534.176 395.15 532.436 398.108 531.266C401.067 530.096 404.227 529.52 407.408 529.57L478.075 530.686C481.256 530.736 484.396 531.411 487.316 532.673C490.236 533.936 492.879 535.76 495.093 538.043C497.307 540.326 499.049 543.022 500.22 545.978C501.391 548.933 501.968 552.091 501.918 555.269C501.868 558.447 501.192 561.585 499.928 564.502C498.665 567.419 496.838 570.059 494.553 572.271C492.268 574.483 489.57 576.224 486.611 577.394C483.653 578.564 480.493 579.14 477.311 579.089L406.645 577.974C403.463 577.924 400.323 577.249 397.403 575.987C394.483 574.724 391.84 572.899 389.626 570.617C387.412 568.334 385.67 565.638 384.499 562.682C383.328 559.726 382.751 556.569 382.802 553.391Z" fill="#FBD645"/>
<path d="M407.408 529.57C416.481 528.949 425.541 528.737 434.6 528.582C443.66 528.427 452.719 528.483 461.764 528.582L475.347 528.893C479.784 528.893 485.028 529.528 489.127 531.999C493.328 534.276 496.79 537.706 499.105 541.883C501.316 545.979 502.275 550.634 501.861 555.269C501.596 550.878 500.157 546.638 497.693 542.992C495.23 539.346 491.832 536.428 487.855 534.541C485.925 533.66 483.886 533.042 481.791 532.705C479.639 532.401 477.463 532.292 475.29 532.38L461.708 532.267C452.648 532.084 443.603 531.886 434.558 531.406C425.512 530.926 416.453 530.474 407.408 529.57Z" fill="#6EACCE"/>
<path d="M521.428 563.456C528.914 554.441 527.668 541.071 518.645 533.592C509.621 526.113 496.238 527.358 488.753 536.373C481.267 545.388 482.513 558.758 491.536 566.237C500.559 573.715 513.942 572.47 521.428 563.456Z" fill="#FF8383"/>
<path d="M494.116 539.821C493.485 539.604 492.904 539.265 492.405 538.822C491.906 538.38 491.499 537.844 491.208 537.245C490.916 536.646 490.746 535.995 490.707 535.33C490.667 534.665 490.759 533.998 490.978 533.369L493.239 526.831C493.457 526.201 493.797 525.621 494.239 525.122C494.682 524.624 495.218 524.217 495.818 523.926C496.418 523.635 497.07 523.465 497.735 523.425C498.401 523.386 499.068 523.478 499.698 523.696C500.329 523.914 500.91 524.253 501.409 524.696C501.908 525.138 502.315 525.674 502.606 526.273C502.898 526.872 503.068 527.523 503.107 528.188C503.147 528.853 503.054 529.52 502.836 530.149L500.575 536.673C500.135 537.945 499.208 538.991 497.997 539.581C496.786 540.172 495.39 540.258 494.116 539.821Z" fill="#FF8383"/>
<path d="M534.763 542.589L515.867 544.34C514.466 544.466 513.073 544.033 511.99 543.137C510.907 542.24 510.223 540.952 510.087 539.553C509.957 538.153 510.388 536.759 511.287 535.676C512.185 534.593 513.476 533.911 514.878 533.778L533.732 532.027C534.425 531.963 535.124 532.036 535.789 532.242C536.454 532.448 537.072 532.783 537.607 533.227C538.143 533.672 538.586 534.217 538.91 534.833C539.234 535.448 539.434 536.122 539.498 536.814C539.636 538.207 539.215 539.598 538.327 540.681C537.439 541.764 536.158 542.45 534.763 542.589Z" fill="#FF8383"/>
<path d="M530.777 559.9L511.895 558.686C510.489 558.592 509.177 557.944 508.247 556.886C507.317 555.827 506.845 554.444 506.935 553.038C506.979 552.342 507.161 551.661 507.47 551.035C507.778 550.408 508.208 549.849 508.733 549.389C509.258 548.929 509.868 548.576 510.53 548.352C511.192 548.128 511.891 548.036 512.588 548.082L531.413 549.268C532.82 549.362 534.132 550.01 535.062 551.068C535.991 552.127 536.463 553.51 536.374 554.916C536.287 556.316 535.65 557.625 534.602 558.558C533.554 559.491 532.179 559.974 530.777 559.9Z" fill="#FF8383"/>
<path d="M722.807 495.612C722.22 495.607 721.657 495.374 721.239 494.962C720.826 494.545 720.595 493.982 720.595 493.395C720.595 492.808 720.826 492.245 721.239 491.828L742.439 470.648C742.639 470.419 742.884 470.234 743.159 470.103C743.434 469.973 743.733 469.901 744.037 469.891C744.341 469.881 744.644 469.934 744.927 470.046C745.21 470.158 745.467 470.327 745.682 470.543C745.896 470.758 746.064 471.016 746.175 471.299C746.286 471.582 746.338 471.885 746.326 472.189C746.315 472.492 746.242 472.791 746.11 473.065C745.979 473.339 745.792 473.583 745.562 473.782L724.362 494.962C723.95 495.376 723.391 495.61 722.807 495.612Z" fill="#FFCC05"/>
<path d="M707.755 482.621C707.167 482.621 706.602 482.388 706.186 481.972C705.77 481.556 705.536 480.993 705.536 480.405V450.541C705.512 450.236 705.551 449.929 705.651 449.64C705.751 449.351 705.91 449.085 706.118 448.86C706.326 448.635 706.578 448.456 706.858 448.333C707.139 448.211 707.442 448.147 707.748 448.147C708.054 448.147 708.357 448.211 708.638 448.333C708.919 448.456 709.171 448.635 709.379 448.86C709.586 449.085 709.745 449.351 709.845 449.64C709.945 449.929 709.984 450.236 709.96 450.541V480.405C709.962 480.695 709.906 480.983 709.796 481.252C709.686 481.521 709.524 481.765 709.319 481.971C709.114 482.177 708.871 482.341 708.602 482.452C708.334 482.564 708.046 482.621 707.755 482.621Z" fill="#FFCC05"/>
<path d="M765.674 510.621H735.768C735.212 510.577 734.693 510.325 734.314 509.915C733.936 509.506 733.726 508.969 733.726 508.412C733.726 507.854 733.936 507.317 734.314 506.908C734.693 506.498 735.212 506.246 735.768 506.202H765.674C765.979 506.177 766.286 506.216 766.576 506.316C766.865 506.416 767.131 506.575 767.356 506.783C767.581 506.99 767.76 507.242 767.883 507.523C768.006 507.803 768.07 508.106 768.07 508.412C768.07 508.718 768.006 509.02 767.883 509.301C767.76 509.581 767.581 509.833 767.356 510.04C767.131 510.248 766.865 510.407 766.576 510.507C766.286 510.607 765.979 510.646 765.674 510.621Z" fill="#FFCC05"/>
<path d="M500.108 603.531H683.05C688.152 603.531 689.721 599.408 689.721 594.297H490.865C490.865 596.746 491.839 599.095 493.573 600.826C495.306 602.558 497.657 603.531 500.108 603.531Z" fill="#6EACCE"/>
<path d="M489.494 594.297H554.338C554.338 599.408 549.646 603.531 543.851 603.531H489.226C483.247 603.446 483.516 594.297 489.494 594.297Z" fill="#6EACCE"/>
<path d="M558.394 596.993H689.707C691.599 596.993 693.43 596.332 694.886 595.126C696.341 593.919 697.329 592.242 697.678 590.385L715.388 514.504C715.61 513.332 715.571 512.125 715.273 510.97C714.975 509.814 714.426 508.739 713.665 507.819C712.904 506.9 711.95 506.159 710.87 505.65C709.79 505.141 708.611 504.877 707.416 504.875H576.089C574.197 504.872 572.364 505.532 570.908 506.739C569.452 507.946 568.465 509.624 568.118 511.483L550.409 587.392C550.191 588.563 550.234 589.768 550.535 590.921C550.835 592.074 551.386 593.147 552.149 594.063C552.911 594.979 553.865 595.717 554.945 596.223C556.024 596.73 557.202 596.993 558.394 596.993Z" fill="#E0EEF7"/>
<path d="M568.161 511.483C568.546 509.436 569.705 507.615 571.397 506.399C572.656 507.3 573.629 508.542 574.203 509.979C574.776 511.415 574.926 512.986 574.634 514.504L556.854 590.385C556.46 592.425 555.303 594.238 553.617 595.454C552.359 594.556 551.384 593.317 550.808 591.884C550.232 590.45 550.079 588.881 550.367 587.364L568.161 511.483Z" fill="#6EACCE"/>
<path d="M650.713 560.564H629.174C628.123 560.566 627.082 560.36 626.11 559.959C625.139 559.558 624.256 558.97 623.513 558.227C622.77 557.485 622.181 556.603 621.779 555.633C621.378 554.662 621.172 553.622 621.174 552.572C621.174 550.452 622.017 548.42 623.517 546.921C625.018 545.422 627.052 544.58 629.174 544.58H650.713C652.835 544.58 654.869 545.422 656.369 546.921C657.87 548.42 658.712 550.452 658.712 552.572C658.714 553.622 658.509 554.662 658.107 555.633C657.706 556.603 657.117 557.485 656.374 558.227C655.63 558.97 654.748 559.558 653.776 559.959C652.805 560.36 651.764 560.566 650.713 560.564Z" fill="white"/>
<path d="M509.083 596.852H502.61C502.306 596.852 502.005 596.792 501.725 596.676C501.445 596.559 501.19 596.388 500.976 596.173C500.762 595.958 500.592 595.702 500.478 595.422C500.363 595.141 500.304 594.84 500.306 594.536C500.306 593.926 500.549 593.341 500.981 592.909C501.413 592.477 501.999 592.235 502.61 592.235H509.083C509.694 592.235 510.28 592.477 510.712 592.909C511.144 593.341 511.387 593.926 511.387 594.536C511.389 594.84 511.33 595.141 511.215 595.422C511.1 595.702 510.931 595.958 510.717 596.173C510.503 596.388 510.248 596.559 509.968 596.676C509.687 596.792 509.387 596.852 509.083 596.852Z" fill="#6EACCE"/>
<path d="M521.69 596.852H515.231C514.927 596.852 514.627 596.792 514.346 596.676C514.066 596.559 513.811 596.388 513.597 596.173C513.383 595.958 513.214 595.702 513.099 595.422C512.984 595.141 512.925 594.84 512.927 594.536C512.927 593.926 513.17 593.341 513.602 592.909C514.034 592.477 514.62 592.235 515.231 592.235H521.69C522.301 592.235 522.887 592.477 523.319 592.909C523.751 593.341 523.994 593.926 523.994 594.536C523.996 594.84 523.937 595.141 523.822 595.422C523.708 595.702 523.538 595.958 523.324 596.173C523.11 596.388 522.855 596.559 522.575 596.676C522.294 596.792 521.994 596.852 521.69 596.852Z" fill="#6EACCE"/>
<path d="M534.311 596.852H527.852C527.547 596.854 527.245 596.795 526.963 596.68C526.681 596.564 526.425 596.393 526.209 596.178C525.993 595.963 525.823 595.707 525.707 595.425C525.591 595.143 525.532 594.841 525.534 594.536C525.534 594.233 525.594 593.933 525.711 593.652C525.828 593.372 525.999 593.118 526.214 592.904C526.429 592.69 526.685 592.521 526.966 592.406C527.247 592.291 527.548 592.233 527.852 592.235H534.311C534.922 592.235 535.508 592.477 535.94 592.909C536.372 593.341 536.615 593.926 536.615 594.536C536.617 594.84 536.558 595.141 536.443 595.422C536.328 595.702 536.159 595.958 535.945 596.173C535.731 596.388 535.476 596.559 535.196 596.676C534.915 596.792 534.615 596.852 534.311 596.852Z" fill="#6EACCE"/>
<path d="M546.96 596.852H540.459C540.155 596.852 539.855 596.792 539.574 596.676C539.294 596.559 539.039 596.388 538.825 596.173C538.611 595.958 538.442 595.702 538.327 595.422C538.212 595.141 538.153 594.84 538.155 594.536C538.155 593.926 538.398 593.341 538.83 592.909C539.262 592.477 539.848 592.235 540.459 592.235H546.96C547.573 592.235 548.16 592.477 548.594 592.908C549.029 593.339 549.274 593.925 549.278 594.536C549.278 595.151 549.034 595.74 548.599 596.174C548.165 596.608 547.575 596.852 546.96 596.852Z" fill="#6EACCE"/>
<path d="M787.637 614.107H235.024C234.296 614.107 233.576 613.964 232.904 613.686C232.231 613.407 231.621 613 231.106 612.486C230.592 611.972 230.184 611.361 229.905 610.69C229.627 610.018 229.483 609.299 229.483 608.572C229.482 607.844 229.624 607.124 229.901 606.451C230.179 605.779 230.587 605.168 231.102 604.654C231.617 604.139 232.228 603.732 232.901 603.454C233.574 603.177 234.296 603.035 235.024 603.037H787.637C789.106 603.037 790.516 603.62 791.555 604.658C792.594 605.696 793.177 607.104 793.177 608.572C793.174 610.039 792.589 611.444 791.55 612.482C790.512 613.519 789.105 614.103 787.637 614.107Z" fill="#032535"/>
<path d="M317.746 569.036C317.746 569.036 313.676 538.508 306.312 531.011" stroke="#032535" stroke-width="0.83" stroke-miterlimit="10" stroke-linecap="round"/>
<path d="M307.5 512.81C309.464 519.319 309.068 525.193 306.595 525.942C304.122 526.69 300.546 522.016 298.582 515.507C298.575 515.441 298.575 515.375 298.582 515.309C296.914 509.52 305.648 506.837 307.5 512.627V512.81Z" fill="#FFD2D4"/>
<path d="M319.188 527.354C312.672 529.316 306.793 528.921 306.044 526.464C305.295 524.007 309.973 520.407 316.488 518.444H316.686C322.481 516.778 325.166 525.504 319.385 527.354H319.188Z" fill="#FFD2D4"/>
<path d="M296.899 534.075C303.415 532.112 308.093 528.526 307.344 526.069C306.595 523.612 300.73 523.245 294.214 525.165H294.016C288.264 526.987 290.907 535.741 296.716 534.075H296.899Z" fill="#FFD2D4"/>
<path d="M307.866 541.474C309.704 534.922 309.167 529.062 306.693 528.37C304.22 527.678 300.729 532.423 298.892 538.974C298.892 538.974 298.892 539.101 298.892 539.172C297.351 544.989 306.17 547.46 307.866 541.671C307.824 541.601 307.852 541.544 307.866 541.474Z" fill="#FFD2D4"/>
<path d="M314.156 539.582C308.998 535.134 306.185 529.966 307.867 528.017C309.549 526.069 315.089 528.088 320.234 532.522L320.389 532.663C324.912 536.659 318.976 543.592 314.312 539.723L314.156 539.582Z" fill="#FFD2D4"/>
<path d="M309.676 526.789C309.862 527.393 309.864 528.039 309.682 528.644C309.5 529.25 309.143 529.787 308.655 530.189C308.167 530.592 307.57 530.84 306.94 530.903C306.311 530.965 305.677 530.84 305.119 530.542C304.561 530.245 304.103 529.788 303.805 529.231C303.507 528.673 303.382 528.04 303.444 527.411C303.507 526.782 303.755 526.186 304.158 525.698C304.56 525.21 305.098 524.853 305.704 524.671C306.104 524.549 306.524 524.507 306.941 524.548C307.357 524.588 307.761 524.71 308.13 524.907C308.499 525.104 308.825 525.371 309.09 525.694C309.356 526.017 309.555 526.389 309.676 526.789Z" fill="#D15E79"/>
<path d="M305.732 549.395C314.212 556.045 319.003 564.037 316.488 567.243C313.972 570.448 305.054 567.624 296.602 560.973C288.15 554.323 285.847 543.126 285.847 543.126C285.847 543.126 297.266 542.73 305.732 549.395Z" fill="#FFCC05"/>
<path d="M335.441 559.477C326.522 567.85 316.7 571.902 313.534 568.528C310.368 565.153 315.032 555.622 323.95 547.249C332.868 538.875 345.871 538.184 345.871 538.184C345.871 538.184 344.373 551.089 335.441 559.477Z" fill="#FFCC05"/>
<path d="M328.883 604.872H299.655L294.539 568.146H333.999L328.883 604.872Z" fill="#032535"/>
<path d="M335.511 563.91H293.012C291.865 563.91 290.935 564.839 290.935 565.986V575.489C290.935 576.635 291.865 577.564 293.012 577.564H335.511C336.659 577.564 337.589 576.635 337.589 575.489V565.986C337.589 564.839 336.659 563.91 335.511 563.91Z" fill="#032535"/>
<path d="M403.422 293.611L417.909 309.143L528.375 263.112L403.422 293.611Z" fill="#FFCC05"/>
<path d="M408.581 242.384L397.67 258.819L405.047 274.93L388.497 277.74L373.869 309.821L531.908 262.039L408.581 242.384Z" fill="#FF4F00" fill-opacity="0.9"/>
<path d="M405.048 274.931L397.67 258.82L483.276 262.816L405.048 274.931Z" fill="#FFCC05"/>
<path d="M396.723 434.289H393.076C392.786 434.287 392.498 434.228 392.23 434.114C391.963 434.001 391.72 433.836 391.516 433.629C391.313 433.421 391.152 433.176 391.044 432.906C390.936 432.636 390.882 432.348 390.886 432.058C390.884 431.766 390.94 431.477 391.052 431.208C391.165 430.939 391.33 430.695 391.538 430.491C391.746 430.286 391.994 430.126 392.265 430.019C392.537 429.913 392.827 429.861 393.119 429.869C398.857 429.94 404.553 429.869 410.8 429.587H410.899C411.456 429.619 411.981 429.861 412.369 430.263C412.756 430.666 412.977 431.199 412.988 431.757C412.998 432.315 412.798 432.857 412.426 433.274C412.055 433.691 411.539 433.952 410.983 434.006C405.98 434.19 401.387 434.289 396.723 434.289ZM375.325 433.484H375.127C369.021 432.961 363.029 432.171 357.291 431.154C357.003 431.105 356.728 430.999 356.482 430.842C356.236 430.686 356.023 430.483 355.856 430.244C355.689 430.005 355.571 429.735 355.509 429.45C355.448 429.165 355.443 428.871 355.496 428.584C355.609 428.011 355.941 427.504 356.42 427.17C356.9 426.835 357.49 426.699 358.068 426.791C363.721 427.793 369.544 428.556 375.509 429.064C376.094 429.118 376.634 429.4 377.013 429.85C377.391 430.299 377.577 430.879 377.53 431.465C377.48 432.015 377.227 432.528 376.819 432.901C376.411 433.275 375.878 433.482 375.325 433.484ZM340.359 427.102C340.139 427.102 339.919 427.069 339.709 427.003C333.941 425.234 328.302 423.069 322.834 420.522C322.555 420.408 322.303 420.239 322.092 420.025C321.88 419.811 321.715 419.556 321.606 419.276C321.496 418.996 321.445 418.697 321.454 418.397C321.464 418.096 321.535 417.801 321.663 417.529C321.79 417.257 321.972 417.013 322.197 416.814C322.421 416.614 322.684 416.462 322.97 416.366C323.255 416.271 323.557 416.235 323.856 416.26C324.156 416.285 324.448 416.371 324.713 416.512C329.992 418.975 335.437 421.065 341.009 422.767C341.29 422.856 341.55 423.001 341.774 423.192C341.998 423.383 342.181 423.617 342.313 423.881C342.444 424.144 342.522 424.431 342.541 424.725C342.56 425.018 342.519 425.313 342.423 425.591C342.263 426.01 341.981 426.372 341.613 426.629C341.245 426.886 340.808 427.026 340.359 427.031V427.102ZM308.276 412.007C307.842 412.007 307.418 411.874 307.061 411.626C302.023 408.275 297.255 404.536 292.8 400.443C292.369 400.046 292.114 399.494 292.09 398.909C292.066 398.324 292.276 397.753 292.673 397.322C293.07 396.892 293.623 396.636 294.209 396.613C294.794 396.589 295.366 396.798 295.797 397.195C300.088 401.128 304.676 404.725 309.52 407.955C309.913 408.221 310.211 408.606 310.369 409.053C310.527 409.501 310.537 409.987 310.397 410.44C310.258 410.894 309.977 411.291 309.595 411.573C309.213 411.855 308.751 412.007 308.276 412.007ZM282.172 388.003C281.838 388.003 281.509 387.928 281.208 387.784C280.907 387.64 280.643 387.43 280.434 387.17C276.667 382.439 273.269 377.426 270.272 372.175C269.976 371.656 269.898 371.041 270.056 370.465C270.213 369.889 270.594 369.4 271.113 369.104C271.632 368.808 272.247 368.73 272.824 368.888C273.4 369.045 273.891 369.425 274.187 369.944C277.079 374.996 280.353 379.821 283.981 384.374C284.244 384.699 284.409 385.092 284.456 385.507C284.504 385.922 284.432 386.342 284.25 386.718C284.068 387.094 283.782 387.411 283.427 387.631C283.072 387.851 282.661 387.965 282.243 387.961L282.172 388.003ZM264.633 357.236C264.184 357.238 263.745 357.104 263.374 356.852C263.004 356.6 262.718 356.241 262.555 355.824C260.409 350.161 258.745 344.328 257.58 338.386C257.524 338.101 257.525 337.808 257.583 337.524C257.641 337.24 257.754 336.97 257.916 336.729C258.078 336.488 258.286 336.282 258.528 336.122C258.77 335.961 259.041 335.85 259.326 335.795C259.61 335.739 259.904 335.74 260.188 335.797C260.473 335.855 260.743 335.968 260.984 336.13C261.225 336.292 261.431 336.5 261.592 336.741C261.752 336.983 261.863 337.254 261.919 337.538C263.047 343.238 264.644 348.834 266.696 354.271C266.898 354.816 266.876 355.418 266.635 355.947C266.394 356.476 265.954 356.889 265.41 357.095C265.162 357.189 264.898 357.237 264.633 357.236ZM257.566 322.515C257.004 322.512 256.463 322.297 256.054 321.911C255.645 321.526 255.397 321 255.361 320.439C255.121 316.824 255.008 313.012 255.008 309.143V308.239C255.008 306.319 255.008 304.399 255.107 302.464C255.129 301.89 255.372 301.346 255.785 300.946C256.198 300.546 256.75 300.321 257.326 300.318H257.396C257.688 300.327 257.975 300.394 258.24 300.514C258.506 300.633 258.746 300.805 258.945 301.017C259.145 301.229 259.3 301.479 259.403 301.752C259.506 302.024 259.554 302.314 259.545 302.606C259.545 304.498 259.446 306.376 259.432 308.254V309.143C259.432 312.941 259.559 316.641 259.771 320.171C259.79 320.46 259.752 320.751 259.658 321.025C259.565 321.3 259.418 321.553 259.226 321.771C259.035 321.989 258.802 322.167 258.541 322.294C258.28 322.422 257.997 322.497 257.707 322.515H257.566Z" fill="#FFCC05"/>
<path d="M276.194 287.356C272.802 287.356 269.481 287.356 266.202 287.243C265.613 287.243 265.049 287.009 264.633 286.594C264.217 286.178 263.983 285.614 263.983 285.026C263.983 284.438 264.217 283.874 264.633 283.459C265.049 283.043 265.613 282.809 266.202 282.809C271.921 282.951 277.824 282.951 283.911 282.809C284.205 282.785 284.501 282.823 284.779 282.922C285.057 283.021 285.31 283.178 285.523 283.382C285.736 283.587 285.902 283.834 286.012 284.108C286.121 284.381 286.171 284.675 286.158 284.97C286.165 285.26 286.115 285.549 286.011 285.82C285.906 286.091 285.748 286.339 285.547 286.549C285.346 286.759 285.106 286.927 284.839 287.044C284.573 287.16 284.286 287.223 283.996 287.229C281.437 287.328 278.794 287.356 276.194 287.356ZM301.846 286.622C301.287 286.596 300.758 286.36 300.365 285.961C299.973 285.562 299.745 285.03 299.729 284.471C299.713 283.912 299.909 283.367 300.278 282.946C300.647 282.526 301.162 282.26 301.719 282.202C307.457 281.877 313.407 281.44 319.414 280.917C319.715 280.869 320.023 280.883 320.318 280.959C320.614 281.035 320.89 281.171 321.131 281.358C321.371 281.546 321.57 281.781 321.716 282.049C321.861 282.316 321.95 282.611 321.976 282.915C322.003 283.218 321.966 283.524 321.869 283.813C321.771 284.102 321.615 284.368 321.411 284.593C321.206 284.819 320.957 285.001 320.679 285.126C320.401 285.252 320.1 285.319 319.795 285.323C313.746 285.859 307.754 286.297 301.973 286.608L301.846 286.622ZM248.493 286.339H248.309C242.147 285.873 236.14 285.21 230.473 284.405C229.892 284.318 229.37 284.004 229.02 283.533C228.671 283.062 228.522 282.472 228.607 281.892C228.698 281.315 229.01 280.797 229.477 280.446C229.944 280.096 230.529 279.94 231.109 280.014C236.677 280.818 242.585 281.426 248.662 281.934C249.221 281.995 249.735 282.264 250.102 282.689C250.469 283.114 250.661 283.662 250.64 284.223C250.618 284.783 250.385 285.315 249.986 285.71C249.588 286.106 249.054 286.336 248.493 286.353V286.339ZM337.307 283.515C336.756 283.494 336.233 283.268 335.839 282.882C335.446 282.496 335.211 281.978 335.179 281.428C335.147 280.878 335.321 280.336 335.668 279.908C336.014 279.479 336.507 279.195 337.052 279.11C342.804 278.432 348.67 277.698 354.648 276.822C354.937 276.781 355.231 276.796 355.513 276.868C355.796 276.94 356.062 277.066 356.295 277.241C356.529 277.415 356.726 277.634 356.875 277.884C357.024 278.135 357.122 278.412 357.164 278.7C357.206 278.989 357.19 279.282 357.118 279.565C357.046 279.847 356.92 280.113 356.745 280.346C356.57 280.579 356.352 280.776 356.101 280.925C355.85 281.074 355.573 281.172 355.284 281.214C349.263 282.061 343.356 282.838 337.561 283.501L337.307 283.515ZM213.272 281.256C213.112 281.269 212.952 281.269 212.792 281.256C208.552 280.296 204.312 279.209 200.383 278.037C198.701 277.543 197.047 277.02 195.422 276.484C194.86 276.296 194.395 275.894 194.13 275.364C193.865 274.834 193.821 274.221 194.009 273.66C194.196 273.098 194.599 272.633 195.129 272.369C195.659 272.104 196.273 272.06 196.835 272.248C198.418 272.77 200.029 273.278 201.655 273.773C205.513 274.916 209.584 275.961 213.767 276.907C214.297 277.029 214.764 277.341 215.078 277.784C215.393 278.226 215.535 278.769 215.475 279.309C215.416 279.849 215.16 280.349 214.757 280.713C214.353 281.077 213.83 281.28 213.286 281.284L213.272 281.256ZM179.635 269.89C179.298 269.883 178.965 269.806 178.66 269.664C173.201 267.036 167.973 263.956 163.028 260.457C162.77 260.298 162.546 260.087 162.373 259.838C162.199 259.589 162.078 259.307 162.018 259.009C161.958 258.711 161.959 258.404 162.023 258.107C162.086 257.81 162.21 257.53 162.387 257.282C162.563 257.035 162.789 256.827 163.049 256.67C163.31 256.514 163.6 256.413 163.901 256.373C164.203 256.333 164.509 256.355 164.801 256.438C165.094 256.522 165.366 256.664 165.601 256.857C170.347 260.207 175.362 263.159 180.596 265.682C181.062 265.892 181.44 266.257 181.668 266.714C181.896 267.172 181.958 267.693 181.845 268.191C181.732 268.69 181.451 269.133 181.048 269.448C180.645 269.762 180.146 269.928 179.635 269.918V269.89ZM255.955 267.899C255.664 267.9 255.376 267.845 255.107 267.735C254.838 267.625 254.593 267.463 254.387 267.258C254.181 267.054 254.017 266.81 253.905 266.542C253.794 266.274 253.736 265.986 253.736 265.696V264.905C253.736 259.328 253.51 253.609 253.072 248.046C253.027 247.462 253.216 246.884 253.598 246.439C253.979 245.994 254.522 245.719 255.107 245.674C255.692 245.629 256.27 245.818 256.716 246.199C257.161 246.58 257.436 247.123 257.481 247.707C257.934 253.426 258.16 259.215 258.16 264.905V265.696C258.158 265.989 258.098 266.278 257.983 266.548C257.867 266.817 257.7 267.061 257.489 267.265C257.279 267.468 257.029 267.628 256.756 267.735C256.483 267.841 256.192 267.892 255.898 267.884L255.955 267.899ZM151.043 249.133C150.735 249.133 150.43 249.07 150.148 248.946C149.865 248.822 149.612 248.64 149.404 248.413C145.279 243.906 141.706 238.924 138.761 233.573C138.607 233.317 138.505 233.033 138.463 232.737C138.421 232.441 138.44 232.14 138.517 231.851C138.595 231.562 138.73 231.292 138.915 231.057C139.1 230.822 139.33 230.627 139.592 230.483C139.855 230.339 140.143 230.25 140.441 230.22C140.739 230.191 141.039 230.221 141.325 230.311C141.61 230.4 141.874 230.547 142.102 230.741C142.329 230.935 142.515 231.173 142.648 231.441C145.426 236.486 148.795 241.183 152.683 245.434C152.879 245.647 153.032 245.898 153.131 246.171C153.23 246.444 153.275 246.733 153.262 247.023C153.248 247.313 153.178 247.598 153.054 247.861C152.931 248.123 152.757 248.359 152.541 248.554C152.118 248.94 151.559 249.142 150.987 249.119L151.043 249.133ZM252.987 232.401C252.465 232.399 251.959 232.215 251.559 231.879C251.159 231.544 250.889 231.079 250.796 230.565C249.834 224.794 248.532 219.084 246.896 213.466C246.813 213.188 246.786 212.896 246.816 212.608C246.846 212.319 246.933 212.039 247.072 211.784C247.21 211.529 247.398 211.304 247.623 211.121C247.849 210.939 248.108 210.802 248.387 210.72C248.665 210.637 248.957 210.61 249.246 210.64C249.535 210.671 249.815 210.757 250.07 210.896C250.325 211.034 250.551 211.221 250.733 211.447C250.916 211.672 251.053 211.931 251.136 212.209C252.826 217.995 254.176 223.874 255.178 229.817C255.272 230.395 255.136 230.987 254.797 231.465C254.459 231.943 253.946 232.269 253.369 232.373L252.987 232.401ZM133.942 218.281C133.458 218.28 132.987 218.121 132.601 217.828C132.216 217.535 131.937 217.123 131.808 216.657C131.544 215.659 131.29 214.657 131.045 213.65C130.264 210.413 129.865 207.095 129.857 203.766C129.857 201.875 129.999 199.987 130.281 198.118C130.31 197.818 130.4 197.527 130.546 197.263C130.691 196.999 130.888 196.768 131.126 196.582C131.364 196.397 131.637 196.263 131.929 196.186C132.22 196.11 132.525 196.094 132.823 196.139C133.121 196.184 133.406 196.29 133.662 196.449C133.918 196.608 134.139 196.818 134.311 197.065C134.484 197.312 134.604 197.592 134.664 197.887C134.724 198.182 134.724 198.486 134.663 198.781C134.407 200.44 134.28 202.116 134.281 203.794C134.299 206.753 134.66 209.7 135.355 212.576C135.581 213.537 135.822 214.497 136.076 215.4C136.157 215.68 136.182 215.974 136.148 216.263C136.115 216.553 136.023 216.833 135.88 217.087C135.736 217.341 135.543 217.563 135.313 217.742C135.082 217.92 134.818 218.051 134.536 218.126C134.363 218.196 134.183 218.243 133.998 218.267L133.942 218.281ZM242.769 198.428C242.352 198.427 241.944 198.308 241.591 198.086C241.239 197.864 240.956 197.547 240.776 197.172C238.32 191.958 235.271 187.045 231.688 182.529C231.502 182.303 231.363 182.042 231.278 181.762C231.194 181.482 231.165 181.189 231.194 180.897C231.223 180.606 231.309 180.324 231.447 180.066C231.585 179.808 231.773 179.58 231.999 179.394C232.225 179.209 232.486 179.07 232.766 178.985C233.047 178.9 233.341 178.872 233.632 178.901C233.924 178.929 234.206 179.015 234.465 179.153C234.723 179.291 234.951 179.479 235.137 179.705C238.931 184.496 242.161 189.708 244.761 195.237C244.889 195.498 244.963 195.782 244.98 196.072C244.997 196.362 244.956 196.653 244.86 196.927C244.764 197.201 244.615 197.454 244.421 197.671C244.227 197.887 243.992 198.063 243.73 198.188C243.431 198.337 243.102 198.415 242.769 198.414V198.428ZM139.496 184.534C138.99 184.55 138.492 184.396 138.083 184.096C137.617 183.739 137.312 183.21 137.235 182.628C137.158 182.045 137.316 181.456 137.673 180.99C141.49 176.081 146.193 171.929 151.538 168.748C151.786 168.573 152.067 168.451 152.364 168.388C152.661 168.326 152.967 168.326 153.265 168.386C153.562 168.447 153.844 168.569 154.092 168.742C154.341 168.916 154.551 169.139 154.71 169.398C154.869 169.656 154.973 169.944 155.016 170.244C155.059 170.545 155.039 170.85 154.959 171.143C154.879 171.435 154.74 171.708 154.55 171.945C154.36 172.181 154.124 172.376 153.856 172.518C148.958 175.413 144.644 179.196 141.136 183.673C140.941 183.926 140.693 184.134 140.41 184.283C140.127 184.431 139.816 184.517 139.496 184.534ZM220.367 171.374C219.937 171.375 219.515 171.253 219.152 171.021C214.389 167.916 209.131 165.643 203.605 164.3C203.282 164.277 202.968 164.184 202.684 164.027C202.401 163.87 202.156 163.653 201.965 163.391C201.775 163.129 201.645 162.828 201.583 162.51C201.521 162.193 201.53 161.865 201.609 161.551C201.687 161.237 201.834 160.944 202.038 160.693C202.242 160.441 202.499 160.237 202.79 160.096C203.081 159.954 203.4 159.878 203.724 159.872C204.048 159.867 204.369 159.932 204.665 160.064C210.671 161.522 216.383 163.996 221.554 167.378C221.955 167.637 222.261 168.019 222.426 168.467C222.591 168.914 222.607 169.403 222.469 169.86C222.332 170.317 222.051 170.717 221.666 171.001C221.282 171.284 220.816 171.435 220.339 171.431L220.367 171.374ZM169.035 165.726C168.507 165.719 167.999 165.523 167.602 165.174C167.205 164.825 166.946 164.347 166.871 163.824C166.796 163.302 166.91 162.77 167.193 162.324C167.476 161.878 167.908 161.547 168.413 161.391C174.088 159.724 179.925 158.668 185.825 158.243H186.49C187.068 158.265 187.618 158.499 188.035 158.9C188.451 159.301 188.706 159.841 188.751 160.417C188.759 160.708 188.708 160.997 188.604 161.268C188.499 161.539 188.341 161.786 188.14 161.996C187.939 162.206 187.699 162.375 187.433 162.491C187.166 162.608 186.879 162.671 186.589 162.676H186.094C180.53 163.081 175.025 164.075 169.671 165.642C169.466 165.709 169.251 165.742 169.035 165.74V165.726Z" fill="#FFCC05"/>
<path d="M702.074 180.806H820.497C827.619 180.806 834.449 183.633 839.485 188.664C844.521 193.695 847.35 200.519 847.35 207.634V268.661C847.35 275.776 844.521 282.6 839.485 287.631C834.449 292.663 827.619 295.489 820.497 295.489H743.061L715.147 319.931V295.376H702.017C694.895 295.376 688.065 292.55 683.029 287.518C677.993 282.487 675.164 275.663 675.164 268.548V207.564C675.183 200.451 678.028 193.637 683.074 188.619C688.12 183.602 694.954 180.791 702.074 180.806Z" fill="#FFCC05"/>
<path d="M719.302 218.578H803.268C804.16 218.578 805.016 218.224 805.647 217.593C806.278 216.963 806.632 216.108 806.632 215.217C806.632 214.326 806.278 213.471 805.647 212.841C805.016 212.211 804.16 211.856 803.268 211.856H719.302C718.41 211.856 717.555 212.211 716.924 212.841C716.293 213.471 715.938 214.326 715.938 215.217C715.938 216.108 716.293 216.963 716.924 217.593C717.555 218.224 718.41 218.578 719.302 218.578Z" fill="#FF4F00" fill-opacity="0.9"/>
<path d="M719.302 240.944H803.268C804.16 240.944 805.016 240.589 805.647 239.959C806.278 239.329 806.632 238.474 806.632 237.583C806.632 236.692 806.278 235.837 805.647 235.207C805.016 234.576 804.16 234.222 803.268 234.222H719.302C718.41 234.222 717.555 234.576 716.924 235.207C716.293 235.837 715.938 236.692 715.938 237.583C715.938 238.474 716.293 239.329 716.924 239.959C717.555 240.589 718.41 240.944 719.302 240.944Z" fill="#FF4F00" fill-opacity="0.9"/>
<path d="M790.944 263.31H803.268C804.161 263.31 805.016 262.956 805.647 262.325C806.278 261.695 806.632 260.84 806.632 259.949C806.632 259.058 806.278 258.203 805.647 257.573C805.016 256.943 804.161 256.589 803.268 256.589H790.944C790.052 256.589 789.197 256.943 788.566 257.573C787.935 258.203 787.581 259.058 787.581 259.949C787.581 260.84 787.935 261.695 788.566 262.325C789.197 262.956 790.052 263.31 790.944 263.31Z" fill="#FF4F00" fill-opacity="0.9"/>
<path d="M762.96 263.31H775.27C776.163 263.31 777.018 262.956 777.649 262.325C778.28 261.695 778.634 260.84 778.634 259.949C778.634 259.058 778.28 258.203 777.649 257.573C777.018 256.943 776.163 256.589 775.27 256.589H762.96C762.068 256.589 761.213 256.943 760.582 257.573C759.951 258.203 759.597 259.058 759.597 259.949C759.597 260.84 759.951 261.695 760.582 262.325C761.213 262.956 762.068 263.31 762.96 263.31Z" fill="#FF4F00" fill-opacity="0.9"/>
<path d="M719.302 263.31H747.286C748.178 263.31 749.034 262.956 749.665 262.325C750.296 261.695 750.65 260.84 750.65 259.949C750.65 259.058 750.296 258.203 749.665 257.573C749.034 256.943 748.178 256.589 747.286 256.589H719.302C718.41 256.589 717.555 256.943 716.924 257.573C716.293 258.203 715.938 259.058 715.938 259.949C715.938 260.84 716.293 261.695 716.924 262.325C717.555 262.956 718.41 263.31 719.302 263.31Z" fill="#FF4F00" fill-opacity="0.9"/>
<path d="M687.092 302.662H596.427C592.146 302.662 588.041 304.361 585.014 307.385C581.987 310.409 580.287 314.511 580.287 318.787V371.031C580.286 375.101 581.828 379.021 584.602 382.001C587.376 384.982 591.176 386.804 595.24 387.1L576.64 417.67L625.895 387.128H687.149C691.429 387.128 695.535 385.429 698.562 382.405C701.588 379.381 703.289 375.28 703.289 371.003V318.759C703.285 316.639 702.863 314.541 702.047 312.584C701.23 310.627 700.036 308.85 698.532 307.355C697.027 305.86 695.242 304.676 693.28 303.871C691.317 303.065 689.214 302.655 687.092 302.662Z" fill="#FF4F00" fill-opacity="0.9"/>
<path d="M649.373 339.8C653.563 335.615 653.563 328.829 649.373 324.644C645.184 320.459 638.392 320.459 634.203 324.644C630.014 328.829 630.014 335.615 634.203 339.8C638.392 343.986 645.184 343.986 649.373 339.8Z" fill="#FFCC05" stroke="#FFCC05" stroke-width="2.76" stroke-linecap="round" stroke-linejoin="round"/>
<path d="M667.094 368.292H616.412C616.41 366.158 616.829 364.045 617.645 362.074C618.461 360.102 619.658 358.31 621.167 356.801C622.677 355.291 624.469 354.094 626.442 353.277C628.415 352.46 630.529 352.04 632.665 352.04H650.883C655.189 352.051 659.314 353.769 662.353 356.816C665.393 359.863 667.098 363.99 667.094 368.292Z" fill="#FFCC05" stroke="#FFCC05" stroke-width="2.76" stroke-linecap="round" stroke-linejoin="round"/>
<path d="M577.686 217.73C574.686 217.734 571.693 217.431 568.754 216.827C568.179 216.708 567.675 216.366 567.352 215.876C567.028 215.387 566.913 214.789 567.029 214.214C567.158 213.646 567.503 213.149 567.99 212.828C568.477 212.507 569.07 212.386 569.644 212.492C574.222 213.429 578.929 213.558 583.551 212.873C583.847 212.812 584.151 212.811 584.446 212.872C584.742 212.932 585.022 213.052 585.269 213.224C585.517 213.396 585.726 213.617 585.886 213.872C586.045 214.128 586.151 214.414 586.196 214.711C586.241 215.009 586.225 215.313 586.149 215.604C586.072 215.896 585.937 216.169 585.752 216.406C585.567 216.644 585.335 216.841 585.071 216.986C584.807 217.131 584.516 217.221 584.216 217.25C582.054 217.573 579.871 217.734 577.686 217.73ZM597.84 212.562C597.349 212.563 596.871 212.401 596.482 212.102C596.092 211.802 595.814 211.382 595.689 210.907C595.565 210.432 595.601 209.929 595.794 209.478C595.986 209.026 596.323 208.651 596.752 208.411C600.846 206.155 604.503 203.185 607.55 199.643C607.945 199.241 608.479 199.005 609.042 198.982C609.606 198.959 610.157 199.152 610.583 199.52C611.01 199.889 611.28 200.406 611.339 200.966C611.397 201.527 611.24 202.088 610.899 202.537C607.511 206.469 603.453 209.772 598.914 212.294C598.583 212.469 598.215 212.561 597.84 212.562ZM555.61 211.376C555.195 211.374 554.789 211.256 554.437 211.037C550.036 208.276 546.164 204.752 543.003 200.631C542.798 200.404 542.641 200.137 542.544 199.847C542.447 199.557 542.411 199.25 542.439 198.946C542.466 198.641 542.556 198.345 542.704 198.077C542.851 197.809 543.052 197.574 543.295 197.388C543.537 197.201 543.816 197.067 544.113 196.993C544.41 196.919 544.719 196.907 545.021 196.959C545.323 197.01 545.611 197.123 545.866 197.291C546.122 197.459 546.341 197.678 546.508 197.934C549.362 201.633 552.844 204.802 556.797 207.296C557.199 207.554 557.506 207.935 557.674 208.383C557.841 208.83 557.86 209.32 557.726 209.778C557.593 210.237 557.315 210.64 556.933 210.928C556.552 211.216 556.088 211.373 555.61 211.376ZM616.652 190.62C616.391 190.621 616.132 190.573 615.888 190.479C615.342 190.275 614.897 189.865 614.651 189.336C614.405 188.808 614.377 188.203 614.574 187.655C616.205 183.277 617.038 178.643 617.033 173.972C617.078 173.417 617.33 172.898 617.74 172.52C618.15 172.142 618.687 171.932 619.245 171.932C619.803 171.932 620.34 172.142 620.75 172.52C621.16 172.898 621.412 173.417 621.457 173.972C621.466 179.173 620.542 184.333 618.729 189.208C618.568 189.627 618.283 189.986 617.911 190.238C617.54 190.491 617.101 190.624 616.652 190.62ZM537.971 188.431C537.497 188.429 537.036 188.275 536.655 187.994C536.274 187.712 535.992 187.316 535.851 186.864C534.564 182.688 533.911 178.342 533.915 173.972C533.915 173.139 533.915 172.334 533.986 171.515C534.033 170.936 534.301 170.397 534.735 170.011C535.17 169.624 535.736 169.42 536.318 169.44C536.904 169.473 537.453 169.736 537.845 170.173C538.237 170.61 538.44 171.184 538.409 171.77C538.409 172.49 538.339 173.182 538.339 173.958C538.346 177.891 538.931 181.802 540.077 185.565C540.174 185.843 540.214 186.137 540.196 186.431C540.177 186.725 540.099 187.012 539.967 187.275C539.836 187.538 539.652 187.772 539.428 187.964C539.205 188.155 538.945 188.3 538.664 188.389C538.438 188.448 538.205 188.477 537.971 188.474V188.431ZM618.023 166.164C617.529 166.161 617.05 165.994 616.662 165.69C616.273 165.386 615.996 164.962 615.874 164.484C614.769 159.943 612.854 155.638 610.221 151.776C609.919 151.291 609.816 150.708 609.934 150.149C610.052 149.59 610.381 149.098 610.854 148.775C611.326 148.453 611.904 148.325 612.468 148.419C613.032 148.512 613.539 148.819 613.881 149.276C616.828 153.563 618.973 158.347 620.213 163.396C620.285 163.678 620.3 163.972 620.258 164.259C620.216 164.547 620.117 164.824 619.967 165.073C619.817 165.323 619.62 165.54 619.385 165.713C619.151 165.885 618.885 166.01 618.602 166.079C618.417 166.153 618.221 166.196 618.023 166.206V166.164ZM539.583 159.584C539.275 159.579 538.972 159.512 538.692 159.386C538.155 159.151 537.734 158.713 537.519 158.168C537.305 157.623 537.315 157.015 537.547 156.478C539.631 151.718 542.545 147.367 546.155 143.628C546.357 143.419 546.598 143.251 546.866 143.135C547.133 143.019 547.42 142.956 547.712 142.951C548.003 142.946 548.292 142.998 548.564 143.104C548.835 143.211 549.082 143.37 549.292 143.572C549.502 143.774 549.67 144.016 549.786 144.282C549.902 144.549 549.965 144.837 549.97 145.128C549.975 145.419 549.923 145.708 549.817 145.979C549.71 146.25 549.551 146.497 549.349 146.707C546.097 150.061 543.478 153.973 541.618 158.257C541.449 158.659 541.167 159.003 540.805 159.246C540.444 159.489 540.019 159.622 539.583 159.626V159.584ZM601.769 142.301C601.308 142.304 600.857 142.161 600.483 141.892C596.681 139.183 592.419 137.183 587.904 135.99C587.339 135.834 586.857 135.463 586.564 134.955C586.27 134.448 586.188 133.846 586.336 133.279C586.409 132.997 586.538 132.732 586.715 132.501C586.892 132.269 587.113 132.075 587.365 131.929C587.617 131.783 587.896 131.689 588.185 131.652C588.474 131.614 588.768 131.635 589.049 131.711C594.06 133.084 598.784 135.341 602.999 138.376C603.383 138.648 603.67 139.035 603.819 139.481C603.968 139.928 603.971 140.409 603.828 140.857C603.684 141.306 603.402 141.696 603.022 141.974C602.642 142.251 602.183 142.4 601.713 142.4L601.769 142.301ZM559.68 138.814C559.169 138.824 558.67 138.658 558.267 138.344C557.865 138.029 557.583 137.585 557.47 137.087C557.357 136.589 557.419 136.067 557.647 135.61C557.875 135.153 558.253 134.788 558.719 134.578C563.401 132.316 568.451 130.915 573.63 130.44C574.213 130.393 574.792 130.577 575.242 130.952C575.691 131.327 575.975 131.863 576.032 132.445C576.06 132.734 576.03 133.025 575.944 133.302C575.859 133.578 575.72 133.836 575.534 134.059C575.349 134.282 575.122 134.466 574.865 134.601C574.609 134.736 574.328 134.819 574.04 134.846C569.388 135.28 564.851 136.537 560.641 138.559C560.345 138.719 560.016 138.806 559.68 138.814Z" fill="#FFCC05"/>
<path d="M577.686 152.99C561.645 152.99 548.642 161.575 548.642 172.165C548.642 174.989 550.847 176.825 552.882 175.949L560.5 172.701C561.441 172.143 562.151 171.267 562.501 170.231C562.851 169.194 562.818 168.067 562.408 167.054L561.475 164.498C572.196 166.013 583.077 166.013 593.798 164.498L592.851 167.774C592.532 168.722 592.532 169.748 592.851 170.696C593.17 171.645 593.791 172.463 594.618 173.026L602.151 177.135C603.988 178.138 606.122 176.796 606.546 174.311C606.664 173.602 606.726 172.884 606.73 172.165C606.73 161.575 593.727 152.99 577.686 152.99Z" fill="#FFCC05"/>
<path d="M597.84 195.025H557.546L563.511 176.359C564.06 174.655 565.136 173.169 566.583 172.114C568.03 171.058 569.775 170.488 571.567 170.485H583.792C585.581 170.491 587.323 171.063 588.767 172.118C590.212 173.173 591.285 174.657 591.834 176.359L597.84 195.025Z" fill="#FF4F00" fill-opacity="0.9"/>
<path d="M837.089 445.133C834.088 445.133 831.095 444.826 828.157 444.215C827.872 444.158 827.6 444.045 827.359 443.882C827.117 443.72 826.91 443.511 826.75 443.268C826.59 443.025 826.479 442.753 826.425 442.467C826.37 442.181 826.373 441.888 826.433 441.603C826.559 441.032 826.902 440.533 827.39 440.212C827.878 439.89 828.473 439.771 829.048 439.88C833.625 440.825 838.333 440.954 842.955 440.262C843.243 440.218 843.538 440.232 843.821 440.302C844.104 440.372 844.371 440.497 844.606 440.67C844.841 440.843 845.039 441.061 845.19 441.31C845.341 441.56 845.441 441.837 845.485 442.125C845.528 442.414 845.515 442.708 845.444 442.991C845.374 443.274 845.249 443.541 845.076 443.775C844.902 444.01 844.685 444.208 844.435 444.359C844.185 444.509 843.908 444.609 843.619 444.653C841.457 444.97 839.275 445.13 837.089 445.133ZM857.201 439.965C856.711 439.963 856.235 439.799 855.848 439.498C855.461 439.197 855.185 438.777 855.062 438.303C854.94 437.829 854.978 437.328 855.17 436.877C855.363 436.427 855.699 436.053 856.127 435.814C860.208 433.545 863.858 430.577 866.911 427.045C867.295 426.6 867.841 426.325 868.428 426.281C869.015 426.237 869.595 426.428 870.041 426.812C870.487 427.196 870.762 427.741 870.806 428.328C870.85 428.914 870.659 429.494 870.274 429.94C866.883 433.871 862.82 437.17 858.275 439.683C857.948 439.868 857.578 439.965 857.201 439.965ZM814.985 438.779C814.569 438.78 814.162 438.663 813.812 438.44C809.417 435.671 805.546 432.148 802.378 428.034C802.051 427.567 801.916 426.993 802.002 426.43C802.087 425.867 802.387 425.358 802.837 425.01C803.288 424.661 803.856 424.499 804.423 424.557C804.99 424.616 805.513 424.89 805.883 425.323C808.721 429.031 812.201 432.202 816.158 434.684C816.565 434.94 816.879 435.32 817.051 435.769C817.223 436.218 817.244 436.71 817.112 437.172C816.98 437.634 816.701 438.041 816.317 438.33C815.933 438.62 815.466 438.778 814.985 438.779ZM876.055 418.065C875.794 418.066 875.535 418.018 875.292 417.924C875.02 417.825 874.771 417.673 874.558 417.477C874.345 417.281 874.174 417.045 874.053 416.782C873.932 416.52 873.864 416.236 873.854 415.947C873.843 415.658 873.89 415.37 873.992 415.1C875.609 410.719 876.437 406.087 876.437 401.417C876.481 400.862 876.733 400.343 877.143 399.965C877.553 399.587 878.091 399.377 878.648 399.377C879.206 399.377 879.744 399.587 880.154 399.965C880.564 400.343 880.816 400.862 880.86 401.417C880.868 406.613 879.944 411.768 878.133 416.639C877.974 417.06 877.689 417.423 877.318 417.678C876.946 417.933 876.506 418.068 876.055 418.065ZM797.375 415.862C796.9 415.862 796.438 415.709 796.056 415.427C795.675 415.145 795.394 414.748 795.255 414.295C793.966 410.119 793.314 405.773 793.318 401.403C793.318 400.584 793.318 399.765 793.389 398.961C793.446 398.384 793.717 397.849 794.148 397.463C794.58 397.076 795.141 396.865 795.721 396.871C796.307 396.904 796.857 397.167 797.249 397.604C797.641 398.041 797.844 398.615 797.813 399.201C797.813 399.935 797.813 400.613 797.813 401.403C797.814 405.332 798.4 409.239 799.551 412.996C799.646 413.274 799.685 413.568 799.665 413.861C799.645 414.154 799.567 414.44 799.436 414.703C799.304 414.966 799.122 415.2 798.899 415.392C798.676 415.583 798.417 415.729 798.138 415.82C797.888 415.881 797.629 415.895 797.375 415.862ZM877.44 393.609C876.945 393.611 876.464 393.446 876.075 393.141C875.685 392.836 875.409 392.409 875.292 391.929C874.181 387.39 872.266 383.086 869.638 379.221C869.337 378.736 869.234 378.153 869.352 377.594C869.47 377.035 869.799 376.543 870.271 376.22C870.743 375.898 871.322 375.77 871.886 375.864C872.45 375.957 872.956 376.264 873.299 376.722C876.234 381.014 878.378 385.796 879.631 390.842C879.707 391.168 879.709 391.506 879.637 391.833C879.565 392.16 879.42 392.467 879.214 392.731C879.008 392.994 878.746 393.209 878.446 393.359C878.147 393.508 877.817 393.589 877.482 393.595L877.44 393.609ZM798.986 387.015C798.684 387.016 798.386 386.953 798.11 386.832C797.843 386.716 797.601 386.55 797.399 386.341C797.197 386.132 797.038 385.885 796.931 385.615C796.825 385.345 796.773 385.056 796.779 384.766C796.785 384.475 796.848 384.189 796.965 383.923C799.044 379.161 801.959 374.809 805.572 371.074C805.773 370.865 806.014 370.698 806.28 370.582C806.546 370.467 806.832 370.404 807.122 370.399C807.412 370.394 807.7 370.446 807.97 370.552C808.24 370.658 808.487 370.816 808.695 371.017C808.904 371.218 809.071 371.459 809.187 371.724C809.303 371.99 809.365 372.276 809.371 372.566C809.376 372.855 809.324 373.143 809.218 373.413C809.112 373.683 808.953 373.929 808.752 374.138C805.509 377.499 802.892 381.41 801.021 385.688C800.848 386.083 800.563 386.419 800.201 386.655C799.84 386.89 799.418 387.016 798.986 387.015ZM861.173 369.746C860.711 369.751 860.26 369.608 859.886 369.337C856.081 366.633 851.82 364.634 847.308 363.435C846.818 363.223 846.421 362.843 846.19 362.363C845.958 361.883 845.907 361.336 846.046 360.822C846.185 360.308 846.504 359.86 846.946 359.562C847.388 359.264 847.923 359.135 848.453 359.199C853.457 360.523 858.186 362.727 862.416 365.708C862.803 365.977 863.094 366.363 863.245 366.81C863.396 367.256 863.4 367.739 863.256 368.188C863.112 368.636 862.828 369.027 862.445 369.303C862.063 369.578 861.602 369.724 861.13 369.718L861.173 369.746ZM819.098 366.202C818.587 366.213 818.087 366.047 817.685 365.732C817.282 365.418 817 364.974 816.887 364.476C816.774 363.978 816.837 363.456 817.065 362.999C817.292 362.542 817.671 362.177 818.137 361.966C822.822 359.714 827.871 358.313 833.047 357.829C833.338 357.802 833.631 357.833 833.909 357.919C834.188 358.005 834.447 358.145 834.671 358.332C834.896 358.518 835.081 358.746 835.217 359.004C835.353 359.262 835.437 359.544 835.464 359.834C835.491 360.124 835.46 360.417 835.374 360.695C835.288 360.974 835.147 361.232 834.961 361.457C834.775 361.681 834.546 361.866 834.288 362.002C834.03 362.138 833.748 362.222 833.457 362.249C828.803 362.669 824.264 363.927 820.059 365.962C819.746 366.116 819.404 366.199 819.055 366.202H819.098Z" fill="#FFCC05"/>
<path d="M862.501 393.524H810.985V422.71H862.501V393.524Z" fill="#FF4F00" fill-opacity="0.9"/>
<path d="M855.435 391.223V387.651C855.435 386.385 855.938 385.171 856.834 384.276C857.73 383.381 858.945 382.878 860.212 382.878C860.838 382.878 861.459 383.001 862.038 383.241C862.616 383.482 863.142 383.833 863.585 384.277C864.027 384.72 864.378 385.246 864.616 385.825C864.855 386.404 864.976 387.024 864.975 387.651V393.567H855.435" fill="#FFCC05"/>
<path d="M855.534 387.58V417.952H820.412V387.58C820.412 386.318 820.914 385.107 821.807 384.215C822.7 383.323 823.912 382.821 825.175 382.821H859.901L858.94 383.019C857.956 383.311 857.093 383.913 856.479 384.735C855.865 385.556 855.534 386.554 855.534 387.58Z" fill="#E0EEF7"/>
<path d="M830.376 387.749H822.589V395.741H830.376V387.749Z" fill="#FFCC05"/>
<path d="M832.765 387.707H852.565" stroke="#FFCC05" stroke-width="0.66" stroke-linecap="round" stroke-linejoin="round"/>
<path d="M832.765 390.404H852.565" stroke="#FFCC05" stroke-width="0.66" stroke-linecap="round" stroke-linejoin="round"/>
<path d="M832.765 393.087H852.565" stroke="#FFCC05" stroke-width="0.66" stroke-linecap="round" stroke-linejoin="round"/>
<path d="M832.948 395.783H852.749" stroke="#FFCC05" stroke-width="0.66" stroke-linecap="round" stroke-linejoin="round"/>
<path d="M822.588 398.438H852.565" stroke="#FFCC05" stroke-width="0.66" stroke-linecap="round" stroke-linejoin="round"/>
<path d="M822.588 401.121H852.565" stroke="#FFCC05" stroke-width="0.66" stroke-linecap="round" stroke-linejoin="round"/>
<path d="M822.588 403.747H852.565" stroke="#FFCC05" stroke-width="0.66" stroke-linecap="round" stroke-linejoin="round"/>
<path d="M822.589 406.444H837.16" stroke="#FFCC05" stroke-width="0.66" stroke-linecap="round" stroke-linejoin="round"/>
<path d="M849.852 422.71H810.985V393.524L849.852 422.71Z" fill="#FFCC05"/>
<path d="M823.635 422.71H862.501V393.524L823.635 422.71Z" fill="#FFCC05"/>
<path d="M862.501 422.71H810.985L834.122 410.37C834.893 409.839 835.807 409.555 836.743 409.555C837.68 409.555 838.594 409.839 839.365 410.37L862.501 422.71Z" fill="#FFCC05"/>
</svg>
