<svg width="829" height="782" viewBox="0 0 829 782" fill="none" xmlns="http://www.w3.org/2000/svg">
<path d="M113.531 224.248C113.531 224.248 394.769 -18.2982 523.45 72.4404C652.132 163.179 546.526 260.446 602.455 262.309C658.383 264.171 770.784 165.173 820.208 271.715C869.632 378.258 667.185 506.567 703.367 512.023C739.549 517.479 800.267 498.252 800.267 538.268C800.267 578.285 627.848 736.847 511.435 725.917C395.022 714.986 563.098 606.6 494.98 616.477C426.861 626.354 310.487 778.689 218.182 686.088C125.877 593.487 299.504 422.564 222.505 446.645C95.7712 486.23 -53.5523 380.835 113.531 224.248Z" fill="#FFE580"/>
<path d="M470.346 228.688C489.021 217.513 480.083 190.158 462.089 180.487C444.095 170.817 452.936 167.073 453.754 145.042C455.156 107.791 431.788 106.361 431.788 106.361C431.788 106.361 409.841 105.138 409.841 145.042C409.841 167.092 419.578 170.817 401.487 180.487C383.396 190.158 374.575 217.513 393.25 228.688C415.742 242.159 368.148 248.894 376.23 286.71C381.721 312.372 410.659 311.883 431.788 312.372C452.917 311.883 481.874 312.372 487.346 286.71C495.447 248.894 447.912 242.234 470.346 228.688Z" fill="#70CACD"/>
<path d="M431.165 304.451C431.652 302.795 433.814 185.435 431.165 163.611C430.192 155.691 427.037 318.411 431.165 304.451Z" fill="#008EA7"/>
<path d="M406.843 191.757C406.843 191.757 427.465 221.859 430.776 221.088C434.086 220.316 456.091 192.66 453.891 191.117C453.131 190.609 430.425 217.927 430.425 217.927C430.425 217.927 405.421 186.32 406.843 191.757Z" fill="#008EA7"/>
<path d="M406.843 219.658C406.843 219.658 427.465 249.759 430.776 248.988C434.086 248.217 456.091 220.561 453.891 219.018C453.131 218.51 430.425 245.827 430.425 245.827C430.425 245.827 405.421 214.239 406.843 219.658Z" fill="#008EA7"/>
<path d="M406.843 254.971C406.843 254.971 427.465 285.073 430.776 284.32C434.086 283.568 456.091 255.874 453.891 254.35C453.131 253.842 430.425 281.141 430.425 281.141C430.425 281.141 405.421 249.553 406.843 254.971Z" fill="#008EA7"/>
<path d="M577.899 330.96V285.995H291.364V330.96C277.258 330.937 263.298 333.725 250.357 339.151C237.416 344.576 225.773 352.523 216.156 362.493C206.538 372.463 199.153 384.243 194.461 397.096C189.769 409.949 187.873 423.599 188.889 437.192C189.906 450.785 193.814 464.03 200.369 476.098C206.924 488.166 215.985 498.797 226.987 507.329C237.988 515.86 250.692 522.107 264.306 525.679C277.919 529.251 292.149 530.072 306.106 528.09C316.299 547.71 331.166 564.714 349.483 577.705C367.801 590.696 389.048 599.302 411.477 602.818V714.12H371.459C366.537 714.12 361.664 715.057 357.117 716.877C352.57 718.698 348.438 721.366 344.959 724.729C341.48 728.092 338.72 732.085 336.839 736.479C334.957 740.872 333.99 745.581 333.992 750.337H411.477V751.183H457.299V750.337H534.784C534.787 745.581 533.82 740.872 531.938 736.479C530.056 732.085 527.297 728.092 523.817 724.729C520.338 721.366 516.207 718.698 511.66 716.877C507.113 715.057 502.239 714.12 497.317 714.12H457.299V602.818C479.74 599.304 500.996 590.691 519.318 577.69C537.641 564.689 552.506 547.67 562.69 528.034C576.652 530.07 590.899 529.299 604.538 525.769C618.178 522.239 630.916 516.026 641.955 507.52C652.994 499.013 662.096 488.396 668.691 476.334C675.286 464.271 679.232 451.023 680.282 437.419C681.332 423.815 679.463 410.148 674.793 397.274C670.122 384.4 662.75 372.597 653.139 362.603C643.528 352.609 631.884 344.64 618.937 339.195C605.99 333.75 592.019 330.946 577.899 330.96ZM291.364 499.042C272.425 499.042 254.262 491.773 240.87 478.835C227.478 465.897 219.955 448.349 219.955 430.052C219.955 411.754 227.478 394.206 240.87 381.268C254.262 368.33 272.425 361.062 291.364 361.062V455.13C291.072 458.724 290.878 462.355 290.878 466.042C290.877 477.162 292.263 488.242 295.006 499.042C293.799 499.004 292.572 499.042 291.364 499.042ZM577.899 499.042C576.516 499.042 575.153 499.042 573.79 498.91C576.518 488.121 577.898 477.055 577.899 465.948V361.062C596.838 361.062 615.001 368.33 628.393 381.268C641.785 394.206 649.309 411.754 649.309 430.052C649.309 448.349 641.785 465.897 628.393 478.835C615.001 491.773 596.838 499.042 577.899 499.042Z" fill="#FAB217"/>
<path d="M336.679 374.175C336.636 343.297 344.825 312.928 360.457 285.995H291.364V330.96C277.258 330.937 263.298 333.725 250.357 339.151C237.416 344.576 225.773 352.523 216.156 362.493C206.538 372.463 199.153 384.243 194.461 397.096C189.769 409.949 187.873 423.599 188.889 437.192C189.906 450.785 193.814 464.03 200.369 476.098C206.924 488.166 215.985 498.797 226.987 507.329C237.988 515.86 250.692 522.107 264.306 525.679C277.919 529.251 292.149 530.072 306.106 528.09C316.299 547.71 331.166 564.714 349.483 577.705C367.801 590.696 389.048 599.302 411.477 602.818V714.12H371.459C366.537 714.12 361.664 715.057 357.117 716.877C352.57 718.698 348.438 721.366 344.959 724.729C341.48 728.092 338.72 732.085 336.839 736.479C334.957 740.872 333.99 745.581 333.992 750.337H411.477V751.183H457.299V750.337H534.784C534.787 745.581 533.82 740.872 531.938 736.479C530.056 732.085 527.297 728.092 523.817 724.729C520.338 721.366 516.207 718.698 511.66 716.877C507.113 715.057 502.239 714.12 497.317 714.12H457.299V602.818C491.981 597.404 523.395 579.869 545.573 553.545C538.288 554.368 530.96 554.783 523.626 554.787C499.076 554.787 474.766 550.115 452.085 541.038C429.403 531.962 408.794 518.658 391.435 501.887C374.075 485.115 360.305 465.205 350.91 443.292C341.515 421.379 336.679 397.893 336.679 374.175ZM291.364 499.042C272.425 499.042 254.262 491.773 240.87 478.835C227.478 465.897 219.955 448.349 219.955 430.052C219.955 411.754 227.478 394.206 240.87 381.268C254.262 368.33 272.425 361.062 291.364 361.062V455.13C291.072 458.724 290.878 462.355 290.878 466.042C290.877 477.162 292.263 488.242 295.006 499.042C293.799 499.004 292.572 499.042 291.364 499.042Z" fill="#F58A28"/>
<path d="M271.949 318.862L215.67 392.405C213.19 395.636 211.687 399.469 211.328 403.477C210.97 407.485 211.769 411.51 213.639 415.105C215.508 418.7 218.374 421.722 221.916 423.836C225.459 425.95 229.539 427.073 233.703 427.079H346.299C350.465 427.076 354.549 425.957 358.095 423.846C361.642 421.734 364.512 418.714 366.387 415.12C368.263 411.526 369.069 407.5 368.716 403.489C368.364 399.479 366.866 395.642 364.39 392.405L308.092 318.862C305.998 316.138 303.273 313.925 300.135 312.401C296.997 310.876 293.533 310.082 290.021 310.082C286.508 310.082 283.045 310.876 279.907 312.401C276.769 313.925 274.044 316.138 271.949 318.862Z" fill="#FFFAEF"/>
<path d="M305.677 214.183H274.422V351.429H305.677V214.183Z" fill="#FFFAEF"/>
<path d="M304.178 210.514H275.922C270.662 210.514 266.399 214.629 266.399 219.705C266.399 224.78 270.662 228.895 275.922 228.895H304.178C309.437 228.895 313.7 224.78 313.7 219.705C313.7 214.629 309.437 210.514 304.178 210.514Z" fill="#FFFAEF"/>
<path d="M345.637 391.201L322.269 360.572H258.006L234.638 391.201C232.763 393.608 231.617 396.471 231.33 399.47C231.043 402.469 231.625 405.487 233.011 408.185C234.397 410.883 236.533 413.155 239.18 414.747C241.826 416.34 244.879 417.19 247.996 417.202H332.103C335.233 417.214 338.304 416.383 340.971 414.801C343.639 413.22 345.797 410.951 347.203 408.25C348.609 405.549 349.207 402.522 348.931 399.51C348.654 396.499 347.513 393.621 345.637 391.201Z" fill="#605575"/>
<path d="M95.1288 540.451C113.804 529.275 104.866 501.92 86.872 492.25C68.8784 482.58 77.7194 478.854 78.5373 456.805C79.8615 419.553 56.4932 418.124 56.4932 418.124C56.4932 418.124 34.527 416.92 34.527 456.805C34.527 478.854 44.2638 482.58 26.1923 492.25C8.12077 501.92 -0.720239 529.275 17.9355 540.451C40.4469 553.921 -7.14652 560.656 0.935017 598.472C6.50446 624.153 35.4422 623.645 56.4932 624.153C77.622 623.664 106.579 624.153 112.051 598.491C120.211 560.656 72.6368 553.921 95.1288 540.451Z" fill="#70CACD"/>
<path d="M55.9479 616.214C56.4348 614.558 58.5963 497.198 55.9479 475.374C54.9742 467.491 51.8195 630.173 55.9479 616.214Z" fill="#008EA7"/>
<path d="M31.6256 503.519C31.6256 503.519 52.2481 533.621 55.5586 532.85C58.8691 532.079 80.8743 504.422 78.6738 502.898C77.9143 502.372 55.3054 529.689 55.3054 529.689C55.3054 529.689 30.204 498.101 31.6256 503.519Z" fill="#008EA7"/>
<path d="M31.6256 531.439C31.6256 531.439 52.2481 561.541 55.5586 560.769C58.8691 559.998 80.8743 532.342 78.6738 530.818C77.9143 530.291 55.3054 557.609 55.3054 557.609C55.3054 557.609 30.204 526.02 31.6256 531.439Z" fill="#008EA7"/>
<path d="M31.6256 566.752C31.6256 566.752 52.2481 596.854 55.5586 596.083C58.8691 595.311 80.8743 567.655 78.6738 566.112C77.9143 565.604 55.3054 592.922 55.3054 592.922C55.3054 592.922 30.204 561.315 31.6256 566.752Z" fill="#008EA7"/>
<path d="M372.725 428.095H81.3804V751.164H372.725V428.095Z" fill="#FFFAEF"/>
<path d="M372.725 423.937H81.3804V474.226H372.725V423.937Z" fill="#F05757"/>
<path d="M372.725 474.772H81.3804V496.219H372.725V474.772Z" fill="#D6ECE1"/>
<path d="M346.046 414.794C346.046 408.798 341.016 403.938 334.81 403.938C328.604 403.938 323.574 408.798 323.574 414.794V444.67C323.574 450.665 328.604 455.525 334.81 455.525C341.016 455.525 346.046 450.665 346.046 444.67V414.794Z" fill="#383A45"/>
<path d="M130.513 414.794C130.513 408.798 125.482 403.938 119.276 403.938C113.071 403.938 108.04 408.798 108.04 414.794V444.67C108.04 450.665 113.071 455.525 119.276 455.525C125.482 455.525 130.513 450.665 130.513 444.67V414.794Z" fill="#383A45"/>
<path d="M167.921 578.458H114.78V571.049L142.854 539.855C147.014 535.139 149.873 531.314 151.433 528.38C153.03 525.41 153.828 522.346 153.828 519.189C153.828 514.956 152.547 511.484 149.984 508.773C147.422 506.062 144.006 504.707 139.735 504.707C134.61 504.707 130.618 506.173 127.759 509.107C124.937 512.004 123.526 516.051 123.526 521.25H113.22C113.22 513.786 115.616 507.752 120.406 503.147C125.234 498.542 131.677 496.24 139.735 496.24C147.274 496.24 153.234 498.226 157.616 502.2C161.998 506.136 164.189 511.391 164.189 517.964C164.189 525.948 159.101 535.455 148.926 546.484L127.202 570.046H167.921V578.458ZM183.573 537.794L187.696 497.354H229.25V506.879H196.441L193.99 528.993C197.963 526.654 202.475 525.484 207.526 525.484C214.916 525.484 220.783 527.935 225.128 532.837C229.473 537.701 231.645 544.293 231.645 552.611C231.645 560.967 229.38 567.558 224.849 572.386C220.356 577.176 214.062 579.572 205.966 579.572C198.799 579.572 192.95 577.585 188.42 573.611C183.889 569.638 181.308 564.142 180.677 557.123H190.425C191.056 561.765 192.709 565.274 195.383 567.651C198.056 569.991 201.584 571.16 205.966 571.16C210.757 571.16 214.507 569.526 217.218 566.259C219.966 562.991 221.34 558.479 221.34 552.723C221.34 547.301 219.855 542.956 216.884 539.688C213.95 536.383 210.032 534.731 205.131 534.731C200.637 534.731 197.109 535.715 194.547 537.683L191.818 539.911L183.573 537.794Z" fill="#383A45"/>
<path d="M693.221 751.183V663.342H382.286V751.183H693.221Z" fill="#70CACD"/>
<path d="M675.676 700.085V663.342H671.333V700.085H675.676Z" fill="#008EA7"/>
<path d="M642.96 700.085V663.342H638.617V700.085H642.96Z" fill="#008EA7"/>
<path d="M686.581 681.365V663.342H682.238V681.365H686.581Z" fill="#008EA7"/>
<path d="M665.276 681.365V663.342H660.934V681.365H665.276Z" fill="#008EA7"/>
<path d="M654.254 681.366V663.342H649.912V681.366H654.254Z" fill="#008EA7"/>
<path d="M609.076 700.085V663.342H604.733V700.085H609.076Z" fill="#008EA7"/>
<path d="M631.393 681.365V663.342H627.05V681.365H631.393Z" fill="#008EA7"/>
<path d="M620.351 681.366V663.342H616.009V681.366H620.351Z" fill="#008EA7"/>
<path d="M574.568 700.085V663.342H570.226V700.085H574.568Z" fill="#008EA7"/>
<path d="M596.885 681.366V663.342H592.543V681.366H596.885Z" fill="#008EA7"/>
<path d="M585.844 681.384V663.361H581.501V681.384H585.844Z" fill="#008EA7"/>
<path d="M540.685 700.085V663.342H536.342V700.085H540.685Z" fill="#008EA7"/>
<path d="M563.001 681.365V663.342H558.659V681.365H563.001Z" fill="#008EA7"/>
<path d="M551.96 681.366V663.342H547.617V681.366H551.96Z" fill="#008EA7"/>
<path d="M504.873 700.085V663.342H500.53V700.085H504.873Z" fill="#008EA7"/>
<path d="M527.189 681.366V663.342H522.847V681.366H527.189Z" fill="#008EA7"/>
<path d="M516.167 681.365V663.342H511.825V681.365H516.167Z" fill="#008EA7"/>
<path d="M470.988 700.104V663.361H466.646V700.104H470.988Z" fill="#008EA7"/>
<path d="M493.305 681.365V663.342H488.963V681.365H493.305Z" fill="#008EA7"/>
<path d="M482.264 681.366V663.342H477.921V681.366H482.264Z" fill="#008EA7"/>
<path d="M436.15 700.085V663.342H431.808V700.085H436.15Z" fill="#008EA7"/>
<path d="M458.467 681.384V663.361H454.124V681.384H458.467Z" fill="#008EA7"/>
<path d="M447.426 681.365V663.342H443.083V681.365H447.426Z" fill="#008EA7"/>
<path d="M402.266 700.085V663.342H397.924V700.085H402.266Z" fill="#008EA7"/>
<path d="M424.583 681.365V663.342H420.24V681.365H424.583Z" fill="#008EA7"/>
<path d="M413.542 681.384V663.361H409.199V681.384H413.542Z" fill="#008EA7"/>
<path d="M794.036 522.051C812.711 510.876 803.87 483.52 785.799 473.869C767.727 464.217 776.627 460.455 777.445 438.405C778.847 401.173 755.498 399.724 755.498 399.724C755.498 399.724 733.532 398.52 733.532 438.405C733.532 460.473 743.269 464.199 725.197 473.869C707.126 483.539 698.265 510.876 716.94 522.051C739.432 535.522 691.839 542.257 699.94 580.072C705.412 605.753 734.369 605.339 755.595 605.753C776.724 605.264 805.662 605.753 811.153 580.072C819.138 542.257 771.544 535.522 794.036 522.051Z" fill="#70CACD"/>
<path d="M754.855 597.814C755.342 596.158 757.523 478.817 754.855 456.993C753.901 449.185 750.727 611.774 754.855 597.814Z" fill="#008EA7"/>
<path d="M730.532 485.119C730.532 485.119 751.155 515.221 754.466 514.45C757.776 513.679 779.781 486.022 777.581 484.499C776.821 483.991 754.115 511.289 754.115 511.289C754.115 511.289 729.13 479.701 730.532 485.119Z" fill="#2C4145"/>
<path d="M730.532 513.039C730.532 513.039 751.155 543.141 754.466 542.369C757.776 541.598 779.781 513.942 777.581 512.418C776.821 511.91 754.115 539.209 754.115 539.209C754.115 539.209 729.13 507.62 730.532 513.039Z" fill="#008EA7"/>
<path d="M730.532 548.352C730.532 548.352 751.155 578.454 754.466 577.683C757.776 576.911 779.781 549.255 777.581 547.731C776.821 547.205 754.115 574.522 754.115 574.522C754.115 574.522 729.13 542.934 730.532 548.352Z" fill="#008EA7"/>
<path d="M643.933 546.509H613.438C610.914 546.514 608.495 547.484 606.71 549.209C604.925 550.933 603.92 553.27 603.915 555.709C603.927 557.568 604.519 559.382 605.613 560.912C606.707 562.442 608.253 563.618 610.049 564.288V688.74C610.206 693.422 612.241 697.862 615.724 701.12C619.208 704.378 623.866 706.2 628.715 706.2C633.563 706.2 638.222 704.378 641.705 701.12C645.188 697.862 647.224 693.422 647.38 688.74V564.288C649.178 563.621 650.725 562.445 651.82 560.914C652.914 559.383 653.505 557.569 653.514 555.709C653.512 554.496 653.262 553.296 652.779 552.178C652.296 551.059 651.589 550.043 650.699 549.189C649.809 548.334 648.753 547.658 647.592 547.198C646.431 546.738 645.188 546.504 643.933 546.509Z" fill="#FFFAEF"/>
<path d="M642.473 627.426C642.473 620.039 636.274 614.05 628.627 614.05C620.981 614.05 614.782 620.039 614.782 627.426V687.273C614.782 694.661 620.981 700.65 628.627 700.65C636.274 700.65 642.473 694.661 642.473 687.273V627.426Z" fill="#F05757"/>
<path d="M642.473 581.314H614.782V626.636H642.473V581.314Z" fill="#F05757"/>
<path d="M700.134 546.509H669.561C667.04 546.518 664.626 547.491 662.845 549.215C661.065 550.939 660.063 553.273 660.058 555.708C660.067 557.569 660.658 559.383 661.752 560.914C662.847 562.445 664.394 563.621 666.192 564.287V688.74C666.192 693.52 668.157 698.105 671.656 701.485C675.155 704.865 679.9 706.764 684.848 706.764C689.795 706.764 694.54 704.865 698.039 701.485C701.538 698.105 703.503 693.52 703.503 688.74V564.287C705.305 563.624 706.856 562.449 707.954 560.918C709.053 559.387 709.646 557.571 709.657 555.708C709.652 553.27 708.647 550.933 706.862 549.209C705.077 547.484 702.658 546.514 700.134 546.509Z" fill="#FFFAEF"/>
<path d="M698.693 666.521C698.693 659.134 692.494 653.145 684.848 653.145C677.201 653.145 671.002 659.134 671.002 666.521V687.254C671.002 694.642 677.201 700.631 684.848 700.631C692.494 700.631 698.693 694.642 698.693 687.254V666.521Z" fill="#70CACD"/>
<path d="M698.693 637.755H671.002V683.077H698.693V637.755Z" fill="#70CACD"/>
<path d="M756.92 546.509H726.385C723.864 546.518 721.45 547.492 719.67 549.215C717.889 550.939 716.887 553.273 716.882 555.708C716.894 557.568 717.485 559.382 718.58 560.912C719.674 562.442 721.22 563.618 723.016 564.288V688.74C723.173 693.422 725.208 697.862 728.691 701.12C732.174 704.378 736.833 706.2 741.681 706.2C746.53 706.2 751.189 704.378 754.672 701.12C758.155 697.862 760.19 693.422 760.347 688.74V564.288C762.143 563.618 763.689 562.442 764.783 560.912C765.877 559.382 766.469 557.568 766.481 555.708C766.479 554.498 766.229 553.3 765.747 552.182C765.265 551.064 764.56 550.05 763.673 549.195C762.785 548.341 761.731 547.664 760.573 547.203C759.414 546.742 758.173 546.506 756.92 546.509Z" fill="#FFFAEF"/>
<path d="M755.478 666.521C755.478 659.134 749.279 653.145 741.632 653.145C733.986 653.145 727.787 659.134 727.787 666.521V687.254C727.787 694.642 733.986 700.631 741.632 700.631C749.279 700.631 755.478 694.642 755.478 687.254V666.521Z" fill="#FAB217"/>
<path d="M755.478 588.312H727.787V683.077H755.478V588.312Z" fill="#FAB217"/>
<path d="M593.01 556.047H556.984V749.829H593.01V556.047Z" fill="#605575"/>
<path d="M816.217 556.047H780.19V749.829H816.217V556.047Z" fill="#605575"/>
<path d="M809.79 633.861V599.055H573.673V633.861H809.79Z" fill="#605575"/>
<path d="M815.398 730.808H780.911C775.263 730.808 770.667 739.932 770.667 751.183H825.7C825.7 739.932 821.046 730.808 815.398 730.808Z" fill="#605575"/>
<path d="M592.192 730.808H557.802C552.135 730.808 547.559 739.932 547.559 751.183H602.435C602.435 739.932 597.859 730.808 592.192 730.808Z" fill="#605575"/>
<path d="M35.3836 610.212H292.299V678.411H35.3836C30.7439 678.419 26.1482 677.543 21.8593 675.833C17.5703 674.123 13.6722 671.614 10.3878 668.448C7.10348 665.282 4.49725 661.521 2.71818 657.381C0.939109 653.242 0.022084 648.803 0.0195313 644.321C0.0195249 639.837 0.934661 635.397 2.71259 631.255C4.49051 627.113 7.09633 623.35 10.381 620.182C13.6656 617.014 17.5645 614.503 21.8548 612.792C26.145 611.081 30.7423 610.204 35.3836 610.212Z" fill="#605575"/>
<path d="M292.202 621.763H25.8613V666.879H292.202V621.763Z" fill="#FFFAEF"/>
<path d="M292.202 622.177H25.8613V647.105H292.202V622.177Z" fill="#D6ECE1"/>
<path d="M394.905 621.669C394.905 621.669 394.009 618.001 391.011 619.656C388.012 621.312 390.777 626.034 393.776 627.182C396.775 628.329 394.905 621.669 394.905 621.669Z" fill="#E57373"/>
<path d="M415.606 621.105C415.606 621.105 416.501 617.436 419.5 619.092C422.499 620.747 419.715 625.47 416.716 626.617C413.717 627.765 415.606 621.105 415.606 621.105Z" fill="#E57373"/>
<path d="M416.482 610.87C416.91 612.281 415.664 633.654 406.414 635.874C397.164 638.094 393.289 621.406 393.932 611.754C394.574 602.103 413.016 599.112 416.482 610.87Z" fill="#E57373"/>
<path d="M434.281 759.141L443.842 761.775C443.589 763.299 439.831 779.554 438.74 779.554C437.65 779.554 438.078 766.498 438.078 766.498C436.502 766.301 434.941 766.006 433.404 765.613C432.918 765.256 434.281 759.141 434.281 759.141Z" fill="#383A45"/>
<path d="M364.936 761.38L355.549 764.503C355.9 766.027 360.574 782.056 361.664 782C362.755 781.943 361.664 768.924 361.664 768.924C363.221 768.643 364.756 768.259 366.26 767.777C366.649 767.457 364.936 761.38 364.936 761.38Z" fill="#383A45"/>
<path d="M395.334 728.607C395.334 728.607 444.758 707.347 468.418 725.145C499.226 748.342 364.936 769.357 364.936 769.357L361.333 761.7C361.333 761.7 452.43 727.835 438.156 733.216C423.882 738.597 378.684 747.759 395.334 728.607Z" fill="#027878"/>
<path d="M408.595 724.487C408.595 724.487 353.349 708.457 329.552 726.086C305.755 743.714 433.638 771.916 433.638 771.916L438.546 759.612C438.546 759.612 348.967 727.629 363.124 733.273C385.597 742.096 425.265 743.639 408.595 724.487Z" fill="#027878"/>
<path d="M385.597 663.925C385.597 663.925 343.865 685.617 351.401 702.079C358.937 718.541 377.807 727.967 380.164 731.391C381.83 734.123 383.052 737.086 383.786 740.177C383.786 740.177 381.838 738.296 375.49 736.414C369.141 734.533 338.101 718.485 338.101 697.846C338.101 677.207 372.705 650.511 378.995 647.237C385.285 643.964 385.597 663.925 385.597 663.925Z" fill="#E57373"/>
<path d="M426.491 663.229C426.491 663.229 462.751 689.211 455.215 705.691C447.679 722.172 432.489 727.967 430.094 731.41C428.439 734.145 427.224 737.108 426.491 740.196C426.491 740.196 428.439 738.314 434.787 736.433C441.136 734.552 469.567 719.124 469.567 698.486C469.567 677.847 437.611 650.492 431.34 647.218C425.07 643.945 426.491 663.229 426.491 663.229Z" fill="#E57373"/>
<path d="M371.965 732.501H432.723C432.723 732.501 436.384 648.799 431.632 646.297C416.054 638.075 379.054 642.534 377.106 646.297C375.159 650.059 371.965 732.501 371.965 732.501Z" fill="#605575"/>
<path d="M371.965 706.707C371.965 706.707 369.687 747.176 371.965 747.985C374.244 748.794 430.386 748.737 432.47 747.985C434.553 747.232 433.95 706.707 433.95 706.707C433.95 706.707 388.771 704.431 371.965 706.707Z" fill="#D6ECE1"/>
<path d="M371.965 745.087C371.965 745.087 369.687 749.866 371.965 749.96C374.244 750.054 430.386 749.96 432.47 749.96C434.553 749.96 433.95 745.087 433.95 745.087C433.95 745.087 388.771 744.824 371.965 745.087Z" fill="#9BD5CA"/>
<path d="M410.738 625.827C410.738 625.827 413.639 641.725 412.549 643.456C411.458 645.187 408.518 648.818 405.83 648.818C403.143 648.818 400.085 643.456 399.988 642.59C399.891 641.725 399.988 623.344 399.988 623.344C399.988 623.344 407.661 619.713 410.738 625.827Z" fill="#E57373"/>
<path d="M396.249 605.809C396.249 605.809 398.079 598.058 403.065 598.83C408.05 599.601 415.489 598.284 417.865 600.711C420.24 603.138 421.292 608.744 416.131 609.779C410.971 610.814 398.956 604.944 397.437 609.61C393.542 621.669 398.917 627.483 398.917 627.483C401.994 628.235 410.815 627.615 412.782 626.505C416.56 624.397 412.782 607.691 414.554 607.917C416.326 608.142 417.728 608.933 417.514 613.128C417.3 617.324 416.326 636.514 412.548 637.981C409.997 638.997 400.669 638.583 399.189 637.285C396.327 634.783 390.757 615.781 392.335 611.19C393.912 606.6 393.951 605.998 396.249 605.809Z" fill="#383A45"/>
<path d="M383.922 667.161L366.571 681.347C363.884 683.548 351.479 671.037 351.479 668.798C351.479 666.559 375.237 647.425 377.184 646.221C379.131 645.017 385.383 657.077 383.922 667.161Z" fill="#605575"/>
<path d="M424.914 667.161L442.285 681.347C444.972 683.548 457.357 671.037 457.357 668.798C457.357 666.559 433.599 647.425 431.671 646.221C429.744 645.017 423.454 657.077 424.914 667.161Z" fill="#605575"/>
<path d="M169.615 269.175C169.615 269.175 130.045 287.613 98.0495 274.819C66.0544 262.026 62.5102 262.252 57.6418 264.303C52.7734 266.353 64.8471 253.184 89.2864 264.303C96.7448 267.708 136.198 267.764 166.791 247.37C166.791 247.333 176.781 263.55 169.615 269.175Z" fill="#E57373"/>
<path d="M241.823 163.329C241.823 163.329 247.218 159.98 251.093 160.752C254.968 161.523 255.63 157.271 255.63 157.271C255.824 158.651 255.461 160.05 254.617 161.178C253.772 162.306 252.51 163.076 251.093 163.329C245.718 164.797 241.356 163.894 241.823 174.467C242.291 185.04 266.224 247.107 215.067 260.784C215.067 260.784 205.33 243.72 206.771 239.525C208.212 235.329 230.685 224.361 231.152 206.112C231.619 187.862 232.554 165.925 241.823 163.329Z" fill="#E57373"/>
<path d="M155.594 316.135C155.594 316.135 145.234 341.1 117.855 344.073C90.4747 347.045 69.1706 318.881 69.1706 318.881L59.1807 325.015C59.1807 325.015 72.6564 358.635 108.663 366.16C144.67 373.686 169.946 347.346 169.946 347.346C169.946 347.346 177.541 351.279 174.62 381.343C170.959 418.97 167.318 440.813 167.318 440.813H179.352C179.352 440.813 196.625 400.853 199.507 372.237C202.876 338.899 197.015 321.873 197.015 321.873L155.594 316.135Z" fill="#383A45"/>
<path d="M69.0148 321.44L62.9585 314.648C61.7122 315.457 48.918 324.939 49.327 325.823C49.7359 326.708 61.0111 321.233 61.0111 321.233C61.8017 322.445 62.6802 323.602 63.6401 324.694C64.1269 325.014 69.0148 321.44 69.0148 321.44Z" fill="#383A45"/>
<path d="M170.063 439.252L170.842 448.188C172.341 448.188 188.368 447.812 188.641 446.852C188.913 445.893 176.353 443.917 176.353 443.917C176.451 442.489 176.451 441.056 176.353 439.628C176.158 439.158 170.063 439.252 170.063 439.252Z" fill="#383A45"/>
<path d="M149.558 325.936C149.558 325.936 165.351 286.616 165.623 255.836C165.838 233.26 213.08 237.719 214.716 247.746C218.338 270.135 201.26 343.696 201.26 343.696L149.558 325.936Z" fill="#FAB217"/>
<path d="M198.475 240.146L218.416 228.952C219.331 228.406 238.805 247.351 238.805 247.351C238.805 247.351 221.143 264.942 211.678 265.732C202.214 266.523 193.763 240.804 198.475 240.146Z" fill="#FAB217"/>
<path d="M137.25 258.094C137.25 258.094 138.886 277.83 140.522 278.789C142.157 279.749 170.745 273.521 173.081 271.057C175.418 268.592 178.573 241.839 176.976 242.535C175.379 243.231 139.587 256.965 137.25 258.094Z" fill="#FAB217"/>
<path d="M189.946 219.526C189.946 219.526 189.751 214.145 187.161 214.653C184.571 215.161 182.701 220.448 184.084 222.386C185.467 224.323 189.985 224.004 189.946 219.526Z" fill="#E57373"/>
<path d="M207.18 213.298C207.18 213.298 212.515 228.161 203.285 230.664C194.054 233.166 195.69 223.684 196.06 225.471C196.43 227.258 198.806 242.027 198.806 242.027C198.806 242.027 194.113 247.803 185.175 242.798C183.772 242.008 188.952 218.98 190.023 207.278C190.549 202.18 203.83 207.278 207.18 213.298Z" fill="#E57373"/>
<path d="M190.978 202.725C190.978 202.725 193.081 195.764 197.521 197.401C201.961 199.038 201.416 201.39 204.57 200.073C207.725 198.756 211.075 203.61 209.38 206.733C207.141 210.796 207.16 212.057 201.046 210.721C194.931 209.385 191.698 207.316 190.316 209.686C188.933 212.057 191.387 218.115 189.556 218.868C187.726 219.62 187.862 214.86 186.479 216.648C185.097 218.435 182.955 222.95 186.635 222.386C190.316 221.821 187.589 226.562 186.207 226.412C184.824 226.261 178.417 221.2 179.138 214.428C179.586 210.119 184.259 212.358 183.033 209.235C181.806 206.112 184.61 199.433 190.978 202.725Z" fill="#383A45"/>
<path d="M36.0459 678.242H292.961V746.442H36.0459C26.6822 746.442 17.7021 742.848 11.081 736.452C4.45992 730.055 0.740234 721.379 0.740234 712.333C0.745397 703.29 4.46737 694.619 11.0879 688.226C17.7084 681.833 26.6856 678.242 36.0459 678.242Z" fill="#FAB217"/>
<path d="M34.9554 678.431H292.299V711.449H0.759766C0.764928 702.69 4.36995 694.292 10.7823 688.1C17.1947 681.909 25.8895 678.431 34.9554 678.431Z" fill="#F58A28"/>
<path d="M70.0469 678.242H42.3359V746.893H70.0469V678.242Z" fill="#605575"/>
<path d="M274.87 678.242H247.159V746.893H274.87V678.242Z" fill="#605575"/>
<path d="M222.739 690.396H90.3774V729.378H222.739V690.396Z" fill="#605575"/>
<path d="M718.225 323.495L691.396 306.241C683.706 301.296 673.321 303.31 668.202 310.739L636.305 357.034C631.186 364.464 633.27 374.496 640.96 379.442L667.789 396.696C675.479 401.641 685.864 399.628 690.983 392.198L722.88 345.903C727.999 338.473 725.915 328.441 718.225 323.495Z" fill="#70CACD"/>
<path d="M611.106 490.884L574.616 467.417C569.593 464.187 562.811 465.502 559.468 470.355L521.139 525.984C517.796 530.836 519.157 537.388 524.18 540.618L560.67 564.085C565.693 567.315 572.474 566 575.818 561.147L614.146 505.518C617.489 500.666 616.128 494.114 611.106 490.884Z" fill="#F05757"/>
<path d="M644.128 657.19H591.433V749.641H644.128V657.19Z" fill="#FFFAEF"/>
<path d="M644.128 665.505H591.433V699.633H644.128V665.505Z" fill="#383A45"/>
<path d="M563.605 720.103H671.956C680.514 720.103 688.721 723.387 694.773 729.234C700.824 735.08 704.224 743.009 704.224 751.277H531.356C531.356 743.012 534.753 735.086 540.801 729.24C546.848 723.394 555.05 720.108 563.605 720.103Z" fill="#383A45"/>
<path d="M610.867 682.08C588.33 682.159 566.222 676.128 547.055 664.674C527.888 653.221 512.43 636.803 502.438 617.286C501.476 615.513 500.888 613.573 500.711 611.579C500.534 609.584 500.771 607.576 501.407 605.671C502.043 603.766 503.066 602.002 504.416 600.484C505.766 598.966 507.417 597.723 509.27 596.828C511.123 595.933 513.143 595.405 515.21 595.273C517.278 595.142 519.352 595.41 521.311 596.063C523.269 596.715 525.074 597.738 526.618 599.073C528.163 600.407 529.416 602.026 530.305 603.834C537.448 617.692 548.293 629.454 561.718 637.905C575.144 646.357 590.662 651.189 606.669 651.904C622.676 652.619 638.59 649.19 652.765 641.971C666.94 634.753 678.862 624.007 687.297 610.845C695.733 597.683 700.376 582.583 700.747 567.106C701.117 551.63 697.202 536.338 689.405 522.813C681.609 509.289 670.214 498.022 656.399 490.177C642.585 482.333 626.852 478.197 610.828 478.196C606.697 478.196 602.734 476.61 599.812 473.787C596.891 470.965 595.25 467.137 595.25 463.145C595.25 459.153 596.891 455.325 599.812 452.502C602.734 449.68 606.697 448.094 610.828 448.094C626.86 447.897 642.773 450.778 657.643 456.57C672.514 462.361 686.046 470.948 697.454 481.831C708.863 492.714 717.922 505.678 724.104 519.97C730.287 534.262 733.47 549.597 733.47 565.087C733.47 580.577 730.287 595.913 724.104 610.204C717.922 624.496 708.863 637.46 697.454 648.343C686.046 659.227 672.514 667.813 657.643 673.604C642.773 679.396 626.86 682.277 610.828 682.08H610.867Z" fill="#FFFAEF"/>
<path d="M606.525 593.43H439.733V618.189H606.525V593.43Z" fill="#383A45"/>
<path d="M712.351 361.464L657.252 326.029C652.65 323.07 646.436 324.275 643.373 328.721L523.446 502.78C520.382 507.226 521.63 513.229 526.231 516.188L581.331 551.623C585.933 554.582 592.146 553.377 595.21 548.932L715.137 374.872C718.2 370.426 716.953 364.423 712.351 361.464Z" fill="#383A45"/>
<path d="M642.025 491.817C657.598 491.817 670.223 479.62 670.223 464.575C670.223 449.529 657.598 437.333 642.025 437.333C626.452 437.333 613.827 449.529 613.827 464.575C613.827 479.62 626.452 491.817 642.025 491.817Z" fill="#70CACD"/>
<path d="M642.025 477.199C649.812 477.199 656.124 471.1 656.124 463.578C656.124 456.055 649.812 449.957 642.025 449.957C634.239 449.957 627.926 456.055 627.926 463.578C627.926 471.1 634.239 477.199 642.025 477.199Z" fill="#383A45"/>
<path d="M323.573 188.145C332.489 188.145 339.717 181.162 339.717 172.548C339.717 163.934 332.489 156.952 323.573 156.952C314.657 156.952 307.43 163.934 307.43 172.548C307.43 181.162 314.657 188.145 323.573 188.145Z" fill="#605575"/>
<path d="M345.812 152.041C357.041 152.041 366.143 143.247 366.143 132.4C366.143 121.552 357.041 112.758 345.812 112.758C334.584 112.758 325.482 121.552 325.482 132.4C325.482 143.247 334.584 152.041 345.812 152.041Z" fill="#605575"/>
<path d="M786.772 460.549C798.001 460.549 807.103 451.755 807.103 440.907C807.103 430.059 798.001 421.266 786.772 421.266C775.544 421.266 766.442 430.059 766.442 440.907C766.442 451.755 775.544 460.549 786.772 460.549Z" fill="#605575"/>
<path d="M652.677 538.23C662.002 538.23 669.561 530.928 669.561 521.919C669.561 512.91 662.002 505.607 652.677 505.607C643.352 505.607 635.793 512.91 635.793 521.919C635.793 530.928 643.352 538.23 652.677 538.23Z" fill="#F05757"/>
<path d="M711.663 473.022C720.987 473.022 728.547 465.719 728.547 456.711C728.547 447.702 720.987 440.399 711.663 440.399C702.338 440.399 694.779 447.702 694.779 456.711C694.779 465.719 702.338 473.022 711.663 473.022Z" fill="#FAB217"/>
<path d="M224.297 108.751C249.765 108.751 270.411 88.8047 270.411 64.1999C270.411 39.5951 249.765 19.649 224.297 19.649C198.829 19.649 178.184 39.5951 178.184 64.1999C178.184 88.8047 198.829 108.751 224.297 108.751Z" fill="#FFCC05"/>
<path d="M236.274 129.352L224.297 64.1248L178.904 71.9136C178.904 71.9136 182.604 93.4742 201.279 104.33C215.262 112.476 218.903 132.325 218.903 132.325L236.274 129.352Z" fill="#FFCC05"/>
<path d="M235.981 129.465L223.966 64.2563L269.359 56.4674C269.359 56.4674 273.585 77.9339 259.914 94.3583C249.671 106.644 253.332 126.492 253.332 126.492L235.981 129.465Z" fill="#FFCC05"/>
<path d="M223.168 132.625C223.041 132.65 222.91 132.649 222.783 132.623C222.657 132.596 222.537 132.546 222.432 132.474C222.326 132.402 222.237 132.309 222.169 132.203C222.101 132.096 222.057 131.978 222.038 131.854L213.528 85.5533C213.482 85.3346 213.52 85.1073 213.635 84.9135C213.75 84.7198 213.933 84.5728 214.151 84.4997C214.365 84.4261 214.599 84.4272 214.813 84.5028C215.026 84.5784 215.206 84.7237 215.32 84.9136C218.221 89.8617 221.707 94.1512 222.778 94.0947C223.004 93.6987 223.15 93.2644 223.207 92.8154C223.012 92.5144 222.837 92.2134 222.661 91.8747C221.395 89.2596 220.714 84.1047 222.35 83.1452C222.555 83.0068 222.8 82.9326 223.051 82.9326C223.301 82.9326 223.546 83.0068 223.752 83.1452C224.979 84.067 225.563 88.9962 225.232 92.2322C225.482 92.5971 225.856 92.8664 226.29 92.9934C226.724 93.1205 227.19 93.0975 227.608 92.9283C227.981 92.801 228.323 92.5997 228.612 92.3373C228.9 92.0749 229.128 91.7571 229.282 91.4044C228.018 90.1949 227.111 88.6817 226.653 87.0208C226.147 85.2523 226.089 83.0511 227.413 82.1857C227.669 82.0283 227.966 81.9448 228.27 81.9448C228.573 81.9448 228.87 82.0283 229.126 82.1857C230.723 83.1263 231.95 87.0208 231.619 90.031C231.619 90.2567 231.619 90.4637 231.522 90.6895C232.03 90.9638 232.596 91.1245 233.177 91.1598C233.457 91.1782 233.737 91.1232 233.987 91.0007C234.237 90.8781 234.448 90.6926 234.599 90.4637C233.069 88.3006 232.144 85.7927 231.911 83.1828C231.888 82.7462 232.002 82.313 232.238 81.9402C232.474 81.5674 232.822 81.2725 233.235 81.0945C233.625 80.9336 234.058 80.8999 234.469 80.9983C234.88 81.0968 235.247 81.3221 235.514 81.6401C236.386 82.9005 236.956 84.3334 237.182 85.834C237.408 87.3346 237.284 88.8649 236.819 90.3132C237.083 90.69 237.39 91.0371 237.734 91.3479C238.752 87.8855 239.327 84.3157 239.447 80.7182C239.452 80.4852 239.55 80.263 239.721 80.0982C239.892 79.9334 240.122 79.8387 240.363 79.8339C240.6 79.8211 240.834 79.8924 241.02 80.0345C241.207 80.1765 241.333 80.3795 241.375 80.6053L249.282 124.046C249.328 124.296 249.27 124.553 249.12 124.761C248.971 124.969 248.741 125.111 248.483 125.156C248.225 125.201 247.959 125.145 247.743 125C247.528 124.856 247.381 124.634 247.334 124.385L240.577 87.604C240.168 90.2379 239.545 92.5332 238.63 93.2481C238.38 93.4131 238.085 93.5015 237.783 93.5015C237.48 93.5015 237.185 93.4131 236.935 93.2481C236.451 92.9578 236.023 92.5886 235.67 92.1569C235.325 92.5023 234.905 92.7692 234.44 92.9385C233.975 93.1077 233.477 93.1749 232.982 93.1352C232.217 93.1036 231.468 92.9177 230.782 92.5896C230.233 93.6395 229.283 94.4423 228.133 94.8285C227.564 95.0277 226.954 95.0957 226.352 95.0271C225.75 94.9585 225.173 94.7552 224.667 94.4334C224.161 95.6563 223.401 95.9761 222.817 96.0137C220.87 96.1454 218.319 93.0976 216.235 90.125L223.849 131.515C223.903 131.749 223.863 131.995 223.736 132.201C223.61 132.407 223.406 132.559 223.168 132.625ZM228.348 84.1987C228.173 85.18 228.281 86.1887 228.659 87.1149C228.913 87.8561 229.273 88.5591 229.73 89.2032C229.763 87.4429 229.284 85.709 228.348 84.1987ZM233.956 82.9946C233.835 83.4067 233.835 83.8431 233.956 84.2552C234.226 85.57 234.699 86.8384 235.358 88.0179C235.596 86.201 235.093 84.3659 233.956 82.9006V82.9946Z" fill="#FFFAEF"/>
<path d="M259.019 60.6064H258.707C257.597 60.6078 256.528 60.1962 255.723 59.4572C254.918 58.7181 254.439 57.7082 254.384 56.6367C252.3 37.3339 238.143 35.8099 237.539 35.7535C236.43 35.5696 235.432 34.9941 234.737 34.1389C234.043 33.2837 233.702 32.2097 233.781 31.1253C233.759 30.6074 233.848 30.0907 234.043 29.6076C234.237 29.1246 234.533 28.6856 234.912 28.3182C235.29 27.9507 235.743 27.6628 236.242 27.4725C236.741 27.2822 237.276 27.1935 237.812 27.2121C245.212 27.9082 259.817 34.7376 262.095 56.0347C262.289 57.0327 262.077 58.0644 261.504 58.9156C260.931 59.7669 260.041 60.3724 259.019 60.6064Z" fill="#FFFAEF"/>
<path d="M253.264 121.193L217.563 127.318L222.841 156.03L258.542 149.905L253.264 121.193Z" fill="#383A45"/>
<path d="M248.304 137.986L222.483 142.314L226.111 162.521L251.932 158.194L248.304 137.986Z" fill="#383A45"/>
<path d="M227.024 32.9691C229.379 32.9691 231.288 31.1244 231.288 28.8488C231.288 26.5733 229.379 24.7286 227.024 24.7286C224.668 24.7286 222.759 26.5733 222.759 28.8488C222.759 31.1244 224.668 32.9691 227.024 32.9691Z" fill="#FFFAEF"/>
<path d="M134.388 522.145C145.382 524.155 155.271 529.893 162.274 538.325L151.992 547.844C151.992 547.844 134.991 542.069 134.991 537.779C135.011 536.142 134.388 522.145 134.388 522.145Z" fill="#605575"/>
<path d="M138.964 509.728C139.353 509.051 140.016 506.642 144.027 508.091C148.039 509.54 148.331 503.707 149.149 504.328C149.651 505.085 149.857 505.99 149.728 506.881C149.6 507.771 149.145 508.588 148.448 509.182C146.714 510.48 140.424 510.669 141.048 513.867C141.671 517.065 172.498 537.61 169.888 543.254C167.279 548.898 161.164 549.876 155.945 545.982C150.726 542.088 133.745 518.589 138.964 509.728Z" fill="#E57373"/>
<path d="M121.963 498.741C121.963 498.741 121.768 493.36 119.178 493.868C116.588 494.376 114.719 499.662 116.102 501.6C117.484 503.538 122.002 503.237 121.963 498.741Z" fill="#E57373"/>
<path d="M194.288 644.415L195.398 653.314C196.898 653.314 212.924 652.355 213.139 651.433C213.353 650.511 200.753 648.931 200.753 648.931C200.802 647.498 200.744 646.065 200.578 644.641C200.383 644.114 194.288 644.415 194.288 644.415Z" fill="#383A45"/>
<path d="M170.005 659.561L167.571 668.215C168.973 668.76 184.24 673.69 184.766 672.862C185.292 672.034 174.27 666.032 174.27 666.032C174.868 664.727 175.369 663.381 175.769 662.006C175.769 661.498 170.005 659.561 170.005 659.561Z" fill="#383A45"/>
<path d="M123.892 521.204C123.892 521.204 112.013 520.489 106.093 524.779C100.173 529.068 102.023 611.811 102.023 611.811L140.191 603.213C140.191 603.213 142.781 526.923 137.971 523.706C133.161 520.489 123.892 521.204 123.892 521.204Z" fill="#605575"/>
<path d="M102.022 600.692C102.022 600.692 164.649 551.645 185.759 573.13C206.868 594.615 201.338 647.614 201.338 647.614H192.438C192.438 647.614 189.108 587.41 174.639 584.23C160.171 581.051 145.098 598.322 145.098 598.322C145.098 598.322 167.239 593.9 179.469 605C187.998 612.752 176.859 664.809 176.859 664.809H167.979C167.979 664.809 175.029 611.454 162.605 611.811C150.181 612.168 102.003 611.811 102.003 611.811L102.022 600.692Z" fill="#F05757"/>
<path d="M69.0342 602.724L189.517 517.347L224.706 507.828L200.987 534.675L78.6541 620.616L69.0342 602.724Z" fill="#F9B57C"/>
<path d="M189.517 517.347L184.785 526.434L194.288 527.093L192.808 534.129L200.987 534.675L78.7904 622.177L69.0342 602.724L189.517 517.347Z" fill="#FAB217"/>
<path d="M205.291 513.077L212.224 521.957L224.706 507.828L205.291 513.077Z" fill="#383A45"/>
<path d="M92.6753 554.542C92.6753 554.542 90.0075 583.948 97.0569 584.192C104.106 584.437 128.215 571.7 130.668 571.286C134.563 570.571 138.614 573.393 139.042 573.055C139.47 572.716 138.536 567.768 130.104 566.564C123.152 565.567 104.788 572.735 103.503 569.856C102.217 566.978 107.845 524.873 107.845 524.873C107.845 524.873 92.1885 529.783 92.6753 554.542Z" fill="#E57373"/>
<path d="M88.4883 550.196C88.4883 550.196 103.386 556.687 105.469 554.448C107.553 552.209 114.486 521.731 114.486 521.731C114.486 521.731 94.7393 521.957 88.4883 550.196Z" fill="#605575"/>
<path d="M137.971 486.342C137.971 486.342 144.533 507.376 135.283 509.878C126.034 512.381 127.689 502.898 128.059 504.686C128.429 506.473 130.805 521.242 130.805 521.242C130.805 521.242 126.111 527.018 117.173 522.013C115.771 521.223 120.951 498.195 122.022 486.493C122.567 481.394 134.641 480.322 137.971 486.342Z" fill="#E57373"/>
<path d="M91.4094 506.097C96.7647 497.8 106.112 501.694 106.326 493.83C106.54 485.966 115.751 474.076 132.304 478.666C140.23 480.867 139.918 485.853 132.557 485.684C125.196 485.514 124.943 491.027 124.339 493.83C123.736 496.633 121.827 499.775 121.321 498.289C119.374 492.645 117.017 495.523 117.017 495.523C117.017 495.523 114.194 499.982 117.017 501.28C119.841 502.578 120.912 501.017 121.321 502.879C121.73 504.742 123.716 516.049 115.654 516.294C107.592 516.538 110.338 521.336 101.497 523.123C92.6558 524.91 86.541 513.66 91.4094 506.097Z" fill="#383A45"/>
<path d="M625.979 277.98L626.914 286.898C628.413 286.898 644.44 286.239 644.693 285.28C644.946 284.32 632.347 282.552 632.347 282.552C632.45 281.124 632.45 279.69 632.347 278.262C632.074 277.848 625.979 277.98 625.979 277.98Z" fill="#383A45"/>
<path d="M593.205 352.125L591.257 360.892C592.679 361.363 608.238 365.389 608.784 364.505C609.329 363.62 597.859 358.334 597.859 358.334C598.38 356.992 598.797 355.615 599.105 354.214C599.086 353.706 593.205 352.125 593.205 352.125Z" fill="#383A45"/>
<path d="M564.501 241.82C564.501 241.82 588.434 196.818 615.95 199.96C643.466 203.102 635.326 278.789 635.326 278.789H624.557C624.557 278.789 622.22 223.251 612.873 223.383C603.526 223.515 571.979 265.977 571.979 265.977C571.979 265.977 612.873 262.628 618.443 289.588C625.103 322.343 601.754 356.189 601.754 356.189L588.551 355.7C588.551 355.7 613.73 298.487 599.534 290.115C577.684 277.228 535.602 300.387 518.913 270.003L564.501 241.82Z" fill="#007F86"/>
<path d="M533.83 181.767C533.83 181.767 563.664 192.528 578.911 186.376C594.159 180.224 611.354 149.708 621.091 149.351C630.828 148.993 631.198 145.588 631.198 145.588C631.198 145.588 630.439 153.998 624.11 154.336C617.781 154.675 610.244 189.65 585.864 199C561.483 208.351 536.108 200.882 536.108 200.882C536.108 200.882 530.442 185.661 533.83 181.767Z" fill="#E57373"/>
<path d="M547.072 180.525C547.072 180.525 495.467 162.238 518.913 270.003C518.913 270.003 572.505 253.466 564.501 241.783C558.951 233.674 556.809 239.111 555.699 226.017C554.589 212.922 585.104 211.361 547.072 180.525Z" fill="#605575"/>
<path d="M524.775 138.759C525.028 138.062 533.947 125.006 548.143 133.547C554.161 137.159 554.238 144.008 561.658 145.776C569.077 147.545 579.846 140.678 583.683 152.53C587.519 164.383 583.137 167.581 589.778 168.936C596.418 170.29 601.462 169.463 599.846 178.587C597.528 191.757 576.73 192.096 574.179 184.626C567.734 165.813 556.751 188.088 551.181 171.325C548.455 162.878 511.397 175.897 524.775 138.759Z" fill="#383A45"/>
<path d="M542.359 157.252C542.359 157.252 545.144 152.38 547.734 152.888C550.324 153.396 549.681 158.174 548.221 160.112C546.76 162.05 542.32 161.73 542.359 157.252Z" fill="#E57373"/>
<path d="M523.587 149.426C523.587 149.426 519.79 165.888 529.039 168.39C538.289 170.892 536.634 161.41 536.264 163.197C535.894 164.985 533.518 179.754 533.518 179.754C533.518 179.754 538.212 185.529 547.15 180.525C548.552 179.735 543.372 156.707 542.301 145.005C541.756 139.906 526.781 138.928 523.587 149.426Z" fill="#E57373"/>
<path d="M539.438 199.809C539.438 199.809 567.811 213.807 583.682 209.366C599.553 204.926 620.253 176.537 629.971 177.251C639.688 177.966 640.448 174.674 640.448 174.674C640.448 174.674 638.695 182.952 632.366 182.576C626.037 182.199 614.411 216.121 589.096 222.724C563.78 229.328 539.438 218.961 539.438 218.961C539.438 218.961 535.543 203.308 539.438 199.809Z" fill="#E57373"/>
<path d="M547.072 180.525C547.072 180.525 560.1 187.938 562.125 188.05C564.15 188.163 562.125 201.22 562.125 201.22C562.125 201.22 543.937 192.453 547.072 180.525Z" fill="#605575"/>
<path d="M535.544 194.899C535.544 194.899 552.817 201.371 553.946 203.723C555.076 206.074 551.999 225.923 547.403 224.681C542.807 223.439 527.209 220.918 526.897 211.192C526.586 201.465 529.701 192.622 535.544 194.899Z" fill="#605575"/>
<path d="M631.198 179.359C655.321 179.359 674.877 160.465 674.877 137.159C674.877 113.853 655.321 94.9602 631.198 94.9602C607.074 94.9602 587.519 113.853 587.519 137.159C587.519 160.465 607.074 179.359 631.198 179.359Z" fill="#FF570C"/>
<path d="M617.761 137.141C617.761 137.762 617.761 138.382 617.761 139.022H630.185V137.141H617.761Z" fill="#FFFAEF"/>
<path d="M632.171 137.141V139.022H644.596C644.596 138.382 644.596 137.762 644.596 137.141H632.171Z" fill="#FFFAEF"/>
<path d="M674.819 139.022C674.819 138.407 674.819 137.78 674.819 137.141H646.543C646.543 137.762 646.543 138.382 646.543 139.022H674.819Z" fill="#FFFAEF"/>
<path d="M587.519 137.141C587.519 137.768 587.519 138.395 587.519 139.022H615.794C615.794 138.382 615.794 137.762 615.794 137.141H587.519Z" fill="#FFFAEF"/>
<path d="M632.171 94.979H630.224V179.321H631.198H632.171V94.979Z" fill="#FFFAEF"/>
<path d="M646.543 139.492C646.543 139.342 646.543 139.172 646.543 139.022C646.543 138.382 646.543 137.761 646.543 137.141C647.049 123.839 651.801 112.118 658.948 104.612C658.461 104.217 657.955 103.84 657.448 103.464C650.029 111.328 645.102 123.444 644.596 137.141C644.596 137.761 644.596 138.382 644.596 139.022C644.596 139.172 644.596 139.342 644.596 139.492C644.33 151.317 647.958 162.918 654.956 172.623C655.481 172.303 656.007 171.946 656.533 171.589C649.768 162.182 646.27 150.943 646.543 139.492Z" fill="#FFFAEF"/>
<path d="M604.909 103.464C604.402 103.84 603.896 104.217 603.409 104.612C610.537 112.137 615.308 123.839 615.814 137.141C615.814 137.761 615.814 138.382 615.814 139.022C615.814 139.172 615.814 139.342 615.814 139.492C616.056 150.907 612.552 162.103 605.804 171.476C606.33 171.833 606.856 172.191 607.382 172.51C614.371 162.829 618.005 151.256 617.761 139.455C617.761 139.304 617.761 139.135 617.761 138.984C617.761 138.345 617.761 137.724 617.761 137.103C617.333 123.444 612.328 111.328 604.909 103.464Z" fill="#FFFAEF"/>
<path d="M212.808 1.26787C212.109 1.39152 211.489 1.77767 211.084 2.34181C210.679 2.90595 210.521 3.60215 210.646 4.27807L211.834 10.75C211.871 11.1056 211.984 11.45 212.165 11.7617C212.346 12.0733 212.592 12.3455 212.887 12.5612C213.182 12.7768 213.52 12.9313 213.879 13.015C214.239 13.0986 214.613 13.1096 214.977 13.0473C215.341 12.9849 215.688 12.8506 215.996 12.6527C216.304 12.4548 216.567 12.1976 216.767 11.8972C216.967 11.5967 217.102 11.2596 217.161 10.9068C217.22 10.554 217.203 10.1932 217.112 9.84693L215.924 3.29975C215.782 2.63477 215.377 2.04969 214.795 1.66989C214.212 1.2901 213.499 1.14578 212.808 1.26787Z" fill="#FFCC05"/>
<path d="M232.963 0.0261883C232.261 -0.0708529 231.548 0.104088 230.979 0.51288C230.41 0.921672 230.031 1.53118 229.925 2.20858L228.932 8.73695C228.829 9.41555 229.008 10.106 229.432 10.6564C229.856 11.2068 230.488 11.5721 231.191 11.6719C231.893 11.7717 232.608 11.5978 233.178 11.1885C233.747 10.7793 234.125 10.1681 234.229 9.4895L235.222 2.97995C235.323 2.2996 235.142 1.60828 234.719 1.05552C234.297 0.502753 233.666 0.132981 232.963 0.0261883Z" fill="#FFCC05"/>
<path d="M253.177 3.67604C252.882 3.49088 252.552 3.36393 252.206 3.30248C251.86 3.24104 251.504 3.24631 251.16 3.318C250.817 3.38969 250.491 3.52639 250.202 3.72022C249.913 3.91405 249.666 4.16119 249.477 4.4474L245.777 9.97864C245.501 10.2527 245.292 10.5824 245.165 10.944C245.037 11.3057 244.995 11.6901 245.04 12.0696C245.085 12.4491 245.217 12.8141 245.427 13.1383C245.636 13.4624 245.917 13.7376 246.25 13.9438C246.582 14.1501 246.959 14.2824 247.351 14.331C247.743 14.3796 248.141 14.3434 248.517 14.225C248.893 14.1066 249.237 13.909 249.524 13.6464C249.812 13.3838 250.035 13.0628 250.178 12.7066L253.878 7.17539C254.245 6.61584 254.377 5.94172 254.247 5.29113C254.116 4.64054 253.734 4.06272 253.177 3.67604Z" fill="#FFCC05"/>
<path d="M266.808 14.1554C266.546 13.9284 266.241 13.7536 265.909 13.6411C265.577 13.5286 265.226 13.4806 264.875 13.4998C264.524 13.519 264.18 13.6051 263.863 13.7532C263.547 13.9012 263.264 14.1082 263.03 14.3623L258.493 19.2727C258.258 19.5255 258.077 19.8207 257.961 20.1412C257.844 20.4618 257.794 20.8015 257.814 21.1407C257.834 21.4799 257.923 21.8119 258.077 22.1177C258.23 22.4235 258.444 22.697 258.707 22.9226C259.24 23.3717 259.934 23.6014 260.64 23.5628C261.346 23.5241 262.008 23.22 262.485 22.7156L267.022 17.8052C267.257 17.5524 267.438 17.2573 267.555 16.9367C267.671 16.6161 267.721 16.2765 267.701 15.9373C267.681 15.5981 267.592 15.266 267.439 14.9602C267.285 14.6544 267.071 14.3809 266.808 14.1554Z" fill="#FFCC05"/>
<path d="M279.875 29.526C279.737 29.2146 279.537 28.9325 279.286 28.6958C279.035 28.4591 278.738 28.2726 278.413 28.1468C278.087 28.0209 277.739 27.9584 277.388 27.9626C277.038 27.9668 276.692 28.0378 276.369 28.1714L270.099 30.7677C269.488 31.066 269.018 31.578 268.785 32.1995C268.552 32.8209 268.573 33.5049 268.843 34.112C269.114 34.7191 269.614 35.2036 270.242 35.4666C270.87 35.7296 271.578 35.7515 272.221 35.5276L278.492 32.9125C279.14 32.6398 279.649 32.1302 279.908 31.4954C280.167 30.8606 280.155 30.1523 279.875 29.526Z" fill="#FFCC05"/>
<path d="M288.774 43.8998C288.682 43.2195 288.315 42.6022 287.753 42.1826C287.191 41.7631 286.48 41.5756 285.775 41.6609L279.018 42.4887C278.353 42.6202 277.765 42.9894 277.371 43.5223C276.976 44.0553 276.805 44.7126 276.891 45.3624C276.978 46.0122 277.315 46.6065 277.836 47.0261C278.357 47.4457 279.022 47.6596 279.699 47.6249L286.457 46.7971C287.159 46.7033 287.795 46.3473 288.228 45.8056C288.661 45.2639 288.857 44.5796 288.774 43.8998Z" fill="#FFCC05"/>
<path d="M291.792 60.738C291.777 60.0527 291.482 59.4011 290.971 58.9252C290.46 58.4494 289.776 58.1881 289.066 58.1982L282.25 58.3299C281.88 58.3098 281.509 58.3643 281.161 58.4897C280.813 58.6151 280.496 58.8088 280.229 59.0586C279.963 59.3084 279.753 59.6088 279.612 59.9409C279.472 60.273 279.405 60.6296 279.414 60.9882C279.423 61.3468 279.51 61.6996 279.667 62.0244C279.825 62.3491 280.051 62.6388 280.33 62.8752C280.609 63.1115 280.936 63.2894 281.29 63.3976C281.644 63.5057 282.018 63.5418 282.387 63.5036L289.202 63.3719C289.907 63.3522 290.574 63.0642 291.059 62.5708C291.545 62.0773 291.808 61.4185 291.792 60.738Z" fill="#FFCC05"/>
<path d="M290.683 76.8051C290.848 76.1418 290.736 75.4422 290.372 74.8578C290.007 74.2733 289.42 73.851 288.735 73.682L282.095 72.1581C281.753 72.0791 281.399 72.0657 281.053 72.1189C280.706 72.1721 280.373 72.2907 280.074 72.4681C279.775 72.6454 279.515 72.8779 279.308 73.1524C279.102 73.4269 278.954 73.7379 278.872 74.0677C278.79 74.3975 278.776 74.7397 278.831 75.0747C278.886 75.4097 279.009 75.7309 279.193 76.02C279.376 76.3092 279.617 76.5605 279.901 76.7598C280.185 76.9591 280.507 77.1023 280.849 77.1814L287.47 78.7241C288.159 78.877 288.883 78.7613 289.484 78.4021C290.085 78.0428 290.516 77.4691 290.683 76.8051Z" fill="#FFCC05"/>
<path d="M286.652 93.06C286.995 92.4606 287.079 91.7546 286.885 91.0956C286.692 90.4366 286.237 89.8782 285.619 89.5418L279.661 86.3435C279.354 86.1792 279.016 86.0749 278.668 86.0366C278.319 85.9982 277.966 86.0266 277.629 86.1201C277.292 86.2136 276.977 86.3703 276.702 86.5813C276.428 86.7924 276.199 87.0536 276.029 87.35C275.859 87.6465 275.751 87.9725 275.711 88.3092C275.671 88.646 275.701 88.9871 275.797 89.3129C275.894 89.6387 276.056 89.9429 276.275 90.2082C276.493 90.4734 276.764 90.6945 277.071 90.8588L282.913 94.0571C283.223 94.2389 283.569 94.3574 283.929 94.4055C284.288 94.4537 284.654 94.4303 285.004 94.337C285.355 94.2436 285.681 94.0822 285.964 93.8626C286.248 93.6431 286.481 93.3699 286.652 93.06Z" fill="#FFCC05"/>
<path d="M275.59 104.179C276.17 103.787 276.568 103.192 276.699 102.52C276.83 101.849 276.684 101.154 276.292 100.586L272.397 95.1484C272.197 94.8692 271.943 94.6308 271.648 94.4466C271.353 94.2624 271.024 94.1361 270.678 94.075C270.333 94.0138 269.978 94.019 269.635 94.0902C269.292 94.1614 268.966 94.2972 268.677 94.4899C268.388 94.6827 268.142 94.9285 267.951 95.2133C267.76 95.4982 267.63 95.8166 267.566 96.1503C267.503 96.484 267.508 96.8264 267.582 97.1581C267.656 97.4898 267.796 97.8042 267.996 98.0834L271.891 103.521C272.295 104.076 272.91 104.457 273.601 104.58C274.293 104.703 275.007 104.559 275.59 104.179Z" fill="#FFCC05"/>
<path d="M195.749 6.42291C196.374 6.09446 197.109 6.01894 197.791 6.21293C198.474 6.40691 199.049 6.85455 199.391 7.45767L202.643 13.2335C202.833 13.5336 202.958 13.8679 203.01 14.216C203.062 14.5642 203.04 14.919 202.946 15.2589C202.852 15.5988 202.688 15.9166 202.463 16.1932C202.238 16.4698 201.957 16.6992 201.637 16.8677C201.317 17.0362 200.966 17.1401 200.603 17.1732C200.241 17.2063 199.875 17.1679 199.528 17.0602C199.181 16.9526 198.861 16.778 198.586 16.5471C198.312 16.3162 198.088 16.0337 197.93 15.7169L194.756 9.92227C194.416 9.3292 194.329 8.63108 194.515 7.97715C194.7 7.32322 195.143 6.76539 195.749 6.42291Z" fill="#FFCC05"/>
<path d="M178.164 16.4693C178.375 16.1959 178.64 15.9657 178.944 15.7919C179.248 15.6182 179.584 15.5044 179.934 15.4571C180.283 15.4099 180.639 15.4301 180.981 15.5167C181.322 15.6032 181.642 15.7544 181.923 15.9614L187.356 19.9311C187.636 20.1361 187.871 20.3925 188.049 20.6855C188.226 20.9784 188.342 21.3023 188.39 21.6386C188.438 21.9749 188.417 22.3171 188.328 22.6455C188.239 22.9739 188.084 23.2822 187.872 23.5527C187.66 23.8233 187.394 24.0507 187.091 24.2222C186.788 24.3937 186.453 24.5058 186.105 24.5521C185.756 24.5984 185.402 24.578 185.062 24.492C184.722 24.4061 184.403 24.2563 184.123 24.0513L178.69 20.2321C178.389 20.0262 178.136 19.7627 177.945 19.458C177.754 19.1534 177.63 18.814 177.581 18.4611C177.531 18.1082 177.558 17.7493 177.658 17.4066C177.759 17.064 177.931 16.7449 178.164 16.4693Z" fill="#FFCC05"/>
<path d="M169.011 30.9181C169.35 30.3171 169.919 29.8682 170.596 29.6678C171.273 29.4673 172.005 29.5312 172.633 29.8458L178.651 32.95C178.991 33.0923 179.298 33.3011 179.551 33.5633C179.804 33.8256 179.997 34.1356 180.12 34.4738C180.243 34.812 180.292 35.1711 180.264 35.5286C180.236 35.886 180.132 36.2339 179.958 36.5505C179.784 36.8671 179.544 37.1454 179.253 37.368C178.963 37.5906 178.627 37.7527 178.268 37.8439C177.91 37.9351 177.535 37.9536 177.169 37.8982C176.802 37.8427 176.451 37.7146 176.139 37.5218L170.121 34.4175C169.496 34.094 169.028 33.5445 168.82 32.8889C168.612 32.2333 168.681 31.5248 169.011 30.9181Z" fill="#FFCC05"/>
<path d="M162.196 49.6945C162.216 49.3558 162.305 49.0243 162.458 48.7188C162.61 48.4134 162.824 48.1401 163.086 47.9147C163.349 47.6892 163.655 47.516 163.986 47.4049C164.318 47.2939 164.669 47.2472 165.02 47.2675L171.836 47.625C172.543 47.6624 173.206 47.9699 173.679 48.4797C174.152 48.9895 174.396 49.66 174.357 50.3436C174.319 51.0272 174 51.6679 173.473 52.1248C172.945 52.5817 172.251 52.8174 171.543 52.7799L164.728 52.4225C164.018 52.3836 163.353 52.0748 162.879 51.5635C162.404 51.0522 162.159 50.3802 162.196 49.6945Z" fill="#FFCC05"/>
<path d="M158.983 66.1564C158.824 65.4981 158.939 64.8058 159.303 64.2287C159.667 63.6516 160.252 63.2358 160.93 63.0709L167.59 61.6034C168.282 61.4512 169.009 61.5709 169.609 61.9361C170.21 62.3013 170.636 62.882 170.794 63.5507C170.951 64.2193 170.827 64.921 170.449 65.5014C170.071 66.0818 169.47 66.4933 168.778 66.6455L162.138 68.113C161.452 68.2433 160.741 68.1124 160.153 67.7477C159.565 67.383 159.146 66.8128 158.983 66.1564Z" fill="#FFCC05"/>
<path d="M162.137 82.9759C161.907 82.3272 161.952 81.6168 162.262 81C162.572 80.3831 163.123 79.9099 163.793 79.6835L170.238 77.5388C170.893 77.3746 171.587 77.4547 172.183 77.763C172.779 78.0713 173.232 78.5853 173.453 79.2024C173.675 79.8195 173.647 80.4945 173.376 81.0927C173.105 81.691 172.61 82.1686 171.991 82.4303L165.545 84.5751C165.213 84.6877 164.861 84.7357 164.509 84.7162C164.157 84.6967 163.813 84.6101 163.496 84.4614C163.18 84.3127 162.896 84.1049 162.663 83.85C162.43 83.595 162.251 83.298 162.137 82.9759Z" fill="#FFCC05"/>
<path d="M168.914 97.6882C168.52 97.1165 168.377 96.4173 168.516 95.7439C168.655 95.0704 169.064 94.4775 169.654 94.0948L175.282 90.4637C175.873 90.1342 176.571 90.0341 177.236 90.1838C177.9 90.3335 178.481 90.7218 178.86 91.2699C179.239 91.818 179.388 92.4849 179.277 93.1353C179.166 93.7857 178.803 94.3708 178.261 94.7721L172.575 98.4031C171.989 98.7706 171.278 98.9016 170.593 98.7679C169.909 98.6342 169.306 98.2466 168.914 97.6882Z" fill="#FFCC05"/>
<path d="M178.476 111.611C177.941 111.16 177.612 110.524 177.561 109.84C177.51 109.156 177.741 108.481 178.203 107.961L182.643 103.013C183.125 102.556 183.767 102.292 184.441 102.272C185.115 102.252 185.773 102.477 186.283 102.904C186.793 103.33 187.118 103.926 187.194 104.574C187.27 105.221 187.092 105.873 186.694 106.399L182.254 111.385C181.779 111.892 181.118 112.199 180.412 112.242C179.706 112.284 179.011 112.057 178.476 111.611Z" fill="#FFCC05"/>
<path d="M192.808 118.383C192.118 118.21 191.527 117.782 191.162 117.19C190.798 116.598 190.689 115.891 190.861 115.223L192.555 108.845C192.731 108.181 193.172 107.612 193.782 107.263C194.392 106.914 195.12 106.813 195.807 106.982C196.494 107.152 197.083 107.578 197.445 108.168C197.806 108.757 197.911 109.461 197.735 110.124L196.041 116.502C195.866 117.163 195.429 117.731 194.824 118.083C194.219 118.435 193.495 118.543 192.808 118.383Z" fill="#FFCC05"/>
<path d="M474.981 584.832V593.788C473.482 593.957 457.455 594.728 457.124 593.788C456.793 592.847 469.158 590.025 469.158 590.025C468.94 588.611 468.829 587.184 468.827 585.754C468.886 585.19 474.981 584.832 474.981 584.832Z" fill="#383A45"/>
<path d="M497.901 584.851L497.531 593.806C496.032 593.919 480.005 594.201 479.674 593.242C479.343 592.282 491.825 589.78 491.825 589.78C491.66 588.362 491.595 586.936 491.631 585.509C491.806 585.02 497.901 584.851 497.901 584.851Z" fill="#383A45"/>
<path d="M508.826 474.377C508.826 474.377 520.315 394.794 508.826 383.506C490.891 365.821 459.577 379.066 458.331 381.098C453.19 389.32 452.703 472.345 452.703 472.345L508.826 474.377Z" fill="#7DD0E6"/>
<path d="M452.722 472.345C452.722 472.345 425.907 505.626 430.386 522.389C434.865 539.152 465.438 587.108 465.438 587.108H478.427C478.427 587.108 450.658 527.789 452.761 521.656C454.864 515.522 480.822 490.801 480.822 490.801C480.822 490.801 482.322 556.649 490.287 587.108H499.342C499.342 587.108 508.981 513.509 508.884 470.971L452.722 472.345Z" fill="#383A45"/>
<path d="M497.882 376.64L496.168 521.769H510.909C510.909 521.769 515.953 392.217 513.947 385.125C511.942 378.032 497.882 376.64 497.882 376.64Z" fill="#FBE4D3"/>
<path d="M431.652 504.103L440.318 510.48C440.318 510.48 466.12 475.111 465.4 470.972C464.679 466.833 468.905 376.64 468.905 376.64C468.905 376.64 459.558 377.035 457.669 383.902C452.041 404.39 452.722 467.811 452.722 467.811C445.053 479.547 438.02 491.661 431.652 504.103Z" fill="#FBE4D3"/>
<path d="M485.302 351.354C485.302 351.354 485.496 345.973 488.086 346.5C490.676 347.027 492.546 352.276 491.163 354.232C489.78 356.189 485.263 355.813 485.302 351.354Z" fill="#E57373"/>
<path d="M468.068 345.108C468.068 345.108 462.713 359.952 471.962 362.473C481.212 364.994 479.538 355.493 479.168 357.28C478.798 359.067 477.123 376.226 477.123 376.226C477.123 376.226 481.193 379.593 490.034 374.608C490.034 374.608 486.276 350.771 485.205 339.087C484.698 333.97 471.417 339.087 468.068 345.108Z" fill="#E57373"/>
<path d="M484.27 334.421C484.27 334.421 482.167 327.46 477.727 329.078C473.287 330.696 473.832 333.086 470.677 331.75C467.522 330.414 464.173 335.306 465.867 338.41C468.107 342.493 468.068 343.734 474.202 342.417C480.336 341.1 483.549 339.012 484.932 341.364C486.315 343.715 483.861 349.811 485.691 350.545C487.522 351.279 487.386 346.556 488.749 348.325C490.112 350.093 492.273 354.646 488.612 354.082C484.951 353.517 487.639 358.258 489.041 358.108C490.443 357.957 496.83 352.897 496.11 346.105C495.662 341.815 490.988 344.035 492.215 340.931C493.442 337.827 490.638 331.242 484.27 334.421Z" fill="#383A45"/>
<path d="M514.415 474.377C514.415 474.377 506.411 468.864 516.888 458.046C525.671 448.997 547.15 426.684 539.731 418.537C532.311 410.391 514.415 404.032 514.415 404.032L510.734 380.929C510.734 380.929 550.246 395.735 558.269 416.901C565.864 436.9 522.457 460.774 518.796 463.784C517.324 465.144 516.171 466.794 515.415 468.621C514.66 470.448 514.318 472.411 514.415 474.377Z" fill="#E57373"/>
<path d="M458.35 381.098C458.35 381.098 416.599 393.835 414.652 422.075C412.704 450.314 452.859 460.812 450.288 465.572C448.166 469.466 441.428 470.746 443.375 470.464C445.323 470.181 455.994 474.226 452.859 460.812C449.724 447.398 419.754 437.596 433.152 420.175C440.357 410.881 454.884 405.914 454.884 405.914C454.884 405.914 456.422 387.25 458.35 381.098Z" fill="#E57373"/>
<path d="M512.175 405.914L531.473 412.668C531.473 412.668 543.274 398.877 542.515 398.294C541.756 397.711 522.496 381.531 501.913 377.336C501.932 377.336 507.326 401.906 512.175 405.914Z" fill="#FBE4D3"/>
<path d="M460.901 405.914C460.901 405.914 446.627 409.996 440.142 415.96C440.142 415.96 425.07 400.646 425.44 400.27C425.81 399.893 439.247 385.087 465.069 377.336L460.901 405.914Z" fill="#FBE4D3"/>
<path d="M465.867 357.092C466.776 356.429 467.883 356.071 469.022 356.071C470.16 356.071 471.268 356.429 472.176 357.092C475.584 359.406 485.009 356.32 484.639 349.773L487.424 348.23C487.424 348.23 485.068 364.824 475.584 365.991C466.101 367.157 464.406 357.844 465.867 357.092Z" fill="#383A45"/>
</svg>
