<svg xmlns="http://www.w3.org/2000/svg" viewBox="0 0 500 500"><defs><style>.cls-1{isolation:isolate;}.cls-2{fill:#fff;}.cls-14,.cls-3,.cls-5,.cls-9{mix-blend-mode:multiply;}.cls-4,.cls-5{fill:#ddd;}.cls-6{fill:#2c3a45;}.cls-7{fill:#1d262d;}.cls-8{fill:#415666;}.cls-10,.cls-14,.cls-9{fill:#788b9c;}.cls-9{opacity:0.49;}.cls-11{fill:#a5b7c6;}.cls-12{fill:#fac408;}.cls-13{fill:#ffe736;opacity:0.54;}.cls-14{opacity:0.51;}.cls-15{fill:#e3d9d3;}.cls-16{fill:#e86c27;}.cls-17{fill:#d4d3cf;}.cls-18{fill:#43759c;}.cls-19{fill:#e84e27;}.cls-20{fill:#43999c;}.cls-21{fill:#efd32e;}.cls-22{fill:#202a42;}.cls-23{fill:#3c8a8c;}.cls-24{fill:#ffce88;}.cls-25{fill:#cf6023;}</style></defs><title>home--2</title><g class="cls-1"><g id="BACKGORUND"><rect class="cls-2" width="500" height="500"/></g><g id="OBJECTS"><g class="cls-3"><path class="cls-4" d="M95.36,108l2.16,5.69a20.92,20.92,0,0,0-5.4,5.12l-5.57-2.51a4.5,4.5,0,0,0-3.69,8.21L88.43,127a21.08,21.08,0,0,0-.24,7.44L82.5,136.6A4.5,4.5,0,0,0,85.69,145l5.7-2.17a20.93,20.93,0,0,0,5.11,5.41L94,153.83a4.5,4.5,0,1,0,8.21,3.69l2.51-5.57a20.8,20.8,0,0,0,7.43.23l2.17,5.7a4.5,4.5,0,1,0,8.41-3.2L120.57,149a21,21,0,0,0,5.41-5.12l5.57,2.51a4.5,4.5,0,1,0,3.69-8.21l-5.57-2.51a20.85,20.85,0,0,0,.23-7.44l5.7-2.16a4.5,4.5,0,1,0-3.2-8.42l-5.7,2.17a20.92,20.92,0,0,0-5.11-5.41l2.51-5.57a4.51,4.51,0,0,0-8.22-3.69l-2.5,5.57a20.85,20.85,0,0,0-7.44-.23l-2.16-5.7a4.5,4.5,0,0,0-8.42,3.2Zm21.88,32.23,0-.11a18.14,18.14,0,0,1-2,1.66,12.45,12.45,0,0,1-1.8.87,12.12,12.12,0,1,1,5.94-4.89h0a17.9,17.9,0,0,1-2,2.23l.12.05C117.37,140.1,117.3,140.15,117.24,140.21Z"/><path class="cls-4" d="M141.47,70.1l.17,4.31a15,15,0,0,0-4.78,2.22l-3.17-2.93a3.19,3.19,0,1,0-4.33,4.68l3.18,2.93a14.71,14.71,0,0,0-1.83,4.94l-4.31.18a3.19,3.19,0,1,0,.25,6.37l4.31-.18a15,15,0,0,0,2.22,4.78l-2.93,3.18a3.18,3.18,0,0,0,4.68,4.32l2.94-3.17a15,15,0,0,0,4.94,1.83l.17,4.31a3.19,3.19,0,0,0,6.37-.26l-.17-4.31a14.48,14.48,0,0,0,4.77-2.22l3.18,2.94a3.19,3.19,0,0,0,4.33-4.69l-3.18-2.93a15.06,15.06,0,0,0,1.83-4.94l4.31-.17a3.19,3.19,0,1,0-.26-6.37l-4.31.17a14.81,14.81,0,0,0-2.21-4.78l2.93-3.18a3.12,3.12,0,0,0,.84-2.29,3.15,3.15,0,0,0-1-2.21,3.19,3.19,0,0,0-4.5.18L153,76A14.63,14.63,0,0,0,148,74.16l-.17-4.31a3.19,3.19,0,0,0-6.37.25Zm7.44,26.56v-.09a12.44,12.44,0,0,1-1.76.66,9.08,9.08,0,0,1-1.4.18,8.58,8.58,0,1,1,5.09-2h0A12.6,12.6,0,0,1,149,96.52l.07.07Z"/></g><path class="cls-4" d="M388.33,246.83a1.5,1.5,0,0,1-1.5-1.5V228.67a1.5,1.5,0,0,1,3,0v16.66A1.5,1.5,0,0,1,388.33,246.83Z"/><path class="cls-4" d="M396.67,238.5H380a1.5,1.5,0,0,1,0-3h16.67a1.5,1.5,0,1,1,0,3Z"/><path class="cls-4" d="M438.94,206.39a1.47,1.47,0,0,1-1.06-.44,1.49,1.49,0,0,1,0-2.12l11.79-11.78a1.49,1.49,0,0,1,2.12,0,1.51,1.51,0,0,1,0,2.12L440,206A1.47,1.47,0,0,1,438.94,206.39Z"/><path class="cls-4" d="M450.73,206.39a1.45,1.45,0,0,1-1.06-.44l-11.79-11.78a1.5,1.5,0,0,1,2.12-2.12l11.79,11.78a1.51,1.51,0,0,1,0,2.12A1.48,1.48,0,0,1,450.73,206.39Z"/><path class="cls-4" d="M124,344.17a1.5,1.5,0,0,1-1.5-1.5V326a1.5,1.5,0,0,1,3,0v16.67A1.5,1.5,0,0,1,124,344.17Z"/><path class="cls-4" d="M132.33,335.83H115.67a1.5,1.5,0,0,1,0-3h16.66a1.5,1.5,0,0,1,0,3Z"/><path class="cls-4" d="M37.21,296.17a1.53,1.53,0,0,1-1.06-.44,1.51,1.51,0,0,1,0-2.12l11.79-11.79a1.51,1.51,0,0,1,2.12,0,1.49,1.49,0,0,1,0,2.12L38.28,295.73A1.53,1.53,0,0,1,37.21,296.17Z"/><path class="cls-4" d="M49,296.17a1.51,1.51,0,0,1-1.06-.44L36.15,283.94a1.5,1.5,0,0,1,2.13-2.12l11.78,11.79a1.49,1.49,0,0,1,0,2.12A1.51,1.51,0,0,1,49,296.17Z"/><path class="cls-4" d="M52,58.5A1.5,1.5,0,0,1,50.5,57V40.33a1.5,1.5,0,0,1,3,0V57A1.5,1.5,0,0,1,52,58.5Z"/><path class="cls-4" d="M60.33,50.17H43.67a1.5,1.5,0,0,1,0-3H60.33a1.5,1.5,0,0,1,0,3Z"/><path class="cls-4" d="M441.33,385.5a1.5,1.5,0,0,1-1.5-1.5V367.33a1.5,1.5,0,0,1,3,0V384A1.5,1.5,0,0,1,441.33,385.5Z"/><path class="cls-4" d="M449.67,377.17H433a1.5,1.5,0,0,1,0-3h16.67a1.5,1.5,0,0,1,0,3Z"/><path class="cls-4" d="M108.94,249.06a1.51,1.51,0,0,1-1.06-.44,1.49,1.49,0,0,1,0-2.12l11.79-11.79a1.5,1.5,0,0,1,2.12,2.12L110,248.62A1.51,1.51,0,0,1,108.94,249.06Z"/><path class="cls-4" d="M120.73,249.06a1.49,1.49,0,0,1-1.06-.44l-11.79-11.79a1.49,1.49,0,0,1,0-2.12,1.51,1.51,0,0,1,2.12,0l11.79,11.79a1.51,1.51,0,0,1,0,2.12A1.53,1.53,0,0,1,120.73,249.06Z"/><path class="cls-4" d="M400.61,60.39a1.45,1.45,0,0,1-1.06-.44,1.49,1.49,0,0,1,0-2.12l11.78-11.78a1.5,1.5,0,0,1,2.12,2.12L401.67,60A1.47,1.47,0,0,1,400.61,60.39Z"/><path class="cls-4" d="M412.39,60.39a1.48,1.48,0,0,1-1.06-.44L399.55,48.17a1.5,1.5,0,0,1,2.12-2.12l11.78,11.78a1.49,1.49,0,0,1,0,2.12A1.45,1.45,0,0,1,412.39,60.39Z"/><path class="cls-5" d="M406.06,419.34c0,5.12-69.87,9.27-156.06,9.27s-156.06-4.15-156.06-9.27,69.87-9.26,156.06-9.26S406.06,414.23,406.06,419.34Z"/><polygon class="cls-6" points="245.55 62.74 286.7 124.64 362.69 137.99 320.8 74.6 245.55 62.74"/><polygon class="cls-6" points="245.55 62.74 244.44 63.85 361.58 139.1 362.69 137.99 245.55 62.74"/><polygon class="cls-7" points="244.44 63.85 285.59 125.75 361.58 139.1 319.69 75.71 244.44 63.85"/><path class="cls-6" d="M330.81,120.19l-8.24,13.48-11,18-56.72-37.08c.46-1.06,8-11.63,14-20l7.5-10.37C301.52,84.57,319.72,96.48,330.81,120.19Z"/><path class="cls-8" d="M288.32,85.38a71,71,0,0,0-12-1.14l-7.5,10.37c-6,8.39-13.54,19-14,20l9.35,6.11C271.86,108.86,279.66,96.58,288.32,85.38Z"/><path class="cls-9" d="M330.81,120.19l-8.24,13.48-.1-.31C311.35,96.28,268.9,95.17,268.9,95.17l-.08-.56,7.5-10.37C301.52,84.57,319.72,96.48,330.81,120.19Z"/><path class="cls-10" d="M231,297.09h17.27a11.53,11.53,0,0,1,11.53,11.53v16a11.53,11.53,0,0,1-11.53,11.53H231a11.52,11.52,0,0,1-11.52-11.52v-16A11.52,11.52,0,0,1,231,297.09Z"/><rect class="cls-11" x="211.34" y="274.52" width="56.56" height="54.76" rx="8.9"/><path class="cls-12" d="M320.08,186.38A80.46,80.46,0,1,0,206,259.47v21.3a9.6,9.6,0,0,0,9.6,9.6h48a9.6,9.6,0,0,0,9.6-9.6v-21.3A80.45,80.45,0,0,0,320.08,186.38Z"/><path class="cls-13" d="M268.26,262.73V280.8s-.84,5-8.07,5H242.4S262.7,280.8,268.26,262.73Z"/><path class="cls-13" d="M271.12,120.49a71.74,71.74,0,0,0-95.29,34.79c29.5-25.07,61.46-35.52,95.29-34.79"/><rect class="cls-10" x="213.67" y="293.87" width="50.14" height="0.92"/><rect class="cls-10" x="213.67" y="297.21" width="50.14" height="0.92"/><rect class="cls-10" x="213.67" y="300.54" width="50.14" height="0.92"/><rect class="cls-10" x="213.67" y="303.88" width="50.14" height="0.92"/><rect class="cls-10" x="213.67" y="307.21" width="50.14" height="0.92"/><rect class="cls-10" x="213.67" y="310.55" width="50.14" height="0.92"/><rect class="cls-10" x="213.67" y="313.89" width="50.14" height="0.92"/><rect class="cls-10" x="213.67" y="317.22" width="50.14" height="0.92"/><rect class="cls-10" x="213.67" y="320.56" width="50.14" height="0.92"/><rect class="cls-10" x="213.67" y="323.89" width="50.14" height="0.92"/><path class="cls-14" d="M263.81,294.61v24.11h0c0,.1-.33,6.28-7.51,6.28H246.2a.19.19,0,0,1-.19-.18V294.88a.2.2,0,0,1,.19-.19l17.42-.27A.2.2,0,0,1,263.81,294.61Z"/><rect class="cls-15" x="211.84" y="335.2" width="102.85" height="24.34" rx="1.94"/><path class="cls-16" d="M315,339.08H216a1.94,1.94,0,0,1-1.95-1.94h0A1.94,1.94,0,0,1,216,335.2h99a1.94,1.94,0,0,1,1.94,1.94h0A1.94,1.94,0,0,1,315,339.08Z"/><path class="cls-16" d="M315,355.76H216a1.94,1.94,0,0,1-1.95-1.94h0a1.94,1.94,0,0,1,1.95-1.94h99a1.94,1.94,0,0,1,1.94,1.94h0A1.94,1.94,0,0,1,315,355.76Z"/><rect class="cls-17" x="191.96" y="395.19" width="142.07" height="24.34" rx="1.94"/><rect class="cls-18" x="191.96" y="395.19" width="143.98" height="2.65" rx="0.55"/><rect class="cls-18" x="191.96" y="416.69" width="143.98" height="2.65" rx="0.55"/><rect class="cls-15" x="201.55" y="359.54" width="123.07" height="14.06" rx="1.94"/><rect class="cls-19" x="202.67" y="359.54" width="123.07" height="2.16" rx="0.68"/><rect class="cls-19" x="202.67" y="371.4" width="123.07" height="2.17" rx="0.68"/><rect class="cls-17" x="204.18" y="355.65" width="118.84" height="3.89" rx="0.49"/><rect class="cls-15" x="204.64" y="375.97" width="122.16" height="19.22" rx="1.94"/><path class="cls-20" d="M326.46,395.19H206.58a1.94,1.94,0,0,1-1.94-1.94h0a1.94,1.94,0,0,1,1.94-1.95H326.46a1.94,1.94,0,0,1,1.94,1.95h0A1.94,1.94,0,0,1,326.46,395.19Z"/><path class="cls-20" d="M326.46,377.48H206.58a1.94,1.94,0,0,1-1.94-1.94h0a1.94,1.94,0,0,1,1.94-2H326.46a1.94,1.94,0,0,1,1.94,2h0A1.94,1.94,0,0,1,326.46,377.48Z"/><rect class="cls-16" x="163.19" y="335.2" width="102.85" height="24.34" rx="1.94"/><rect class="cls-18" x="143.3" y="395.19" width="143.98" height="24.34" rx="1.94"/><rect class="cls-19" x="152.9" y="359.54" width="123.07" height="14.06" rx="1.94"/><rect class="cls-20" x="155.53" y="355.65" width="118.84" height="3.89" rx="1"/><rect class="cls-20" x="155.99" y="373.59" width="123.76" height="21.6" rx="1.94"/><rect class="cls-16" x="160.68" y="359.62" width="5.7" height="13.76"/><rect class="cls-2" x="165.54" y="373.38" width="12.23" height="21.69"/><rect class="cls-2" x="184.17" y="377.27" width="0.92" height="14.46"/><rect class="cls-2" x="155.35" y="407.59" width="104.35" height="2.76"/><rect class="cls-2" x="171.2" y="363.18" width="0.92" height="5.56"/><rect class="cls-21" x="166.02" y="355.59" width="2.76" height="3.89"/><rect class="cls-21" x="172.51" y="335.38" width="2.76" height="19.83"/><rect class="cls-2" x="183.89" y="344.57" width="66.17" height="2.76"/><path class="cls-22" d="M353.73,372.24l-6.87,1.67-6.49,8.34,9.74,2.51s6.84,1.56,6.95-1.76A26.87,26.87,0,0,0,353.73,372.24Z"/><path class="cls-23" d="M350.32,365.34a25.77,25.77,0,0,1-4.86,2.69,14.91,14.91,0,0,1-5.52,1.26,9.35,9.35,0,0,1-1.48-.13,10.87,10.87,0,0,1-1.4-.37c-.83-.28-1.66-.59-2.48-.92a27.56,27.56,0,0,1-4.72-2.46.55.55,0,0,1,.56-1l0,0a25.5,25.5,0,0,0,4.69,1.73c.81.23,1.63.42,2.45.59a9,9,0,0,0,1.13.16,10.05,10.05,0,0,0,1.09,0,12.25,12.25,0,0,0,4.33-1.6,22.69,22.69,0,0,0,3.85-2.79l0,0a1.83,1.83,0,0,1,2.47,2.71Z"/><path class="cls-20" d="M354.89,366.8a25.81,25.81,0,0,1-.13-4.49,1.23,1.23,0,0,1-.5,0,1.33,1.33,0,0,1-.78-1.92h0s0,0,0-.05l-1.63.12s-5.05,3.42-5.5,6a25.07,25.07,0,0,0,.35,6.69,20.67,20.67,0,0,1,4.41-.39h0a2.58,2.58,0,0,1,.3-.94,2.49,2.49,0,0,1,1.44-1.3,1.11,1.11,0,0,1,.93.26,1.13,1.13,0,0,1,.78-.1l.66-3.21A.86.86,0,0,1,354.89,366.8Z"/><rect class="cls-24" x="351.26" y="352.02" width="2.91" height="11.13"/><path class="cls-24" d="M348.23,351.31c-.75,2.85-.12,5.48,2.74,6.22a5.33,5.33,0,1,0,2.69-10.32C350.81,346.47,349,348.46,348.23,351.31Z"/><path class="cls-22" d="M351,357.09s4.16-6,3.88-6L348,349.26s2.67-5.45,9.56-1.61c4.31,2.39,5,8.92,2.62,11.16C358.76,360.16,351,357.09,351,357.09Z"/><path class="cls-22" d="M346.45,383.32l-17.07-4.45,1.85-1.69,1,16.9a.52.52,0,0,1-.49.54.5.5,0,0,1-.53-.42l-3.06-16.65a1.48,1.48,0,0,1,1.18-1.72,1.46,1.46,0,0,1,.51,0l.16,0,17.4,3a2.3,2.3,0,0,1-.77,4.53Z"/><path class="cls-22" d="M354.23,381v2.51c0,.85,0,1.62,0,2.43l.1,4.8.22,10.05-.16-.64,7,17.74a.55.55,0,0,1-1,.47l-9.14-16.74a1.31,1.31,0,0,1-.15-.5V401l-.78-10.05-.38-5.25-.31-5.12a2.28,2.28,0,1,1,4.56-.29V381Z"/><path class="cls-20" d="M356.59,361.41c1.38,2.17,2.64,4.34,3.81,6.64a24.08,24.08,0,0,1,1.56,3.68,6.45,6.45,0,0,1,.27,1.11,3.21,3.21,0,0,1-.09,1.62,2.08,2.08,0,0,1-.9,1.07,4.2,4.2,0,0,1-.8.25,8.79,8.79,0,0,1-1.18.09,50.6,50.6,0,0,1-7.6-1.06c-2.46-.49-4.9-1-7.33-1.63a.55.55,0,0,1-.41-.67.55.55,0,0,1,.62-.42c2.46.36,4.93.67,7.39.93a48.55,48.55,0,0,0,7.25.34,6.06,6.06,0,0,0,.68-.11s.15-.05.09,0a.77.77,0,0,0-.35.35c-.05.16,0,0-.09-.22a5.21,5.21,0,0,0-.24-.69,23,23,0,0,0-1.66-3.05c-1.28-2-2.73-4.05-4.2-6l0,0a2,2,0,0,1,3.1-2.38Z"/><path class="cls-20" d="M352.8,360.31c1.9,0,3.89,1,3.89,4.24s-3,7.69-3,7.69h-5.59l1.6-9.49Z"/><path class="cls-23" d="M354.78,360.49l-.63-1.32-2.39,1s-1.08,2.33-1,2.3S354.78,360.49,354.78,360.49Z"/><polygon class="cls-23" points="351.2 360.07 350.47 360.17 348.98 362.33 349.67 362.12 351.23 360.87 351.2 360.07"/><polygon class="cls-20" points="353.73 372.24 346.86 373.91 346.47 371.09 354.43 370.91 353.73 372.24"/><path class="cls-20" d="M332.94,395c0-.27-.27-4.26-.27-4.26l-3.71-.09,1.57,3.33s-1.29.28-1.39,1S332.94,395,332.94,395Z"/><path class="cls-20" d="M362,417.31s-.65-2.78-.93-2.69l-3.7,1.3,3.05,3.52s-1.57.37-1.66,1,3.61,0,3.61,0Z"/><path class="cls-24" d="M344.88,372.13l-.14,1.25-2.85.28s-.42-2.71.83-2.44A6.81,6.81,0,0,1,344.88,372.13Z"/><path class="cls-24" d="M329.86,365.41c-.48,0-2.71-1.48-2.71-1.48s.7-2.64,2-1.88a2.92,2.92,0,0,1,1.29,2.43Z"/><path class="cls-24" d="M348.23,351.31c-.3.24-1.9,1.15-1.9,1.15l2.16,1.39.69-2.43Z"/><path class="cls-25" d="M194.57,304.8a18.58,18.58,0,0,0,3.68,2.69,9,9,0,0,0,4.17,1.26,6.09,6.09,0,0,0,1.12-.12,7.65,7.65,0,0,0,1.06-.38c.63-.28,1.26-.59,1.88-.92a19.74,19.74,0,0,0,3.57-2.45.69.69,0,0,0,.11-.78.36.36,0,0,0-.54-.18l0,0a17.11,17.11,0,0,1-3.54,1.74c-.62.22-1.24.41-1.86.58a5.2,5.2,0,0,1-.85.16,4.52,4.52,0,0,1-.82-.05,7.91,7.91,0,0,1-3.27-1.6,17.91,17.91,0,0,1-2.92-2.79l0,0a1.16,1.16,0,0,0-2,.11,2.26,2.26,0,0,0,.09,2.59Z"/><path class="cls-16" d="M191.3,307a24,24,0,0,0,.13-4.49,1.22,1.22,0,0,0,.5,0,1.32,1.32,0,0,0,.78-1.92h0l0,0,1.64.11s2.82,1.2,3.27,3.74c.34,1.9,2.12,7.39,1.88,8.92a20.67,20.67,0,0,0-4.41-.39h0a2.59,2.59,0,0,0-.3-.93,2.47,2.47,0,0,0-1.45-1.3,1.1,1.1,0,0,0-.92.25,1.14,1.14,0,0,0-.78-.1l-.66-3.2A.84.84,0,0,0,191.3,307Z"/><rect class="cls-24" x="192.02" y="292.25" width="2.91" height="11.13"/><path class="cls-24" d="M198,291.53c.74,2.85.11,5.48-2.74,6.23a5.33,5.33,0,0,1-2.7-10.32C195.38,286.69,197.22,288.68,198,291.53Z"/><path class="cls-22" d="M196,326.88c.14-.21,5.63-4.38,5.63-4.38l-1.32-.69-4.52-2.92-2.22,3.75,2.57,4"/><path class="cls-22" d="M195.16,319.05l17.4-3,.16,0a1.49,1.49,0,0,1,1.7,1.21,1.51,1.51,0,0,1,0,.52l-3.07,16.65a.51.51,0,0,1-1-.13l1-16.9,1.86,1.7-17.08,4.44a2.3,2.3,0,0,1-1.16-4.45Z"/><path class="cls-22" d="M196.54,320.75c0,.27,0,1.3,0,1.57l-.08,1.23-.18,2.45-.38,4.87-.78,9.74v.14a1.44,1.44,0,0,1-.16.52l-9.14,16.2a.54.54,0,0,1-.75.21.56.56,0,0,1-.24-.69l7-17.23-.17.66.23-9.75.1-4.88,0-2.43v-1.2c0-.54,0-.33,0-.87l0-.44a2.29,2.29,0,1,1,4.58-.2Z"/><path class="cls-16" d="M191,301.49c-1.38,2.18-2.65,4.34-3.82,6.65a26.12,26.12,0,0,0-1.56,3.67,8,8,0,0,0-.26,1.12,3.21,3.21,0,0,0,.09,1.62,2,2,0,0,0,.9,1.06,3.13,3.13,0,0,0,.8.25,7.48,7.48,0,0,0,1.17.1,49.64,49.64,0,0,0,7.61-1.07q3.69-.74,7.33-1.62a.55.55,0,0,0,.41-.67.56.56,0,0,0-.62-.42c-2.46.36-4.93.67-7.39.93a49.92,49.92,0,0,1-7.25.34,4.25,4.25,0,0,1-.68-.12s-.15-.05-.09,0a.85.85,0,0,1,.34.36c.05.16,0,0,.1-.23a4.33,4.33,0,0,1,.24-.68A22.57,22.57,0,0,1,190,309.7c1.28-2,2.73-4,4.2-5.95l0,0a2,2,0,0,0-3.1-2.39Z"/><path class="cls-16" d="M193.4,300.54c-1.9,0-3.89,1-3.89,4.24s3,7.69,3,7.69h5.59l-1.6-9.5Z"/><path class="cls-19" d="M212.05,334.18l.07-.14c-.81,0-1.61,0-2.41,0,0,.59-.07,1-.07,1.13s3.89.74,3.8,0S212.05,334.18,212.05,334.18Z"/><path class="cls-19" d="M185.82,358.49l.28-.31a17.85,17.85,0,0,1-1.94-.52h-.06l-.22,1.83s3.71.63,3.61,0S185.82,358.49,185.82,358.49Z"/><path class="cls-24" d="M202.71,312.21l.14,1.26,2.85.27s.42-2.71-.83-2.43A6.93,6.93,0,0,0,202.71,312.21Z"/><path class="cls-24" d="M210.05,304.88c.36,0,2-1.49,2-1.49s-.53-2.64-1.53-1.88a3.38,3.38,0,0,0-1,2.43Z"/><path class="cls-24" d="M198,291.6c.3.25,1.89,1.15,1.89,1.15l-2.15,1.39-.7-2.43Z"/><path class="cls-22" d="M188.37,289.05s3.06-3.06,6.95-2.32,1.21,3.71-.18,4.91-4.82,5-4.82,5S184.76,292.66,188.37,289.05Z"/><path class="cls-22" d="M191.87,297.62c.2.07.49-7.16.49-7.16l-4.59,3.2A6.91,6.91,0,0,0,191.87,297.62Z"/><path class="cls-16" d="M190.06,306.72c.07.17.35,13.17.35,13.17a32.34,32.34,0,0,0,6.81-.17,8.64,8.64,0,0,0,4.52-1.79l-3.06-9.08Z"/><polygon class="cls-16" points="191.8 300.75 191.94 299.22 195.28 299.77 195.21 302.62 192.15 301.51 191.8 300.75"/></g></g></svg>