<svg id="eiu7kr7uocsq1" xmlns="http://www.w3.org/2000/svg" xmlns:xlink="http://www.w3.org/1999/xlink" viewBox="0 0 193.920000 198.960000" shape-rendering="geometricPrecision" text-rendering="geometricPrecision"><style><![CDATA[#eiu7kr7uocsq2 {animation: eiu7kr7uocsq2_c_o 2000ms linear infinite normal forwards}@keyframes eiu7kr7uocsq2_c_o { 0% {opacity: 0} 25% {opacity: 1} 75% {opacity: 1} 100% {opacity: 0} }#eiu7kr7uocsq5 {animation: eiu7kr7uocsq5_c_o 2000ms linear infinite normal forwards}@keyframes eiu7kr7uocsq5_c_o { 0% {opacity: 0} 25% {opacity: 0;animation-timing-function: cubic-bezier(0,0,0.580000,1)} 75% {opacity: 1} 100% {opacity: 0} }]]></style><g id="eiu7kr7uocsq2" opacity="0"><path id="eiu7kr7uocsq3" d="M325.150000,139.780000C325.150000,139.780000,324.900000,140.260000,324.440000,141.180000C323.980000,142.100000,323.310000,143.440000,322.440000,145.130000C321.570000,146.820000,320.390000,148.830000,319.080000,151.130000C317.770000,153.430000,316.130000,155.980000,314.380000,158.760000C312.630000,161.540000,310.530000,164.430000,308.170000,167.360000L306.420000,169.630000C305.790000,170.360000,305.160000,171.110000,304.530000,171.870000L302.590000,174.160000L300.510000,176.400000L298.390000,178.670000L296.150000,180.880000C294.670000,182.390000,293.060000,183.810000,291.460000,185.250000C289.860000,186.690000,288.140000,188.030000,286.460000,189.430000C284.780000,190.830000,283.020000,192.120000,281.220000,193.350000C277.670000,195.910000,273.940000,198.190000,270.220000,200.350000C266.500000,202.510000,262.760000,204.400000,259.130000,206.220000C255.500000,208.040000,251.940000,209.650000,248.610000,211.220000C245.280000,212.790000,242.160000,214.380000,239.410000,216.020000C236.894741,217.484758,234.527051,219.189361,232.340000,221.110000C231.447051,221.935572,230.614887,222.824550,229.850000,223.770000C229.179950,224.563550,228.574673,225.409600,228.040000,226.300000C227.265752,227.545058,226.619142,228.865080,226.110000,230.240000L225.560000,231.710000C225.560000,231.710000,225.700000,231.180000,225.970000,230.200000C226.116282,229.582589,226.310196,228.977443,226.550000,228.390000C226.690000,228.040000,226.840000,227.670000,227.010000,227.270000L227.260000,226.660000C227.360000,226.450000,227.480000,226.250000,227.600000,226.040000C228.086521,225.089956,228.648316,224.180384,229.280000,223.320000C230.002020,222.290653,230.797421,221.314782,231.660000,220.400000C233.779543,218.254498,236.126753,216.346551,238.660000,214.710000C241.400000,212.890000,244.500000,211.180000,247.790000,209.440000L258.150000,204.080000C261.720000,202.220000,265.370000,200.220000,269.010000,198.080000C272.650000,195.940000,276.270000,193.650000,279.730000,191.080000C281.520000,189.890000,283.180000,188.540000,284.900000,187.270000C286.620000,186,288.240000,184.620000,289.820000,183.210000C291.400000,181.800000,293,180.450000,294.480000,179L296.730000,176.870000L298.860000,174.680000L300.950000,172.530000L302.950000,170.330000L304.890000,168.190000L306.690000,166.020000C309.100000,163.200000,311.200000,160.370000,313.180000,157.790000L315.890000,153.990000L317.150000,152.230000L318.280000,150.520000C319.730000,148.310000,321.070000,146.420000,322.030000,144.760000C322.990000,143.100000,323.820000,141.870000,324.360000,141Z" transform="matrix(1 0 0 1 -183.50000000000000 -42.60000000000000)" fill="rgb(241,90,36)" stroke="rgb(241,90,36)" stroke-width="3.090000" stroke-miterlimit="10"/><path id="eiu7kr7uocsq4" d="M247.780000,209.510000C252.209285,206.259180,256.302922,202.574236,260,198.510000C263.665221,194.413088,266.698619,189.792211,269,184.800000C270.160000,182.310000,271.100000,179.730000,272.090000,177.130000C272.590000,175.830000,273.090000,174.520000,273.710000,173.230000C274.311139,171.893628,275.121286,170.661528,276.110000,169.580000C276.632076,169.034612,277.223853,168.560518,277.870000,168.170000C278.190340,167.972748,278.524548,167.798960,278.870000,167.650000L279.390000,167.440000C279.632815,167.329903,279.893841,167.265494,280.160000,167.250000C280.401389,167.257500,280.634899,167.337660,280.830000,167.480000C280.988359,167.590706,281.121311,167.733885,281.220000,167.900000C281.349594,168.123229,281.440859,168.366601,281.490000,168.620000C281.569571,169.008492,281.613090,169.403503,281.620000,169.800000C281.640538,170.523886,281.620507,171.248355,281.560000,171.970000C281.450000,173.380000,279.940000,175.220000,279.780000,176.590000C279.700000,177.260000,281.230000,174.320000,281.210000,174.900000C281.210000,174.960000,281.040000,171.900000,281.040000,171.900000L280.930000,178.240000L281.300000,175.090000C281.300000,175.090000,280.220000,171.550000,280.820000,169.820000C280.170000,171.460000,280.770000,177.820000,280.610000,177.820000C280.509012,177.768526,280.401292,177.731497,280.290000,177.710000C280.105159,177.688692,279.919157,177.738769,279.770000,177.850000C279.610000,177.990000,279.700000,177.930000,279.710000,177.850000L279.820000,177.640000L280.320000,176.730000C285.658608,166.967600,291.739861,157.630086,298.510000,148.800000C305.247397,139.971084,312.623890,131.648715,320.580000,123.900000C322.580000,121.960000,324.580000,120.060000,326.660000,118.220000C327.660000,117.290000,328.750000,116.380000,329.820000,115.490000C330.350000,115.040000,330.900000,114.600000,331.450000,114.170000L332.310000,113.510000L332.560000,113.340000L332.720000,113.240000L332.780000,113.240000L332.880000,113.240000C333.064496,113.136999,333.269274,113.075566,333.480000,113.060000C333.821097,113.076778,334.136705,113.245592,334.340000,113.520000C334.440313,113.644122,334.515082,113.786862,334.560000,113.940000L334.890000,114.590000C335.985850,117.115641,336.891698,119.719538,337.600000,122.380000C338.334389,125.118481,338.852648,127.910392,339.150000,130.730000C339.783021,136.422574,339.376417,142.182798,337.950000,147.730000C336.498708,153.225699,334.186776,158.457079,331.100000,163.230000C328.057717,167.951377,324.465940,172.295078,320.400000,176.170000C316.388223,180.018002,312.078090,183.542347,307.510000,186.710000C302.977781,189.864376,298.255500,192.736485,293.370000,195.310000C288.684133,197.776972,283.859398,199.970641,278.920000,201.880000L278.500000,201.340000C279.048436,201.955147,279.319660,202.768821,279.250000,203.590000C279.122644,204.367341,278.726227,205.075227,278.130000,205.590000C277.595898,206.076972,276.996863,206.487547,276.350000,206.810000C275.725889,207.126532,275.081084,207.400491,274.420000,207.630000C273.113842,208.084003,271.777163,208.444906,270.420000,208.710000C269.080000,209,267.730000,209.210000,266.420000,209.400000C265.750000,209.500000,265.070000,209.560000,264.420000,209.650000C263.770000,209.740000,263.070000,209.780000,262.420000,209.850000C261.060000,209.970000,259.710000,210.060000,258.350000,210.140000C255.630000,210.300000,252.920000,210.350000,250.200000,210.400000C252.910000,210.260000,255.630000,210.120000,258.330000,209.870000C259.680000,209.750000,261.040000,209.620000,262.380000,209.450000C263.050000,209.360000,263.730000,209.300000,264.380000,209.200000C265.030000,209.100000,265.720000,209.020000,266.380000,208.900000C267.720000,208.680000,269.050000,208.440000,270.380000,208.120000C271.695767,207.829420,272.989066,207.445106,274.250000,206.970000C274.877608,206.737793,275.488974,206.463848,276.080000,206.150000C276.653186,205.843034,277.184259,205.463216,277.660000,205.020000C278.105904,204.619050,278.396243,204.073781,278.480000,203.480000C278.514606,202.913106,278.315895,202.356715,277.930000,201.940000L277.490000,201.450000L278.100000,201.200000C283.116530,199.088203,288.004919,196.684077,292.740000,194C297.515475,191.353320,302.127163,188.421342,306.550000,185.220000C310.975524,182.005351,315.138624,178.444145,319,174.570000C322.853487,170.724388,326.270836,166.465278,329.190000,161.870000C332.092208,157.282045,334.248960,152.263124,335.580000,147C336.874182,141.770919,337.233045,136.354110,336.640000,131C336.349144,128.297579,335.844225,125.622510,335.130000,123C334.411610,120.392554,333.526454,117.833952,332.480000,115.340000L332.290000,114.860000C331.770000,114.720000,335.290000,116.260000,334.010000,115.530000L334.010000,115.530000L333.960000,115.530000L333.780000,115.650000L333,116.250000C332.470000,116.660000,331.950000,117.090000,331.430000,117.520000C330.380000,118.390000,329.350000,119.280000,328.330000,120.190000C326.280000,122,324.280000,123.860000,322.330000,125.760000Q316.420000,131.470000,310.930000,137.620000Q305.440000,143.770000,300.310000,150.230000Q295.230000,156.730000,290.560000,163.550000Q285.890000,170.370000,281.760000,177.550000L281.240000,178.450000L281.100000,178.690000C281.006626,178.862313,280.881016,179.015082,280.730000,179.140000C280.550499,179.285462,280.319009,179.350569,280.090000,179.320000C279.807538,179.292691,279.558606,179.122965,279.430000,178.870000C279.380956,178.785553,279.343933,178.694677,279.320000,178.600000C279.316997,178.550045,279.316997,178.499955,279.320000,178.450000C279.311486,178.323476,279.311486,178.196524,279.320000,178.070000C279.320000,177.270000,279.450000,176.610000,279.530000,175.910000C279.700000,174.520000,279.880000,173.160000,279.990000,171.810000C280.056181,171.145501,280.082894,170.477662,280.070000,169.810000C280.066501,169.538652,280.043105,169.267926,280,169C279.989835,168.915414,279.962620,168.833768,279.920000,168.760000C279.920000,168.710000,280.010000,168.870000,280.170000,168.860000C280.330000,168.850000,280.070000,168.860000,279.960000,168.950000C279.850000,169.040000,279.670000,169.060000,279.520000,169.110000C278.663184,169.478353,277.883037,170.004104,277.220000,170.660000C275.440000,172.470000,274.440000,175.100000,273.400000,177.660000C272.360000,180.220000,271.310000,182.820000,270.050000,185.320000C267.562077,190.320861,264.335976,194.918983,260.480000,198.960000C256.636436,202.921047,252.378703,206.457983,247.780000,209.510000Z" transform="matrix(1 0 0 1 -183.50000000000000 -42.60000000000000)" fill="rgb(241,90,36)" stroke="rgb(241,90,36)" stroke-width="1.550000" stroke-miterlimit="10"/></g><path id="eiu7kr7uocsq5" d="M225.890000,229.450000C284.480000,255.450000,349.990000,227.060000,369.210000,175.750000C386,130.910000,366.370000,71.390000,316.700000,51.380000C270.500000,32.770000,218.310000,56.380000,196.700000,96.380000C174.700000,137.120000,192.610000,179.540000,195.120000,185.220000" transform="matrix(1 0 0 0.99293930560485 -183.49936223000000 -42.60000000000000)" opacity="0" fill="none" stroke="rgb(241,90,36)" stroke-width="4.640000" stroke-miterlimit="10"/></svg>